<svg id="asap-logo" xmlns="http://www.w3.org/2000/svg" width="90" height="41.3" viewBox="0 0 90 41.3">
  <title>ASAP-Logo</title>
  <g>
    <path d="M22.58,45.63L20.76,35.46h-8.4L10.53,45.63H5l8.63-40h6.74l8,40H22.58ZM16.77,11.58L13.18,30.82H20Z" transform="translate(-5 -5)" fill="#fff"/>
    <path d="M48.18,36.4q0,9.9-9.29,9.9-5.53,0-7.69-3.59Q29.55,40,29.55,34h5.64a20.68,20.68,0,0,0,.5,5.53A3.14,3.14,0,0,0,38.84,42q3.7,0,3.7-5.64a8,8,0,0,0-2.76-6l-5.14-4.87a15.48,15.48,0,0,1-3.81-5,15.34,15.34,0,0,1-.88-5.81q0-4.7,2.4-7.16T39.22,5q5.25,0,7.3,3.37,1.66,2.65,1.66,8.07H42.65A14.43,14.43,0,0,0,41.9,11a2.78,2.78,0,0,0-2.79-1.66q-3.65,0-3.65,5.31a9.26,9.26,0,0,0,3.15,6.8l6.25,6.19A11.77,11.77,0,0,1,48.18,36.4Z" transform="translate(-5 -5)" fill="#fff"/>
    <path d="M67.47,45.63L65.65,35.46h-8.4L55.42,45.63H49.89l8.63-40h6.74l8,40H67.47ZM61.66,11.58L58.07,30.82h6.8Z" transform="translate(-5 -5)" fill="#fff"/>
    <path d="M95,17.05q0,6.42-2,8.79t-7.3,2.38H81.4V45.63H75.87v-40H85.6q5.08,0,7.24,2.49T95,17.05Zm-5.64,0q0-4.09-1.05-5.47a3.79,3.79,0,0,0-3.26-1.27H81.4V23.58h3.7a3.64,3.64,0,0,0,3.32-1.46Q89.36,20.65,89.36,17.05Z" transform="translate(-5 -5)" fill="#fff"/>
  </g>
</svg>
