<?xml version="1.0" encoding="UTF-8" standalone="no"?><!DOCTYPE svg PUBLIC "-//W3C//DTD SVG 1.1//EN" "http://www.w3.org/Graphics/SVG/1.1/DTD/svg11.dtd"><svg width="100%" height="100%" viewBox="0 0 219 723" version="1.1" xmlns="http://www.w3.org/2000/svg" xmlns:xlink="http://www.w3.org/1999/xlink" xml:space="preserve" style="fill-rule:evenodd;clip-rule:evenodd;stroke-linejoin:round;stroke-miterlimit:1.41421;"><path d="M23.154,2.171l-10.013,11.689l-2.284,2.839l-2.81,-2.338l-5.446,-4.174l2.459,-2.839l5.27,4.341l9.837,-11.689l2.987,2.171Z" style="fill:#444;"/><path d="M87.154,2.171l-10.013,11.689l-2.284,2.839l-2.81,-2.338l-5.446,-4.174l2.459,-2.839l5.27,4.341l9.837,-11.689l2.987,2.171Z" style="fill:#c82027;"/><path d="M151.154,2.171l-10.013,11.689l-2.284,2.839l-2.81,-2.338l-5.446,-4.174l2.459,-2.839l5.27,4.341l9.837,-11.689l2.987,2.171Z" style="fill:#0a8345;"/><path d="M215.154,2.171l-10.013,11.689l-2.284,2.839l-2.81,-2.338l-5.446,-4.174l2.459,-2.839l5.27,4.341l9.837,-11.689l2.987,2.171Z" style="fill:#1f7fc3;"/><path d="M19.846,64.025c0.246,0.016 0.483,0.075 0.702,0.193c0.405,0.219 0.702,0.616 0.774,1.074c0.019,0.122 0.022,0.247 0.009,0.37c-0.015,0.149 -0.054,0.295 -0.115,0.431c-0.083,0.187 -0.204,0.347 -0.351,0.489l-5.157,4.728l5.157,4.728c0.054,0.052 0.053,0.051 0.103,0.105c0.133,0.156 0.238,0.328 0.302,0.524c0.053,0.165 0.076,0.34 0.067,0.513c-0.009,0.175 -0.05,0.346 -0.121,0.505c-0.061,0.14 -0.146,0.27 -0.247,0.384c-0.418,0.47 -1.101,0.641 -1.697,0.449c-0.216,-0.069 -0.408,-0.184 -0.579,-0.333l-5.243,-4.805l-5.243,4.805c-0.056,0.049 -0.056,0.049 -0.113,0.094c-0.185,0.131 -0.386,0.228 -0.607,0.278c-0.613,0.137 -1.282,-0.094 -1.652,-0.608c-0.089,-0.123 -0.158,-0.259 -0.205,-0.403c-0.053,-0.166 -0.076,-0.34 -0.067,-0.514c0.009,-0.174 0.05,-0.346 0.121,-0.505c0.083,-0.187 0.204,-0.348 0.35,-0.489l5.159,-4.728l-5.158,-4.728c-0.054,-0.051 -0.053,-0.051 -0.104,-0.105c-0.132,-0.157 -0.237,-0.328 -0.301,-0.524c-0.053,-0.165 -0.076,-0.34 -0.067,-0.513c0.009,-0.174 0.05,-0.346 0.121,-0.506c0.061,-0.14 0.146,-0.269 0.247,-0.383c0.418,-0.47 1.102,-0.641 1.697,-0.45c0.216,0.07 0.409,0.185 0.579,0.333l5.243,4.806l5.243,-4.806c0.056,-0.048 0.056,-0.048 0.113,-0.093c0.083,-0.059 0.168,-0.113 0.26,-0.157c0.178,-0.086 0.367,-0.133 0.562,-0.155c0.073,-0.004 0.145,-0.006 0.218,-0.004l0,0Z" style="fill:#444;"/><path d="M9.87,262.41l7.18,0l0,-2.69c0,0 0,0 0,0c0,-1.969 -1.621,-3.59 -3.59,-3.59c-0.003,0 -0.007,0 -0.01,0c-1.969,0 -3.59,1.621 -3.59,3.59l0,2.69l0.01,0Zm11.67,1.35l0,8.08c0,0.003 0,0.007 0,0.01c0,0.735 -0.605,1.34 -1.34,1.34c-0.003,0 -0.007,0 -0.01,0l-13.47,0c-0.003,0 -0.007,0 -0.01,0c-0.735,0 -1.34,-0.605 -1.34,-1.34c0,-0.003 0,-0.007 0,-0.01l0,-8.08c0,-0.003 0,-0.007 0,-0.01c0,-0.735 0.605,-1.34 1.34,-1.34c0.003,0 0.007,0 0.01,0l0.45,0l0,-2.69c-0.021,-1.662 0.649,-3.26 1.85,-4.41c1.17,-1.186 2.769,-1.855 4.435,-1.855c1.666,0 3.265,0.669 4.435,1.855c1.206,1.154 1.877,2.761 1.85,4.43l0,2.69l0.45,0c0.003,0 0.007,0 0.01,0c0.735,0 1.34,0.605 1.34,1.34c0,0.003 0,0.007 0,0.01l0,-0.02Z" style="fill:#444;fill-rule:nonzero;"/><path d="M25.13,323.72l0,3.59c-0.005,0.492 -0.408,0.895 -0.9,0.9l-0.9,0c-0.484,-0.016 -0.875,-0.416 -0.88,-0.9l0,-3.59c0,-0.001 0,-0.002 0,-0.003c0,-1.969 -1.621,-3.59 -3.59,-3.59c-0.952,0 -1.867,0.379 -2.54,1.053c-0.685,0.665 -1.066,1.585 -1.05,2.54l0,2.69l1.35,0c0.003,0 0.007,0 0.01,0c0.735,0 1.34,0.605 1.34,1.34c0,0.003 0,0.007 0,0.01l0,8.08c0,0.003 0,0.007 0,0.01c0,0.735 -0.605,1.34 -1.34,1.34c-0.003,0 -0.007,0 -0.01,0l-13.49,0c-0.003,0 -0.007,0 -0.01,0c-0.735,0 -1.34,-0.605 -1.34,-1.34c0,-0.003 0,-0.007 0,-0.01l0,-8.08c0,-0.003 0,-0.007 0,-0.01c0,-0.735 0.605,-1.34 1.34,-1.34c0.003,0 0.007,0 0.01,0l9.43,0l0,-2.69c0.005,-3.449 2.841,-6.285 6.29,-6.29c3.445,0.011 6.275,2.845 6.28,6.29l0,0Z" style="fill:#444;fill-rule:nonzero;"/><path d="M22.13,127.06c0.149,0.294 0.079,0.654 -0.17,0.87l-6.12,6.12l0,9.2c0.016,0.321 -0.179,0.617 -0.48,0.73c-0.099,0.039 -0.204,0.059 -0.31,0.06c-0.224,0.019 -0.446,-0.066 -0.6,-0.23l-3.18,-3.18c-0.155,-0.145 -0.242,-0.348 -0.24,-0.56l0,-6l-6.12,-6.12c-0.249,-0.216 -0.319,-0.576 -0.17,-0.87c0.113,-0.301 0.409,-0.496 0.73,-0.48l15.93,0c0.321,-0.016 0.617,0.179 0.73,0.48l0,-0.02Z" style="fill:#444;fill-rule:nonzero;"/><path d="M6.45,207.01l14.07,0l0,-10.27l-14.07,0l0,10.27Zm3.85,-12.19l0,-2.89c0,-0.003 0,-0.007 0,-0.01c0,-0.17 -0.14,-0.31 -0.31,-0.31c-0.003,0 -0.007,0 -0.01,0l-0.69,0c-0.003,0 -0.007,0 -0.01,0c-0.17,0 -0.31,0.14 -0.31,0.31c0,0.003 0,0.007 0,0.01l0,2.89c0,0.003 0,0.007 0,0.01c0,0.17 0.14,0.31 0.31,0.31c0.003,0 0.007,0 0.01,0l0.64,0c0.003,0 0.007,0 0.01,0c0.17,0 0.31,-0.14 0.31,-0.31c0,-0.003 0,-0.007 0,-0.01l0.05,0Zm7.7,0l0,-2.89c0,-0.003 0,-0.007 0,-0.01c0,-0.17 -0.14,-0.31 -0.31,-0.31c-0.003,0 -0.007,0 -0.01,0l-0.69,0c-0.003,0 -0.007,0 -0.01,0c-0.17,0 -0.31,0.14 -0.31,0.31c0,0.003 0,0.007 0,0.01l0,2.89c0,0.003 0,0.007 0,0.01c0,0.17 0.14,0.31 0.31,0.31c0.003,0 0.007,0 0.01,0l0.64,0c0.003,0 0.007,0 0.01,0c0.17,0 0.31,-0.14 0.31,-0.31c0,-0.003 0,-0.007 0,-0.01l0.05,0Zm3.85,-0.64l0,12.831c0,0.713 -0.587,1.3 -1.3,1.3c-0.013,0 -0.027,-0.001 -0.04,-0.001l-14.06,0c-0.698,-0.011 -1.269,-0.582 -1.28,-1.28l0,-12.85c0.011,-0.698 0.582,-1.269 1.28,-1.28l1.28,0l0,-1c0.005,-0.876 0.724,-1.595 1.6,-1.6l0.64,0c0.876,0.005 1.595,0.724 1.6,1.6l0,1l3.85,0l0,-1c0.005,-0.876 0.724,-1.595 1.6,-1.6l0.64,0c0.876,0.005 1.595,0.724 1.6,1.6l0,1l1.28,0c0.691,0.021 1.25,0.589 1.26,1.28l0.05,0Z" style="fill:#444;fill-rule:nonzero;"/><path d="M13.97,648.02l-10.2,10.19c-0.162,0.169 -0.386,0.264 -0.62,0.264c-0.234,0 -0.458,-0.095 -0.62,-0.264l-2.28,-2.28c-0.169,-0.162 -0.264,-0.386 -0.264,-0.62c0,-0.234 0.095,-0.458 0.264,-0.62l7.29,-7.29l-7.29,-7.29c-0.169,-0.162 -0.264,-0.386 -0.264,-0.62c0,-0.234 0.095,-0.458 0.264,-0.62l2.28,-2.28c0.162,-0.169 0.386,-0.264 0.62,-0.264c0.234,0 0.458,0.095 0.62,0.264l10.19,10.19c0.172,0.162 0.269,0.389 0.269,0.625c0,0.231 -0.093,0.453 -0.259,0.615Z" style="fill:#444;fill-rule:nonzero;"/><path d="M20.69,455.93l-10.24,10.19c-0.162,0.169 -0.386,0.264 -0.62,0.264c-0.234,0 -0.458,-0.095 -0.62,-0.264l-2.28,-2.28c-0.169,-0.162 -0.264,-0.386 -0.264,-0.62c0,-0.234 0.095,-0.458 0.264,-0.62l7.34,-7.29l-7.29,-7.29c-0.169,-0.162 -0.264,-0.386 -0.264,-0.62c0,-0.234 0.095,-0.458 0.264,-0.62l2.28,-2.28c0.162,-0.169 0.386,-0.264 0.62,-0.264c0.234,0 0.458,0.095 0.62,0.264l10.19,10.19c0.169,0.162 0.264,0.386 0.264,0.62c0,0.234 -0.095,0.458 -0.264,0.62Z" style="fill:#444;fill-rule:nonzero;"/><path d="M6.26,390.69l10.19,-10.19c0.162,-0.169 0.386,-0.264 0.62,-0.264c0.234,0 0.458,0.095 0.62,0.264l2.28,2.28c0.169,0.162 0.264,0.386 0.264,0.62c0,0.234 -0.095,0.458 -0.264,0.62l-7.29,7.29l7.29,7.29c0.169,0.162 0.264,0.386 0.264,0.62c0,0.234 -0.095,0.458 -0.264,0.62l-2.28,2.28c-0.162,0.169 -0.386,0.264 -0.62,0.264c-0.234,0 -0.458,-0.095 -0.62,-0.264l-10.19,-10.19c-0.169,-0.162 -0.264,-0.386 -0.264,-0.62c0,-0.234 0.095,-0.458 0.264,-0.62Z" style="fill:#444;fill-rule:nonzero;"/><path d="M26.84,648.02l-10.2,10.19c-0.162,0.169 -0.386,0.264 -0.62,0.264c-0.234,0 -0.458,-0.095 -0.62,-0.264l-2.28,-2.28c-0.169,-0.162 -0.264,-0.386 -0.264,-0.62c0,-0.234 0.095,-0.458 0.264,-0.62l7.33,-7.29l-7.29,-7.29c-0.169,-0.162 -0.264,-0.386 -0.264,-0.62c0,-0.234 0.095,-0.458 0.264,-0.62l2.29,-2.28c0.162,-0.169 0.386,-0.264 0.62,-0.264c0.234,0 0.458,0.095 0.62,0.264l10.19,10.19c0.157,0.161 0.245,0.376 0.245,0.601c0,0.243 -0.104,0.476 -0.285,0.639Z" style="fill:#444;fill-rule:nonzero;"/><path d="M13.13,710.69l10.19,-10.19c0.162,-0.169 0.386,-0.264 0.62,-0.264c0.234,0 0.458,0.095 0.62,0.264l2.28,2.28c0.169,0.162 0.264,0.386 0.264,0.62c0,0.234 -0.095,0.458 -0.264,0.62l-7.3,7.29l7.29,7.29c0.169,0.162 0.264,0.386 0.264,0.62c0,0.234 -0.095,0.458 -0.264,0.62l-2.28,2.28c-0.162,0.169 -0.386,0.264 -0.62,0.264c-0.234,0 -0.458,-0.095 -0.62,-0.264l-10.18,-10.19c-0.169,-0.162 -0.264,-0.386 -0.264,-0.62c0,-0.234 0.095,-0.458 0.264,-0.62l0,0Z" style="fill:#444;fill-rule:nonzero;"/><path d="M0.26,710.69l10.19,-10.19c0.162,-0.169 0.386,-0.264 0.62,-0.264c0.234,0 0.458,0.095 0.62,0.264l2.28,2.28c0.169,0.162 0.264,0.386 0.264,0.62c0,0.234 -0.095,0.458 -0.264,0.62l-7.3,7.29l7.29,7.29c0.169,0.162 0.264,0.386 0.264,0.62c0,0.234 -0.095,0.458 -0.264,0.62l-2.28,2.28c-0.162,0.169 -0.386,0.264 -0.62,0.264c-0.234,0 -0.458,-0.095 -0.62,-0.264l-10.18,-10.19c-0.169,-0.162 -0.264,-0.386 -0.264,-0.62c0,-0.234 0.095,-0.458 0.264,-0.62Z" style="fill:#444;fill-rule:nonzero;"/><path d="M14.32,576.7l10.19,10.19c0.169,0.162 0.264,0.386 0.264,0.62c0,0.234 -0.095,0.458 -0.264,0.62l-2.28,2.28c-0.162,0.169 -0.386,0.264 -0.62,0.264c-0.234,0 -0.458,-0.095 -0.62,-0.264l-7.29,-7.29l-7.25,7.29c-0.162,0.169 -0.386,0.264 -0.62,0.264c-0.234,0 -0.458,-0.095 -0.62,-0.264l-2.28,-2.28c-0.169,-0.162 -0.264,-0.386 -0.264,-0.62c0,-0.234 0.095,-0.458 0.264,-0.62l10.19,-10.19c0.332,-0.323 0.868,-0.323 1.2,0Z" style="fill:#444;fill-rule:nonzero;"/><path d="M13.21,527.05l-10.19,-10.19c-0.169,-0.162 -0.264,-0.386 -0.264,-0.62c0,-0.234 0.095,-0.458 0.264,-0.62l2.28,-2.31c0.162,-0.169 0.386,-0.264 0.62,-0.264c0.234,0 0.458,0.095 0.62,0.264l7.29,7.29l7.29,-7.29c0.162,-0.169 0.386,-0.264 0.62,-0.264c0.234,0 0.458,0.095 0.62,0.264l2.28,2.28c0.169,0.162 0.264,0.386 0.264,0.62c0,0.234 -0.095,0.458 -0.264,0.62l-10.19,10.22c-0.162,0.169 -0.386,0.264 -0.62,0.264c-0.234,0 -0.458,-0.095 -0.62,-0.264l0,0Z" style="fill:#444;fill-rule:nonzero;"/><path d="M83.846,64.025c0.246,0.016 0.483,0.075 0.702,0.193c0.405,0.219 0.702,0.616 0.774,1.074c0.019,0.122 0.022,0.247 0.009,0.37c-0.015,0.149 -0.054,0.295 -0.115,0.431c-0.083,0.187 -0.204,0.347 -0.351,0.489l-5.157,4.728l5.157,4.728c0.054,0.052 0.053,0.051 0.103,0.105c0.133,0.156 0.238,0.328 0.302,0.524c0.053,0.165 0.076,0.34 0.067,0.513c-0.009,0.175 -0.05,0.346 -0.121,0.505c-0.061,0.14 -0.146,0.27 -0.247,0.384c-0.418,0.47 -1.101,0.641 -1.697,0.449c-0.216,-0.069 -0.408,-0.184 -0.579,-0.333l-5.243,-4.805l-5.243,4.805c-0.056,0.049 -0.056,0.049 -0.113,0.094c-0.185,0.131 -0.386,0.228 -0.607,0.278c-0.613,0.137 -1.282,-0.094 -1.652,-0.608c-0.089,-0.123 -0.158,-0.259 -0.205,-0.403c-0.053,-0.166 -0.076,-0.34 -0.067,-0.514c0.009,-0.174 0.05,-0.346 0.121,-0.505c0.083,-0.187 0.204,-0.348 0.35,-0.489l5.159,-4.728l-5.158,-4.728c-0.054,-0.051 -0.053,-0.051 -0.104,-0.105c-0.132,-0.157 -0.237,-0.328 -0.301,-0.524c-0.053,-0.165 -0.076,-0.34 -0.067,-0.513c0.009,-0.174 0.05,-0.346 0.121,-0.506c0.061,-0.14 0.146,-0.269 0.247,-0.383c0.418,-0.47 1.102,-0.641 1.697,-0.45c0.216,0.07 0.409,0.185 0.579,0.333l5.243,4.806l5.243,-4.806c0.056,-0.048 0.056,-0.048 0.113,-0.093c0.083,-0.059 0.168,-0.113 0.26,-0.157c0.178,-0.086 0.367,-0.133 0.562,-0.155c0.073,-0.004 0.145,-0.006 0.218,-0.004l0,0Z" style="fill:#c82027;"/><path d="M147.846,64.025c0.246,0.016 0.483,0.075 0.702,0.193c0.405,0.219 0.702,0.616 0.774,1.074c0.019,0.122 0.022,0.247 0.009,0.37c-0.015,0.149 -0.054,0.295 -0.115,0.431c-0.083,0.187 -0.204,0.347 -0.351,0.489l-5.157,4.728l5.157,4.728c0.054,0.052 0.053,0.051 0.103,0.105c0.133,0.156 0.238,0.328 0.302,0.524c0.053,0.165 0.076,0.34 0.067,0.513c-0.009,0.175 -0.05,0.346 -0.121,0.505c-0.061,0.14 -0.146,0.27 -0.247,0.384c-0.418,0.47 -1.101,0.641 -1.697,0.449c-0.216,-0.069 -0.408,-0.184 -0.579,-0.333l-5.243,-4.805l-5.243,4.805c-0.056,0.049 -0.056,0.049 -0.113,0.094c-0.185,0.131 -0.386,0.228 -0.607,0.278c-0.613,0.137 -1.282,-0.094 -1.652,-0.608c-0.089,-0.123 -0.158,-0.259 -0.205,-0.403c-0.053,-0.166 -0.076,-0.34 -0.067,-0.514c0.009,-0.174 0.05,-0.346 0.121,-0.505c0.083,-0.187 0.204,-0.348 0.35,-0.489l5.159,-4.728l-5.158,-4.728c-0.054,-0.051 -0.053,-0.051 -0.104,-0.105c-0.132,-0.157 -0.237,-0.328 -0.301,-0.524c-0.053,-0.165 -0.076,-0.34 -0.067,-0.513c0.009,-0.174 0.05,-0.346 0.121,-0.506c0.061,-0.14 0.146,-0.269 0.247,-0.383c0.418,-0.47 1.102,-0.641 1.697,-0.45c0.216,0.07 0.409,0.185 0.579,0.333l5.243,4.806l5.243,-4.806c0.056,-0.048 0.056,-0.048 0.113,-0.093c0.083,-0.059 0.168,-0.113 0.26,-0.157c0.178,-0.086 0.367,-0.133 0.562,-0.155c0.073,-0.004 0.145,-0.006 0.218,-0.004l0,0Z" style="fill:#0a8345;"/><path d="M211.846,64.025c0.246,0.016 0.483,0.075 0.702,0.193c0.405,0.219 0.702,0.616 0.774,1.074c0.019,0.122 0.022,0.247 0.009,0.37c-0.015,0.149 -0.054,0.295 -0.115,0.431c-0.083,0.187 -0.204,0.347 -0.351,0.489l-5.157,4.728l5.157,4.728c0.054,0.052 0.053,0.051 0.103,0.105c0.133,0.156 0.238,0.328 0.302,0.524c0.053,0.165 0.076,0.34 0.067,0.513c-0.009,0.175 -0.05,0.346 -0.121,0.505c-0.061,0.14 -0.146,0.27 -0.247,0.384c-0.418,0.47 -1.101,0.641 -1.697,0.449c-0.216,-0.069 -0.408,-0.184 -0.579,-0.333l-5.243,-4.805l-5.243,4.805c-0.056,0.049 -0.056,0.049 -0.113,0.094c-0.185,0.131 -0.386,0.228 -0.607,0.278c-0.613,0.137 -1.282,-0.094 -1.652,-0.608c-0.089,-0.123 -0.158,-0.259 -0.205,-0.403c-0.053,-0.166 -0.076,-0.34 -0.067,-0.514c0.009,-0.174 0.05,-0.346 0.121,-0.505c0.083,-0.187 0.204,-0.348 0.35,-0.489l5.159,-4.728l-5.158,-4.728c-0.054,-0.051 -0.053,-0.051 -0.104,-0.105c-0.132,-0.157 -0.237,-0.328 -0.301,-0.524c-0.053,-0.165 -0.076,-0.34 -0.067,-0.513c0.009,-0.174 0.05,-0.346 0.121,-0.506c0.061,-0.14 0.146,-0.269 0.247,-0.383c0.418,-0.47 1.102,-0.641 1.697,-0.45c0.216,0.07 0.409,0.185 0.579,0.333l5.243,4.806l5.243,-4.806c0.056,-0.048 0.056,-0.048 0.113,-0.093c0.083,-0.059 0.168,-0.113 0.26,-0.157c0.178,-0.086 0.367,-0.133 0.562,-0.155c0.073,-0.004 0.145,-0.006 0.218,-0.004l0,0Z" style="fill:#1f7fc3;"/><path d="M73.87,262.41l7.18,0l0,-2.69c0,-1.969 -1.621,-3.59 -3.59,-3.59c-1.969,0 -3.59,1.621 -3.59,3.59l0,2.69Zm11.67,1.35l0,8.08c0,0.003 0,0.007 0,0.01c0,0.735 -0.605,1.34 -1.34,1.34c-0.003,0 -0.007,0 -0.01,0l-13.47,0c-0.003,0 -0.007,0 -0.01,0c-0.735,0 -1.34,-0.605 -1.34,-1.34c0,-0.003 0,-0.007 0,-0.01l0,-8.08c0,-0.003 0,-0.007 0,-0.01c0,-0.735 0.605,-1.34 1.34,-1.34c0.003,0 0.007,0 0.01,0l0.45,0l0,-2.69c0.134,-3.353 2.929,-6.039 6.285,-6.039c3.356,0 6.151,2.686 6.285,6.039l0,2.69l0.45,0c0.003,0 0.007,0 0.01,0c0.735,0 1.34,0.605 1.34,1.34c0,0.003 0,0.007 0,0.01l0,0Z" style="fill:#c82027;fill-rule:nonzero;"/><path d="M89.13,323.72l0,3.59c-0.005,0.492 -0.408,0.895 -0.9,0.9l-0.9,0c-0.484,-0.016 -0.875,-0.416 -0.88,-0.9l0,-3.59c0,-1.969 -1.621,-3.59 -3.59,-3.59c-1.969,0 -3.59,1.621 -3.59,3.59l0,2.69l1.35,0c0.003,0 0.007,0 0.01,0c0.735,0 1.34,0.605 1.34,1.34c0,0.003 0,0.007 0,0.01l0,8.08c0,0.003 0,0.007 0,0.01c0,0.735 -0.605,1.34 -1.34,1.34c-0.003,0 -0.007,0 -0.01,0l-13.49,0c-0.003,0 -0.007,0 -0.01,0c-0.735,0 -1.34,-0.605 -1.34,-1.34c0,-0.003 0,-0.007 0,-0.01l0,-8.08c0,-0.003 0,-0.007 0,-0.01c0,-0.735 0.605,-1.34 1.34,-1.34c0.003,0 0.007,0 0.01,0l9.43,0l0,-2.69c0.134,-3.353 2.929,-6.039 6.285,-6.039c3.356,0 6.151,2.686 6.285,6.039Z" style="fill:#c82027;fill-rule:nonzero;"/><path d="M86.13,127.06c0.149,0.294 0.079,0.654 -0.17,0.87l-6.12,6.12l0,9.2c0.016,0.321 -0.179,0.617 -0.48,0.73c-0.099,0.039 -0.204,0.059 -0.31,0.06c-0.224,0.019 -0.446,-0.066 -0.6,-0.23l-3.18,-3.18c-0.155,-0.145 -0.242,-0.348 -0.24,-0.56l0,-6l-6.12,-6.12c-0.249,-0.216 -0.319,-0.576 -0.17,-0.87c0.113,-0.301 0.409,-0.496 0.73,-0.48l15.93,0c0.321,-0.016 0.617,0.179 0.73,0.48l0,-0.02Z" style="fill:#c82027;fill-rule:nonzero;"/><path d="M70.45,207.01l14.07,0l0,-10.27l-14.07,0l0,10.27Zm3.85,-12.19l0,-2.89c0,-0.003 0,-0.007 0,-0.01c0,-0.17 -0.14,-0.31 -0.31,-0.31c-0.003,0 -0.007,0 -0.01,0l-0.69,0c-0.003,0 -0.007,0 -0.01,0c-0.17,0 -0.31,0.14 -0.31,0.31c0,0.003 0,0.007 0,0.01l0,2.89c0,0.003 0,0.007 0,0.01c0,0.17 0.14,0.31 0.31,0.31c0.003,0 0.007,0 0.01,0l0.64,0c0.003,0 0.007,0 0.01,0c0.17,0 0.31,-0.14 0.31,-0.31c0,-0.003 0,-0.007 0,-0.01l0.05,0Zm7.7,0l0,-2.89c0,-0.003 0,-0.007 0,-0.01c0,-0.17 -0.14,-0.31 -0.31,-0.31c-0.003,0 -0.007,0 -0.01,0l-0.69,0c-0.003,0 -0.007,0 -0.01,0c-0.17,0 -0.31,0.14 -0.31,0.31c0,0.003 0,0.007 0,0.01l0,2.89c0,0.003 0,0.007 0,0.01c0,0.17 0.14,0.31 0.31,0.31c0.003,0 0.007,0 0.01,0l0.64,0c0.003,0 0.007,0 0.01,0c0.17,0 0.31,-0.14 0.31,-0.31c0,-0.003 0,-0.007 0,-0.01l0.05,0Zm3.85,-0.64l0,12.831c0,0.713 -0.587,1.3 -1.3,1.3c-0.013,0 -0.027,-0.001 -0.04,-0.001l-14.06,0c-0.698,-0.011 -1.269,-0.582 -1.28,-1.28l0,-12.85c0.011,-0.698 0.582,-1.269 1.28,-1.28l1.28,0l0,-1c0.005,-0.876 0.724,-1.595 1.6,-1.6l0.64,0c0.876,0.005 1.595,0.724 1.6,1.6l0,1l3.85,0l0,-1c0.005,-0.876 0.724,-1.595 1.6,-1.6l0.64,0c0.876,0.005 1.595,0.724 1.6,1.6l0,1l1.28,0c0.691,0.021 1.25,0.589 1.26,1.28l0.05,0Z" style="fill:#c82027;fill-rule:nonzero;"/><path d="M77.97,648.02l-10.2,10.19c-0.162,0.169 -0.386,0.264 -0.62,0.264c-0.234,0 -0.458,-0.095 -0.62,-0.264l-2.28,-2.28c-0.169,-0.162 -0.264,-0.386 -0.264,-0.62c0,-0.234 0.095,-0.458 0.264,-0.62l7.29,-7.29l-7.29,-7.29c-0.169,-0.162 -0.264,-0.386 -0.264,-0.62c0,-0.234 0.095,-0.458 0.264,-0.62l2.28,-2.28c0.162,-0.169 0.386,-0.264 0.62,-0.264c0.234,0 0.458,0.095 0.62,0.264l10.19,10.19c0.172,0.162 0.269,0.389 0.269,0.625c0,0.231 -0.093,0.453 -0.259,0.615Z" style="fill:#c82027;fill-rule:nonzero;"/><path d="M84.69,455.93l-10.24,10.19c-0.162,0.169 -0.386,0.264 -0.62,0.264c-0.234,0 -0.458,-0.095 -0.62,-0.264l-2.28,-2.28c-0.169,-0.162 -0.264,-0.386 -0.264,-0.62c0,-0.234 0.095,-0.458 0.264,-0.62l7.34,-7.29l-7.29,-7.29c-0.169,-0.162 -0.264,-0.386 -0.264,-0.62c0,-0.234 0.095,-0.458 0.264,-0.62l2.28,-2.28c0.162,-0.169 0.386,-0.264 0.62,-0.264c0.234,0 0.458,0.095 0.62,0.264l10.19,10.19c0.169,0.162 0.264,0.386 0.264,0.62c0,0.234 -0.095,0.458 -0.264,0.62Z" style="fill:#c82027;fill-rule:nonzero;"/><path d="M70.26,390.69l10.19,-10.19c0.162,-0.169 0.386,-0.264 0.62,-0.264c0.234,0 0.458,0.095 0.62,0.264l2.28,2.28c0.169,0.162 0.264,0.386 0.264,0.62c0,0.234 -0.095,0.458 -0.264,0.62l-7.29,7.29l7.29,7.29c0.169,0.162 0.264,0.386 0.264,0.62c0,0.234 -0.095,0.458 -0.264,0.62l-2.28,2.28c-0.162,0.169 -0.386,0.264 -0.62,0.264c-0.234,0 -0.458,-0.095 -0.62,-0.264l-10.19,-10.19c-0.169,-0.162 -0.264,-0.386 -0.264,-0.62c0,-0.234 0.095,-0.458 0.264,-0.62Z" style="fill:#c82027;fill-rule:nonzero;"/><path d="M90.84,648.02l-10.2,10.19c-0.162,0.169 -0.386,0.264 -0.62,0.264c-0.234,0 -0.458,-0.095 -0.62,-0.264l-2.28,-2.28c-0.169,-0.162 -0.264,-0.386 -0.264,-0.62c0,-0.234 0.095,-0.458 0.264,-0.62l7.33,-7.29l-7.29,-7.29c-0.169,-0.162 -0.264,-0.386 -0.264,-0.62c0,-0.234 0.095,-0.458 0.264,-0.62l2.29,-2.28c0.162,-0.169 0.386,-0.264 0.62,-0.264c0.234,0 0.458,0.095 0.62,0.264l10.19,10.19c0.157,0.161 0.245,0.376 0.245,0.601c0,0.243 -0.104,0.476 -0.285,0.639Z" style="fill:#c82027;fill-rule:nonzero;"/><path d="M77.13,710.69l10.19,-10.19c0.162,-0.169 0.386,-0.264 0.62,-0.264c0.234,0 0.458,0.095 0.62,0.264l2.28,2.28c0.169,0.162 0.264,0.386 0.264,0.62c0,0.234 -0.095,0.458 -0.264,0.62l-7.3,7.29l7.29,7.29c0.169,0.162 0.264,0.386 0.264,0.62c0,0.234 -0.095,0.458 -0.264,0.62l-2.28,2.28c-0.162,0.169 -0.386,0.264 -0.62,0.264c-0.234,0 -0.458,-0.095 -0.62,-0.264l-10.18,-10.19c-0.169,-0.162 -0.264,-0.386 -0.264,-0.62c0,-0.234 0.095,-0.458 0.264,-0.62Z" style="fill:#c82027;fill-rule:nonzero;"/><path d="M64.26,710.69l10.19,-10.19c0.162,-0.169 0.386,-0.264 0.62,-0.264c0.234,0 0.458,0.095 0.62,0.264l2.28,2.28c0.169,0.162 0.264,0.386 0.264,0.62c0,0.234 -0.095,0.458 -0.264,0.62l-7.3,7.29l7.29,7.29c0.169,0.162 0.264,0.386 0.264,0.62c0,0.234 -0.095,0.458 -0.264,0.62l-2.28,2.28c-0.162,0.169 -0.386,0.264 -0.62,0.264c-0.234,0 -0.458,-0.095 -0.62,-0.264l-10.18,-10.19c-0.169,-0.162 -0.264,-0.386 -0.264,-0.62c0,-0.234 0.095,-0.458 0.264,-0.62Z" style="fill:#c82027;fill-rule:nonzero;"/><path d="M78.32,576.7l10.19,10.19c0.169,0.162 0.264,0.386 0.264,0.62c0,0.234 -0.095,0.458 -0.264,0.62l-2.28,2.28c-0.162,0.169 -0.386,0.264 -0.62,0.264c-0.234,0 -0.458,-0.095 -0.62,-0.264l-7.29,-7.29l-7.25,7.29c-0.162,0.169 -0.386,0.264 -0.62,0.264c-0.234,0 -0.458,-0.095 -0.62,-0.264l-2.28,-2.28c-0.169,-0.162 -0.264,-0.386 -0.264,-0.62c0,-0.234 0.095,-0.458 0.264,-0.62l10.19,-10.19c0.332,-0.323 0.868,-0.323 1.2,0Z" style="fill:#c82027;fill-rule:nonzero;"/><path d="M77.21,527.05l-10.19,-10.19c-0.169,-0.162 -0.264,-0.386 -0.264,-0.62c0,-0.234 0.095,-0.458 0.264,-0.62l2.28,-2.31c0.162,-0.169 0.386,-0.264 0.62,-0.264c0.234,0 0.458,0.095 0.62,0.264l7.29,7.29l7.29,-7.29c0.162,-0.169 0.386,-0.264 0.62,-0.264c0.234,0 0.458,0.095 0.62,0.264l2.28,2.28c0.169,0.162 0.264,0.386 0.264,0.62c0,0.234 -0.095,0.458 -0.264,0.62l-10.19,10.22c-0.162,0.169 -0.386,0.264 -0.62,0.264c-0.234,0 -0.458,-0.095 -0.62,-0.264l0,0Z" style="fill:#c82027;fill-rule:nonzero;"/><path d="M137.77,262.41l7.18,0l0,-2.69c0,-1.969 -1.621,-3.59 -3.59,-3.59c-1.969,0 -3.59,1.621 -3.59,3.59l0,2.69Zm11.68,1.35l0,8.08c0,0.003 0,0.007 0,0.01c0,0.735 -0.605,1.34 -1.34,1.34c-0.003,0 -0.007,0 -0.01,0l-13.47,0c-0.003,0 -0.007,0 -0.01,0c-0.735,0 -1.34,-0.605 -1.34,-1.34c0,-0.003 0,-0.007 0,-0.01l0,-8.08c0,-0.003 0,-0.007 0,-0.01c0,-0.735 0.605,-1.34 1.34,-1.34c0.003,0 0.007,0 0.01,0l0.45,0l0,-2.69c0.134,-3.353 2.929,-6.039 6.285,-6.039c3.356,0 6.151,2.686 6.285,6.039l0,2.69l0.45,0c0.003,0 0.007,0 0.01,0c0.735,0 1.34,0.605 1.34,1.34c0,0.003 0,0.007 0,0.01l0,0Z" style="fill:#0a8345;fill-rule:nonzero;"/><path d="M153.04,323.72l0,3.59c-0.005,0.492 -0.408,0.895 -0.9,0.9l-0.9,0c-0.492,-0.005 -0.895,-0.408 -0.9,-0.9l0,-3.59c0,-1.969 -1.621,-3.59 -3.59,-3.59c-1.969,0 -3.59,1.621 -3.59,3.59l0,2.69l1.35,0c0.003,0 0.007,0 0.01,0c0.735,0 1.34,0.605 1.34,1.34c0,0.003 0,0.007 0,0.01l0,8.08c0,0.003 0,0.007 0,0.01c0,0.735 -0.605,1.34 -1.34,1.34c-0.003,0 -0.007,0 -0.01,0l-13.47,0c-0.003,0 -0.007,0 -0.01,0c-0.735,0 -1.34,-0.605 -1.34,-1.34c0,-0.003 0,-0.007 0,-0.01l0,-8.08c0,-0.003 0,-0.007 0,-0.01c0,-0.735 0.605,-1.34 1.34,-1.34c0.003,0 0.007,0 0.01,0l9.41,0l0,-2.69c0,-3.453 2.842,-6.295 6.295,-6.295c3.453,0 6.295,2.842 6.295,6.295l0,0Z" style="fill:#0a8345;fill-rule:nonzero;"/><path d="M150.03,127.06c0.149,0.294 0.079,0.654 -0.17,0.87l-6.12,6.12l0,9.2c0.016,0.321 -0.179,0.617 -0.48,0.73c-0.099,0.039 -0.204,0.059 -0.31,0.06c-0.212,0.004 -0.417,-0.083 -0.56,-0.24l-3.18,-3.18c-0.155,-0.145 -0.242,-0.348 -0.24,-0.56l0,-6l-6.12,-6.12c-0.249,-0.216 -0.319,-0.576 -0.17,-0.87c0.113,-0.301 0.409,-0.496 0.73,-0.48l15.88,0c0.321,-0.016 0.617,0.179 0.73,0.48l0.01,-0.01Z" style="fill:#0a8345;fill-rule:nonzero;"/><path d="M134.31,207.01l14.14,0l0,-10.27l-14.14,0l0,10.27Zm3.85,-12.19l0,-2.89c0,-0.003 0,-0.007 0,-0.01c0,-0.17 -0.14,-0.31 -0.31,-0.31c-0.003,0 -0.007,0 -0.01,0l-0.64,0c-0.003,0 -0.007,0 -0.01,0c-0.17,0 -0.31,0.14 -0.31,0.31c0,0.003 0,0.007 0,0.01l0,2.89c0,0.003 0,0.007 0,0.01c0,0.17 0.14,0.31 0.31,0.31c0.003,0 0.007,0 0.01,0l0.64,0c0.003,0 0.007,0 0.01,0c0.17,0 0.31,-0.14 0.31,-0.31c0,-0.003 0,-0.007 0,-0.01Zm7.7,0l0,-2.89c0,-0.003 0,-0.007 0,-0.01c0,-0.17 -0.14,-0.31 -0.31,-0.31c-0.003,0 -0.007,0 -0.01,0l-0.64,0c-0.003,0 -0.007,0 -0.01,0c-0.17,0 -0.31,0.14 -0.31,0.31c0,0.003 0,0.007 0,0.01l0,2.89c0,0.003 0,0.007 0,0.01c0,0.17 0.14,0.31 0.31,0.31c0.003,0 0.007,0 0.01,0l0.64,0c0.17,0 0.31,-0.14 0.31,-0.31c0,-0.003 0,-0.007 0,-0.01l0.01,0Zm3.85,-0.64l0,12.83c0,0.698 -0.562,1.279 -1.26,1.3l-14.14,0c-0.698,-0.011 -1.269,-0.582 -1.28,-1.28l0,-12.85c0.011,-0.698 0.582,-1.269 1.28,-1.28l1.28,0l0,-1c0.005,-0.876 0.724,-1.595 1.6,-1.6l0.64,0c0.876,0.005 1.595,0.724 1.6,1.6l0,1l3.85,0l0,-1c0.005,-0.876 0.724,-1.595 1.6,-1.6l0.64,0c0.876,0.005 1.595,0.724 1.6,1.6l0,1l1.33,0c0.687,0.026 1.24,0.593 1.25,1.28l0.01,0Z" style="fill:#0a8345;fill-rule:nonzero;"/><path d="M141.87,648.02l-10.19,10.19c-0.162,0.169 -0.386,0.264 -0.62,0.264c-0.234,0 -0.458,-0.095 -0.62,-0.264l-2.28,-2.28c-0.169,-0.162 -0.264,-0.386 -0.264,-0.62c0,-0.234 0.095,-0.458 0.264,-0.62l7.29,-7.29l-7.29,-7.29c-0.169,-0.162 -0.264,-0.386 -0.264,-0.62c0,-0.234 0.095,-0.458 0.264,-0.62l2.28,-2.28c0.162,-0.169 0.386,-0.264 0.62,-0.264c0.234,0 0.458,0.095 0.62,0.264l10.19,10.19c0.169,0.162 0.264,0.386 0.264,0.62c0,0.234 -0.095,0.458 -0.264,0.62Z" style="fill:#0a8345;fill-rule:nonzero;"/><path d="M148.59,455.93l-10.19,10.19c-0.162,0.169 -0.386,0.264 -0.62,0.264c-0.234,0 -0.458,-0.095 -0.62,-0.264l-2.28,-2.28c-0.169,-0.162 -0.264,-0.386 -0.264,-0.62c0,-0.234 0.095,-0.458 0.264,-0.62l7.29,-7.29l-7.29,-7.29c-0.169,-0.162 -0.264,-0.386 -0.264,-0.62c0,-0.234 0.095,-0.458 0.264,-0.62l2.28,-2.28c0.162,-0.169 0.386,-0.264 0.62,-0.264c0.234,0 0.458,0.095 0.62,0.264l10.19,10.19c0.169,0.162 0.264,0.386 0.264,0.62c0,0.234 -0.095,0.458 -0.264,0.62Z" style="fill:#0a8345;fill-rule:nonzero;"/><path d="M134.17,390.69l10.19,-10.19c0.162,-0.169 0.386,-0.264 0.62,-0.264c0.234,0 0.458,0.095 0.62,0.264l2.28,2.28c0.169,0.162 0.264,0.386 0.264,0.62c0,0.234 -0.095,0.458 -0.264,0.62l-7.3,7.29l7.29,7.29c0.169,0.162 0.264,0.386 0.264,0.62c0,0.234 -0.095,0.458 -0.264,0.62l-2.28,2.28c-0.162,0.169 -0.386,0.264 -0.62,0.264c-0.234,0 -0.458,-0.095 -0.62,-0.264l-10.19,-10.19c-0.166,-0.162 -0.259,-0.384 -0.259,-0.615c0,-0.236 0.097,-0.463 0.269,-0.625Z" style="fill:#0a8345;fill-rule:nonzero;"/><path d="M154.74,648.02l-10.19,10.19c-0.162,0.169 -0.386,0.264 -0.62,0.264c-0.234,0 -0.458,-0.095 -0.62,-0.264l-2.28,-2.28c-0.169,-0.162 -0.264,-0.386 -0.264,-0.62c0,-0.234 0.095,-0.458 0.264,-0.62l7.29,-7.29l-7.29,-7.29c-0.169,-0.162 -0.264,-0.386 -0.264,-0.62c0,-0.234 0.095,-0.458 0.264,-0.62l2.28,-2.28c0.162,-0.169 0.386,-0.264 0.62,-0.264c0.234,0 0.458,0.095 0.62,0.264l10.19,10.19c0.169,0.162 0.264,0.386 0.264,0.62c0,0.234 -0.095,0.458 -0.264,0.62Z" style="fill:#0a8345;fill-rule:nonzero;"/><path d="M141.03,710.69l10.19,-10.19c0.162,-0.169 0.386,-0.264 0.62,-0.264c0.234,0 0.458,0.095 0.62,0.264l2.28,2.28c0.169,0.162 0.264,0.386 0.264,0.62c0,0.234 -0.095,0.458 -0.264,0.62l-7.29,7.29l7.29,7.29c0.169,0.162 0.264,0.386 0.264,0.62c0,0.234 -0.095,0.458 -0.264,0.62l-2.29,2.28c-0.162,0.169 -0.386,0.264 -0.62,0.264c-0.234,0 -0.458,-0.095 -0.62,-0.264l-10.19,-10.19c-0.166,-0.162 -0.259,-0.384 -0.259,-0.615c0,-0.236 0.097,-0.463 0.269,-0.625l0,0Z" style="fill:#0a8345;fill-rule:nonzero;"/><path d="M128.16,710.69l10.19,-10.19c0.162,-0.169 0.386,-0.264 0.62,-0.264c0.234,0 0.458,0.095 0.62,0.264l2.28,2.28c0.169,0.162 0.264,0.386 0.264,0.62c0,0.234 -0.095,0.458 -0.264,0.62l-7.29,7.29l7.29,7.29c0.169,0.162 0.264,0.386 0.264,0.62c0,0.234 -0.095,0.458 -0.264,0.62l-2.28,2.28c-0.162,0.169 -0.386,0.264 -0.62,0.264c-0.234,0 -0.458,-0.095 -0.62,-0.264l-10.19,-10.19c-0.169,-0.162 -0.264,-0.386 -0.264,-0.62c0,-0.234 0.095,-0.458 0.264,-0.62Z" style="fill:#0a8345;fill-rule:nonzero;"/><path d="M142.23,576.7l10.22,10.19c0.169,0.162 0.264,0.386 0.264,0.62c0,0.234 -0.095,0.458 -0.264,0.62l-2.28,2.28c-0.162,0.169 -0.386,0.264 -0.62,0.264c-0.234,0 -0.458,-0.095 -0.62,-0.264l-7.29,-7.29l-7.29,7.29c-0.162,0.169 -0.386,0.264 -0.62,0.264c-0.234,0 -0.458,-0.095 -0.62,-0.264l-2.28,-2.28c-0.169,-0.162 -0.264,-0.386 -0.264,-0.62c0,-0.234 0.095,-0.458 0.264,-0.62l10.19,-10.19c0.333,-0.33 0.877,-0.33 1.21,0Z" style="fill:#0a8345;fill-rule:nonzero;"/><path d="M141.12,527.05l-10.19,-10.19c-0.169,-0.162 -0.264,-0.386 -0.264,-0.62c0,-0.234 0.095,-0.458 0.264,-0.62l2.28,-2.28c0.162,-0.169 0.386,-0.264 0.62,-0.264c0.234,0 0.458,0.095 0.62,0.264l7.29,7.29l7.29,-7.29c0.162,-0.169 0.386,-0.264 0.62,-0.264c0.234,0 0.458,0.095 0.62,0.264l2.28,2.28c0.169,0.162 0.264,0.386 0.264,0.62c0,0.234 -0.095,0.458 -0.264,0.62l-10.2,10.19c-0.162,0.165 -0.384,0.259 -0.615,0.259c-0.231,0 -0.453,-0.094 -0.615,-0.259Z" style="fill:#0a8345;fill-rule:nonzero;"/><path d="M201.77,262.41l7.18,0l0,-2.69c0,-1.969 -1.621,-3.59 -3.59,-3.59c-1.969,0 -3.59,1.621 -3.59,3.59l0,2.69Zm11.68,1.35l0,8.08c0,0.003 0,0.007 0,0.01c0,0.735 -0.605,1.34 -1.34,1.34c-0.003,0 -0.007,0 -0.01,0l-13.47,0c-0.003,0 -0.007,0 -0.01,0c-0.735,0 -1.34,-0.605 -1.34,-1.34c0,-0.003 0,-0.007 0,-0.01l0,-8.08c0,-0.003 0,-0.007 0,-0.01c0,-0.735 0.605,-1.34 1.34,-1.34c0.003,0 0.007,0 0.01,0l0.45,0l0,-2.69c0.134,-3.353 2.929,-6.039 6.285,-6.039c3.356,0 6.151,2.686 6.285,6.039l0,2.69l0.45,0c0.003,0 0.007,0 0.01,0c0.735,0 1.34,0.605 1.34,1.34c0,0.003 0,0.007 0,0.01l0,0Z" style="fill:#1f7fc3;fill-rule:nonzero;"/><path d="M217.04,323.72l0,3.59c-0.005,0.492 -0.408,0.895 -0.9,0.9l-0.9,0c-0.492,-0.005 -0.895,-0.408 -0.9,-0.9l0,-3.59c0,-1.969 -1.621,-3.59 -3.59,-3.59c-1.969,0 -3.59,1.621 -3.59,3.59l0,2.69l1.35,0c0.003,0 0.007,0 0.01,0c0.735,0 1.34,0.605 1.34,1.34c0,0.003 0,0.007 0,0.01l0,8.08c0,0.003 0,0.007 0,0.01c0,0.735 -0.605,1.34 -1.34,1.34c-0.003,0 -0.007,0 -0.01,0l-13.47,0c-0.003,0 -0.007,0 -0.01,0c-0.735,0 -1.34,-0.605 -1.34,-1.34c0,-0.003 0,-0.007 0,-0.01l0,-8.08c0,-0.003 0,-0.007 0,-0.01c0,-0.735 0.605,-1.34 1.34,-1.34c0.003,0 0.007,0 0.01,0l9.41,0l0,-2.69c0,-3.453 2.842,-6.295 6.295,-6.295c3.453,0 6.295,2.842 6.295,6.295l0,0Z" style="fill:#1f7fc3;fill-rule:nonzero;"/><path d="M214.03,127.06c0.149,0.294 0.079,0.654 -0.17,0.87l-6.12,6.12l0,9.2c0.016,0.321 -0.179,0.617 -0.48,0.73c-0.099,0.039 -0.204,0.059 -0.31,0.06c-0.212,0.004 -0.417,-0.083 -0.56,-0.24l-3.18,-3.18c-0.155,-0.145 -0.242,-0.348 -0.24,-0.56l0,-6l-6.12,-6.12c-0.249,-0.216 -0.319,-0.576 -0.17,-0.87c0.113,-0.301 0.409,-0.496 0.73,-0.48l15.88,0c0.321,-0.016 0.617,0.179 0.73,0.48l0.01,-0.01Z" style="fill:#1f7fc3;fill-rule:nonzero;"/><path d="M198.31,207.01l14.14,0l0,-10.27l-14.14,0l0,10.27Zm3.85,-12.19l0,-2.89c0,-0.003 0,-0.007 0,-0.01c0,-0.17 -0.14,-0.31 -0.31,-0.31c-0.003,0 -0.007,0 -0.01,0l-0.64,0c-0.003,0 -0.007,0 -0.01,0c-0.17,0 -0.31,0.14 -0.31,0.31c0,0.003 0,0.007 0,0.01l0,2.89c0,0.003 0,0.007 0,0.01c0,0.17 0.14,0.31 0.31,0.31c0.003,0 0.007,0 0.01,0l0.64,0c0.003,0 0.007,0 0.01,0c0.17,0 0.31,-0.14 0.31,-0.31c0,-0.003 0,-0.007 0,-0.01Zm7.7,0l0,-2.89c0,-0.003 0,-0.007 0,-0.01c0,-0.17 -0.14,-0.31 -0.31,-0.31c-0.003,0 -0.007,0 -0.01,0l-0.64,0c-0.003,0 -0.007,0 -0.01,0c-0.17,0 -0.31,0.14 -0.31,0.31c0,0.003 0,0.007 0,0.01l0,2.89c0,0.003 0,0.007 0,0.01c0,0.17 0.14,0.31 0.31,0.31c0.003,0 0.007,0 0.01,0l0.64,0c0.17,0 0.31,-0.14 0.31,-0.31c0,-0.003 0,-0.007 0,-0.01l0.01,0Zm3.85,-0.64l0,12.83c0,0.698 -0.562,1.279 -1.26,1.3l-14.14,0c-0.698,-0.011 -1.269,-0.582 -1.28,-1.28l0,-12.85c0.011,-0.698 0.582,-1.269 1.28,-1.28l1.28,0l0,-1c0.005,-0.876 0.724,-1.595 1.6,-1.6l0.64,0c0.876,0.005 1.595,0.724 1.6,1.6l0,1l3.85,0l0,-1c0.005,-0.876 0.724,-1.595 1.6,-1.6l0.64,0c0.876,0.005 1.595,0.724 1.6,1.6l0,1l1.33,0c0.687,0.026 1.24,0.593 1.25,1.28l0.01,0Z" style="fill:#1f7fc3;fill-rule:nonzero;"/><path d="M205.87,648.02l-10.19,10.19c-0.162,0.169 -0.386,0.264 -0.62,0.264c-0.234,0 -0.458,-0.095 -0.62,-0.264l-2.28,-2.28c-0.169,-0.162 -0.264,-0.386 -0.264,-0.62c0,-0.234 0.095,-0.458 0.264,-0.62l7.29,-7.29l-7.29,-7.29c-0.169,-0.162 -0.264,-0.386 -0.264,-0.62c0,-0.234 0.095,-0.458 0.264,-0.62l2.28,-2.28c0.162,-0.169 0.386,-0.264 0.62,-0.264c0.234,0 0.458,0.095 0.62,0.264l10.19,10.19c0.169,0.162 0.264,0.386 0.264,0.62c0,0.234 -0.095,0.458 -0.264,0.62Z" style="fill:#1f7fc3;fill-rule:nonzero;"/><path d="M212.59,455.93l-10.19,10.19c-0.162,0.169 -0.386,0.264 -0.62,0.264c-0.234,0 -0.458,-0.095 -0.62,-0.264l-2.28,-2.28c-0.169,-0.162 -0.264,-0.386 -0.264,-0.62c0,-0.234 0.095,-0.458 0.264,-0.62l7.29,-7.29l-7.29,-7.29c-0.169,-0.162 -0.264,-0.386 -0.264,-0.62c0,-0.234 0.095,-0.458 0.264,-0.62l2.28,-2.28c0.162,-0.169 0.386,-0.264 0.62,-0.264c0.234,0 0.458,0.095 0.62,0.264l10.19,10.19c0.169,0.162 0.264,0.386 0.264,0.62c0,0.234 -0.095,0.458 -0.264,0.62Z" style="fill:#1f7fc3;fill-rule:nonzero;"/><path d="M198.17,390.69l10.19,-10.19c0.162,-0.169 0.386,-0.264 0.62,-0.264c0.234,0 0.458,0.095 0.62,0.264l2.28,2.28c0.169,0.162 0.264,0.386 0.264,0.62c0,0.234 -0.095,0.458 -0.264,0.62l-7.3,7.29l7.29,7.29c0.169,0.162 0.264,0.386 0.264,0.62c0,0.234 -0.095,0.458 -0.264,0.62l-2.28,2.28c-0.162,0.169 -0.386,0.264 -0.62,0.264c-0.234,0 -0.458,-0.095 -0.62,-0.264l-10.19,-10.19c-0.166,-0.162 -0.259,-0.384 -0.259,-0.615c0,-0.236 0.097,-0.463 0.269,-0.625Z" style="fill:#1f7fc3;fill-rule:nonzero;"/><path d="M218.74,648.02l-10.19,10.19c-0.162,0.169 -0.386,0.264 -0.62,0.264c-0.234,0 -0.458,-0.095 -0.62,-0.264l-2.28,-2.28c-0.169,-0.162 -0.264,-0.386 -0.264,-0.62c0,-0.234 0.095,-0.458 0.264,-0.62l7.29,-7.29l-7.29,-7.29c-0.169,-0.162 -0.264,-0.386 -0.264,-0.62c0,-0.234 0.095,-0.458 0.264,-0.62l2.28,-2.28c0.162,-0.169 0.386,-0.264 0.62,-0.264c0.234,0 0.458,0.095 0.62,0.264l10.19,10.19c0.169,0.162 0.264,0.386 0.264,0.62c0,0.234 -0.095,0.458 -0.264,0.62Z" style="fill:#1f7fc3;fill-rule:nonzero;"/><path d="M205.03,710.69l10.19,-10.19c0.162,-0.169 0.386,-0.264 0.62,-0.264c0.234,0 0.458,0.095 0.62,0.264l2.28,2.28c0.169,0.162 0.264,0.386 0.264,0.62c0,0.234 -0.095,0.458 -0.264,0.62l-7.29,7.29l7.29,7.29c0.169,0.162 0.264,0.386 0.264,0.62c0,0.234 -0.095,0.458 -0.264,0.62l-2.29,2.28c-0.162,0.169 -0.386,0.264 -0.62,0.264c-0.234,0 -0.458,-0.095 -0.62,-0.264l-10.19,-10.19c-0.166,-0.162 -0.259,-0.384 -0.259,-0.615c0,-0.236 0.097,-0.463 0.269,-0.625l0,0Z" style="fill:#1f7fc3;fill-rule:nonzero;"/><path d="M192.16,710.69l10.19,-10.19c0.162,-0.169 0.386,-0.264 0.62,-0.264c0.234,0 0.458,0.095 0.62,0.264l2.28,2.28c0.169,0.162 0.264,0.386 0.264,0.62c0,0.234 -0.095,0.458 -0.264,0.62l-7.29,7.29l7.29,7.29c0.169,0.162 0.264,0.386 0.264,0.62c0,0.234 -0.095,0.458 -0.264,0.62l-2.28,2.28c-0.162,0.169 -0.386,0.264 -0.62,0.264c-0.234,0 -0.458,-0.095 -0.62,-0.264l-10.19,-10.19c-0.169,-0.162 -0.264,-0.386 -0.264,-0.62c0,-0.234 0.095,-0.458 0.264,-0.62Z" style="fill:#1f7fc3;fill-rule:nonzero;"/><path d="M206.23,576.7l10.22,10.19c0.169,0.162 0.264,0.386 0.264,0.62c0,0.234 -0.095,0.458 -0.264,0.62l-2.28,2.28c-0.162,0.169 -0.386,0.264 -0.62,0.264c-0.234,0 -0.458,-0.095 -0.62,-0.264l-7.29,-7.29l-7.29,7.29c-0.162,0.169 -0.386,0.264 -0.62,0.264c-0.234,0 -0.458,-0.095 -0.62,-0.264l-2.28,-2.28c-0.169,-0.162 -0.264,-0.386 -0.264,-0.62c0,-0.234 0.095,-0.458 0.264,-0.62l10.19,-10.19c0.333,-0.33 0.877,-0.33 1.21,0Z" style="fill:#1f7fc3;fill-rule:nonzero;"/><path d="M205.12,527.05l-10.19,-10.19c-0.169,-0.162 -0.264,-0.386 -0.264,-0.62c0,-0.234 0.095,-0.458 0.264,-0.62l2.28,-2.28c0.162,-0.169 0.386,-0.264 0.62,-0.264c0.234,0 0.458,0.095 0.62,0.264l7.29,7.29l7.29,-7.29c0.162,-0.169 0.386,-0.264 0.62,-0.264c0.234,0 0.458,0.095 0.62,0.264l2.28,2.28c0.169,0.162 0.264,0.386 0.264,0.62c0,0.234 -0.095,0.458 -0.264,0.62l-10.2,10.19c-0.162,0.165 -0.384,0.259 -0.615,0.259c-0.231,0 -0.453,-0.094 -0.615,-0.259Z" style="fill:#1f7fc3;fill-rule:nonzero;"/></svg>