<svg id="Layer_1" data-name="Layer 1" xmlns="http://www.w3.org/2000/svg" width="219" height="793.7" viewBox="0 0 219 793.7">
<style type="text/css">
	.st0{fill:#444444;}
	.st1{fill:#C82027;}
	.st2{fill:#0A8345;}
	.st3{fill:#1F7FC3;}
</style>
<title>asap-bg-icons</title>
<path class="st0" d="M24.4,3.3c0,0.4-0.1,0.7-0.4,1l-12.1,12c-0.5,0.5-1.4,0.5-1.9,0l-7-7C2.4,8.8,2.4,7.9,3,7.4l1.9-1.9
	C5.4,5,6.3,5,6.8,5.5l4.1,4.1l9.2-9.3c0.5-0.5,1.4-0.5,1.9,0l2,2C24.2,2.6,24.4,2.9,24.4,3.3z"/>
<path class="st0" d="M21.8,76.4c0,0.4-0.1,0.7-0.4,1l-1.9,1.9c-0.5,0.5-1.4,0.5-1.9,0l-4.2-4.2l-4.1,4.2c-0.5,0.5-1.3,0.5-1.9,0
	l-2-1.9c-0.5-0.5-0.5-1.4,0-1.9l4.2-4.1l-4.2-4.1c-0.5-0.5-0.5-1.4,0-1.9l2-1.9c0.5-0.5,1.4-0.5,1.9,0l4.1,4.2l4.2-4.2
	c0.5-0.5,1.4-0.5,1.9,0l1.9,1.9c0.5,0.5,0.5,1.4,0,1.9l-4.2,4.1l4.2,4.1C21.7,75.7,21.8,76.1,21.8,76.4z"/>
<path class="st0" d="M9.9,262.4h7.2v-2.7c0-2-1.6-3.6-3.6-3.6l0,0c-2,0-3.6,1.6-3.6,3.6L9.9,262.4L9.9,262.4L9.9,262.4z M21.5,263.8
	v8.1c0,0.7-0.6,1.3-1.3,1.4l0,0H6.7c-0.7,0-1.3-0.6-1.3-1.3l0,0v-8.1c0-0.7,0.6-1.3,1.3-1.4l0,0h0.4v-2.7c0-1.7,0.6-3.3,1.8-4.4
	c2.4-2.4,6.4-2.5,8.8-0.1c0,0,0,0,0.1,0.1c1.2,1.2,1.9,2.8,1.9,4.4v2.7h0.5C20.9,262.4,21.5,263,21.5,263.8L21.5,263.8L21.5,263.8
	L21.5,263.8z"/>
<path class="st0" d="M25.1,323.7v3.6c0,0.5-0.4,0.9-0.9,0.9h-0.9c-0.5,0-0.9-0.4-0.9-0.9v-3.6c0-2-1.6-3.6-3.6-3.6
	c-1,0-1.9,0.4-2.5,1.1c-0.7,0.7-1.1,1.6-1.1,2.5v2.7h1.4c0.7,0,1.3,0.6,1.4,1.3l0,0v8.1c0,0.7-0.6,1.3-1.3,1.4l0,0H3.1
	c-0.7,0-1.3-0.6-1.3-1.3l0,0v-8.1c0-0.7,0.6-1.3,1.3-1.4l0,0h9.4v-2.7c0-3.5,2.8-6.3,6.3-6.3C22.3,317.4,25.1,320.3,25.1,323.7z"/>
<path class="st0" d="M22.1,127.1c0.1,0.3,0.1,0.7-0.2,0.9l-6.1,6.1v9.2c0,0.3-0.2,0.6-0.5,0.7c-0.1,0-0.2,0.1-0.3,0.1
	c-0.2,0-0.4-0.1-0.6-0.2l-3.2-3.2c-0.2-0.1-0.2-0.3-0.2-0.6v-6L4.9,128c-0.2-0.2-0.3-0.6-0.2-0.9c0.1-0.3,0.4-0.5,0.7-0.5h15.9
	C21.7,126.6,22,126.8,22.1,127.1L22.1,127.1L22.1,127.1z"/>
<path class="st0" d="M6.4,207h14.1v-10.3H6.4V207z M10.3,194.8v-2.9c0-0.2-0.1-0.3-0.3-0.3l0,0H9.3c-0.2,0-0.3,0.1-0.3,0.3l0,0v2.9
	c0,0.2,0.1,0.3,0.3,0.3l0,0h0.6C10.1,195.1,10.2,195,10.3,194.8L10.3,194.8L10.3,194.8z M18,194.8v-2.9c0-0.2-0.1-0.3-0.3-0.3l0,0
	H17c-0.2,0-0.3,0.1-0.3,0.3l0,0v2.9c0,0.2,0.1,0.3,0.3,0.3l0,0h0.6C17.8,195.1,17.9,195,18,194.8L18,194.8L18,194.8z M21.9,194.2
	V207c0,0.7-0.6,1.3-1.3,1.3l0,0H6.4c-0.7,0-1.3-0.6-1.3-1.3v-12.9c0-0.7,0.6-1.3,1.3-1.3h1.3v-1c0-0.9,0.7-1.6,1.6-1.6H10
	c0.9,0,1.6,0.7,1.6,1.6v1h3.9v-1c0-0.9,0.7-1.6,1.6-1.6h0.6c0.9,0,1.6,0.7,1.6,1.6v1h1.3C21.2,192.9,21.8,193.5,21.9,194.2
	L21.9,194.2z"/>
<path class="st0" d="M14,648L3.8,658.2c-0.3,0.3-0.9,0.4-1.2,0l0,0l-2.3-2.3c-0.3-0.3-0.4-0.9,0-1.2l0,0l7.3-7.3l-7.3-7.3
	c-0.3-0.3-0.4-0.9,0-1.2l0,0l2.3-2.3c0.3-0.3,0.9-0.4,1.2,0l0,0L14,646.8C14.3,647.1,14.3,647.7,14,648L14,648z"/>
<path class="st0" d="M20.7,455.9l-10.2,10.2c-0.3,0.3-0.9,0.4-1.2,0l0,0L7,463.8c-0.3-0.3-0.4-0.9,0-1.2l0,0l7.3-7.3L7,448
	c-0.3-0.3-0.4-0.9,0-1.2l0,0l2.3-2.3c0.3-0.3,0.9-0.4,1.2,0l0,0l10.2,10.2V455.9z"/>
<path class="st0" d="M6.3,390.7l10.2-10.2c0.3-0.3,0.9-0.4,1.2,0l0,0l2.3,2.3c0.3,0.3,0.4,0.9,0,1.2l0,0l-7.3,7.3l7.3,7.3
	c0.3,0.3,0.4,0.9,0,1.2l0,0l-2.3,2.3c-0.3,0.3-0.9,0.4-1.2,0l0,0L6.3,391.9C5.9,391.6,5.9,391.1,6.3,390.7
	C6.2,390.7,6.3,390.7,6.3,390.7z"/>
<path class="st0" d="M26.8,648l-10.2,10.2c-0.3,0.3-0.9,0.4-1.2,0l0,0l-2.3-2.3c-0.3-0.3-0.4-0.9,0-1.2l0,0l7.3-7.3l-7.3-7.3
	c-0.3-0.3-0.4-0.9,0-1.2l0,0l2.3-2.3c0.3-0.3,0.9-0.4,1.2,0l0,0l10.2,10.2C27.2,647.1,27.2,647.7,26.8,648
	C26.9,648,26.8,648,26.8,648z"/>
<path class="st0" d="M13.1,710.7l10.2-10.2c0.3-0.3,0.9-0.4,1.2,0l0,0l2.3,2.3c0.3,0.3,0.4,0.9,0,1.2l0,0l-7.3,7.3l7.3,7.3
	c0.3,0.3,0.4,0.9,0,1.2l0,0l-2.3,2.3c-0.3,0.3-0.9,0.4-1.2,0l0,0l-10.2-10.2C12.8,711.6,12.8,711.1,13.1,710.7L13.1,710.7z"/>
<path class="st0" d="M0.3,710.7l10.2-10.2c0.3-0.3,0.9-0.4,1.2,0l0,0l2.3,2.3c0.3,0.3,0.4,0.9,0,1.2l0,0l-7.3,7.3l7.3,7.3
	c0.3,0.3,0.4,0.9,0,1.2l0,0l-2.3,2.3c-0.3,0.3-0.9,0.4-1.2,0l0,0L0.3,711.9C-0.1,711.6-0.1,711.1,0.3,710.7
	C0.2,710.7,0.3,710.7,0.3,710.7z"/>
<path class="st0" d="M14.3,576.7l10.2,10.2c0.3,0.3,0.4,0.9,0,1.2l0,0l-2.3,2.3c-0.3,0.3-0.9,0.4-1.2,0l0,0l-7.3-7.3l-7.3,7.3
	c-0.3,0.3-0.9,0.4-1.2,0l0,0l-2.3-2.3c-0.3-0.3-0.4-0.9,0-1.2l0,0l10.2-10.2C13.5,576.4,14,576.4,14.3,576.7z"/>
<path class="st0" d="M13.2,527L3,516.9c-0.3-0.3-0.4-0.9,0-1.2l0,0l2.3-2.3c0.3-0.3,0.9-0.4,1.2,0l0,0l7.3,7.3l7.3-7.3
	c0.3-0.3,0.9-0.4,1.2,0l0,0l2.3,2.3c0.3,0.3,0.4,0.9,0,1.2l0,0L14.4,527C14.1,527.4,13.6,527.4,13.2,527
	C13.2,527.1,13.2,527.1,13.2,527z"/>
<path class="st1" d="M88.4,3.3c0,0.4-0.1,0.7-0.4,1l-12.1,12c-0.5,0.5-1.4,0.5-1.9,0l-7-7c-0.5-0.5-0.5-1.4,0-1.9l1.9-1.9
	c0.5-0.5,1.4-0.5,1.9,0l4.1,4.1l9.2-9.3c0.5-0.5,1.4-0.5,1.9,0l2,2C88.2,2.6,88.4,2.9,88.4,3.3z"/>
<path class="st1" d="M85.8,76.4c0,0.4-0.1,0.7-0.4,1l-1.9,1.9c-0.5,0.5-1.4,0.5-1.9,0l-4.1-4.2l-4.1,4.2c-0.5,0.5-1.3,0.5-1.9,0
	l-2-1.9c-0.5-0.5-0.5-1.4,0-1.9l4.2-4.1l-4.2-4.1c-0.5-0.5-0.5-1.4,0-1.9l2-1.9c0.5-0.5,1.4-0.5,1.9,0l4.1,4.2l4.2-4.2
	c0.5-0.5,1.4-0.5,1.9,0l1.9,1.9c0.5,0.5,0.5,1.4,0,1.9l-4.2,4.1l4.2,4.1C85.7,75.7,85.8,76.1,85.8,76.4z"/>
<path class="st1" d="M73.9,262.4H81v-2.7c0-2-1.6-3.6-3.6-3.6s-3.6,1.6-3.6,3.6L73.9,262.4L73.9,262.4z M85.5,263.8v8.1
	c0,0.7-0.6,1.3-1.3,1.4l0,0H70.7c-0.7,0-1.3-0.6-1.3-1.3l0,0v-8.1c0-0.7,0.6-1.3,1.3-1.4l0,0h0.4v-2.7c0.1-3.5,3.1-6.2,6.5-6
	c3.3,0.1,5.9,2.8,6,6v2.7H84C84.9,262.4,85.5,263,85.5,263.8C85.5,263.7,85.5,263.8,85.5,263.8L85.5,263.8z"/>
<path class="st1" d="M89.1,323.7v3.6c0,0.5-0.4,0.9-0.9,0.9h-0.9c-0.5,0-0.9-0.4-0.9-0.9v-3.6c0-2-1.6-3.6-3.6-3.6s-3.6,1.6-3.6,3.6
	v2.7h1.3c0.7,0,1.3,0.6,1.3,1.3l0,0v8.1c0,0.7-0.6,1.3-1.3,1.4l0,0H67.1c-0.7,0-1.3-0.6-1.3-1.3l0,0v-8.1c0-0.7,0.6-1.3,1.3-1.4l0,0
	h9.4v-2.7c0.1-3.5,3.1-6.2,6.5-6C86.4,317.8,89,320.4,89.1,323.7z"/>
<path class="st1" d="M86.1,127.1c0.1,0.3,0.1,0.7-0.2,0.9l-6.1,6.1v9.2c0,0.3-0.2,0.6-0.5,0.7c-0.1,0-0.2,0.1-0.3,0.1
	c-0.2,0-0.4-0.1-0.6-0.2l-3.2-3.2c-0.2-0.1-0.2-0.3-0.2-0.6v-6l-6.1-6.1c-0.2-0.2-0.3-0.6-0.2-0.9c0.1-0.3,0.4-0.5,0.7-0.5h15.9
	C85.7,126.6,86,126.8,86.1,127.1L86.1,127.1L86.1,127.1z"/>
<path class="st1" d="M70.4,207h14.1v-10.3H70.4V207z M74.3,194.8v-2.9c0-0.2-0.1-0.3-0.3-0.3l0,0h-0.7c-0.2,0-0.3,0.1-0.3,0.3l0,0
	v2.9c0,0.2,0.1,0.3,0.3,0.3l0,0h0.6C74.1,195.1,74.2,195,74.3,194.8L74.3,194.8L74.3,194.8z M82,194.8v-2.9c0-0.2-0.1-0.3-0.3-0.3
	l0,0H81c-0.2,0-0.3,0.1-0.3,0.3l0,0v2.9c0,0.2,0.1,0.3,0.3,0.3l0,0h0.6C81.8,195.1,81.9,195,82,194.8L82,194.8L82,194.8z
	 M85.8,194.2V207c0,0.7-0.6,1.3-1.3,1.3l0,0H70.4c-0.7,0-1.3-0.6-1.3-1.3v-12.9c0-0.7,0.6-1.3,1.3-1.3h1.3v-1c0-0.9,0.7-1.6,1.6-1.6
	H74c0.9,0,1.6,0.7,1.6,1.6v1h3.8v-1c0-0.9,0.7-1.6,1.6-1.6h0.6c0.9,0,1.6,0.7,1.6,1.6v1h1.3C85.2,192.9,85.8,193.5,85.8,194.2
	L85.8,194.2z"/>
<path class="st1" d="M78,648l-10.2,10.2c-0.3,0.3-0.9,0.4-1.2,0l0,0l-2.3-2.3c-0.3-0.3-0.4-0.9,0-1.2l0,0l7.3-7.3l-7.3-7.3
	c-0.3-0.3-0.4-0.9,0-1.2l0,0l2.3-2.3c0.3-0.3,0.9-0.4,1.2,0l0,0L78,646.8C78.3,647.1,78.3,647.7,78,648L78,648z"/>
<path class="st1" d="M84.7,455.9l-10.2,10.2c-0.3,0.3-0.9,0.4-1.2,0l0,0l-2.3-2.3c-0.3-0.3-0.4-0.9,0-1.2l0,0l7.3-7.3L71,448
	c-0.3-0.3-0.4-0.9,0-1.2l0,0l2.3-2.3c0.3-0.3,0.9-0.4,1.2,0l0,0l10.2,10.2C85,455,85,455.6,84.7,455.9L84.7,455.9z"/>
<path class="st1" d="M70.3,390.7l10.2-10.2c0.3-0.3,0.9-0.4,1.2,0l0,0l2.3,2.3c0.3,0.3,0.4,0.9,0,1.2l0,0l-7.3,7.3l7.3,7.3
	c0.3,0.3,0.4,0.9,0,1.2l0,0l-2.3,2.3c-0.3,0.3-0.9,0.4-1.2,0l0,0l-10.2-10.2C69.9,391.6,69.9,391.1,70.3,390.7
	C70.2,390.7,70.3,390.7,70.3,390.7z"/>
<path class="st1" d="M90.8,648l-10.2,10.2c-0.3,0.3-0.9,0.4-1.2,0l0,0l-2.3-2.3c-0.3-0.3-0.4-0.9,0-1.2l0,0l7.3-7.3l-7.3-7.3
	c-0.3-0.3-0.4-0.9,0-1.2l0,0l2.3-2.3c0.3-0.3,0.9-0.4,1.2,0l0,0l10.2,10.2C91.2,647.1,91.2,647.7,90.8,648
	C90.9,648,90.8,648,90.8,648z"/>
<path class="st1" d="M77.1,710.7l10.2-10.2c0.3-0.3,0.9-0.4,1.2,0l0,0l2.3,2.3c0.3,0.3,0.4,0.9,0,1.2l0,0l-7.3,7.3l7.3,7.3
	c0.3,0.3,0.4,0.9,0,1.2l0,0l-2.3,2.3c-0.3,0.3-0.9,0.4-1.2,0l0,0l-10.2-10.2C76.8,711.6,76.8,711.1,77.1,710.7L77.1,710.7z"/>
<path class="st1" d="M64.3,710.7l10.2-10.2c0.3-0.3,0.9-0.4,1.2,0l0,0l2.3,2.3c0.3,0.3,0.4,0.9,0,1.2l0,0l-7.3,7.3l7.3,7.3
	c0.3,0.3,0.4,0.9,0,1.2l0,0l-2.3,2.3c-0.3,0.3-0.9,0.4-1.2,0l0,0l-10.2-10.2C63.9,711.6,63.9,711.1,64.3,710.7
	C64.2,710.7,64.3,710.7,64.3,710.7z"/>
<path class="st1" d="M78.3,576.7l10.2,10.2c0.3,0.3,0.4,0.9,0,1.2l0,0l-2.3,2.3c-0.3,0.3-0.9,0.4-1.2,0l0,0l-7.3-7.3l-7.3,7.3
	c-0.3,0.3-0.9,0.4-1.2,0l0,0l-2.3-2.3c-0.3-0.3-0.4-0.9,0-1.2l0,0l10.2-10.2C77.5,576.4,78,576.4,78.3,576.7z"/>
<path class="st1" d="M77.2,527L67,516.9c-0.3-0.3-0.4-0.9,0-1.2l0,0l2.3-2.3c0.3-0.3,0.9-0.4,1.2,0l0,0l7.3,7.3l7.3-7.3
	c0.3-0.3,0.9-0.4,1.2,0l0,0l2.3,2.3c0.3,0.3,0.4,0.9,0,1.2l0,0L78.4,527C78.1,527.4,77.6,527.4,77.2,527
	C77.2,527.1,77.2,527.1,77.2,527z"/>
<path class="st2" d="M152.3,3.3c0,0.4-0.1,0.7-0.4,1l-12.1,12c-0.5,0.5-1.4,0.5-1.9,0l-7-7c-0.5-0.5-0.5-1.4,0-1.9l1.9-1.9
	c0.5-0.5,1.4-0.5,1.9,0l4.1,4.1l9.2-9.3c0.5-0.5,1.4-0.5,1.9,0l1.9,1.9C152.1,2.6,152.3,2.9,152.3,3.3z"/>
<path class="st2" d="M149.7,76.4c0,0.4-0.1,0.7-0.4,1l-1.9,1.9c-0.5,0.5-1.4,0.5-1.9,0l-4.1-4.1l-4.2,4.1c-0.5,0.5-1.4,0.5-1.9,0
	l-1.9-1.9c-0.5-0.5-0.5-1.4,0-1.9l4.1-4.2l-4.1-4.1c-0.5-0.5-0.5-1.4,0-1.9l1.9-1.9c0.5-0.5,1.4-0.5,1.9,0l4.1,4.1l4.1-4.1
	c0.5-0.5,1.4-0.6,1.9,0l0,0l1.9,1.9c0.5,0.5,0.5,1.4,0,1.9l-4.2,4.2l4.1,4.1C149.6,75.7,149.7,76,149.7,76.4z"/>
<path class="st2" d="M137.8,262.4h7.2v-2.7c0-2-1.6-3.6-3.6-3.6s-3.6,1.6-3.6,3.6L137.8,262.4L137.8,262.4z M149.4,263.8v8.1
	c0,0.7-0.6,1.3-1.3,1.4l0,0h-13.5c-0.7,0-1.3-0.6-1.4-1.3l0,0v-8.1c0-0.7,0.6-1.3,1.3-1.4l0,0h0.4v-2.7c0.1-3.5,3.1-6.2,6.5-6
	c3.3,0.1,5.9,2.8,6,6v2.7h0.4C148.8,262.4,149.4,263,149.4,263.8C149.5,263.7,149.5,263.8,149.4,263.8L149.4,263.8L149.4,263.8z"/>
<path class="st2" d="M153,323.7v3.6c0,0.5-0.4,0.9-0.9,0.9h-0.9c-0.5,0-0.9-0.4-0.9-0.9v-3.6c0-2-1.6-3.6-3.6-3.6s-3.6,1.6-3.6,3.6
	v2.7h1.4c0.7,0,1.3,0.6,1.4,1.3l0,0v8.1c0,0.7-0.6,1.3-1.3,1.4l0,0H131c-0.7,0-1.3-0.6-1.4-1.3l0,0v-8.1c0-0.7,0.6-1.3,1.3-1.4l0,0
	h9.4v-2.7c0-3.5,2.8-6.3,6.3-6.3S153,320.2,153,323.7z"/>
<path class="st2" d="M150,127.1c0.1,0.3,0.1,0.7-0.2,0.9l-6.1,6.1v9.2c0,0.3-0.2,0.6-0.5,0.7c-0.1,0-0.2,0.1-0.3,0.1
	c-0.2,0-0.4-0.1-0.6-0.2l-3.2-3.2c-0.2-0.1-0.2-0.3-0.2-0.6v-6l-6.1-6.1c-0.2-0.2-0.3-0.6-0.2-0.9s0.4-0.5,0.7-0.5h15.9
	C149.6,126.6,149.9,126.8,150,127.1L150,127.1L150,127.1z"/>
<path class="st2" d="M134.3,207h14.1v-10.3h-14.1V207z M138.2,194.8v-2.9c0-0.2-0.1-0.3-0.3-0.3l0,0h-0.6c-0.2,0-0.3,0.1-0.3,0.3
	l0,0v2.9c0,0.2,0.1,0.3,0.3,0.3l0,0h0.6C138,195.1,138.2,195,138.2,194.8L138.2,194.8z M145.9,194.8v-2.9c0-0.2-0.1-0.3-0.3-0.3l0,0
	H145c-0.2,0-0.3,0.1-0.3,0.3l0,0v2.9c0,0.2,0.1,0.3,0.3,0.3l0,0h0.6C145.7,195.1,145.9,195,145.9,194.8L145.9,194.8L145.9,194.8z
	 M149.7,194.2V207c0,0.7-0.6,1.3-1.3,1.3h-14.1c-0.7,0-1.3-0.6-1.3-1.3v-12.9c0-0.7,0.6-1.3,1.3-1.3h1.3v-1c0-0.9,0.7-1.6,1.6-1.6
	h0.6c0.9,0,1.6,0.7,1.6,1.6v1h3.9v-1c0-0.9,0.7-1.6,1.6-1.6h0.6c0.9,0,1.6,0.7,1.6,1.6v1h1.3C149.1,192.9,149.7,193.5,149.7,194.2
	L149.7,194.2z"/>
<path class="st2" d="M141.9,648l-10.2,10.2c-0.3,0.3-0.9,0.4-1.2,0l0,0l-2.3-2.3c-0.3-0.3-0.4-0.9,0-1.2l0,0l7.3-7.3l-7.3-7.3
	c-0.3-0.3-0.4-0.9,0-1.2l0,0l2.3-2.3c0.3-0.3,0.9-0.4,1.2,0l0,0l10.2,10.2C142.2,647.1,142.2,647.7,141.9,648L141.9,648z"/>
<path class="st2" d="M148.6,455.9l-10.2,10.2c-0.3,0.3-0.9,0.4-1.2,0l0,0l-2.3-2.3c-0.3-0.3-0.4-0.9,0-1.2l0,0l7.3-7.3l-7.3-7.3
	c-0.3-0.3-0.4-0.9,0-1.2l0,0l2.3-2.3c0.3-0.3,0.9-0.4,1.2,0l0,0l10.2,10.2C148.9,455,148.9,455.6,148.6,455.9L148.6,455.9z"/>
<path class="st2" d="M134.2,390.7l10.2-10.2c0.3-0.3,0.9-0.4,1.2,0l0,0l2.3,2.3c0.3,0.3,0.4,0.9,0,1.2l0,0l-7.3,7.3l7.3,7.3
	c0.3,0.3,0.4,0.9,0,1.2l0,0l-2.3,2.3c-0.3,0.3-0.9,0.4-1.2,0l0,0l-10.2-10.2C133.8,391.6,133.8,391.1,134.2,390.7L134.2,390.7z"/>
<path class="st2" d="M154.7,648l-10.2,10.2c-0.3,0.3-0.9,0.4-1.2,0l0,0l-2.3-2.3c-0.3-0.3-0.4-0.9,0-1.2l0,0l7.3-7.3l-7.3-7.3
	c-0.3-0.3-0.4-0.9,0-1.2l0,0l2.3-2.3c0.3-0.3,0.9-0.4,1.2,0l0,0l10.2,10.2c0.5,0,0.9,0.1,0.9,0.6C155.6,647.9,155.2,648.3,154.7,648
	z"/>
<path class="st2" d="M141,710.7l10.2-10.2c0.3-0.3,0.9-0.4,1.2,0l0,0l2.3,2.3c0.3,0.3,0.4,0.9,0,1.2l0,0l-7.3,7.3l7.3,7.3
	c0.3,0.3,0.4,0.9,0,1.2l0,0l-2.3,2.3c-0.3,0.3-0.9,0.4-1.2,0l0,0L141,711.9C140.7,711.6,140.7,711.1,141,710.7L141,710.7z"/>
<path class="st2" d="M128.2,710.7l10.2-10.2c0.3-0.3,0.9-0.4,1.2,0l0,0l2.3,2.3c0.3,0.3,0.4,0.9,0,1.2l0,0l-7.3,7.3l7.3,7.3
	c0.3,0.3,0.4,0.9,0,1.2l0,0l-2.3,2.3c-0.3,0.3-0.9,0.4-1.2,0l0,0l-10.2-10.2c-0.5,0-0.9-0.1-0.9-0.6
	C127.3,710.8,127.7,710.5,128.2,710.7z"/>
<path class="st2" d="M142.2,576.7l10.2,10.2c0.3,0.3,0.4,0.9,0,1.2l0,0l-2.3,2.3c-0.3,0.3-0.9,0.4-1.2,0l0,0l-7.3-7.3l-7.3,7.3
	c-0.3,0.3-0.9,0.4-1.2,0l0,0l-2.3-2.3c-0.3-0.3-0.4-0.9,0-1.2l0,0l10.2-10.2C141.4,576.4,141.9,576.4,142.2,576.7z"/>
<path class="st2" d="M141.1,527l-10.2-10.2c-0.3-0.3-0.4-0.9,0-1.2l0,0l2.3-2.3c0.3-0.3,0.9-0.4,1.2,0l0,0l7.3,7.3l7.3-7.3
	c0.3-0.3,0.9-0.4,1.2,0l0,0l2.3,2.3c0.3,0.3,0.4,0.9,0,1.2l0,0L142.3,527C142,527.4,141.5,527.4,141.1,527
	C141.1,527.1,141.1,527.1,141.1,527z"/>
<path class="st3" d="M216.3,3.3c0,0.4-0.1,0.7-0.4,1l-12.1,12c-0.5,0.5-1.4,0.5-1.9,0l-7-7c-0.5-0.5-0.5-1.4,0-1.9l1.9-1.9
	c0.5-0.5,1.4-0.5,1.9,0l4.1,4.1l9.2-9.3c0.5-0.5,1.4-0.5,1.9,0l1.9,1.9C216.1,2.6,216.3,2.9,216.3,3.3z"/>
<path class="st3" d="M213.7,76.4c0,0.4-0.1,0.7-0.4,1l-1.9,1.9c-0.5,0.5-1.4,0.5-1.9,0l-4.1-4.1l-4.2,4.1c-0.5,0.5-1.4,0.5-1.9,0
	l-1.9-1.9c-0.5-0.5-0.5-1.4,0-1.9l4.1-4.2l-4.1-4.1c-0.5-0.5-0.5-1.4,0-1.9l1.9-1.9c0.5-0.5,1.4-0.5,1.9,0l4.1,4.1l4.1-4.1
	c0.5-0.5,1.4-0.6,1.9,0l0,0l1.9,1.9c0.5,0.5,0.5,1.4,0,1.9l-4.2,4.2l4.1,4.1C213.6,75.7,213.7,76,213.7,76.4z"/>
<path class="st3" d="M201.8,262.4h7.2v-2.7c0-2-1.6-3.6-3.6-3.6s-3.6,1.6-3.6,3.6L201.8,262.4L201.8,262.4z M213.4,263.8v8.1
	c0,0.7-0.6,1.3-1.3,1.4l0,0h-13.5c-0.7,0-1.3-0.6-1.4-1.3l0,0v-8.1c0-0.7,0.6-1.3,1.3-1.4l0,0h0.4v-2.7c0.1-3.5,3.1-6.2,6.5-6
	c3.3,0.1,5.9,2.8,6,6v2.7h0.4C212.8,262.4,213.4,263,213.4,263.8C213.5,263.7,213.5,263.8,213.4,263.8L213.4,263.8L213.4,263.8z"/>
<path class="st3" d="M217,323.7v3.6c0,0.5-0.4,0.9-0.9,0.9h-0.9c-0.5,0-0.9-0.4-0.9-0.9v-3.6c0-2-1.6-3.6-3.6-3.6s-3.6,1.6-3.6,3.6
	v2.7h1.4c0.7,0,1.3,0.6,1.4,1.3l0,0v8.1c0,0.7-0.6,1.3-1.3,1.4l0,0H195c-0.7,0-1.3-0.6-1.4-1.3l0,0v-8.1c0-0.7,0.6-1.3,1.3-1.4l0,0
	h9.4v-2.7c0-3.5,2.8-6.3,6.3-6.3S217,320.2,217,323.7z"/>
<path class="st3" d="M214,127.1c0.1,0.3,0.1,0.7-0.2,0.9l-6.1,6.1v9.2c0,0.3-0.2,0.6-0.5,0.7c-0.1,0-0.2,0.1-0.3,0.1
	c-0.2,0-0.4-0.1-0.6-0.2l-3.2-3.2c-0.2-0.1-0.2-0.3-0.2-0.6v-6l-6.1-6.1c-0.2-0.2-0.3-0.6-0.2-0.9s0.4-0.5,0.7-0.5h15.9
	C213.6,126.6,213.9,126.8,214,127.1L214,127.1L214,127.1z"/>
<path class="st3" d="M198.3,207h14.1v-10.3h-14.1V207z M202.2,194.8v-2.9c0-0.2-0.1-0.3-0.3-0.3l0,0h-0.6c-0.2,0-0.3,0.1-0.3,0.3
	l0,0v2.9c0,0.2,0.1,0.3,0.3,0.3l0,0h0.6C202,195.1,202.2,195,202.2,194.8L202.2,194.8z M209.9,194.8v-2.9c0-0.2-0.1-0.3-0.3-0.3l0,0
	H209c-0.2,0-0.3,0.1-0.3,0.3l0,0v2.9c0,0.2,0.1,0.3,0.3,0.3l0,0h0.6C209.7,195.1,209.9,195,209.9,194.8L209.9,194.8L209.9,194.8z
	 M213.7,194.2V207c0,0.7-0.6,1.3-1.3,1.3h-14.1c-0.7,0-1.3-0.6-1.3-1.3v-12.9c0-0.7,0.6-1.3,1.3-1.3h1.3v-1c0-0.9,0.7-1.6,1.6-1.6
	h0.6c0.9,0,1.6,0.7,1.6,1.6v1h3.9v-1c0-0.9,0.7-1.6,1.6-1.6h0.6c0.9,0,1.6,0.7,1.6,1.6v1h1.3C213.1,192.9,213.7,193.5,213.7,194.2
	L213.7,194.2z"/>
<path class="st3" d="M205.9,648l-10.2,10.2c-0.3,0.3-0.9,0.4-1.2,0l0,0l-2.3-2.3c-0.3-0.3-0.4-0.9,0-1.2l0,0l7.3-7.3l-7.3-7.3
	c-0.3-0.3-0.4-0.9,0-1.2l0,0l2.3-2.3c0.3-0.3,0.9-0.4,1.2,0l0,0l10.2,10.2C206.2,647.1,206.2,647.7,205.9,648L205.9,648z"/>
<path class="st3" d="M212.6,455.9l-10.2,10.2c-0.3,0.3-0.9,0.4-1.2,0l0,0l-2.3-2.3c-0.3-0.3-0.4-0.9,0-1.2l0,0l7.3-7.3l-7.3-7.3
	c-0.3-0.3-0.4-0.9,0-1.2l0,0l2.3-2.3c0.3-0.3,0.9-0.4,1.2,0l0,0l10.2,10.2C212.9,455,212.9,455.6,212.6,455.9L212.6,455.9z"/>
<path class="st3" d="M198.2,390.7l10.2-10.2c0.3-0.3,0.9-0.4,1.2,0l0,0l2.3,2.3c0.3,0.3,0.4,0.9,0,1.2l0,0l-7.3,7.3l7.3,7.3
	c0.3,0.3,0.4,0.9,0,1.2l0,0l-2.3,2.3c-0.3,0.3-0.9,0.4-1.2,0l0,0l-10.2-10.2C197.8,391.6,197.8,391.1,198.2,390.7L198.2,390.7z"/>
<path class="st3" d="M218.7,648l-10.2,10.2c-0.3,0.3-0.9,0.4-1.2,0l0,0l-2.3-2.3c-0.3-0.3-0.4-0.9,0-1.2l0,0l7.3-7.3l-7.3-7.3
	c-0.3-0.3-0.4-0.9,0-1.2l0,0l2.3-2.3c0.3-0.3,0.9-0.4,1.2,0l0,0l10.2,10.2c0.5,0,0.9,0.1,0.9,0.6C219.6,647.9,219.2,648.3,218.7,648
	z"/>
<path class="st3" d="M205,710.7l10.2-10.2c0.3-0.3,0.9-0.4,1.2,0l0,0l2.3,2.3c0.3,0.3,0.4,0.9,0,1.2l0,0l-7.3,7.3l7.3,7.3
	c0.3,0.3,0.4,0.9,0,1.2l0,0l-2.3,2.3c-0.3,0.3-0.9,0.4-1.2,0l0,0L205,711.9C204.7,711.6,204.7,711.1,205,710.7L205,710.7z"/>
<path class="st3" d="M192.2,710.7l10.2-10.2c0.3-0.3,0.9-0.4,1.2,0l0,0l2.3,2.3c0.3,0.3,0.4,0.9,0,1.2l0,0l-7.3,7.3l7.3,7.3
	c0.3,0.3,0.4,0.9,0,1.2l0,0l-2.3,2.3c-0.3,0.3-0.9,0.4-1.2,0l0,0l-10.2-10.2c-0.5,0-0.9-0.1-0.9-0.6S191.7,710.5,192.2,710.7z"/>
<path class="st3" d="M206.2,576.7l10.2,10.2c0.3,0.3,0.4,0.9,0,1.2l0,0l-2.3,2.3c-0.3,0.3-0.9,0.4-1.2,0l0,0l-7.3-7.3l-7.3,7.3
	c-0.3,0.3-0.9,0.4-1.2,0l0,0l-2.3-2.3c-0.3-0.3-0.4-0.9,0-1.2l0,0l10.2-10.2C205.4,576.4,205.9,576.4,206.2,576.7z"/>
<path class="st3" d="M205.1,527l-10.2-10.2c-0.3-0.3-0.4-0.9,0-1.2l0,0l2.3-2.3c0.3-0.3,0.9-0.4,1.2,0l0,0l7.3,7.3l7.3-7.3
	c0.3-0.3,0.9-0.4,1.2,0l0,0l2.3,2.3c0.3,0.3,0.4,0.9,0,1.2l0,0L206.3,527C206,527.4,205.5,527.4,205.1,527
	C205.1,527.1,205.1,527.1,205.1,527z"/>
<path class="st1" d="M90.7,780.5C90.7,780.6,90.7,780.6,90.7,780.5c-0.8,3.3-2.3,5.8-4.7,7.8s-5.2,2.9-8.4,2.9c-1.7,0-3.4-0.3-5-1
	c-1.6-0.6-3-1.6-4.3-2.8l-2.3,2.3c-0.2,0.2-0.5,0.3-0.8,0.3s-0.6-0.1-0.8-0.3S64,789.3,64,789v-7.9c0-0.3,0.1-0.6,0.3-0.8
	s0.5-0.3,0.8-0.3H73c0.3,0,0.6,0.1,0.8,0.3s0.3,0.5,0.3,0.8s-0.1,0.6-0.3,0.8l-2.4,2.4c0.8,0.8,1.8,1.4,2.8,1.8s2.2,0.6,3.3,0.6
	c1.6,0,3-0.4,4.4-1.1c1.4-0.8,2.5-1.8,3.3-3.2c0.1-0.2,0.4-0.9,0.9-2.1c0.1-0.3,0.3-0.4,0.5-0.4H90c0.2,0,0.3,0.1,0.4,0.2
	C90.6,780.2,90.7,780.4,90.7,780.5z M91.1,766.4v7.9c0,0.3-0.1,0.6-0.3,0.8s-0.5,0.3-0.8,0.3h-7.9c-0.3,0-0.6-0.1-0.8-0.3
	s-0.3-0.5-0.3-0.8s0.1-0.6,0.3-0.8l2.4-2.4c-1.7-1.6-3.8-2.4-6.2-2.4c-1.6,0-3,0.4-4.4,1.1s-2.5,1.8-3.3,3.2
	c-0.1,0.2-0.4,0.9-0.9,2.1c-0.1,0.3-0.3,0.4-0.5,0.4h-3.5c-0.2,0-0.3-0.1-0.4-0.2c-0.1-0.1-0.2-0.2-0.2-0.4v-0.1
	c0.8-3.2,2.4-5.7,4.8-7.7s5.2-2.9,8.5-2.9c1.7,0,3.4,0.3,5,1s3.1,1.6,4.3,2.8l2.3-2.3c0.2-0.2,0.5-0.3,0.8-0.3s0.6,0.1,0.8,0.3
	S91.1,766.1,91.1,766.4L91.1,766.4z"/>
<path class="st0" d="M27.4,780.5C27.4,780.6,27.4,780.6,27.4,780.5c-0.8,3.3-2.3,5.8-4.7,7.8s-5.2,2.9-8.4,2.9c-1.7,0-3.4-0.3-5-1
	c-1.6-0.6-3-1.6-4.3-2.8l-2.3,2.3c-0.2,0.2-0.5,0.3-0.8,0.3s-0.6-0.1-0.8-0.3s-0.4-0.4-0.4-0.7v-7.9c0-0.3,0.1-0.6,0.3-0.8
	s0.5-0.3,0.8-0.3h7.9c0.3,0,0.6,0.1,0.8,0.3s0.3,0.5,0.3,0.8s-0.1,0.6-0.3,0.8l-2.4,2.4c0.8,0.8,1.8,1.4,2.8,1.8s2.2,0.6,3.3,0.6
	c1.6,0,3-0.4,4.4-1.1c1.4-0.8,2.5-1.8,3.3-3.2c0.1-0.2,0.4-0.9,0.9-2.1c0.1-0.3,0.3-0.4,0.5-0.4h3.4c0.2,0,0.3,0.1,0.4,0.2
	C27.3,780.2,27.4,780.4,27.4,780.5z M27.8,766.4v7.9c0,0.3-0.1,0.6-0.3,0.8s-0.5,0.3-0.8,0.3h-7.9c-0.3,0-0.6-0.1-0.8-0.3
	s-0.3-0.5-0.3-0.8s0.1-0.6,0.3-0.8l2.4-2.4c-1.7-1.6-3.8-2.4-6.2-2.4c-1.6,0-3,0.4-4.4,1.1s-2.5,1.8-3.3,3.2
	c-0.1,0.2-0.4,0.9-0.9,2.1c-0.1,0.3-0.3,0.4-0.5,0.4H1.6c-0.2,0-0.3-0.1-0.4-0.2c-0.1-0.1-0.2-0.2-0.2-0.4v-0.1
	c0.8-3.2,2.4-5.7,4.8-7.7s5.2-2.9,8.5-2.9c1.7,0,3.4,0.3,5,1s3.1,1.6,4.3,2.8l2.3-2.3c0.2-0.2,0.5-0.3,0.8-0.3s0.6,0.1,0.8,0.3
	S27.8,766.1,27.8,766.4L27.8,766.4z"/>
<path class="st2" d="M154.6,780.5C154.6,780.6,154.6,780.6,154.6,780.5c-0.8,3.3-2.3,5.8-4.7,7.8s-5.2,2.9-8.4,2.9
	c-1.7,0-3.4-0.3-5-1c-1.6-0.6-3-1.6-4.3-2.8l-2.3,2.3c-0.2,0.2-0.5,0.3-0.8,0.3s-0.6-0.1-0.8-0.3s-0.3-0.5-0.3-0.8V781
	c0-0.3,0.1-0.6,0.3-0.8s0.5-0.3,0.8-0.3h7.9c0.3,0,0.6,0.1,0.8,0.3s0.3,0.5,0.3,0.8s-0.1,0.6-0.3,0.8l-2.4,2.4
	c0.8,0.8,1.8,1.4,2.8,1.8s2.2,0.6,3.3,0.6c1.6,0,3-0.4,4.4-1.1c1.4-0.8,2.5-1.8,3.3-3.2c0.1-0.2,0.4-0.9,0.9-2.1
	c0.1-0.3,0.3-0.4,0.5-0.4h3.4c0.2,0,0.3,0.1,0.4,0.2C154.5,780.2,154.6,780.4,154.6,780.5z M155,766.4v7.9c0,0.3-0.1,0.6-0.3,0.8
	s-0.5,0.3-0.8,0.3H146c-0.3,0-0.6-0.1-0.8-0.3s-0.3-0.5-0.3-0.8s0.1-0.6,0.3-0.8l2.4-2.4c-1.7-1.6-3.8-2.4-6.2-2.4
	c-1.6,0-3,0.4-4.4,1.1c-1.4,0.8-2.5,1.8-3.3,3.2c-0.1,0.2-0.4,0.9-0.9,2.1c-0.1,0.3-0.3,0.4-0.5,0.4h-3.5c-0.2,0-0.3-0.1-0.4-0.2
	c-0.1-0.1-0.2-0.2-0.2-0.4v-0.1c0.8-3.2,2.4-5.7,4.8-7.7c2.4-2,5.2-2.9,8.5-2.9c1.7,0,3.4,0.3,5,1s3.1,1.6,4.3,2.8l2.3-2.3
	c0.2-0.2,0.5-0.3,0.8-0.3s0.6,0.1,0.8,0.3S155,766.1,155,766.4L155,766.4z"/>
<path class="st3" d="M218.6,780.5C218.6,780.6,218.6,780.6,218.6,780.5c-0.8,3.3-2.3,5.8-4.7,7.8s-5.2,2.9-8.4,2.9
	c-1.7,0-3.4-0.3-5-1c-1.6-0.6-3-1.6-4.3-2.8l-2.3,2.3c-0.2,0.2-0.5,0.3-0.8,0.3s-0.6-0.1-0.8-0.3s-0.3-0.5-0.3-0.8V781
	c0-0.3,0.1-0.6,0.3-0.8s0.5-0.3,0.8-0.3h7.9c0.3,0,0.6,0.1,0.8,0.3s0.3,0.5,0.3,0.8s-0.1,0.6-0.3,0.8l-2.4,2.4
	c0.8,0.8,1.8,1.4,2.8,1.8s2.2,0.6,3.3,0.6c1.6,0,3-0.4,4.4-1.1c1.4-0.8,2.5-1.8,3.3-3.2c0.1-0.2,0.4-0.9,0.9-2.1
	c0.1-0.3,0.3-0.4,0.5-0.4h3.4c0.2,0,0.3,0.1,0.4,0.2C218.5,780.2,218.6,780.4,218.6,780.5z M219,766.4v7.9c0,0.3-0.1,0.6-0.3,0.8
	s-0.5,0.3-0.8,0.3H210c-0.3,0-0.6-0.1-0.8-0.3s-0.3-0.5-0.3-0.8s0.1-0.6,0.3-0.8l2.4-2.4c-1.7-1.6-3.8-2.4-6.2-2.4
	c-1.6,0-3,0.4-4.4,1.1c-1.4,0.8-2.5,1.8-3.3,3.2c-0.1,0.2-0.4,0.9-0.9,2.1c-0.1,0.3-0.3,0.4-0.5,0.4h-3.5c-0.2,0-0.3-0.1-0.4-0.2
	c-0.1-0.1-0.2-0.2-0.2-0.4v-0.1c0.8-3.2,2.4-5.7,4.8-7.7c2.4-2,5.2-2.9,8.5-2.9c1.7,0,3.4,0.3,5,1s3.1,1.6,4.3,2.8l2.3-2.3
	c0.2-0.2,0.5-0.3,0.8-0.3s0.6,0.1,0.8,0.3S219,766.1,219,766.4L219,766.4z"/>
</svg>
