<?xml version="1.0" standalone="no"?><!DOCTYPE svg PUBLIC "-//W3C//DTD SVG 1.1//EN" "http://www.w3.org/Graphics/SVG/1.1/DTD/svg11.dtd"><svg width="100%" height="100%" viewBox="0 0 151 90" version="1.1" xmlns="http://www.w3.org/2000/svg" xmlns:xlink="http://www.w3.org/1999/xlink" xml:space="preserve" style="fill-rule:evenodd;clip-rule:evenodd;stroke-linejoin:round;stroke-miterlimit:1.41421;"><g id="Logo"><g><path d="M45.982,0.014l-45.982,89.872l16.508,0l45.98,-89.872l-16.506,0l0,0Z" style="fill:#c90107;fill-rule:nonzero;"/><path d="M94.067,0l-0.001,0.014l-16.244,0l0.002,89.879l16.425,0l0,-18.474l21.461,0l9.412,18.467l16.349,0l-45.198,-89.886l-2.206,0l0,0ZM94.249,29.273l14.769,28.998l-14.769,0l0,-28.998Z" style="fill:#c90107;fill-rule:nonzero;"/><path d="M48.895,58.345l14.742,0l0,-29.033l-14.742,29.033Z" style="fill:#c90107;fill-rule:nonzero;"/><path d="M42.095,71.76l-9.194,18.158l30.814,0l0,-18.158l-21.62,0l0,0Z" style="fill:#c90107;fill-rule:nonzero;"/><clipPath id="_clip1"><path d="M-63.246,-63.275l0,217.526l269.168,0l-0.298,-217.526l-268.87,0Z"/></clipPath><g clip-path="url(#_clip1)"><path d="M145.396,81.717l0.628,0c0.694,0 1.287,-0.256 1.287,-0.912c0,-0.468 -0.336,-0.937 -1.287,-0.937c-0.28,0 -0.472,0.025 -0.628,0.045l0,1.804ZM145.396,84.669l-0.845,0l0,-5.329c0.447,-0.062 0.87,-0.128 1.507,-0.128c0.807,0 1.342,0.175 1.661,0.406c0.314,0.229 0.489,0.593 0.489,1.101c0,0.701 -0.471,1.128 -1.044,1.299l0,0.037c0.468,0.088 0.783,0.514 0.892,1.297c0.125,0.823 0.257,1.148 0.338,1.317l-0.887,0c-0.132,-0.169 -0.255,-0.658 -0.364,-1.358c-0.13,-0.679 -0.459,-0.938 -1.147,-0.938l-0.6,0l0,2.296ZM146.301,77.854c-2.107,0 -3.823,1.804 -3.823,4.036c0,2.264 1.716,4.051 3.837,4.051c2.121,0.025 3.829,-1.787 3.829,-4.028c0,-2.255 -1.708,-4.059 -3.829,-4.059l-0.014,0ZM146.315,77.11c2.616,0 4.685,2.121 4.685,4.78c0,2.692 -2.069,4.793 -4.699,4.793c-2.614,0 -4.733,-2.101 -4.733,-4.793c0,-2.659 2.119,-4.78 4.733,-4.78l0.014,0Z" style="fill:#c90107;fill-rule:nonzero;"/></g></g></g></svg>