<svg style="position: absolute; width: 0; height: 0;" width="0" height="0" version="1.1" xmlns="http://www.w3.org/2000/svg" xmlns:xlink="http://www.w3.org/1999/xlink">

	<symbol id="icon-close" viewBox="0 0 24 24"><!--entypo - cross-->
		<title>Close</title>
		<path d="M20.1,20.1c-0.8,0.8-1.4,1.3-2.2,0.5L12,14.7l-5.9,5.9c-0.8,0.8-1.4,0.2-2.2-0.5s-1.3-1.4-0.5-2.2L9.3,12L3.4,6.1
			C2.6,5.3,3.2,4.6,3.9,3.9s1.4-1.3,2.2-0.5L12,9.3l5.9-5.9c0.8-0.8,1.4-0.2,2.2,0.5s1.3,1.4,0.5,2.2L14.7,12l5.9,5.9
			C21.4,18.7,20.9,19.4,20.1,20.1z"/>
	</symbol>
	
	<symbol id="icon-plus" viewBox="0 0 22 28"> <!-- font awesome -->
		<title>Plus</title>
		<path class="path1" d="M22 11.5v3q0 0.625-0.438 1.062t-1.062 0.438h-6.5v6.5q0 0.625-0.438 1.062t-1.062 0.438h-3q-0.625 0-1.062-0.438t-0.438-1.062v-6.5h-6.5q-0.625 0-1.062-0.438t-0.438-1.062v-3q0-0.625 0.438-1.062t1.062-0.438h6.5v-6.5q0-0.625 0.438-1.062t1.062-0.438h3q0.625 0 1.062 0.438t0.438 1.062v6.5h6.5q0.625 0 1.062 0.438t0.438 1.062z"></path>
	</symbol>
	
	<symbol id="icon-plus-thin" viewBox="0 0 40 40"><!--entypo - plus-->
		<title>Plus Thin</title>
		<path d="M32 20c0 1.106-0.096 2-1.202 2h-8.798v8.798c0 1.104-0.894 1.202-2 1.202s-2-0.098-2-1.202v-8.798h-8.798c-1.104 0-1.202-0.894-1.202-2s0.098-2 1.202-2h8.798v-8.798c0-1.106 0.894-1.202 2-1.202s2 0.096 2 1.202v8.798h8.798c1.106 0 1.202 0.894 1.202 2z"></path>
	</symbol>
	
	<symbol id="icon-update" viewBox="0 0 877.716036478756 1024"><!--fa - plus-->
		<title>Update</title>
		<path class="path1" d="M877.714 146.286v256q0 14.857-10.857 25.714t-25.714 10.857h-256q-24 0-33.714-22.857-9.714-22.286 8-39.429l78.857-78.857q-84.571-78.286-199.429-78.286-59.429 0-113.429 23.143t-93.429 62.571-62.571 93.429-23.143 113.429 23.143 113.429 62.571 93.429 93.429 62.571 113.429 23.143q68 0 128.571-29.714t102.286-84q4-5.714 13.143-6.857 8 0 14.286 5.143l78.286 78.857q5.143 4.571 5.429 11.714t-4.286 12.857q-62.286 75.429-150.857 116.857t-186.857 41.429q-89.143 0-170.286-34.857t-140-93.714-93.714-140-34.857-170.286 34.857-170.286 93.714-140 140-93.714 170.286-34.857q84 0 162.571 31.714t139.714 89.429l74.286-73.714q16.571-17.714 40-8 22.286 9.714 22.286 33.714z"></path>
	</symbol>
	
	<symbol id="icon-chevron-down" viewBox="0 0 40 40"><!-- entypo - chevron down-->
		<title>Chevron Down</title>
		<path class="path1" d="M9.032 15.096c0.872-0.892 2.086-0.962 3.152 0l7.816 7.494 7.816-7.494c1.066-0.962 2.282-0.892 3.148 0 0.872 0.89 0.816 2.394 0 3.23-0.812 0.836-9.39 9.004-9.39 9.004-0.434 0.446-1.004 0.67-1.574 0.67s-1.14-0.224-1.578-0.67c0 0-8.574-8.168-9.39-9.004-0.818-0.836-0.872-2.34 0-3.23z"></path>
	</symbol>
	
	<symbol id="icon-chevron-thin-down" viewBox="0 0 40 40"><!-- entypo - chevron thin down-->
		<title>Chevron Thin Down</title>
		<path class="path1" d="M30.851,13.565c0.398-0.392,1.037-0.392,1.433,0c0.394,0.391,0.396,1.025,0,1.417L20.717,26.435c-0.396,0.392-1.035,0.392-1.434,0L7.716,14.982c-0.394-0.392-0.394-1.026,0-1.417c0.396-0.392,1.038-0.392,1.433,0L19.998,24.01L30.851,13.565z"></path>
	</symbol>

	<symbol id="icon-check" viewBox="0 0 40 40"><!-- entypo - check-->
		<title>Check</title>
		<path class="path1" d="M16.588 33.996c-0.87 0-1.694-0.406-2.222-1.106l-7.146-9.442c-0.93-1.226-0.688-2.972 0.54-3.902 1.23-0.934 2.976-0.688 3.906 0.54l4.702 6.208 11.822-18.984c0.814-1.304 2.534-1.704 3.842-0.89 1.306 0.812 1.708 2.532 0.892 3.84l-13.968 22.42c-0.484 0.782-1.322 1.27-2.24 1.312-0.044 0.004-0.084 0.004-0.128 0.004z"></path>
	</symbol>
	
	<symbol id="icon-check-circle" viewBox="0 0 40 40"><!-- entypo[modified] - check-->
		<title>Check Circle</title>
		<path class="path1" d="M19.988,1.621c-10.146,0-18.367,8.22-18.367,18.358c0,10.146,8.221,18.367,18.367,18.367
	c10.139,0,18.36-8.221,18.36-18.367C38.348,9.841,30.127,1.621,19.988,1.621z M28.783,12.943L18.426,29.571
	c-0.362,0.582-0.983,0.938-1.664,0.973c-0.031,0.002-0.06,0.002-0.096,0.002c-0.644,0-1.254-0.301-1.646-0.816l-5.301-7.008
	c-0.69-0.904-0.514-2.203,0.397-2.891c0.916-0.693,2.211-0.512,2.898,0.398l3.486,4.604l8.77-14.081
	c0.606-0.967,1.879-1.262,2.85-0.66C29.088,10.695,29.387,11.971,28.783,12.943z"></path>
	</symbol>

	<symbol id="icon-check-circle-outline" viewBox="0 0 40 40"><!-- entypo[modified] - check-->
		<title>Check Circle Outline</title>
		<path fill="#FFFFFF" d="M19.938,37.311c9.525,0,17.248-7.721,17.248-17.249c0-9.527-7.723-17.248-17.248-17.248 c-9.527,0-17.247,7.721-17.247,17.248C2.688,29.59,10.41,37.311,19.938,37.311z"/>
		<path class="path1" d="M17.282,31.117c-0.66,0-1.286-0.309-1.687-0.838l-5.428-7.174c-0.706-0.93-0.521-2.256,0.411-2.961
		c0.934-0.712,2.26-0.524,2.966,0.408l3.571,4.715l8.978-14.417c0.618-0.991,1.926-1.294,2.918-0.676
		c0.992,0.617,1.297,1.923,0.678,2.917L19.081,30.119c-0.367,0.592-1.004,0.963-1.701,0.996
		C17.346,31.117,17.315,31.117,17.282,31.117L17.282,31.117z" />
		<path class="path2" d="M20,0.18c10.947,0,19.82,8.875,19.82,19.82c0,10.949-8.873,19.818-19.82,19.818c-10.945,0-19.82-8.869-19.82-19.818
		C0.181,9.055,9.055,0.18,20,0.18z M20,37.248c9.525,0,17.248-7.721,17.248-17.248c0-9.527-7.723-17.248-17.248-17.248
		C10.472,2.752,2.753,10.473,2.753,20C2.75,29.527,10.472,37.248,20,37.248z"/>
	</symbol>

	<symbol id="icon-refresh" viewBox="0 0 877.7150739035569 1024"> <!-- font awesome -->
		<title>Refresh</title>
		<path class="path1" d="M863.429 603.429q0 2.857-0.571 4-36.571 153.143-153.143 248.286t-273.143 95.143q-83.429 0-161.429-31.429t-139.143-89.714l-73.714 73.714q-10.857 10.857-25.714 10.857t-25.714-10.857-10.857-25.714v-256q0-14.857 10.857-25.714t25.714-10.857h256q14.857 0 25.714 10.857t10.857 25.714-10.857 25.714l-78.286 78.286q40.571 37.714 92 58.286t106.857 20.571q76.571 0 142.857-37.143t106.286-102.286q6.286-9.714 30.286-66.857 4.571-13.143 17.143-13.143h109.714q7.429 0 12.857 5.429t5.429 12.857zM877.714 146.286v256q0 14.857-10.857 25.714t-25.714 10.857h-256q-14.857 0-25.714-10.857t-10.857-25.714 10.857-25.714l78.857-78.857q-84.571-78.286-199.429-78.286-76.571 0-142.857 37.143t-106.286 102.286q-6.286 9.714-30.286 66.857-4.571 13.143-17.143 13.143h-113.714q-7.429 0-12.857-5.429t-5.429-12.857v-4q37.143-153.143 154.286-248.286t274.286-95.143q83.429 0 162.286 31.714t140 89.429l74.286-73.714q10.857-10.857 25.714-10.857t25.714 10.857 10.857 25.714z"></path>
	</symbol>
	
	<symbol id="icon-expand" viewBox="0 0 877.7190818786621 1024"> <!-- font awesome -->
		<title>Expand</title>
		<path class="path1" d="M733.143 309.143l-202.857 202.857 202.857 202.857 82.286-82.286q16.571-17.714 40-8 22.286 9.714 22.286 33.714v256q0 14.857-10.857 25.714t-25.714 10.857h-256q-24 0-33.714-22.857-9.714-22.286 8-39.429l82.286-82.286-202.857-202.857-202.857 202.857 82.286 82.286q17.714 17.143 8 39.429-9.714 22.857-33.714 22.857h-256q-14.857 0-25.714-10.857t-10.857-25.714v-256q0-24 22.857-33.714 22.286-9.714 39.429 8l82.286 82.286 202.857-202.857-202.857-202.857-82.286 82.286q-10.857 10.857-25.714 10.857-6.857 0-13.714-2.857-22.857-9.714-22.857-33.714v-256q0-14.857 10.857-25.714t25.714-10.857h256q24 0 33.714 22.857 9.714 22.286-8 39.429l-82.286 82.286 202.857 202.857 202.857-202.857-82.286-82.286q-17.714-17.143-8-39.429 9.714-22.857 33.714-22.857h256q14.857 0 25.714 10.857t10.857 25.714v256q0 24-22.286 33.714-7.429 2.857-14.286 2.857-14.857 0-25.714-10.857z"></path>
	</symbol>
	
	<symbol id="icon-menu" viewBox="0 0 877.7150535583496 1024"> <!-- font awesome -->
		<title>Menu</title>
		<path class="path1" d="M877.714 768v73.143q0 14.857-10.857 25.714t-25.714 10.857h-804.571q-14.857 0-25.714-10.857t-10.857-25.714v-73.143q0-14.857 10.857-25.714t25.714-10.857h804.571q14.857 0 25.714 10.857t10.857 25.714zM877.714 475.429v73.143q0 14.857-10.857 25.714t-25.714 10.857h-804.571q-14.857 0-25.714-10.857t-10.857-25.714v-73.143q0-14.857 10.857-25.714t25.714-10.857h804.571q14.857 0 25.714 10.857t10.857 25.714zM877.714 182.857v73.143q0 14.857-10.857 25.714t-25.714 10.857h-804.571q-14.857 0-25.714-10.857t-10.857-25.714v-73.143q0-14.857 10.857-25.714t25.714-10.857h804.571q14.857 0 25.714 10.857t10.857 25.714z"></path>
	</symbol>
	
	<symbol id="icon-search" viewBox="0 0 950.8563512165565 1024"> <!-- font awesome -->
		<title>Search</title>
		<path class="path1" d="M658.286 475.429q0-105.714-75.143-180.857t-180.857-75.143-180.857 75.143-75.143 180.857 75.143 180.857 180.857 75.143 180.857-75.143 75.143-180.857zM950.857 950.857q0 29.714-21.714 51.429t-51.429 21.714q-30.857 0-51.429-21.714l-196-195.429q-102.286 70.857-228 70.857-81.714 0-156.286-31.714t-128.571-85.714-85.714-128.571-31.714-156.286 31.714-156.286 85.714-128.571 128.571-85.714 156.286-31.714 156.286 31.714 128.571 85.714 85.714 128.571 31.714 156.286q0 125.714-70.857 228l196 196q21.143 21.143 21.143 51.429z"></path>
	</symbol>
	
	<symbol id="icon-calendar" viewBox="0 0 950.8564020792255 1024"> <!-- font awesome -->
		<title>Calendar</title>
		<path class="path1" d="M73.143 950.857h804.571v-585.143h-804.571v585.143zM292.571 256v-164.571q0-8-5.143-13.143t-13.143-5.143h-36.571q-8 0-13.143 5.143t-5.143 13.143v164.571q0 8 5.143 13.143t13.143 5.143h36.571q8 0 13.143-5.143t5.143-13.143zM731.429 256v-164.571q0-8-5.143-13.143t-13.143-5.143h-36.571q-8 0-13.143 5.143t-5.143 13.143v164.571q0 8 5.143 13.143t13.143 5.143h36.571q8 0 13.143-5.143t5.143-13.143zM950.857 219.429v731.429q0 29.714-21.714 51.429t-51.429 21.714h-804.571q-29.714 0-51.429-21.714t-21.714-51.429v-731.429q0-29.714 21.714-51.429t51.429-21.714h73.143v-54.857q0-37.714 26.857-64.571t64.571-26.857h36.571q37.714 0 64.571 26.857t26.857 64.571v54.857h219.429v-54.857q0-37.714 26.857-64.571t64.571-26.857h36.571q37.714 0 64.571 26.857t26.857 64.571v54.857h73.143q29.714 0 51.429 21.714t21.714 51.429z"></path>
	</symbol>
	
	<symbol id="icon-filter" viewBox="0 0 804.5709481239319 1024"> <!-- font awesome -->
		<title>Filter</title>
		<path class="path1" d="M801.714 168.571q9.714 23.429-8 40l-281.714 281.714v424q0 24-22.286 33.714-7.429 2.857-14.286 2.857-15.429 0-25.714-10.857l-146.286-146.286q-10.857-10.857-10.857-25.714v-277.714l-281.714-281.714q-17.714-16.571-8-40 9.714-22.286 33.714-22.286h731.429q24 0 33.714 22.286z"></path>
	</symbol>
	
	<symbol id="icon-trash" viewBox="0 0 804.5710134506226 1024"> <!-- font awesome -->
		<title>Trash</title>
		<path class="path1" d="M292.571 786.286v-402.286q0-8-5.143-13.143t-13.143-5.143h-36.571q-8 0-13.143 5.143t-5.143 13.143v402.286q0 8 5.143 13.143t13.143 5.143h36.571q8 0 13.143-5.143t5.143-13.143zM438.857 786.286v-402.286q0-8-5.143-13.143t-13.143-5.143h-36.571q-8 0-13.143 5.143t-5.143 13.143v402.286q0 8 5.143 13.143t13.143 5.143h36.571q8 0 13.143-5.143t5.143-13.143zM585.143 786.286v-402.286q0-8-5.143-13.143t-13.143-5.143h-36.571q-8 0-13.143 5.143t-5.143 13.143v402.286q0 8 5.143 13.143t13.143 5.143h36.571q8 0 13.143-5.143t5.143-13.143zM274.286 219.429h256l-27.429-66.857q-4-5.143-9.714-6.286h-181.143q-5.714 1.143-9.714 6.286zM804.571 237.714v36.571q0 8-5.143 13.143t-13.143 5.143h-54.857v541.714q0 47.429-26.857 82t-64.571 34.571h-475.429q-37.714 0-64.571-33.429t-26.857-80.857v-544h-54.857q-8 0-13.143-5.143t-5.143-13.143v-36.571q0-8 5.143-13.143t13.143-5.143h176.571l40-95.429q8.571-21.143 30.857-36t45.143-14.857h182.857q22.857 0 45.143 14.857t30.857 36l40 95.429h176.571q8 0 13.143 5.143t5.143 13.143z"></path>
	</symbol>
	
	<symbol id="icon-cog" viewBox="0 0 877.7160930633545 1024"> <!-- font awesome -->
		<title>Cog</title>
		<path class="path1" d="M585.143 512q0-60.571-42.857-103.429t-103.429-42.857-103.429 42.857-42.857 103.429 42.857 103.429 103.429 42.857 103.429-42.857 42.857-103.429zM877.714 449.714v126.857q0 6.857-4.571 13.143t-11.429 7.429l-105.714 16q-10.857 30.857-22.286 52 20 28.571 61.143 78.857 5.714 6.857 5.714 14.286t-5.143 13.143q-15.429 21.143-56.571 61.714t-53.714 40.571q-6.857 0-14.857-5.143l-78.857-61.714q-25.143 13.143-52 21.714-9.143 77.714-16.571 106.286-4 16-20.571 16h-126.857q-8 0-14-4.857t-6.571-12.286l-16-105.143q-28-9.143-51.429-21.143l-80.571 61.143q-5.714 5.143-14.286 5.143-8 0-14.286-6.286-72-65.143-94.286-96-4-5.714-4-13.143 0-6.857 4.571-13.143 8.571-12 29.143-38t30.857-40.286q-15.429-28.571-23.429-56.571l-104.571-15.429q-7.429-1.143-12-7.143t-4.571-13.429v-126.857q0-6.857 4.571-13.143t10.857-7.429l106.286-16q8-26.286 22.286-52.571-22.857-32.571-61.143-78.857-5.714-6.857-5.714-13.714 0-5.714 5.143-13.143 14.857-20.571 56.286-61.429t54-40.857q7.429 0 14.857 5.714l78.857 61.143q25.143-13.143 52-21.714 9.143-77.714 16.571-106.286 4-16 20.571-16h126.857q8 0 14 4.857t6.571 12.286l16 105.143q28 9.143 51.429 21.143l81.143-61.143q5.143-5.143 13.714-5.143 7.429 0 14.286 5.714 73.714 68 94.286 97.143 4 4.571 4 12.571 0 6.857-4.571 13.143-8.571 12-29.143 38t-30.857 40.286q14.857 28.571 23.429 56l104.571 16q7.429 1.143 12 7.143t4.571 13.429z"></path>
	</symbol>
	
	<symbol id="icon-home" viewBox="0 0 950.8578853607178 1024"> <!-- font awesome -->
		<title>Home</title>
		<path class="path1" d="M804.571 566.857v274.286q0 14.857-10.857 25.714t-25.714 10.857h-219.429v-219.429h-146.286v219.429h-219.429q-14.857 0-25.714-10.857t-10.857-25.714v-274.286q0-0.571 0.286-1.714t0.286-1.714l328.571-270.857 328.571 270.857q0.571 1.143 0.571 3.429zM932 527.429l-35.429 42.286q-4.571 5.143-12 6.286h-1.714q-7.429 0-12-4l-395.429-329.714-395.429 329.714q-6.857 4.571-13.714 4-7.429-1.143-12-6.286l-35.429-42.286q-4.571-5.714-4-13.429t6.286-12.286l410.857-342.286q18.286-14.857 43.429-14.857t43.429 14.857l139.429 116.571v-111.429q0-8 5.143-13.143t13.143-5.143h109.714q8 0 13.143 5.143t5.143 13.143v233.143l125.143 104q5.714 4.571 6.286 12.286t-4 13.429z"></path>
	</symbol>
	
	<symbol id="icon-clock" viewBox="0 0 877.7140070597306 1024"> <!-- font awesome -->
		<title>Clock</title>
		<path class="path1" d="M512 310.857v256q0 8-5.143 13.143t-13.143 5.143h-182.857q-8 0-13.143-5.143t-5.143-13.143v-36.571q0-8 5.143-13.143t13.143-5.143h128v-201.143q0-8 5.143-13.143t13.143-5.143h36.571q8 0 13.143 5.143t5.143 13.143zM749.714 512q0-84.571-41.714-156t-113.143-113.143-156-41.714-156 41.714-113.143 113.143-41.714 156 41.714 156 113.143 113.143 156 41.714 156-41.714 113.143-113.143 41.714-156zM877.714 512q0 119.429-58.857 220.286t-159.714 159.714-220.286 58.857-220.286-58.857-159.714-159.714-58.857-220.286 58.857-220.286 159.714-159.714 220.286-58.857 220.286 58.857 159.714 159.714 58.857 220.286z"></path>
	</symbol>
	
	<symbol id="icon-pencil" viewBox="0 0 40 40"> <!-- entypo - edit -->
		<title>Pencil</title>
		<path class="path1" d="M32.286,7.713c-2.343-2.345-4.103-1.994-4.103-1.994L7.341,26.56L5.7,34.298l7.739-1.641L34.282,11.82C34.28,11.82,34.633,10.06,32.286,7.713z M12.979,31.728l-2.639,0.568c-0.254-0.476-0.561-0.952-1.121-1.515c-0.561-0.562-1.039-0.865-1.515-1.123l0.569-2.637l0.763-0.762c0,0,1.436,0.029,3.057,1.65c1.62,1.619,1.651,3.057,1.651,3.057L12.979,31.728z"></path>
	</symbol>

	<symbol id="icon-alert" viewBox="0 0 40 40"> <!-- entypo - bell -->
		<title>Alert</title>
		<path class="path1" d="M29.537,17.18C24.574,6.498,21.992,2.44,13.883,2.609c-2.889,0.06-2.196-2.094-4.399-1.277C7.286,2.148,9.172,3.344,6.921,5.191c-6.317,5.188-5.735,9.985-2.805,21.421c1.234,4.816-2.976,5.052-1.311,9.719c1.217,3.404,10.185,4.83,19.646,1.321s15.425-10.479,14.208-13.884C34.994,19.1,31.628,21.677,29.537,17.18z M21.426,34.775c-8.45,3.134-15.394,1.292-15.688,0.472c-0.505-1.415,2.729-6.13,12.389-9.715s15.052-2.256,15.616-0.678C34.075,25.788,29.879,31.638,21.426,34.775z M18.709,27.169c-4.417,1.639-7.486,3.513-9.475,5.201c1.398,1.271,4.02,1.579,6.63,0.61c3.324-1.229,5.368-4.063,4.56-6.32c-0.011-0.029-0.023-0.052-0.034-0.079C19.843,26.76,19.284,26.953,18.709,27.169z"></path>
	</symbol>

	<symbol id="icon-sort" viewBox="0 0 585.1440086364746 1024"> <!-- font awesome -->
		<title>Sort</title>
		<path class="path1" d="M585.143 621.714q0 14.857-10.857 25.714l-256 256q-10.857 10.857-25.714 10.857t-25.714-10.857l-256-256q-10.857-10.857-10.857-25.714t10.857-25.714 25.714-10.857h512q14.857 0 25.714 10.857t10.857 25.714zM585.143 402.286q0 14.857-10.857 25.714t-25.714 10.857h-512q-14.857 0-25.714-10.857t-10.857-25.714 10.857-25.714l256-256q10.857-10.857 25.714-10.857t25.714 10.857l256 256q10.857 10.857 10.857 25.714z"></path>
	</symbol>
	
	<symbol id="icon-sort-desc" viewBox="0 0 585.1440315246582 1024"> <!-- font awesome -->
		<title>Sort-Desc</title>
		<path class="path1" d="M585.143 621.714q0 14.857-10.857 25.714l-256 256q-10.857 10.857-25.714 10.857t-25.714-10.857l-256-256q-10.857-10.857-10.857-25.714t10.857-25.714 25.714-10.857h512q14.857 0 25.714 10.857t10.857 25.714z"></path>
	</symbol>
	
	<symbol id="icon-sort-asc" viewBox="0 0 585.1440086364746 1024"> <!-- font awesome -->
		<title>Sort-Asc</title>
		<path class="path1" d="M585.143 402.286q0 14.857-10.857 25.714t-25.714 10.857h-512q-14.857 0-25.714-10.857t-10.857-25.714 10.857-25.714l256-256q10.857-10.857 25.714-10.857t25.714 10.857l256 256q10.857 10.857 10.857 25.714z"></path>
	</symbol>
	
	<symbol id="icon-chev-right-double" viewBox="0 0 36.41 28.79"> <!-- font awesome -->
		<title>Last Arrows</title>
		<path d="M2.34,25.34l9.48-9.48L2.34,6.38a1.12,1.12,0,0,1,0-1.61l3-3a1.12,1.12,0,0,1,1.61,0L20.16,15.05a1.12,1.12,0,0,1,0,1.61L6.91,29.91a1.12,1.12,0,0,1-1.61,0l-3-3A1.12,1.12,0,0,1,2.34,25.34Z" transform="translate(-2 -1.46)"/><path d="M20.25,25.34l9.48-9.48L20.25,6.38a1.12,1.12,0,0,1,0-1.61l3-3a1.12,1.12,0,0,1,1.61,0L38.07,15.05a1.12,1.12,0,0,1,0,1.61L24.82,29.91a1.12,1.12,0,0,1-1.61,0l-3-3A1.12,1.12,0,0,1,20.25,25.34Z" transform="translate(-2 -1.46)"/>
	</symbol>

	<symbol id="icon-chev-right-thin-double" viewBox="0 0 40 40"> <!-- entypo[modified] - chevron thin right -->
		<title>Last Arrows Thin</title>
		<path d="M18.725,20.002L3.487,4.17c-0.571-0.577-0.571-1.509,0-2.088c0.57-0.577,1.496-0.577,2.066,0l16.709,16.871c0.57,0.578,0.57,1.513,0,2.089L5.555,37.918c-0.572,0.577-1.496,0.575-2.065,0c-0.573-0.577-0.573-1.51,0-2.09L18.725,20.002z"/><path d="M32.976,20.003L17.739,4.171c-0.573-0.578-0.573-1.509,0-2.088c0.568-0.577,1.494-0.577,2.065,0l16.709,16.871c0.57,0.578,0.57,1.513,0,2.089L19.806,37.918c-0.573,0.577-1.497,0.575-2.066,0c-0.573-0.577-0.573-1.51,0-2.09L32.976,20.003z"/>
	</symbol>
	
	<symbol id="icon-chev-left-double" viewBox="0 0 36.41 28.79"> <!-- font awesome -->
		<title>First Arrows</title>
		<path d="M38.07,6.38l-9.48,9.48,9.48,9.48a1.12,1.12,0,0,1,0,1.61l-3,3a1.12,1.12,0,0,1-1.61,0L20.25,16.66a1.12,1.12,0,0,1,0-1.61L33.5,1.8a1.12,1.12,0,0,1,1.61,0l3,3A1.12,1.12,0,0,1,38.07,6.38Z" transform="translate(-2 -1.46)"/><path d="M20.16,6.38l-9.48,9.48,9.48,9.48a1.12,1.12,0,0,1,0,1.61l-3,3a1.12,1.12,0,0,1-1.61,0L2.34,16.66a1.12,1.12,0,0,1,0-1.61L15.59,1.8a1.12,1.12,0,0,1,1.61,0l3,3A1.12,1.12,0,0,1,20.16,6.38Z" transform="translate(-2 -1.46)"/>
	</symbol>

	<symbol id="icon-chev-left-thin-double" viewBox="0 0 40 40"> <!-- entypo[modified] - chevron thin left -->
		<title>First Arrows Thin</title>
		<path d="M21.273,19.997l15.238,15.832c0.572,0.577,0.572,1.509,0,2.088c-0.57,0.577-1.496,0.577-2.066,0
		L17.736,21.046c-0.57-0.578-0.57-1.513,0-2.089L34.443,2.082c0.572-0.577,1.496-0.575,2.066,0c0.573,0.577,0.573,1.51,0,2.09
		L21.273,19.997z"/><path d="M7.023,19.997l15.237,15.832c0.573,0.577,0.573,1.509,0,2.088c-0.569,0.577-1.495,0.577-2.065,0L3.486,21.046c-0.57-0.578-0.57-1.513,0-2.089L20.193,2.082c0.572-0.577,1.496-0.575,2.066,0c0.573,0.577,0.573,1.51,0,2.09
		L7.023,19.997z"/>
	</symbol>

	<symbol id="icon-chev-right" viewBox="0 0 22 32"> <!-- font awesome -->
		<title>Next Arrow</title>
		<path d="M19.768 15.661l-13.25 13.25q-0.339 0.339-0.804 0.339t-0.804-0.339l-2.964-2.964q-0.339-0.339-0.339-0.804t0.339-0.804l9.482-9.482-9.482-9.482q-0.339-0.339-0.339-0.804t0.339-0.804l2.964-2.964q0.339-0.339 0.804-0.339t0.804 0.339l13.25 13.25q0.339 0.339 0.339 0.804t-0.339 0.804z"></path>
	</symbol>

	<symbol id="icon-chev-thin-right" viewBox="0 0 40 40"><!-- entypo - chevron thin right -->
		<title>Next Arrow Thin</title>
		<path d="M25.851,20.919L10.614,5.087c-0.573-0.577-0.573-1.509,0-2.088c0.571-0.577,1.496-0.577,2.067,0L29.388,19.87c0.571,0.578,0.571,1.513,0,2.089L12.681,38.834c-0.571,0.577-1.496,0.575-2.067,0c-0.573-0.577-0.573-1.51,0-2.09L25.851,20.919z"></path>
	</symbol>	
	
	<symbol id="icon-chev-left" viewBox="0 0 24 32">
		<title>Previous Arrow</title>
		<path d="M20.911 5.375l-9.482 9.482 9.482 9.482q0.339 0.339 0.339 0.804t-0.339 0.804l-2.964 2.964q-0.339 0.339-0.804 0.339t-0.804-0.339l-13.25-13.25q-0.339-0.339-0.339-0.804t0.339-0.804l13.25-13.25q0.339-0.339 0.804-0.339t0.804 0.339l2.964 2.964q0.339 0.339 0.339 0.804t-0.339 0.804z"></path>
	</symbol>
	
	<symbol id="icon-chev-thin-left" viewBox="0 0 40 40"><!-- entypo - chevron thin left -->
		<title>Previous Arrow Thin</title>
		<path d="M14.149,20.913l15.238,15.832c0.573,0.577,0.573,1.509,0,2.088c-0.571,0.577-1.496,0.577-2.067,0L10.612,21.962c-0.57-0.578-0.57-1.513,0-2.089L27.319,2.998c0.571-0.577,1.496-0.575,2.067,0c0.573,0.577,0.573,1.51,0,2.09L14.149,20.913z"></path>
	</symbol>	

	<symbol id="icon-star" viewBox="0 0 40 40"><!-- entypo - star -->
		<title>Star</title>
		<path class="path1" d="M19.72,0l5.352,15.062h14.366l-11.724,8.847l4.191,15.521L19.72,30.124L7.534,39.43l4.191-15.521L0,15.063
	h14.366L19.72,0z"></path>
	</symbol>
    
    <symbol id="icon-star-outlined" viewBox="0 0 40 40"><!-- entypo - star outlined -->
		<title>star-outlined</title>
		<path class="path1" d="M37.6 16.044h-12.826l-4.774-13.444-4.778 13.444h-12.824l10.464 7.894-3.742 13.858 10.88-8.308 10.876 8.308-3.738-13.858 10.462-7.894zM20 25.566l-6.028 5 2.486-7.124-5.702-4.6 7.044 0.202 2.2-8.080 2.198 8.080 7.042-0.202-5.702 4.6 2.486 7.124-6.024-5z"></path>
	</symbol>
	
	<symbol id="icon-exclamation-circle" viewBox="0 0 40 40"><!-- entypo[modified] - warning -->
		<title>Exclamation Circle</title>
		<path class="path1" d="M20,1.65C9.865,1.65,1.649,9.865,1.649,20c0,10.135,8.216,18.35,18.351,18.35
	c10.131,0,18.35-8.215,18.35-18.352C38.35,9.865,30.131,1.65,20,1.65z M22.061,30.303h-4.121v-4.121h4.121V30.303z M22.061,23.09
	h-4.121V9.697h4.121V23.09z"></path>
	</symbol>
	
	<symbol id="icon-question-circle" viewBox="0 0 40 40"> <!-- entypo - help with circle -->
		<title>Question Circle</title>
		<path class="path1" d="M20,0.4C9.176,0.4,0.4,9.176,0.4,20S9.176,39.6,20,39.6c10.822,0,19.6-8.775,19.6-19.602
		C39.6,9.176,30.822,0.4,20,0.4z M19.692,31.432h-0.104c-1.596-0.047-2.724-1.226-2.677-2.8c0.045-1.547,1.199-2.672,2.743-2.672
		l0.093,0.004c1.642,0.047,2.756,1.213,2.709,2.832C22.409,30.347,21.276,31.432,19.692,31.432z M26.411,18.097
		c-0.376,0.532-1.201,1.196-2.242,2.007l-1.147,0.791c-0.629,0.49-1.009,0.953-1.149,1.404c-0.114,0.354-0.167,0.451-0.178,1.177
		v0.183h-4.379l0.012-0.371c0.055-1.519,0.092-2.418,0.723-3.159c0.99-1.159,3.175-2.568,3.267-2.627
		c0.313-0.234,0.578-0.502,0.773-0.79c0.459-0.635,0.662-1.134,0.662-1.619c0-0.682-0.201-1.313-0.599-1.87
		c-0.384-0.543-1.113-0.813-2.166-0.813c-1.046,0-1.763,0.33-2.189,1.012c-0.44,0.697-0.663,1.43-0.663,2.179v0.188h-4.515
		l0.009-0.196c0.116-2.763,1.104-4.752,2.93-5.915c1.149-0.737,2.58-1.111,4.249-1.111c2.181,0,4.025,0.531,5.475,1.576
		c1.473,1.06,2.218,2.648,2.218,4.718C27.499,16.019,27.134,17.107,26.411,18.097z"></path>
	</symbol>

	<symbol id="icon-question-circle-outline" viewBox="0 0 40 40"> <!-- entypo - help with circle -->
		<title>Question Circle Outline</title>
		<path fill="#FFFFFF" d="M19.938,37.311c9.525,0,17.248-7.721,17.248-17.249c0-9.527-7.723-17.248-17.248-17.248 c-9.527,0-17.247,7.721-17.247,17.248C2.688,29.59,10.41,37.311,19.938,37.311z"/>
		<path d="M19.938,0.243c10.947,0,19.82,8.875,19.82,19.82c0,10.949-8.873,19.818-19.82,19.818c-10.945,0-19.82-8.869-19.82-19.818 C0.119,9.118,8.993,0.243,19.938,0.243z M19.938,37.311c9.525,0,17.248-7.721,17.248-17.248S29.463,2.815,19.938,2.815
		c-9.528,0-17.247,7.721-17.247,17.248C2.688,29.59,10.41,37.311,19.938,37.311z"/>
		<path d="M19.858,31.766h-0.104c-1.596-0.047-2.724-1.227-2.677-2.801c0.045-1.547,1.198-2.672,2.743-2.672l0.093,0.004 c1.642,0.047,2.756,1.213,2.709,2.832C22.576,30.682,21.442,31.766,19.858,31.766z M26.578,18.431
		c-0.376,0.532-1.201,1.196-2.242,2.007l-1.147,0.791c-0.629,0.49-1.008,0.953-1.148,1.404c-0.114,0.354-0.167,0.451-0.178,1.178 v0.182h-4.379l0.012-0.371c0.055-1.518,0.092-2.418,0.723-3.159c0.99-1.159,3.176-2.568,3.268-2.627 c0.313-0.234,0.578-0.502,0.772-0.79c0.459-0.635,0.662-1.134,0.662-1.619c0-0.682-0.201-1.313-0.599-1.87 c-0.385-0.543-1.113-0.813-2.166-0.813c-1.047,0-1.764,0.33-2.189,1.012c-0.439,0.697-0.663,1.43-0.663,2.179v0.188h-4.515 l0.009-0.196c0.116-2.763,1.104-4.752,2.931-5.915c1.148-0.737,2.58-1.111,4.248-1.111c2.182,0,4.025,0.531,5.476,1.576 c1.473,1.06,2.218,2.648,2.218,4.718C27.666,16.353,27.301,17.44,26.578,18.431z"/>
	</symbol>


	<symbol id="icon-cross-circle" viewBox="0 0 40 40"> <!-- entypo - cross with circle -->
		<title>Cross Circle</title>
		<path class="path1" d="M19.979,1.621c-10.138,0-18.358,8.22-18.358,18.358c0,10.14,8.22,18.358,18.358,18.358
		c10.14,0,18.358-8.218,18.358-18.358C38.337,9.841,30.119,1.621,19.979,1.621z M30.446,26.669l-3.779,3.78l-6.688-6.691
		l-6.689,6.688l-3.779-3.779l6.692-6.688l-6.69-6.689l3.779-3.776l6.687,6.688l6.69-6.69l3.78,3.779l-6.693,6.689L30.446,26.669z"></path>
	</symbol>

	<symbol id="icon-cross-circle-outline" viewBox="0 0 40 40"> <!-- entypo - cross with circle -->
		<title>Cross Circle Outline</title>
		<path fill="#FFFFFF" d="M19.938,37.311c9.525,0,17.248-7.721,17.248-17.249c0-9.527-7.723-17.248-17.248-17.248
		c-9.527,0-17.247,7.721-17.247,17.248C2.688,29.59,10.41,37.311,19.938,37.311z"/>
		<path d="M19.938,0.243c10.947,0,19.82,8.875,19.82,19.82c0,10.949-8.873,19.818-19.82,19.818c-10.945,0-19.82-8.869-19.82-19.818 C0.119,9.118,8.993,0.243,19.938,0.243z M19.938,37.311c9.525,0,17.248-7.721,17.248-17.248S29.463,2.815,19.938,2.815
		c-9.528,0-17.247,7.721-17.247,17.248C2.688,29.59,10.41,37.311,19.938,37.311z"/>
		<path d="M30.278,27.335L26.5,31.116l-6.688-6.691l-6.688,6.688l-3.779-3.779l6.692-6.688l-6.689-6.689l3.778-3.776l6.687,6.688
		l6.69-6.69l3.78,3.779l-6.693,6.689L30.278,27.335z"/>
	</symbol>	

	<symbol id="icon-plus-circle" viewBox="0 0 40 40"> <!-- entypo - plus with circle -->
		<title>Plus Circle</title>
		<path class="path1" d="M19.974,1.621c-10.135,0-18.353,8.217-18.353,18.352s8.218,18.354,18.353,18.354
	c10.134,0,18.352-8.219,18.352-18.354S30.107,1.621,19.974,1.621z M30.896,22.158h-8.74v8.738H17.79v-8.738H9.05v-4.369h8.74v-8.74
	h4.366v8.74h8.74V22.158z"></path>
	</symbol>

	<symbol id="icon-plus-circle-outline" viewBox="0 0 40 40"> <!-- entypo - cross with circle -->
		<title>Plus Circle Outline</title>
		<path fill="#FFFFFF" d="M19.938,37.311c9.525,0,17.248-7.721,17.248-17.249c0-9.527-7.723-17.248-17.248-17.248 c-9.527,0-17.247,7.721-17.247,17.248C2.688,29.59,10.41,37.311,19.938,37.311z"/>
		<path d="M19.938,0.243c10.947,0,19.82,8.875,19.82,19.82c0,10.949-8.873,19.818-19.82,19.818c-10.945,0-19.82-8.869-19.82-19.818 C0.119,9.118,8.993,0.243,19.938,0.243z M19.938,37.311c9.525,0,17.248-7.721,17.248-17.248S29.463,2.815,19.938,2.815 c-9.528,0-17.247,7.721-17.247,17.248C2.688,29.59,10.41,37.311,19.938,37.311z"/>
		<path d="M30.896,22.158h-8.74v8.738H17.79v-8.738H9.05v-4.369h8.74v-8.74h4.366v8.74h8.74V22.158z"/>
	</symbol>		

	<symbol id="icon-information" viewBox="0 0 40 40"><!-- entypo - information-->
		<title>Information</title>
		<path d="M20,0.4C9.173,0.4,0.399,9.175,0.399,20c0,10.827,8.774,19.602,19.602,19.602C30.822,39.602,39.6,30.826,39.6,20 C39.6,9.175,30.822,0.4,20,0.4z M21.83,7.477c1.911,0,2.472,1.109,2.472,2.375c0,1.583-1.266,3.047-3.427,3.047 c-1.81,0-2.671-0.908-2.618-2.414C18.257,9.217,19.316,7.477,21.83,7.477z M16.934,31.738c-1.307,0-2.26-0.794-1.348-4.274 l1.496-6.177c0.26-0.988,0.302-1.383,0-1.383c-0.39,0-2.086,0.682-3.086,1.356l-0.651-1.069c3.174-2.652,6.825-4.207,8.387-4.207 c1.306,0,1.521,1.543,0.871,3.92l-1.715,6.492c-0.304,1.147-0.174,1.544,0.131,1.544c0.392,0,1.674-0.474,2.936-1.468l0.738,0.992 C21.605,30.551,18.239,31.738,16.934,31.738z"/>
	</symbol>

	<symbol id="icon-information-outline" viewBox="0 0 40 40"><!-- entypo - information-->
		<title>Information Outline</title>
		<path fill="#FFFFFF" d="M19.938,37.311c9.525,0,17.248-7.721,17.248-17.249c0-9.527-7.723-17.248-17.248-17.248
			c-9.527,0-17.247,7.721-17.247,17.248C2.688,29.59,10.41,37.311,19.938,37.311z"/>
		<path d="M19.938,0.243c10.947,0,19.82,8.875,19.82,19.82c0,10.949-8.873,19.818-19.82,19.818c-10.945,0-19.82-8.869-19.82-19.818
			C0.119,9.118,8.993,0.243,19.938,0.243z M19.938,37.311c9.525,0,17.248-7.721,17.248-17.248S29.463,2.815,19.938,2.815
			c-9.528,0-17.247,7.721-17.247,17.248C2.688,29.59,10.41,37.311,19.938,37.311z"/>
		<path d="M21.83,7.477c1.911,0,2.472,1.109,2.472,2.375c0,1.583-1.266,3.047-3.427,3.047c-1.81,0-2.671-0.908-2.618-2.414
			C18.257,9.217,19.316,7.477,21.83,7.477z M16.934,31.738c-1.307,0-2.26-0.795-1.348-4.274l1.496-6.177
			c0.26-0.988,0.302-1.383,0-1.383c-0.39,0-2.086,0.682-3.086,1.356l-0.651-1.069c3.174-2.652,6.825-4.207,8.387-4.207
			c1.306,0,1.521,1.543,0.871,3.92l-1.715,6.493c-0.305,1.146-0.175,1.543,0.131,1.543c0.392,0,1.674-0.474,2.936-1.467l0.738,0.991
			C21.605,30.551,18.239,31.738,16.934,31.738z"/>
	</symbol>
	
	<symbol id="icon-warning" viewBox="0 0 40 40"> <!-- entypo - warning -->
		<title>Warning</title>
		<path class="path1" d="M39.777,35.988L21.425,1.717C21.17,1.273,20.695,1,20.181,1c-0.515,0-0.991,0.273-1.245,0.717L0.585,35.988
		c-0.25,0.435-0.245,0.971,0.01,1.401c0.257,0.435,0.726,0.7,1.231,0.7h36.708c0.504,0,0.976-0.266,1.231-0.7
		C40.021,36.959,40.025,36.423,39.777,35.988z M22.241,33.969H18.12v-4.121h4.121V33.969z M22.241,26.757H18.12V13.363h4.121V26.757
		z"></path>
	</symbol>
	
	<symbol id="icon-lock" viewBox="0 0 40 40"> <!-- entypo - lock -->
		<title>Lock</title>
		<path class="path1" d="M32.329,15.749h-3.826v-5.102c0-6.158-2.838-9.778-8.503-9.778c-5.667,0-8.503,3.62-8.503,9.778v5.102H7.246
	c-1.175,0-2.125,1.373-2.125,2.549v16.583c0,1.166,0.909,2.42,2.022,2.778l2.544,0.823c1.114,0.354,2.98,0.648,4.15,0.648h12.328
	c1.168,0,3.037-0.295,4.147-0.652l2.543-0.822c1.113-0.355,2.024-1.609,2.024-2.775V18.298
	C34.88,17.122,33.503,15.749,32.329,15.749z M24.252,15.749h-8.503V9.795c0-3.072,1.694-4.675,4.251-4.675
	c2.559,0,4.252,1.603,4.252,4.675V15.749z"></path>
	</symbol>
	
	<symbol id="icon-unlock" viewBox="0 0 40 40"> <!-- entypo - lock -->
		<title>Unlock</title>
		<path class="path1" d="M32.323,15.706h-3.831v-5.111c0-6.17-2.844-9.797-8.52-9.797c-5.678,0-8.52,3.627-8.52,9.797v0.852h4.26
	V9.742c0-3.078,1.697-4.684,4.26-4.684c2.563,0,4.26,1.605,4.26,4.684v5.964H7.195c-1.178,0-2.131,1.375-2.131,2.553v16.614
	c0,1.169,0.912,2.425,2.025,2.784l2.549,0.824c1.117,0.355,2.986,0.65,4.158,0.65h12.352c1.17,0,3.041-0.295,4.155-0.654
	l2.545-0.824c1.117-0.355,2.031-1.611,2.031-2.78V18.259C34.88,17.081,33.499,15.706,32.323,15.706z"></path>
	</symbol>
	
	<symbol id="icon-user" viewBox="0 0 40 40"> <!-- entypo - user -->
		<title>User</title>
		<path class="path1" d="M15.451,4.081c-2.033,1.512-2.578,3.906-2.479,5.181c0.127,1.557,0.443,3.586,0.443,3.586
	s-0.625,0.34-0.625,1.707c0.217,3.435,1.365,1.952,1.602,3.459c0.568,3.627,1.865,2.981,1.865,4.961c0,3.299-1.359,4.84-5.605,6.668
	C6.393,31.479,2,33.789,2,37.789v2h36v-2c0-4-4.395-6.311-8.656-8.145c-4.246-1.828-5.602-3.367-5.602-6.668
	c0-1.979,1.295-1.334,1.863-4.961c0.238-1.506,1.385-0.024,1.607-3.459c0-1.367-0.629-1.707-0.629-1.707s0.316-2.028,0.441-3.586
	c0.131-1.635-0.795-5.122-4.6-6.192c-0.666-0.68-1.115-1.762,0.932-2.848C18.879,0.013,17.836,2.356,15.451,4.081z"></path>
	</symbol>
	
	<symbol id="icon-dots-three-vertical" viewBox="0 0 32 32"> <!-- entypo -->
		<title>Dots Three Vertical</title>
		<path class="path1" d="M16.002 12.48c-1.944 0-3.522 1.576-3.522 3.52s1.578 3.52 3.522 3.52c1.944 0 3.518-1.576 3.518-3.52s-1.574-3.52-3.518-3.52zM16.002 8.32c1.944 0 3.518-1.578 3.518-3.52s-1.574-3.52-3.518-3.52c-1.944 0-3.522 1.576-3.522 3.52s1.578 3.52 3.522 3.52zM16.002 23.68c-1.944 0-3.522 1.576-3.522 3.52s1.578 3.52 3.522 3.52c1.944 0 3.518-1.576 3.518-3.52s-1.574-3.52-3.518-3.52z"></path>
	</symbol>
	
	<symbol id="icon-dots-three-horizontal" viewBox="0 0 32 32"> <!-- entypo -->
		<title>Dots Three Horizontal</title>
		<path class="path1" d="M16.002 12.48c-1.944 0-3.522 1.576-3.522 3.52s1.578 3.52 3.522 3.52c1.944 0 3.518-1.576 3.518-3.52s-1.574-3.52-3.518-3.52zM4.802 12.48c-1.944 0-3.522 1.576-3.522 3.52s1.578 3.52 3.522 3.52c1.944 0 3.518-1.578 3.518-3.52s-1.574-3.52-3.518-3.52zM27.202 12.48c-1.944 0-3.522 1.576-3.522 3.52s1.578 3.52 3.522 3.52c1.944 0 3.518-1.576 3.518-3.52s-1.574-3.52-3.518-3.52z"></path>
	</symbol>
	
	<symbol id="icon-save-as" viewBox="0 0 32 32">
		<title>Save As</title>
		<path class="path1" d="M6.688 24h18.625v2.688h-18.625v-2.688zM25.313 12l-9.313 9.313-9.313-9.313h5.313v-8h8v8h5.313z"></path>
	</symbol>

	<symbol id="icon-flag" viewBox="0 0 40 40">  <!-- custom -->
		<title>Flag</title>
		<path class="path1" d="M28.684,8.988c-1.66-0.417-7.045,0.212-7.207-0.381c-0.33-1.214,0.42-3.866-0.246-5.178c0,0-12.979-2.754-17.042-2.241c-0.154,0.019,0.546,0.03-0.26,0.03c-4.05,0-3.564,3.327-3.564,3.327L0.342,38.126l3.957,0.052v-9.251c0,0-0.115-0.392,0.36-0.651c2.522-1.366,12.298-7.686,16.813-7.039l0.018,3.844C35.507,23.389,40,12.284,40,12.284C34.686,14.074,33.111,10.095,28.684,8.988zM4.468,24.77c-0.17,0.424-0.169,0.191-0.169,0.191V5.138c0-0.114-0.23-1.265,0.17-0.112C9.532,13.033,7.928,16.214,4.468,24.77z"></path>
	</symbol>

	<symbol id="icon-thumbs-down" viewBox="0 0 40 40">  <!-- custom -->
		<title>Thumbs Down</title>
		<path class="path1" d="M35.95,15.58c-0.15,2.221-1.975,1.442,0.149,4.193c-0.436,4.647-5.867,3.926-11.456,3.634c-1.618,1.356,7.672,11.207-1.933,12.856c-0.299-1.63-0.596-3.262-0.893-4.891c-0.743-2.302-2.441-2.734-3.721-4.333c-2.03-2.536-1.988-7.902-6.397-8.105V5.659c4.244-0.463,15.468-3.395,19.786-0.7c2.522,1.575,1.723,1.968,1.934,3.774c0.596,0.651,1.439,0.932,1.786,1.957c0.401,1.015-0.373,1.951-0.595,2.935C35.107,14.229,35.602,14.322,35.95,15.58 M9.766,19.493H4.113c-0.246,0-0.445-0.188-0.445-0.418V5.238c0-0.231,0.2-0.419,0.445-0.419h5.653c0.247,0,0.447,0.188,0.447,0.419v13.836C10.214,19.305,10.013,19.493,9.766,19.493"></path>
	</symbol>

	<symbol id="icon-pshield" viewBox="0 0 40 40"> <!-- custom -->
		<title>P Shield</title>
		<path d="M21.906,12.647h-3.88c-0.261,0-0.473,0.212-0.473,0.475v6.428c0,0.262,0.212,0.474,0.473,0.474h3.88
		c0.264,0,0.475-0.213,0.475-0.474v-6.428C22.381,12.859,22.168,12.647,21.906,12.647"/><path d="M19.861,2.838c-7.349,0.303-14.68,2.587-14.68,2.587l2.5,24.285c3.561,3.562,12.256,7.452,12.256,7.452s11.193-5.137,12.344-7.515c0.922-4.379,2.538-24.276,2.538-24.276C28.93,3.575,19.861,2.838,19.861,2.838 M24.908,21.247c0,1.188-1.17,1.277-1.17,1.277h-6.186v6.149c0,0.83-1.14,1.201-1.14,1.201l-0.126,0.006c-0.832,0-1.249-1.31-1.249-1.31V11.472c0-1.068,1.291-1.239,1.291-1.239h7.41c1.188,0,1.17,1.125,1.17,1.125V21.247z"/>
	</symbol>

	<symbol id="icon-pdf" viewBox="0 0 40 40"> <!-- custom -->
		<title>PDF</title>
		<path d="M30.522,3.63H9.477c-1.292,0-2.339,1.047-2.339,2.34v28.063c0.001,1.29,1.047,2.338,2.339,2.338h16.188
		l7.197-6.943V5.97C32.863,4.677,31.814,3.63,30.522,3.63 M13.841,27.581c-1.358,1.481-3.172,1.333-3.172,1.333c-1.572-0.612-0.96-1.853-0.714-2.469c0.247-0.618,4.542-3.087,4.542-3.087c-1.325,1.255-0.372,1.976-0.372,1.976c3.209-4.568,5.369-10.186,5.369-10.186c-0.248-0.493-0.792-3.561-0.67-5.66c0.124-2.098,2.457-0.74,2.457-0.74c0.617,0.864-0.248,4.074-0.248,4.074l0.169,2.099c1.005,2.898,3.758,5.427,3.758,5.427c2.63-0.73,4.37,0.111,4.37,0.111c0.987,0.37,2.222,1.208,1.604,1.7c-0.617,0.494-0.495,0.124-1.357-0.37c-0.865-0.493-0.843,0.216-1.709,0.216l0.742,0.122c1.482,0.864,1.317,0.791,1.935,1.16s-0.644,1.363-0.644,1.363l-3.884-2.633c-6.666,1.232-8.668,2.786-8.668,2.786S15.42,27.581,13.841,27.581 M30.705,27.82l-6.538,6.248c-1.025,1.023-0.806-0.768-0.806-0.768v-3.947c0-2.447,2.703-2.447,2.703-2.447h4.203C31.984,26.871,30.705,27.82,30.705,27.82"/><path d="M20.359,18.285l-1.517,3.976c0,0,2.084-1.622,3.072-1.745C21.915,20.516,20.606,19.52,20.359,18.285"/>
	</symbol>

	<symbol id="icon-xcel" viewBox="0 0 40 40"> <!-- custom -->
		<title>Xcel</title>
		<path d="M30.363,3.754H9.511c-1.279,0-2.259,1.124-2.259,2.403v27.515c0,1.28,1.037,2.316,2.316,2.316h16.437l6.685-7.132V6.157C32.689,4.878,31.645,3.754,30.363,3.754M15.196,24.491h-4.972l6.964-7.136l-6.625-6.871h5.406l3.86,4.561l3.969-4.561h5.229l-6.625,6.756l7.037,7.25h-5.496l-4.112-4.776L15.196,24.491z M30.603,27.371l-6.191,6.48c0,0-0.94,1.269-0.903-0.436v-4.161c0,0,0-2.68,2.425-2.68h3.91C29.842,26.575,31.616,26.356,30.603,27.371"/>
	</symbol>

	<symbol id="icon-rerun" viewBox="0 0 40 40"> <!-- custom -->
		<title>Rerun</title>
		<rect x="13.207" y="25.387" width="6.462" height="10.77"/>
		<polygon points="24.003,25.387 30.465,36.156 36.924,36.156 30.465,25.387"/>
		<path d="M36.666,18.923V8.153c0-2.379-1.668-4.308-4.049-4.308H17.543c-2.38,0-4.308,1.93-4.308,4.308v8.617l6.461-0.039v-6.422c0-1.19,0.964-2.155,2.153-2.155h6.462c1.188,0,2.153,0.965,2.153,2.155v6.461c0,1.19-0.966,2.154-2.153,2.154H13.235c-1.435,0-0.577,0-2.014,0H10.88v-4.15l-7.804,6.463l7.804,6.463v-4.467h21.737C34.998,23.232,36.666,21.304,36.666,18.923z"/>
	</symbol>
	
	<symbol id="icon-list" viewBox="0 0 1024 1024"> <!-- font awesome -->
		<title>List</title>
		<path class="path1" d="M292.571 713.143v109.714q0 22.857-16 38.857t-38.857 16h-182.857q-22.857 0-38.857-16t-16-38.857v-109.714q0-22.857 16-38.857t38.857-16h182.857q22.857 0 38.857 16t16 38.857zM292.571 420.571v109.714q0 22.857-16 38.857t-38.857 16h-182.857q-22.857 0-38.857-16t-16-38.857v-109.714q0-22.857 16-38.857t38.857-16h182.857q22.857 0 38.857 16t16 38.857zM1024 713.143v109.714q0 22.857-16 38.857t-38.857 16h-548.571q-22.857 0-38.857-16t-16-38.857v-109.714q0-22.857 16-38.857t38.857-16h548.571q22.857 0 38.857 16t16 38.857zM292.571 128v109.714q0 22.857-16 38.857t-38.857 16h-182.857q-22.857 0-38.857-16t-16-38.857v-109.714q0-22.857 16-38.857t38.857-16h182.857q22.857 0 38.857 16t16 38.857zM1024 420.571v109.714q0 22.857-16 38.857t-38.857 16h-548.571q-22.857 0-38.857-16t-16-38.857v-109.714q0-22.857 16-38.857t38.857-16h548.571q22.857 0 38.857 16t16 38.857zM1024 128v109.714q0 22.857-16 38.857t-38.857 16h-548.571q-22.857 0-38.857-16t-16-38.857v-109.714q0-22.857 16-38.857t38.857-16h548.571q22.857 0 38.857 16t16 38.857z"></path>
	</symbol>
	
	<symbol id="icon-shortcut" viewBox="0 0 32 32">
		<title>Shortcut</title>
		<path d="M28.4,0.5H3.6c-1.7,0-3.1,1.4-3.1,3.1v24.8c0,1.7,1.4,3.1,3.1,3.1h24.8c1.7,0,3.1-1.4,3.1-3.1V3.6
			C31.5,1.9,30.1,0.5,28.4,0.5z M11.6,11.2H8.4v3.4h3V17h-3v6.1H5.8V8.9h5.8L11.6,11.2L11.6,11.2z M17.4,23.1h-2.5V12.8l-0.2,0.2
			c-0.3,0.2-0.6,0.4-0.9,0.6l-0.6,0.3v-2.7l1.1-0.9c0.3-0.3,0.6-0.7,0.9-1L15.3,9h2.1L17.4,23.1L17.4,23.1z M26.1,20.7v2.3h-7v-1.9
			l3.3-5c0.4-0.6,0.8-1.2,1-1.9c0.2-0.6,0.3-1.3,0.2-1.9c0-1.2-0.5-1.2-0.8-1.2c-0.3,0-1,0.2-1,1.9v0.4h-2.6V13
			c-0.1-1.1,0.3-2.1,0.9-3c0.7-0.7,1.6-1.1,2.6-1.1c2.2,0,3.4,1.2,3.4,3.4c0,0.9-0.1,1.8-0.4,2.6c-0.3,0.9-0.7,1.7-1.3,2.5l0,0
			l-2.1,3.3L26.1,20.7L26.1,20.7z"/>
	</symbol>

  <symbol id="icon-print" viewBox="0 0 30 32"> <!-- font awesome -->
    <title>Print</title>
    <path class="path1" d="M6.857 27.429h16v-4.571h-16v4.571zM6.857 16h16v-6.857h-2.857q-0.714 0-1.214-0.5t-0.5-1.214v-2.857h-11.429v11.429zM27.429 17.143q0-0.464-0.339-0.804t-0.804-0.339-0.804 0.339-0.339 0.804 0.339 0.804 0.804 0.339 0.804-0.339 0.339-0.804zM29.714 17.143v7.429q0 0.232-0.17 0.402t-0.402 0.17h-4v2.857q0 0.714-0.5 1.214t-1.214 0.5h-17.143q-0.714 0-1.214-0.5t-0.5-1.214v-2.857h-4q-0.232 0-0.402-0.17t-0.17-0.402v-7.429q0-1.411 1.009-2.42t2.42-1.009h1.143v-9.714q0-0.714 0.5-1.214t1.214-0.5h12q0.714 0 1.571 0.357t1.357 0.857l2.714 2.714q0.5 0.5 0.857 1.357t0.357 1.571v4.571h1.143q1.411 0 2.42 1.009t1.009 2.42z"></path>
  </symbol>

  <symbol id="icon-email" viewBox="0 0 32 32"> <!-- font awesome -->
    <title>Email</title>
    <path class="path1" d="M32 12.679v14.179q0 1.179-0.839 2.018t-2.018 0.839h-26.286q-1.179 0-2.018-0.839t-0.839-2.018v-14.179q0.786 0.875 1.804 1.554 6.464 4.393 8.875 6.161 1.018 0.75 1.652 1.17t1.688 0.857 1.964 0.438h0.036q0.911 0 1.964-0.438t1.688-0.857 1.652-1.17q3.036-2.196 8.893-6.161 1.018-0.696 1.786-1.554zM32 7.429q0 1.411-0.875 2.696t-2.179 2.196q-6.714 4.661-8.357 5.804-0.179 0.125-0.759 0.545t-0.964 0.679-0.929 0.58-1.027 0.482-0.893 0.161h-0.036q-0.411 0-0.893-0.161t-1.027-0.482-0.929-0.58-0.964-0.679-0.759-0.545q-1.625-1.143-4.679-3.259t-3.661-2.545q-1.107-0.75-2.089-2.063t-0.982-2.438q0-1.393 0.741-2.321t2.116-0.929h26.286q1.161 0 2.009 0.839t0.848 2.018z"></path>
  </symbol>
  
  <symbol id="icon-note" viewBox="0 0 15 19"> <!-- custom icon -->
    <title>Note</title>
        <g>
          <path d="M10.67,10.29H4.33a0.79,0.79,0,0,0,0,1.58h6.33A0.79,0.79,0,0,0,10.67,10.29Z" transform="translate(-0.38)"/>
          <path d="M4.33,8.71H9.08a0.79,0.79,0,1,0,0-1.58H4.33A0.79,0.79,0,0,0,4.33,8.71Z" transform="translate(-0.38)"/>
          <path d="M10.67,13.46H4.33a0.79,0.79,0,0,0,0,1.58h6.33A0.79,0.79,0,0,0,10.67,13.46Z" transform="translate(-0.38)"/>
          <path d="M13,1.58H11.46V0.79a0.79,0.79,0,1,0-1.58,0V1.58H8.29V0.79a0.79,0.79,0,0,0-1.58,0V1.58H5.13V0.79a0.79,0.79,0,1,0-1.58,0V1.58H2A1.58,1.58,0,0,0,.38,3.17V17.42A1.58,1.58,0,0,0,2,19H13a1.58,1.58,0,0,0,1.58-1.58V3.17A1.58,1.58,0,0,0,13,1.58ZM2,17.42V3.17H3.54V4A0.79,0.79,0,1,0,5.13,4V3.17H6.71V4A0.79,0.79,0,0,0,8.29,4V3.17H9.88V4a0.79,0.79,0,1,0,1.58,0V3.17H13V17.42H2Z" transform="translate(-0.38)"/>
        </g>
  </symbol>
  
  <symbol id="icon-phone-in" viewBox="0 0 18 18"> <!-- custom icon -->
    <title>Phone In</title>
        <path d="M16.9560782,14.3914481 C16.9560782,14.6082162 16.915936,14.8912189 16.8356515,15.2404563 C16.7553671,15.5896937 16.6710684,15.864668 16.5827555,16.0653792 C16.4141581,16.4668015 15.9244229,16.8923091 15.1135498,17.3419021 C14.3588759,17.7513529 13.6122304,17.9560782 12.8736134,17.9560782 C12.6568453,17.9560782 12.4460986,17.9420284 12.2413732,17.9139289 C12.0366479,17.8858293 11.80583,17.8356515 11.5489198,17.7633955 C11.2920095,17.6911395 11.1013339,17.6329333 10.976893,17.5887768 C10.8524521,17.5446204 10.6296627,17.4623288 10.3085248,17.3419021 C9.98738698,17.2214754 9.79069006,17.1492194 9.71843404,17.1251341 C8.93164633,16.8441384 8.22915728,16.5109579 7.61096693,16.1255925 C6.58332583,15.4913453 5.52156383,14.6262802 4.42568093,13.5303973 C3.32979803,12.4345144 2.46473297,11.3727524 1.83048572,10.3451113 C1.4451203,9.72692095 1.11193979,9.0244319 0.830944175,8.23764419 C0.806858836,8.16538817 0.734602821,7.96869125 0.614176129,7.6475534 C0.493749437,7.32641555 0.411457868,7.10362617 0.367301411,6.97918526 C0.323144953,6.85474435 0.264938722,6.66406874 0.192682707,6.40715847 C0.120426692,6.1502482 0.0702488996,5.91943037 0.0421493422,5.71470499 C0.0140497847,5.50997961 0,5.2992329 0,5.08246486 C0,4.34384782 0.204725376,3.59720233 0.614176129,2.84252839 C1.06376911,2.03165533 1.48927676,1.54192011 1.89069906,1.37332275 C2.09141022,1.28500984 2.3663845,1.20071116 2.7156219,1.12042669 C3.06485931,1.04014223 3.34786204,1 3.56463008,1 C3.67702832,1 3.76132701,1.01204267 3.81752614,1.03612801 C3.96203817,1.08429868 4.17479199,1.38937963 4.4557876,1.95137087 C4.54410051,2.10391135 4.6645272,2.32067939 4.81706768,2.601675 C4.96960816,2.88267061 5.11010596,3.13757378 5.2385611,3.3663845 C5.36701624,3.59519521 5.49145715,3.80995614 5.61188385,4.0106673 C5.63596918,4.04278109 5.70621808,4.14313666 5.82263056,4.31173403 C5.93904303,4.4803314 6.02534882,4.62283631 6.08154794,4.73924879 C6.13774707,4.85566126 6.16584663,4.97006662 6.16584663,5.08246486 C6.16584663,5.24303378 6.05144127,5.44374493 5.82263056,5.68459832 C5.59381984,5.9254517 5.34493801,6.14623397 5.07598507,6.34694512 C4.80703213,6.54765628 4.55815029,6.7604101 4.32933958,6.98520659 C4.10052886,7.21000309 3.9861235,7.39465734 3.9861235,7.53916937 C3.9861235,7.61142539 4.00619462,7.70174541 4.04633685,7.81012943 C4.08647908,7.91851345 4.12059998,8.00080502 4.14869954,8.05700415 C4.1767991,8.11320328 4.23299822,8.20954463 4.31729691,8.34602821 C4.40159559,8.48251179 4.44775915,8.55878204 4.4557876,8.57483893 C5.06594951,9.67473604 5.76442433,10.6180785 6.55121204,11.4048662 C7.33799976,12.1916539 8.28134219,12.8901287 9.3812393,13.5002906 C9.39729619,13.5083191 9.47356644,13.5544826 9.61005002,13.6387813 C9.7465336,13.72308 9.84287495,13.7792791 9.89907408,13.8073787 C9.95527321,13.8354782 10.0375648,13.8695992 10.1459488,13.9097414 C10.2543328,13.9498836 10.3446528,13.9699547 10.4169089,13.9699547 C10.5614209,13.9699547 10.7460751,13.8555494 10.9708716,13.6267387 C11.1956681,13.3979279 11.4084219,13.1490461 11.6091331,12.8800932 C11.8098443,12.6111402 12.0306265,12.3622584 12.2714799,12.1334477 C12.5123333,11.904637 12.7130445,11.7902316 12.8736134,11.7902316 C12.9860116,11.7902316 13.100417,11.8183312 13.2168294,11.8745303 C13.3332419,11.9307294 13.4757468,12.0170352 13.6443442,12.1334477 C13.8129416,12.2498601 13.9132971,12.320109 13.9454109,12.3441944 C14.1461221,12.4646211 14.360883,12.589062 14.5896937,12.7175171 C14.8185044,12.8459723 15.0734076,12.9864701 15.3544032,13.1390106 C15.6353988,13.291551 15.8521669,13.4119777 16.0047074,13.5002906 C16.5666986,13.7812862 16.8717795,13.9940401 16.9199502,14.1385521 C16.9440356,14.1947512 16.9560782,14.2790499 16.9560782,14.3914481 Z M12.1947032,5.80864489 C12.0649011,5.67884277 12,5.52500322 12,5.34712624 L12,0.652616217 C12.0048075,0.46993175 12.0697085,0.316092202 12.1947032,0.191097566 C12.3172941,0.0685066747 12.4699317,0.00480748474 12.6526162,8.33320996e-16 L13.1934584,0 C13.3761428,4.16660498e-16 13.5311843,0.0636991899 13.6585827,0.191097566 C13.785981,0.318495942 13.8496802,0.473537368 13.8496802,0.656221831 L13.8496802,2.7691119 L16.3880328,0.230759325 C16.5130274,0.10576469 16.6596557,0.0492767321 16.8279178,0.0612954458 C16.9961798,0.0733141594 17.14401,0.143022708 17.2714083,0.270421084 L17.732927,0.731939735 C17.8603254,0.859338111 17.9300339,1.0071683 17.9420526,1.17543031 C17.9540713,1.34369232 17.8975834,1.49032064 17.7725887,1.61531528 L15.2342362,4.15366785 L17.3507319,4.15727347 C17.5286088,4.15246598 17.6824484,4.2149633 17.8122505,4.34476542 C17.9420526,4.47456754 18.0045499,4.62840709 17.9997425,4.80628407 L17.9997425,5.34712624 C17.9997425,5.5298107 17.9372451,5.68365025 17.8122505,5.80864489 C17.6848521,5.93604327 17.5298107,5.99974246 17.3471262,5.99974246 L12.6526162,5.99974246 C12.4795467,6.00454994 12.326909,5.94085075 12.1947032,5.80864489 Z"></path>
  </symbol>
  
  <symbol id="icon-phone-out" viewBox="0 0 18 18"> <!-- custom icon -->
    <title>Phone Out</title>
        <path d="M16.8356515,15.2404563 C16.7553671,15.5896937 16.6710684,15.864668 16.5827555,16.0653792 C16.4141581,16.4668015 15.9244229,16.8923091 15.1135498,17.3419021 C14.3588759,17.7513529 13.6122304,17.9560782 12.8736134,17.9560782 C12.6568453,17.9560782 12.4460986,17.9420284 12.2413732,17.9139289 C12.0366479,17.8858293 11.80583,17.8356515 11.5489198,17.7633955 C11.2920095,17.6911395 11.1013339,17.6329333 10.976893,17.5887768 C10.8524521,17.5446204 10.6296627,17.4623288 10.3085248,17.3419021 C9.98738698,17.2214754 9.79069006,17.1492194 9.71843404,17.1251341 C8.93164633,16.8441384 8.22915728,16.5109579 7.61096693,16.1255925 C6.58332583,15.4913453 5.52156383,14.6262802 4.42568093,13.5303973 C3.32979803,12.4345144 2.46473297,11.3727524 1.83048572,10.3451113 C1.4451203,9.72692095 1.11193979,9.0244319 0.830944175,8.23764419 C0.806858836,8.16538817 0.734602821,7.96869125 0.614176129,7.6475534 C0.493749437,7.32641555 0.411457868,7.10362617 0.367301411,6.97918526 C0.323144953,6.85474435 0.264938722,6.66406874 0.192682707,6.40715847 C0.120426692,6.1502482 0.0702488996,5.91943037 0.0421493422,5.71470499 C0.0140497847,5.50997961 0,5.2992329 0,5.08246486 C0,4.34384782 0.204725376,3.59720233 0.614176129,2.84252839 C1.06376911,2.03165533 1.48927676,1.54192011 1.89069906,1.37332275 C2.09141022,1.28500984 2.3663845,1.20071116 2.7156219,1.12042669 C3.06485931,1.04014223 3.34786204,1 3.56463008,1 C3.67702832,1 3.76132701,1.01204267 3.81752614,1.03612801 C3.96203817,1.08429868 4.17479199,1.38937963 4.4557876,1.95137087 C4.54410051,2.10391135 4.6645272,2.32067939 4.81706768,2.601675 C4.96960816,2.88267061 5.11010596,3.13757378 5.2385611,3.3663845 C5.36701624,3.59519521 5.49145715,3.80995614 5.61188385,4.0106673 C5.63596918,4.04278109 5.70621808,4.14313666 5.82263056,4.31173403 C5.93904303,4.4803314 6.02534882,4.62283631 6.08154794,4.73924879 C6.13774707,4.85566126 6.16584663,4.97006662 6.16584663,5.08246486 C6.16584663,5.24303378 6.05144127,5.44374493 5.82263056,5.68459832 C5.59381984,5.9254517 5.34493801,6.14623397 5.07598507,6.34694512 C4.80703213,6.54765628 4.55815029,6.7604101 4.32933958,6.98520659 C4.10052886,7.21000309 3.9861235,7.39465734 3.9861235,7.53916937 C3.9861235,7.61142539 4.00619462,7.70174541 4.04633685,7.81012943 C4.08647908,7.91851345 4.12059998,8.00080502 4.14869954,8.05700415 C4.1767991,8.11320328 4.23299822,8.20954463 4.31729691,8.34602821 C4.40159559,8.48251179 4.44775915,8.55878204 4.4557876,8.57483893 C5.06594951,9.67473604 5.76442433,10.6180785 6.55121204,11.4048662 C7.33799976,12.1916539 8.28134219,12.8901287 9.3812393,13.5002906 C9.39729619,13.5083191 9.47356644,13.5544826 9.61005002,13.6387813 C9.7465336,13.72308 9.84287495,13.7792791 9.89907408,13.8073787 C9.95527321,13.8354782 10.0375648,13.8695992 10.1459488,13.9097414 C10.2543328,13.9498836 10.3446528,13.9699547 10.4169089,13.9699547 C10.5614209,13.9699547 10.7460751,13.8555494 10.9708716,13.6267387 C11.1956681,13.3979279 11.4084219,13.1490461 11.6091331,12.8800932 C11.8098443,12.6111402 12.0306265,12.3622584 12.2714799,12.1334477 C12.5123333,11.904637 12.7130445,11.7902316 12.8736134,11.7902316 C12.9860116,11.7902316 13.100417,11.8183312 13.2168294,11.8745303 C13.3332419,11.9307294 13.4757468,12.0170352 13.6443442,12.1334477 C13.8129416,12.2498601 13.9132971,12.320109 13.9454109,12.3441944 C14.1461221,12.4646211 14.360883,12.589062 14.5896937,12.7175171 C14.8185044,12.8459723 15.0734076,12.9864701 15.3544032,13.1390106 C15.6353988,13.291551 15.8521669,13.4119777 16.0047074,13.5002906 C16.5666986,13.7812862 16.8717795,13.9940401 16.9199502,14.1385521 C16.9440356,14.1947512 16.9560782,14.2790499 16.9560782,14.3914481 C16.9560782,14.6082162 16.915936,14.8912189 16.8356515,15.2404563 Z M17.8052968,0.191350592 C17.9350989,0.321152712 18,0.47499226 18,0.652869243 L18,5.34737927 C17.9951925,5.53006373 17.9302915,5.68390328 17.8052968,5.80889792 C17.6827059,5.93148881 17.5300683,5.995188 17.3473838,5.99999548 L16.8065416,5.99999548 C16.6238572,5.99999548 16.4688157,5.93629629 16.3414173,5.80889792 C16.214019,5.68149954 16.1503198,5.52645811 16.1503198,5.34377365 L16.1503198,3.23088358 L13.6119672,5.76923616 C13.4869726,5.89423079 13.3403443,5.95071875 13.1720822,5.93870004 C13.0038202,5.92668132 12.85599,5.85697277 12.7285917,5.7295744 L12.267073,5.26805575 C12.1396746,5.14065737 12.0699661,4.99282718 12.0579474,4.82456517 C12.0459287,4.65630316 12.1024166,4.50967484 12.2274113,4.38468021 L14.7657638,1.84632763 L12.6492681,1.84272201 C12.4713912,1.8475295 12.3175516,1.78503218 12.1877495,1.65523006 C12.0579474,1.52542794 11.9954501,1.37158839 12.0002575,1.19371141 L12.0002575,0.652869243 C12.0002575,0.470184779 12.0627549,0.316345228 12.1877495,0.191350592 C12.3151479,0.0639522158 12.4701893,0.000253025816 12.6528738,0.000253025816 L17.3473838,0.000253025816 C17.5204533,-0.00455446253 17.673091,0.0591447274 17.8052968,0.191350592 Z"></path>
  </symbol>
  
  <symbol id="icon-email-in" viewBox="0 0 18 18"> <!-- custom icon -->
    <title>Email In</title>
        <path d="M12.1947032,5.80864489 C12.0649011,5.67884277 12,5.52500322 12,5.34712624 L12,0.652616217 C12.0048075,0.46993175 12.0697085,0.316092202 12.1947032,0.191097566 C12.3172941,0.0685066747 12.4699317,0.00480748474 12.6526162,1.27741021e-15 L13.1934584,4.4408921e-16 C13.3761428,8.60749708e-16 13.5311843,0.0636991899 13.6585827,0.191097566 C13.785981,0.318495942 13.8496802,0.473537368 13.8496802,0.656221831 L13.8496802,2.7691119 L16.3880328,0.230759325 C16.5130274,0.10576469 16.6596557,0.0492767321 16.8279178,0.0612954458 C16.9961798,0.0733141594 17.14401,0.143022708 17.2714083,0.270421084 L17.732927,0.731939735 C17.8603254,0.859338111 17.9300339,1.0071683 17.9420526,1.17543031 C17.9540713,1.34369232 17.8975834,1.49032064 17.7725887,1.61531528 L15.2342362,4.15366785 L17.3507319,4.15727347 C17.5286088,4.15246598 17.6824484,4.2149633 17.8122505,4.34476542 C17.9420526,4.47456754 18.0045499,4.62840709 17.9997425,4.80628407 L17.9997425,5.34712624 C17.9997425,5.5298107 17.9372451,5.68365025 17.8122505,5.80864489 C17.6848521,5.93604327 17.5298107,5.99974246 17.3471262,5.99974246 L12.6526162,5.99974246 C12.4795467,6.00454994 12.326909,5.94085075 12.1947032,5.80864489 Z M8.88125,13.350625 C8.88125,13.875625 9.030625,14.085 9.42125,14.085 C10.291875,14.085 10.84625,12.975625 10.84625,11.130625 C10.84625,8.310625 8.79125,6.960625 6.225625,6.960625 C3.58625,6.960625 1.185625,8.730625 1.185625,12.075625 C1.185625,15.270625 3.285625,17.010625 6.510625,17.010625 C7.605625,17.010625 8.340625,16.890625 9.465,16.515625 L9.70625,17.52 C8.59625,17.880625 7.41,17.985 6.495625,17.985 C2.265625,17.985 0,15.66 0,12.075 C0,8.46 2.625625,6 6.240625,6 C10.005625,6 12,8.25 12,11.01 C12,13.35 11.265625,15.135 8.955625,15.135 C7.905,15.135 7.215625,14.715 7.125625,13.784375 C6.855625,14.819375 6.135625,15.135 5.16,15.135 C3.855,15.135 2.76,14.129375 2.76,12.105 C2.76,10.065 3.720625,8.805 5.445625,8.805 C6.360625,8.805 6.930625,9.165 7.184375,9.735 L7.62,8.94 L8.88,8.94 L8.88,13.350625 L8.88125,13.350625 L8.88125,13.350625 Z M7.036875,11.370625 C7.036875,10.54625 6.42125,10.200625 5.91125,10.200625 C5.35625,10.200625 4.741875,10.65 4.741875,11.970625 C4.741875,13.020625 5.206875,13.605625 5.91125,13.605625 C6.40625,13.605625 7.036875,13.290625 7.036875,12.420625 L7.036875,11.370625 Z"></path>
  </symbol>
  
  <symbol id="icon-email-out" viewBox="0 0 18 18"> <!-- custom icon -->
    <title>Email Out</title>
        <path d="M17.8052968,0.191350592 C17.9350989,0.321152712 18,0.47499226 18,0.652869243 L18,5.34737927 C17.9951925,5.53006373 17.9302915,5.68390328 17.8052968,5.80889792 C17.6827059,5.93148881 17.5300683,5.995188 17.3473838,5.99999548 L16.8065416,5.99999548 C16.6238572,5.99999548 16.4688157,5.93629629 16.3414173,5.80889792 C16.214019,5.68149954 16.1503198,5.52645811 16.1503198,5.34377365 L16.1503198,3.23088358 L13.6119672,5.76923616 C13.4869726,5.89423079 13.3403443,5.95071875 13.1720822,5.93870004 C13.0038202,5.92668132 12.85599,5.85697277 12.7285917,5.7295744 L12.267073,5.26805575 C12.1396746,5.14065737 12.0699661,4.99282718 12.0579474,4.82456517 C12.0459287,4.65630316 12.1024166,4.50967484 12.2274113,4.38468021 L14.7657638,1.84632763 L12.6492681,1.84272201 C12.4713912,1.8475295 12.3175516,1.78503218 12.1877495,1.65523006 C12.0579474,1.52542794 11.9954501,1.37158839 12.0002575,1.19371141 L12.0002575,0.652869243 C12.0002575,0.470184779 12.0627549,0.316345228 12.1877495,0.191350592 C12.3151479,0.0639522158 12.4701893,0.000253025816 12.6528738,0.000253025816 L17.3473838,0.000253025816 C17.5204533,-0.00455446253 17.673091,0.0591447274 17.8052968,0.191350592 Z M8.88125,13.350625 C8.88125,13.875625 9.030625,14.085 9.42125,14.085 C10.291875,14.085 10.84625,12.975625 10.84625,11.130625 C10.84625,8.310625 8.79125,6.960625 6.225625,6.960625 C3.58625,6.960625 1.185625,8.730625 1.185625,12.075625 C1.185625,15.270625 3.285625,17.010625 6.510625,17.010625 C7.605625,17.010625 8.340625,16.890625 9.465,16.515625 L9.70625,17.52 C8.59625,17.880625 7.41,17.985 6.495625,17.985 C2.265625,17.985 0,15.66 0,12.075 C0,8.46 2.625625,6 6.240625,6 C10.005625,6 12,8.25 12,11.01 C12,13.35 11.265625,15.135 8.955625,15.135 C7.905,15.135 7.215625,14.715 7.125625,13.784375 C6.855625,14.819375 6.135625,15.135 5.16,15.135 C3.855,15.135 2.76,14.129375 2.76,12.105 C2.76,10.065 3.720625,8.805 5.445625,8.805 C6.360625,8.805 6.930625,9.165 7.184375,9.735 L7.62,8.94 L8.88,8.94 L8.88,13.350625 L8.88125,13.350625 L8.88125,13.350625 Z M7.036875,11.370625 C7.036875,10.54625 6.42125,10.200625 5.91125,10.200625 C5.35625,10.200625 4.741875,10.65 4.741875,11.970625 C4.741875,13.020625 5.206875,13.605625 5.91125,13.605625 C6.40625,13.605625 7.036875,13.290625 7.036875,12.420625 L7.036875,11.370625 Z"></path>
  </symbol>
  
  <symbol id="icon-fax-in" viewBox="0 0 18 18"> <!-- custom icon -->
    <title>Fax In</title>
        <path d="M3.00050767,7.45910689 C3.00050767,7.28272673 3.13864345,7.13974236 3.32628766,7.13974236 L6.82646658,7.13974236 C7.0063899,7.13974236 7.15224657,7.28788509 7.15224657,7.45910689 C7.15224657,7.63548705 7.01411079,7.77847142 6.82646658,7.77847142 L3.32628766,7.77847142 C3.14636434,7.77847142 3.00050767,7.63032869 3.00050767,7.45910689 Z M3.00050767,9.26926163 C3.00050767,9.09288147 3.13864345,8.9498971 3.32628766,8.9498971 L6.82646658,8.9498971 C7.0063899,8.9498971 7.15224657,9.09803983 7.15224657,9.26926163 C7.15224657,9.44564179 7.01411079,9.58862616 6.82646658,9.58862616 L3.32628766,9.58862616 C3.14636434,9.58862616 3.00050767,9.44048344 3.00050767,9.26926163 Z M3.00050767,11.0308781 C3.00050767,10.8544979 3.13762339,10.7115136 3.31997317,10.7115136 L10.5808364,10.7115136 C10.7572723,10.7115136 10.9003019,10.8596563 10.9003019,11.0308781 C10.9003019,11.2072583 10.7631861,11.3502426 10.5808364,11.3502426 L3.31997317,11.3502426 C3.14353725,11.3502426 3.00050767,11.2020999 3.00050767,11.0308781 Z M1.33981211,12.0260197 L1.33981211,5.38323744 C1.33981211,5.17565049 1.5154626,5 1.72304954,5 L8.44567292,5 C8.46164115,5 8.46164115,5.01596823 8.47760938,5.01596823 C8.57341874,5.01596823 8.65325987,5.04790468 8.71713277,5.11177759 L12.5016025,8.89624728 C12.5654754,8.96012019 12.5974118,9.05592955 12.5974118,9.13577068 C12.5974118,9.1517389 12.6133801,9.1517389 12.6133801,9.16770713 L12.6133801,12.0260197 C12.6133801,12.2336066 12.4377296,12.4092571 12.2301426,12.4092571 C12.0225557,12.4092571 11.8469052,12.2336066 11.8469052,12.0260197 L11.8469052,9.55094457 L8.44567292,9.55094457 C8.23808598,9.55094457 8.06243549,9.37529408 8.06243549,9.16770713 L8.06243549,5.76647487 L2.10628698,5.76647487 L2.10628698,12.0260197 C2.10628698,12.2336066 1.93063649,12.4092571 1.72304954,12.4092571 C1.5154626,12.4092571 1.33981211,12.2336066 1.33981211,12.0260197 Z M11.2880173,8.76850147 L10.0584638,7.53894802 L8.82891036,6.30939458 L8.82891036,8.76850147 L11.2880173,8.76850147 Z M0.330440464,17.429867 C0.205071333,17.2296507 0.116190234,17.06218 0.0637971596,16.9274549 C-0.0447313413,16.6617472 -0.0147924459,16.2351179 0.153613852,15.6475671 C0.314535427,15.1049246 0.567144873,14.6614546 0.91144219,14.3171573 C1.01248597,14.2161135 1.11727211,14.1244257 1.22580061,14.0420937 C1.33432911,13.9597617 1.46531179,13.8755586 1.61874864,13.7894843 C1.77218549,13.7034099 1.88819872,13.6416609 1.96678832,13.6042373 C2.04537793,13.5668137 2.18758769,13.5013224 2.39341761,13.4077633 C2.59924753,13.3142043 2.72461666,13.2561976 2.76952501,13.2337435 C3.26725917,12.9979747 3.7500239,12.825826 4.21781917,12.7172975 C4.99248813,12.5339217 5.89065505,12.4422339 6.91231993,12.4422339 C7.9339848,12.4422339 8.83215172,12.5339217 9.60682069,12.7172975 C10.074616,12.825826 10.5573807,12.9979747 11.0551148,13.2337435 C11.1000232,13.2561976 11.2253923,13.3142043 11.4312222,13.4077633 C11.6370522,13.5013224 11.7792619,13.5668137 11.8578515,13.6042373 C11.9364411,13.6416609 12.0524544,13.7034099 12.2058912,13.7894843 C12.3593281,13.8755586 12.4903107,13.9597617 12.5988392,14.0420937 C12.7073677,14.1244257 12.8121539,14.2161135 12.9131977,14.3171573 C13.257495,14.6614546 13.5101044,15.1049246 13.671026,15.6475671 C13.8394323,16.2351179 13.8693712,16.6617472 13.7608427,16.9274549 C13.7084496,17.06218 13.6195685,17.2296507 13.4941994,17.429867 C13.3688303,17.6300834 13.2556238,17.7807135 13.15458,17.8817573 C13.102187,17.9341503 13.0572786,17.9678316 13.019855,17.9828011 C12.9300383,18.0277094 12.6886559,17.9846722 12.2957079,17.8536896 C12.183437,17.8237507 12.0262578,17.7788423 11.8241703,17.7189645 C11.6220827,17.6590867 11.4377714,17.6057581 11.2712363,17.5589785 C11.1047011,17.512199 10.9465863,17.4700974 10.7968919,17.4326738 C10.7706953,17.4289315 10.6911701,17.4148976 10.5583163,17.3905722 C10.4254624,17.3662469 10.3188051,17.3400504 10.2383443,17.3119826 C10.1578835,17.2839149 10.0914566,17.2436845 10.0390635,17.1912915 C9.96421627,17.1164442 9.92398588,16.9695565 9.91837234,16.7506283 C9.91275879,16.5317001 9.92585706,16.3127719 9.95766714,16.0938438 C9.98947721,15.8749156 10.0063178,15.6597297 10.008189,15.4482863 C10.0100602,15.2368428 9.97731454,15.0974398 9.90995202,15.0300773 C9.87627076,14.996396 9.82481328,14.9636504 9.75557958,14.9318403 C9.68634588,14.9000302 9.63208163,14.8775761 9.59278683,14.8644778 C9.55349202,14.8513795 9.48238714,14.8326677 9.37947218,14.8083424 C9.27655723,14.784017 9.2194862,14.7699831 9.20825911,14.7662408 C8.41113597,14.5379567 7.64582291,14.4238146 6.91231993,14.4238146 C6.17881694,14.4238146 5.41350388,14.5379567 4.61638074,14.7662408 C4.60515365,14.7699831 4.54808262,14.784017 4.44516767,14.8083424 C4.34225271,14.8326677 4.27114783,14.8513795 4.23185302,14.8644778 C4.19255822,14.8775761 4.13829397,14.9000302 4.06906027,14.9318403 C3.99982657,14.9636504 3.94836909,14.996396 3.91468783,15.0300773 C3.84732531,15.0974398 3.81457964,15.2368428 3.81645082,15.4482863 C3.818322,15.6597297 3.83516264,15.8749156 3.86697271,16.0938438 C3.89878279,16.3127719 3.91188106,16.5317001 3.90626751,16.7506283 C3.90065397,16.9695565 3.86042358,17.1164442 3.78557633,17.1912915 C3.73318327,17.2436845 3.66675634,17.2839149 3.58629555,17.3119826 C3.50583476,17.3400504 3.39917744,17.3662469 3.26632358,17.3905722 C3.13346973,17.4148976 3.05394453,17.4289315 3.027748,17.4326738 C2.87805351,17.4700974 2.71993871,17.512199 2.55340359,17.5589785 C2.38686847,17.6057581 2.20255714,17.6590867 2.00046958,17.7189645 C1.79838202,17.7788423 1.64120281,17.8237507 1.52893195,17.8536896 C1.13598392,17.9846722 0.894601561,18.0277094 0.804784869,17.9828011 C0.767361245,17.9678316 0.722452899,17.9341503 0.670059831,17.8817573 C0.569016052,17.7807135 0.455809595,17.6300834 0.330440464,17.429867 Z M12.1947032,5.80864489 C12.0649011,5.67884277 12,5.52500322 12,5.34712624 L12,0.652616217 C12.0048075,0.46993175 12.0697085,0.316092202 12.1947032,0.191097566 C12.3172941,0.0685066747 12.4699317,0.00480748474 12.6526162,-5.48574241e-17 L13.1934584,-8.8817842e-16 C13.3761428,-4.71517922e-16 13.5311843,0.0636991899 13.6585827,0.191097566 C13.785981,0.318495942 13.8496802,0.473537368 13.8496802,0.656221831 L13.8496802,2.7691119 L16.3880328,0.230759325 C16.5130274,0.10576469 16.6596557,0.0492767321 16.8279178,0.0612954458 C16.9961798,0.0733141594 17.14401,0.143022708 17.2714083,0.270421084 L17.732927,0.731939735 C17.8603254,0.859338111 17.9300339,1.0071683 17.9420526,1.17543031 C17.9540713,1.34369232 17.8975834,1.49032064 17.7725887,1.61531528 L15.2342362,4.15366785 L17.3507319,4.15727347 C17.5286088,4.15246598 17.6824484,4.2149633 17.8122505,4.34476542 C17.9420526,4.47456754 18.0045499,4.62840709 17.9997425,4.80628407 L17.9997425,5.34712624 C17.9997425,5.5298107 17.9372451,5.68365025 17.8122505,5.80864489 C17.6848521,5.93604327 17.5298107,5.99974246 17.3471262,5.99974246 L12.6526162,5.99974246 C12.4795467,6.00454994 12.326909,5.94085075 12.1947032,5.80864489 Z"></path>
  </symbol>
  
  <symbol id="icon-fax-out" viewBox="0 0 18 18"> <!-- custom icon -->
    <title>Fax Out</title>
        <path d="M3.00050767,7.45910689 C3.00050767,7.28272673 3.13864345,7.13974236 3.32628766,7.13974236 L6.82646658,7.13974236 C7.0063899,7.13974236 7.15224657,7.28788509 7.15224657,7.45910689 C7.15224657,7.63548705 7.01411079,7.77847142 6.82646658,7.77847142 L3.32628766,7.77847142 C3.14636434,7.77847142 3.00050767,7.63032869 3.00050767,7.45910689 Z M3.00050767,9.26926163 C3.00050767,9.09288147 3.13864345,8.9498971 3.32628766,8.9498971 L6.82646658,8.9498971 C7.0063899,8.9498971 7.15224657,9.09803983 7.15224657,9.26926163 C7.15224657,9.44564179 7.01411079,9.58862616 6.82646658,9.58862616 L3.32628766,9.58862616 C3.14636434,9.58862616 3.00050767,9.44048344 3.00050767,9.26926163 Z M3.00050767,11.0308781 C3.00050767,10.8544979 3.13762339,10.7115136 3.31997317,10.7115136 L10.5808364,10.7115136 C10.7572723,10.7115136 10.9003019,10.8596563 10.9003019,11.0308781 C10.9003019,11.2072583 10.7631861,11.3502426 10.5808364,11.3502426 L3.31997317,11.3502426 C3.14353725,11.3502426 3.00050767,11.2020999 3.00050767,11.0308781 Z M1.33981211,12.0260197 L1.33981211,5.38323744 C1.33981211,5.17565049 1.5154626,5 1.72304954,5 L8.44567292,5 C8.46164115,5 8.46164115,5.01596823 8.47760938,5.01596823 C8.57341874,5.01596823 8.65325987,5.04790468 8.71713277,5.11177759 L12.5016025,8.89624728 C12.5654754,8.96012019 12.5974118,9.05592955 12.5974118,9.13577068 C12.5974118,9.1517389 12.6133801,9.1517389 12.6133801,9.16770713 L12.6133801,12.0260197 C12.6133801,12.2336066 12.4377296,12.4092571 12.2301426,12.4092571 C12.0225557,12.4092571 11.8469052,12.2336066 11.8469052,12.0260197 L11.8469052,9.55094457 L8.44567292,9.55094457 C8.23808598,9.55094457 8.06243549,9.37529408 8.06243549,9.16770713 L8.06243549,5.76647487 L2.10628698,5.76647487 L2.10628698,12.0260197 C2.10628698,12.2336066 1.93063649,12.4092571 1.72304954,12.4092571 C1.5154626,12.4092571 1.33981211,12.2336066 1.33981211,12.0260197 Z M11.2880173,8.76850147 L10.0584638,7.53894802 L8.82891036,6.30939458 L8.82891036,8.76850147 L11.2880173,8.76850147 Z M0.330440464,17.429867 C0.205071333,17.2296507 0.116190234,17.06218 0.0637971596,16.9274549 C-0.0447313413,16.6617472 -0.0147924459,16.2351179 0.153613852,15.6475671 C0.314535427,15.1049246 0.567144873,14.6614546 0.91144219,14.3171573 C1.01248597,14.2161135 1.11727211,14.1244257 1.22580061,14.0420937 C1.33432911,13.9597617 1.46531179,13.8755586 1.61874864,13.7894843 C1.77218549,13.7034099 1.88819872,13.6416609 1.96678832,13.6042373 C2.04537793,13.5668137 2.18758769,13.5013224 2.39341761,13.4077633 C2.59924753,13.3142043 2.72461666,13.2561976 2.76952501,13.2337435 C3.26725917,12.9979747 3.7500239,12.825826 4.21781917,12.7172975 C4.99248813,12.5339217 5.89065505,12.4422339 6.91231993,12.4422339 C7.9339848,12.4422339 8.83215172,12.5339217 9.60682069,12.7172975 C10.074616,12.825826 10.5573807,12.9979747 11.0551148,13.2337435 C11.1000232,13.2561976 11.2253923,13.3142043 11.4312222,13.4077633 C11.6370522,13.5013224 11.7792619,13.5668137 11.8578515,13.6042373 C11.9364411,13.6416609 12.0524544,13.7034099 12.2058912,13.7894843 C12.3593281,13.8755586 12.4903107,13.9597617 12.5988392,14.0420937 C12.7073677,14.1244257 12.8121539,14.2161135 12.9131977,14.3171573 C13.257495,14.6614546 13.5101044,15.1049246 13.671026,15.6475671 C13.8394323,16.2351179 13.8693712,16.6617472 13.7608427,16.9274549 C13.7084496,17.06218 13.6195685,17.2296507 13.4941994,17.429867 C13.3688303,17.6300834 13.2556238,17.7807135 13.15458,17.8817573 C13.102187,17.9341503 13.0572786,17.9678316 13.019855,17.9828011 C12.9300383,18.0277094 12.6886559,17.9846722 12.2957079,17.8536896 C12.183437,17.8237507 12.0262578,17.7788423 11.8241703,17.7189645 C11.6220827,17.6590867 11.4377714,17.6057581 11.2712363,17.5589785 C11.1047011,17.512199 10.9465863,17.4700974 10.7968919,17.4326738 C10.7706953,17.4289315 10.6911701,17.4148976 10.5583163,17.3905722 C10.4254624,17.3662469 10.3188051,17.3400504 10.2383443,17.3119826 C10.1578835,17.2839149 10.0914566,17.2436845 10.0390635,17.1912915 C9.96421627,17.1164442 9.92398588,16.9695565 9.91837234,16.7506283 C9.91275879,16.5317001 9.92585706,16.3127719 9.95766714,16.0938438 C9.98947721,15.8749156 10.0063178,15.6597297 10.008189,15.4482863 C10.0100602,15.2368428 9.97731454,15.0974398 9.90995202,15.0300773 C9.87627076,14.996396 9.82481328,14.9636504 9.75557958,14.9318403 C9.68634588,14.9000302 9.63208163,14.8775761 9.59278683,14.8644778 C9.55349202,14.8513795 9.48238714,14.8326677 9.37947218,14.8083424 C9.27655723,14.784017 9.2194862,14.7699831 9.20825911,14.7662408 C8.41113597,14.5379567 7.64582291,14.4238146 6.91231993,14.4238146 C6.17881694,14.4238146 5.41350388,14.5379567 4.61638074,14.7662408 C4.60515365,14.7699831 4.54808262,14.784017 4.44516767,14.8083424 C4.34225271,14.8326677 4.27114783,14.8513795 4.23185302,14.8644778 C4.19255822,14.8775761 4.13829397,14.9000302 4.06906027,14.9318403 C3.99982657,14.9636504 3.94836909,14.996396 3.91468783,15.0300773 C3.84732531,15.0974398 3.81457964,15.2368428 3.81645082,15.4482863 C3.818322,15.6597297 3.83516264,15.8749156 3.86697271,16.0938438 C3.89878279,16.3127719 3.91188106,16.5317001 3.90626751,16.7506283 C3.90065397,16.9695565 3.86042358,17.1164442 3.78557633,17.1912915 C3.73318327,17.2436845 3.66675634,17.2839149 3.58629555,17.3119826 C3.50583476,17.3400504 3.39917744,17.3662469 3.26632358,17.3905722 C3.13346973,17.4148976 3.05394453,17.4289315 3.027748,17.4326738 C2.87805351,17.4700974 2.71993871,17.512199 2.55340359,17.5589785 C2.38686847,17.6057581 2.20255714,17.6590867 2.00046958,17.7189645 C1.79838202,17.7788423 1.64120281,17.8237507 1.52893195,17.8536896 C1.13598392,17.9846722 0.894601561,18.0277094 0.804784869,17.9828011 C0.767361245,17.9678316 0.722452899,17.9341503 0.670059831,17.8817573 C0.569016052,17.7807135 0.455809595,17.6300834 0.330440464,17.429867 Z M17.8052968,0.191350592 C17.9350989,0.321152712 18,0.47499226 18,0.652869243 L18,5.34737927 C17.9951925,5.53006373 17.9302915,5.68390328 17.8052968,5.80889792 C17.6827059,5.93148881 17.5300683,5.995188 17.3473838,5.99999548 L16.8065416,5.99999548 C16.6238572,5.99999548 16.4688157,5.93629629 16.3414173,5.80889792 C16.214019,5.68149954 16.1503198,5.52645811 16.1503198,5.34377365 L16.1503198,3.23088358 L13.6119672,5.76923616 C13.4869726,5.89423079 13.3403443,5.95071875 13.1720822,5.93870004 C13.0038202,5.92668132 12.85599,5.85697277 12.7285917,5.7295744 L12.267073,5.26805575 C12.1396746,5.14065737 12.0699661,4.99282718 12.0579474,4.82456517 C12.0459287,4.65630316 12.1024166,4.50967484 12.2274113,4.38468021 L14.7657638,1.84632763 L12.6492681,1.84272201 C12.4713912,1.8475295 12.3175516,1.78503218 12.1877495,1.65523006 C12.0579474,1.52542794 11.9954501,1.37158839 12.0002575,1.19371141 L12.0002575,0.652869243 C12.0002575,0.470184779 12.0627549,0.316345228 12.1877495,0.191350592 C12.3151479,0.0639522158 12.4701893,0.000253025816 12.6528738,0.000253025816 L17.3473838,0.000253025816 C17.5204533,-0.00455446253 17.673091,0.0591447274 17.8052968,0.191350592 Z"></path>
  </symbol>
  
  <symbol id="icon-regmail-in" viewBox="0 0 18 18"> <!-- custom icon -->
    <title>Regular Mail In</title>
        <path d="M0.430500551,9.96449986 C0.796500496,10.1609998 5.86649974,12.8849994 6.05549971,12.9862494 C6.24449968,13.0874994 6.48899964,13.1354994 6.73499961,13.1354994 C6.98099957,13.1354994 7.22549953,13.0874994 7.4144995,12.9862494 C7.60349948,12.8849994 12.6734987,10.1609998 13.0394987,9.96449986 C13.4062486,9.76724988 13.7527486,9 13.0799987,9 L0.390750557,9 C-0.281999342,9 0.0645006056,9.76724988 0.430500551,9.96449986 L0.430500551,9.96449986 Z M13.2097486,11.6167496 C12.7934987,11.8334996 7.66949947,14.5034992 7.4144995,14.6369992 C7.15949954,14.7704991 6.98099957,14.7862491 6.73499961,14.7862491 C6.48899964,14.7862491 6.31049967,14.7704991 6.05549971,14.6369992 C5.80049975,14.5034992 0.705750509,11.8327496 0.289500572,11.6159996 C-0.00299938428,11.4629996 6.15274009e-07,11.6422496 6.15274009e-07,11.7802496 L6.15274009e-07,17.2499988 C6.15274009e-07,17.5649987 0.424500552,17.9999987 0.750000503,17.9999987 L12.7499987,17.9999987 C13.0754987,17.9999987 13.4999986,17.5649987 13.4999986,17.2499988 L13.4999986,11.7809996 C13.4999986,11.6429996 13.5029986,11.4637496 13.2097486,11.6167496 Z M12.1947032,5.80864489 C12.0649011,5.67884277 12,5.52500322 12,5.34712624 L12,0.652616217 C12.0048075,0.46993175 12.0697085,0.316092202 12.1947032,0.191097566 C12.3172941,0.0685066747 12.4699317,0.00480748474 12.6526162,8.33320996e-16 L13.1934584,0 C13.3761428,4.16660498e-16 13.5311843,0.0636991899 13.6585827,0.191097566 C13.785981,0.318495942 13.8496802,0.473537368 13.8496802,0.656221831 L13.8496802,2.7691119 L16.3880328,0.230759325 C16.5130274,0.10576469 16.6596557,0.0492767321 16.8279178,0.0612954458 C16.9961798,0.0733141594 17.14401,0.143022708 17.2714083,0.270421084 L17.732927,0.731939735 C17.8603254,0.859338111 17.9300339,1.0071683 17.9420526,1.17543031 C17.9540713,1.34369232 17.8975834,1.49032064 17.7725887,1.61531528 L15.2342362,4.15366785 L17.3507319,4.15727347 C17.5286088,4.15246598 17.6824484,4.2149633 17.8122505,4.34476542 C17.9420526,4.47456754 18.0045499,4.62840709 17.9997425,4.80628407 L17.9997425,5.34712624 C17.9997425,5.5298107 17.9372451,5.68365025 17.8122505,5.80864489 C17.6848521,5.93604327 17.5298107,5.99974246 17.3471262,5.99974246 L12.6526162,5.99974246 C12.4795467,6.00454994 12.326909,5.94085075 12.1947032,5.80864489 Z"></path>
  </symbol>
  
  <symbol id="icon-regmail-out" viewBox="0 0 18 18"> <!-- custom icon -->
    <title>Regular Mail Out</title>
    <path id="Reg-Mail-Out" d="M0.431,9.964c0.366,0.197 5.435,2.921 5.624,3.022c0.189,0.101 0.434,0.149 0.68,0.149c0.246,0 0.49,-0.048 0.679,-0.149c0.189,-0.101 5.259,-2.825 5.625,-3.022c0.367,-0.197 0.714,-0.964 0.041,-0.964l-12.689,0c-0.673,0 -0.326,0.767 0.04,0.964Zm12.779,1.653c-0.417,0.216 -5.541,2.886 -5.796,3.02c-0.255,0.133 -0.433,0.149 -0.679,0.149c-0.246,0 -0.425,-0.016 -0.68,-0.149c-0.255,-0.134 -5.349,-2.804 -5.765,-3.021c-0.293,-0.153 -0.29,0.026 -0.29,0.164l0,5.47c0,0.315 0.425,0.75 0.75,0.75l12,0c0.325,0 0.75,-0.435 0.75,-0.75l0,-5.469c0,-0.138 0.003,-0.317 -0.29,-0.164Zm4.595,-11.426c0.13,0.13 0.195,0.284 0.195,0.462l0,4.694c-0.005,0.183 -0.07,0.337 -0.195,0.462c-0.122,0.122 -0.275,0.186 -0.458,0.191l-0.54,0c-0.183,0 -0.338,-0.064 -0.466,-0.191c-0.127,-0.128 -0.191,-0.283 -0.191,-0.465l0,-2.113l-2.538,2.538c-0.125,0.125 -0.272,0.182 -0.44,0.17c-0.168,-0.012 -0.316,-0.082 -0.443,-0.209l-0.462,-0.462c-0.127,-0.127 -0.197,-0.275 -0.209,-0.443c-0.012,-0.169 0.044,-0.315 0.169,-0.44l2.539,-2.539l-2.117,-0.003c-0.178,0.005 -0.331,-0.058 -0.461,-0.188c-0.13,-0.13 -0.193,-0.283 -0.188,-0.461l0,-0.541c0,-0.183 0.063,-0.337 0.188,-0.462c0.127,-0.127 0.282,-0.191 0.465,-0.191l4.694,0c0.173,-0.005 0.326,0.059 0.458,0.191Z"/>
  </symbol>

  <symbol id="icon-document" viewBox="0 0 18 18"><!-- custom icon -->
    <title>Document</title>
    <path d="M4.55,14.77A0.41,0.41,0,0,1,5,14.36H13a0.41,0.41,0,0,1,0,.81H5A0.41,0.41,0,0,1,4.55,14.77Zm0-2.35A0.41,0.41,0,0,1,5,12H13a0.41,0.41,0,0,1,0,.81H5A0.41,0.41,0,0,1,4.55,12.41Zm0-2.35A0.41,0.41,0,0,1,5,9.66H13a0.41,0.41,0,0,1,0,.81H5A0.41,0.41,0,0,1,4.55,10.07Zm0-2.35A0.41,0.41,0,0,1,5,7.31H13a0.41,0.41,0,0,1,0,.81H5A0.41,0.41,0,0,1,4.55,7.72Zm0-2.35A0.41,0.41,0,0,1,5,5H8.59a0.41,0.41,0,1,1,0,.81H5A0.41,0.41,0,0,1,4.55,5.37ZM4.55,3A0.41,0.41,0,0,1,5,2.61H8.59a0.41,0.41,0,1,1,0,.81H5A0.41,0.41,0,0,1,4.55,3ZM14.35,4.8L12.83,3.23,11.3,1.67V4.8h3.05ZM3,7.89a0.23,0.23,0,0,1,0,.06V17H15V8.41a0.23,0.23,0,0,1,0-.07V5.8H10.82a0.49,0.49,0,0,1-.48-0.49V1H3V7.89ZM2,8.45v9.06a0.49,0.49,0,0,0,.48.49h13A0.49,0.49,0,0,0,16,17.51V5.31s0,0,0,0A0.45,0.45,0,0,0,15.86,5l-4.7-4.82A0.4,0.4,0,0,0,10.86,0s0,0,0,0H2.47A0.49,0.49,0,0,0,2,.49v8Z" fill-rule="evenodd"/>  
  </symbol>
  
  <symbol id="icon-doc-created" viewBox="0 0 15 19"> <!-- custom icon -->
    <title>Document Created</title>
    	<path d="M6.621,7.491c0.73,-0.316 1.534,-0.491 2.379,-0.491c3.311,0 6,2.689 6,6c0,3.311 -2.689,6 -6,6c-1.558,0 -2.978,-0.595 -4.045,-1.57l-0.001,-0.001l-0.001,-0.001l-0.013,-0.012l-0.013,-0.012l-0.002,-0.002l-0.003,-0.002l-0.008,-0.008l-0.014,-0.013l-0.004,-0.004l-0.003,-0.002l-0.006,-0.006l-0.014,-0.014l-0.006,-0.005l-0.002,-0.002l-0.004,-0.004l-0.017,-0.016l-0.006,-0.006l-0.001,-0.001l-0.002,-0.002l-0.026,-0.025c0,0 -0.025,-0.025 -0.025,-0.025l-0.005,-0.005l-0.004,-0.003l-0.005,-0.005l-0.012,-0.012l-0.012,-0.012l-0.004,-0.005l-0.003,-0.002c-1.075,-1.085 -1.739,-2.577 -1.739,-4.223c0,-0.06 0.001,-0.119 0.003,-0.178l0,0l0,-0.009l0,-0.006l0.001,-0.022l0,-0.014l0.001,-0.005l0.001,-0.036l0,-0.004l0,-0.006l0.001,-0.012l0.001,-0.017l0.001,-0.012l0,-0.01l0,-0.007l0.001,-0.009l0.002,-0.029l0,-0.006l0,-0.001c0.001,-0.016 0.002,-0.032 0.003,-0.047l0,-0.003l0.001,-0.006l0.002,-0.022l0.001,-0.018l0,-0.005l0.001,-0.003c0.064,-0.805 0.288,-1.565 0.639,-2.249l0,0l0.001,0l0.013,-0.027l0.006,-0.01l0.002,-0.004l0.003,-0.005l0.006,-0.013l0.009,-0.016l0.004,-0.007l0.001,-0.004l0.003,-0.005l0.018,-0.032c0.005,-0.01 0.011,-0.021 0.017,-0.031c0.601,-1.092 1.533,-1.976 2.66,-2.519l0.001,0l0.009,-0.005l0.021,-0.01l0.001,0l0,0l0.032,-0.015c0.012,-0.006 0.024,-0.011 0.036,-0.017l0.002,-0.001l0.008,-0.004l0.02,-0.009l0.007,-0.003l0.003,-0.001l0.007,-0.003l0.016,-0.008l0.012,-0.005l0.004,-0.002l0.004,-0.002l0.013,-0.005l0.019,-0.008l0.003,-0.002l0.001,0Zm-2.374,10.509l-3.768,0c-0.26,0 -0.479,-0.225 -0.479,-0.491l0,-17.02c0,-0.265 0.218,-0.489 0.475,-0.489l8.349,0c0.02,0 0.02,0.021 0.04,0.021c0.119,0 0.218,0.041 0.297,0.122l4.7,4.82c0.079,0.081 0.119,0.203 0.119,0.305c0,0.02 0.02,0.02 0.02,0.04l0,2.941c-0.291,-0.306 -0.61,-0.586 -0.952,-0.835l0,-1.618l-4.224,0c-0.258,0 -0.476,-0.223 -0.476,-0.488l0,-4.331l-7.397,0l0,6.909c0.005,0.016 0.007,0.038 0.007,0.064l0,9.068l2.434,0c0.253,0.353 0.54,0.682 0.855,0.982Zm5.14,-7.883l-0.774,0c-0.108,0 -0.199,0.038 -0.274,0.115c-0.076,0.076 -0.113,0.169 -0.113,0.278l0,1.704l-1.678,0c-0.108,0 -0.199,0.038 -0.275,0.114c-0.075,0.077 -0.113,0.17 -0.113,0.279l0,0.786c0,0.109 0.038,0.202 0.113,0.279c0.076,0.076 0.167,0.114 0.275,0.114l1.678,0l0,1.704c0,0.109 0.037,0.202 0.113,0.278c0.075,0.077 0.166,0.115 0.274,0.115l0.774,0c0.108,0 0.199,-0.038 0.274,-0.115c0.076,-0.076 0.113,-0.169 0.113,-0.278l0,-1.704l1.678,0c0.108,0 0.199,-0.038 0.275,-0.114c0.075,-0.077 0.113,-0.17 0.113,-0.279l0,-0.786c0,-0.109 -0.038,-0.202 -0.113,-0.279c-0.076,-0.076 -0.167,-0.114 -0.275,-0.114l-1.678,0l0,-1.704c0,-0.109 -0.037,-0.202 -0.113,-0.278c-0.075,-0.077 -0.166,-0.115 -0.274,-0.115Zm-5.264,-1.994l-1.172,0c-0.224,0 -0.406,-0.188 -0.406,-0.407c0,-0.224 0.186,-0.406 0.406,-0.406l2.148,0c-0.349,0.241 -0.676,0.513 -0.976,0.813Zm2.465,-2.349l-3.632,0c-0.227,0 -0.411,-0.189 -0.411,-0.407c0,-0.225 0.191,-0.407 0.411,-0.407l3.632,0c0.227,0 0.412,0.189 0.412,0.407c0,0.225 -0.192,0.407 -0.412,0.407Zm5.766,-0.974l-1.527,-1.566l-1.527,-1.566l0,3.132l3.054,0Zm-5.766,-1.376l-3.632,0c-0.227,0 -0.411,-0.188 -0.411,-0.406c0,-0.225 0.191,-0.407 0.411,-0.407l3.632,0c0.227,0 0.412,0.189 0.412,0.407c0,0.224 -0.192,0.406 -0.412,0.406Z"/>
  </symbol>
  
  <symbol id="icon-doc-review" viewBox="0 0 15 19"> <!-- custom icon -->
    <title>Document Review</title>
    	<path d="M6.621,7.491c0.729,-0.316 1.534,-0.491 2.379,-0.491c3.311,0 6,2.689 6,6c0,3.311 -2.689,6 -6,6c-1.572,0 -3.004,-0.606 -4.074,-1.597l-0.001,-0.001l-0.001,-0.001l-0.01,-0.009l-0.016,-0.015l-0.002,-0.002l-0.002,-0.001l-0.007,-0.007l-0.017,-0.016l-0.003,-0.003l-0.001,-0.001l-0.005,-0.005l-0.021,-0.02l-0.002,-0.002l0,0c-0.02,-0.02 -0.04,-0.039 -0.06,-0.059l-0.003,-0.002l-0.003,-0.004l-0.014,-0.013l-0.013,-0.014l-0.003,-0.003l-0.002,-0.001c-1.075,-1.085 -1.74,-2.577 -1.74,-4.224c0,-0.06 0.001,-0.119 0.003,-0.178l0,0l0,-0.007l0,-0.008l0.001,-0.028l0,-0.008l0,-0.002c0.001,-0.015 0.002,-0.03 0.002,-0.045l0,-0.004l0.001,-0.009l0.001,-0.02l0.001,-0.015l0,-0.007l0,-0.005c0.002,-0.032 0.004,-0.064 0.006,-0.096l0,-0.001l0.001,-0.003l0.002,-0.025l0.001,-0.021l0,-0.002l0,-0.002c0.066,-0.82 0.297,-1.594 0.661,-2.288l0.001,-0.003l0.002,-0.003l0.007,-0.015l0.01,-0.019l0.003,-0.004l0.001,-0.002c0.617,-1.156 1.602,-2.087 2.798,-2.636l0.002,-0.001l0.006,-0.003l0.022,-0.01l0.007,-0.003l0.003,-0.001l0.006,-0.003l0.017,-0.008l0.012,-0.005l0.004,-0.002l0.003,-0.001l0.014,-0.006l0.02,-0.009l0.002,-0.001l0.001,0Zm-2.374,10.509l-3.768,0c-0.26,0 -0.479,-0.225 -0.479,-0.491l0,-17.02c0,-0.265 0.218,-0.489 0.475,-0.489l8.349,0c0.02,0 0.02,0.021 0.04,0.021c0.119,0 0.218,0.041 0.297,0.122l4.7,4.82c0.079,0.081 0.119,0.203 0.119,0.305c0,0.02 0.02,0.02 0.02,0.04l0,2.941c-0.291,-0.306 -0.61,-0.586 -0.952,-0.835l0,-1.618l-4.224,0c-0.258,0 -0.476,-0.223 -0.476,-0.488l0,-4.331l-7.397,0l0,6.909c0.005,0.016 0.007,0.038 0.007,0.064l0,9.068l2.434,0c0.253,0.353 0.54,0.682 0.855,0.982Zm4.753,-7.588c-2.756,0 -4.2,2.233 -4.2,2.588c0,0.354 1.444,2.588 4.2,2.588c2.755,0 4.2,-2.234 4.2,-2.588c0,-0.355 -1.445,-2.588 -4.2,-2.588Zm0.106,0.504c0.106,0.008 0.209,0.019 0.313,0.04c0.201,0.041 0.396,0.112 0.576,0.21c0.235,0.128 0.444,0.301 0.614,0.507c0.15,0.181 0.269,0.388 0.35,0.61c0.072,0.196 0.114,0.402 0.125,0.611c0.01,0.21 -0.011,0.422 -0.064,0.627c-0.16,0.624 -0.614,1.15 -1.208,1.401c-0.256,0.108 -0.534,0.164 -0.812,0.164c-0.278,0 -0.556,-0.056 -0.812,-0.164c-0.594,-0.251 -1.048,-0.777 -1.208,-1.401c-0.053,-0.205 -0.074,-0.417 -0.064,-0.627c0.011,-0.209 0.053,-0.415 0.125,-0.611c0.081,-0.222 0.2,-0.429 0.35,-0.61c0.17,-0.206 0.379,-0.379 0.614,-0.507c0.18,-0.098 0.375,-0.169 0.576,-0.21c0.104,-0.021 0.207,-0.032 0.313,-0.04c0.106,-0.002 0.106,-0.002 0.212,0Zm-0.54,1.269c0.129,-0.069 0.277,-0.108 0.434,-0.108c0.509,0 0.923,0.414 0.923,0.923c0,0.048 -0.004,0.095 -0.011,0.14c0,0 -0.001,0.006 -0.001,0.006l0,0.002l0,0.001l0,0.001l-0.001,0.002l0,0.004l-0.001,0.001l0,0.001c0,0.002 0,0.004 -0.001,0.007l0,0.001l0,0.001l-0.001,0.002l0,0.005l-0.001,0l0,0c0,0.003 -0.001,0.005 -0.001,0.008l0,0l0,0.001c-0.015,0.073 -0.038,0.143 -0.069,0.209l-0.001,0l0,0.001c-0.002,0.005 -0.005,0.01 -0.007,0.015l0,0.001l-0.001,0c-0.001,0.003 -0.002,0.005 -0.003,0.008l-0.001,0l0,0.001c-0.002,0.003 -0.003,0.005 -0.004,0.008l0,0l-0.001,0.001c-0.003,0.005 -0.005,0.011 -0.008,0.016l0,0l-0.001,0c-0.037,0.069 -0.083,0.132 -0.136,0.188l0,0l0,0.001c-0.002,0.002 -0.005,0.004 -0.007,0.006l0,0.001l0,0c-0.002,0.002 -0.004,0.004 -0.006,0.006l-0.001,0.001l0,0c-0.079,0.08 -0.171,0.146 -0.274,0.193l0,0l-0.001,0l-0.004,0.002l0,0l-0.001,0l-0.004,0.003l0,0c-0.006,0.002 -0.011,0.004 -0.016,0.006c-0.109,0.046 -0.228,0.072 -0.353,0.073c-0.002,0 -0.004,0 -0.006,0c-0.002,0 -0.004,0 -0.006,0c-0.125,-0.001 -0.244,-0.027 -0.353,-0.073c-0.005,-0.002 -0.01,-0.004 -0.016,-0.006c0,0 0,0 0,0l-0.004,-0.003l-0.001,0l0,0l-0.004,-0.002l-0.001,0l0,0c-0.1,-0.046 -0.19,-0.11 -0.267,-0.187c0,0 -0.004,-0.004 -0.004,-0.004l-0.003,-0.002l0,0l-0.001,-0.001c-0.002,-0.002 -0.004,-0.004 -0.006,-0.006l0,0l0,-0.001c-0.002,-0.002 -0.005,-0.004 -0.007,-0.006l0,-0.001l0,0c-0.053,-0.056 -0.099,-0.119 -0.136,-0.188l-0.001,0l0,0c-0.003,-0.005 -0.005,-0.011 -0.008,-0.016l-0.001,-0.001l0,0c-0.001,-0.003 -0.002,-0.005 -0.004,-0.008l0,-0.001l-0.001,0c-0.001,-0.003 -0.002,-0.005 -0.003,-0.008l-0.001,0l0,-0.001c-0.002,-0.005 -0.005,-0.01 -0.007,-0.015l0,-0.001l-0.001,0c-0.031,-0.066 -0.054,-0.136 -0.069,-0.209l0,-0.001l0,0c0,-0.003 -0.001,-0.005 -0.001,-0.008l0,0l-0.001,0l0,-0.005l-0.001,-0.002l0,-0.001l0,-0.001c-0.001,-0.003 -0.001,-0.005 -0.001,-0.007l0,-0.001l-0.001,-0.001l0,-0.004l-0.001,-0.002l0,-0.001l0,-0.001c-0.001,-0.005 -0.002,-0.011 -0.002,-0.016l-0.001,0l0,-0.001c-0.006,-0.043 -0.009,-0.086 -0.009,-0.131c0,-0.344 0.188,-0.644 0.467,-0.803l0,0l0.001,0c0.002,-0.001 0.004,-0.002 0.007,-0.004l0,0l0.001,0c0.004,-0.003 0.009,-0.005 0.013,-0.007l0,0l0,-0.001Zm-4.443,-4.062l-1.172,0c-0.224,0 -0.406,-0.188 -0.406,-0.407c0,-0.224 0.186,-0.406 0.406,-0.406l2.148,0c-0.349,0.241 -0.676,0.513 -0.976,0.813Zm2.465,-2.349l-3.632,0c-0.227,0 -0.411,-0.189 -0.411,-0.407c0,-0.225 0.191,-0.407 0.411,-0.407l3.632,0c0.227,0 0.412,0.189 0.412,0.407c0,0.225 -0.192,0.407 -0.412,0.407Zm5.766,-0.974l-1.527,-1.566l-1.527,-1.566l0,3.132l3.054,0Zm-5.766,-1.376l-3.632,0c-0.227,0 -0.411,-0.188 -0.411,-0.406c0,-0.225 0.191,-0.407 0.411,-0.407l3.632,0c0.227,0 0.412,0.189 0.412,0.407c0,0.224 -0.192,0.406 -0.412,0.406Z"/>
  </symbol>
  
  <symbol id="icon-doc-approved" viewBox="0 0 15 19"> <!-- custom icon -->
    <title>Document Approved</title>
    	<path d="M1,17V8a0.23,0.23,0,0,0,0-.06V1h7.4V5.31a0.49,0.49,0,0,0,.48.49H13V7.41a7,7,0,0,1,1,.83V5.31s0,0,0,0A0.45,0.45,0,0,0,13.86,5L9.16,0.14A0.4,0.4,0,0,0,8.86,0s0,0,0,0H0.47A0.49,0.49,0,0,0,0,.49v17A0.49,0.49,0,0,0,.48,18H4.25a7,7,0,0,1-.86-1H1ZM9.3,1.67l1.53,1.57L12.35,4.8H9.3V1.67Z"/>
    	<path d="M7,5.37A0.41,0.41,0,0,0,6.59,5H3a0.41,0.41,0,1,0,0,.81H6.59A0.41,0.41,0,0,0,7,5.37Z"/>
    	<path d="M2.54,7.72A0.41,0.41,0,0,0,3,8.12H4.12a7,7,0,0,1,1-.81H3A0.41,0.41,0,0,0,2.54,7.72Z"/>
    	<path d="M6.59,2.61H3a0.41,0.41,0,1,0,0,.81H6.59A0.41,0.41,0,1,0,6.59,2.61Z"/>
    	<path d="M9,7a6,6,0,1,0,6,6A6,6,0,0,0,9,7Zm3.37,4.67L9.1,14.94l-0.61.61a0.44,0.44,0,0,1-.61,0l-0.61-.61L5.63,13.31a0.44,0.44,0,0,1,0-.61l0.61-.61a0.44,0.44,0,0,1,.61,0l1.33,1.33,3-3a0.44,0.44,0,0,1,.61,0l0.61,0.61A0.44,0.44,0,0,1,12.37,11.67Z"/>
  </symbol>
  
  <symbol id="icon-doc-rejected" viewBox="0 0 15 19"> <!-- custom icon -->
    <title>Document Rejected</title>
    	<path d="M6.59,3.42H3a0.41,0.41,0,1,1,0-.81H6.59A0.41,0.41,0,1,1,6.59,3.42ZM12.35,4.8L10.83,3.23,9.3,1.67V4.8h3.05Zm-5.77,1H3A0.41,0.41,0,1,1,3,5H6.59A0.41,0.41,0,1,1,6.59,5.77ZM4.12,8.12H3a0.41,0.41,0,0,1,0-.81H5.1A7,7,0,0,0,4.12,8.12ZM4.25,18H0.48A0.49,0.49,0,0,1,0,17.51v-17A0.49,0.49,0,0,1,.47,0H8.82s0,0,0,0a0.4,0.4,0,0,1,.3.12L13.86,5a0.45,0.45,0,0,1,.12.3s0,0,0,0V8.25a7,7,0,0,0-1-.83V5.8H8.82a0.49,0.49,0,0,1-.48-0.49V1H1V7.89a0.23,0.23,0,0,1,0,.06V17H3.39A7,7,0,0,0,4.25,18Z" fill-rule="evenodd"/>
    	<path d="M9,7a6,6,0,1,0,6,6A6,6,0,0,0,9,7Zm2.45,7.24a0.41,0.41,0,0,1,0,.57l-0.57.57a0.41,0.41,0,0,1-.57,0L9.06,14.14,7.83,15.38a0.41,0.41,0,0,1-.57,0l-0.57-.57a0.41,0.41,0,0,1,0-.57L7.92,13,6.68,11.76a0.41,0.41,0,0,1,0-.57l0.57-.57a0.41,0.41,0,0,1,.57,0l1.24,1.24,1.24-1.24a0.41,0.41,0,0,1,.57,0l0.57,0.57a0.41,0.41,0,0,1,0,.57L10.21,13Z"/>
  </symbol>
  
  <symbol id="icon-billing" viewBox="0 0 10 18"> <!-- custom icon -->
    <title>Billing</title>
    	<path d="M6.241,15.755l0,2.245l-2,0l0,-2.143c-1.712,-0.1 -3.066,-0.589 -4.241,-1.797l1.718,-1.74c0.859,0.87 2.023,1.16 3.282,1.16c1.565,0 2.405,-0.599 2.405,-1.702c0,-0.483 -0.133,-0.889 -0.42,-1.16c-0.267,-0.251 -0.572,-0.387 -1.202,-0.483l-1.642,-0.232c-1.164,-0.174 -2.022,-0.541 -2.634,-1.141c-0.648,-0.657 -0.973,-1.546 -0.973,-2.707c0,-2.155 1.382,-3.743 3.707,-4.1l0,-1.955l2,0l0,1.932c1.382,0.145 2.465,0.62 3.415,1.551l-1.679,1.682c-0.859,-0.832 -1.889,-0.947 -2.787,-0.947c-1.412,0 -2.099,0.792 -2.099,1.74c0,0.348 0.115,0.716 0.401,0.986c0.267,0.252 0.706,0.464 1.26,0.541l1.602,0.232c1.241,0.174 2.023,0.522 2.596,1.063c0.726,0.696 1.05,1.702 1.05,2.92c0,2.25 -1.567,3.662 -3.759,4.055Z" style="fill-rule:nonzero;"/>
  </symbol>
  
  <symbol id="icon-task" viewBox="0 0 16 20"> <!-- custom icon -->
    <title>Task</title>
    	<path d="M8,0c1.104,0 2,0.896 2,2l1.269,0c0.347,0 0.635,0.25 0.695,0.58l1.556,0c0.867,0 1.58,0.713 1.58,1.58c0,0.003 0,0.007 0,0.01l0,14.25c0,0.867 -0.713,1.58 -1.58,1.58l-11,0c-0.013,0 -0.027,0.001 -0.04,0.001c-0.867,0 -1.58,-0.714 -1.58,-1.58l0,-14.251c0,-0.004 0,-0.007 0,-0.011c0,-0.866 0.713,-1.58 1.58,-1.58c0.013,0 0.027,0.001 0.04,0.001l1.551,0c0.06,-0.33 0.348,-0.58 0.695,-0.58l1.234,0c0,-1.101 0.891,-1.995 1.99,-2c0.004,0 0.007,0 0.01,0Zm-3.94,4.17l-1.54,0l0,14.25l11,0l0,-14.25l-1.545,0l0,0.624c0,0.39 -0.316,0.706 -0.706,0.706l-6.503,0c-0.39,0 -0.706,-0.316 -0.706,-0.706l0,-0.624Zm7.125,11.87l-4.335,0c-0.436,0 -0.79,-0.354 -0.79,-0.79c0,-0.436 0.354,-0.79 0.79,-0.79l4.335,0c0.436,0 0.79,0.354 0.79,0.79c0,0.436 -0.354,0.79 -0.79,0.79Zm-6.315,0l-0.02,0c-0.436,0 -0.79,-0.354 -0.79,-0.79c0,-0.436 0.354,-0.79 0.79,-0.79l0.02,0c0.436,0 0.79,0.354 0.79,0.79c0,0.436 -0.354,0.79 -0.79,0.79Zm6.315,-3.5l-4.335,0c-0.436,0 -0.79,-0.354 -0.79,-0.79c0,-0.436 0.354,-0.79 0.79,-0.79l4.335,0c0.436,0 0.79,0.354 0.79,0.79c0,0.436 -0.354,0.79 -0.79,0.79Zm-6.315,0l-0.02,0c-0.436,0 -0.79,-0.354 -0.79,-0.79c0,-0.436 0.354,-0.79 0.79,-0.79l0.02,0c0.436,0 0.79,0.354 0.79,0.79c0,0.436 -0.354,0.79 -0.79,0.79Zm6.315,-3.5l-4.335,0c-0.436,0 -0.79,-0.354 -0.79,-0.79c0,-0.436 0.354,-0.79 0.79,-0.79l4.335,0c0.436,0 0.79,0.354 0.79,0.79c0,0.436 -0.354,0.79 -0.79,0.79Zm-6.315,0l-0.02,0c-0.436,0 -0.79,-0.354 -0.79,-0.79c0,-0.436 0.354,-0.79 0.79,-0.79l0.02,0c0.436,0 0.79,0.354 0.79,0.79c0,0.436 -0.354,0.79 -0.79,0.79Z"/>
  </symbol>

  <symbol id="icon-direction-rev" viewBox="0 0 23 23">
    <title>Direction Reverse</title>
    <path d="M22.18,9.891l-16.813,0l7.53,-7.555l-1.777,-1.776l-10.6,10.6l10.6,10.6l1.777,-1.837l-7.663,-7.724l16.946,0l0,-2.308Z"/>
  </symbol>

  <symbol id="icon-edit-columns" viewBox="0 0 23 23">
    <title>Edit Columns</title>
    <path d="M8.706,9.982l-3.779,0l0,-3.779l-1.149,0l0,3.779l-3.778,0l0,1.148l3.778,0l0,3.779l1.149,0l0,-3.779l3.779,0l0,-1.148Z"/><rect x="13.994" y="9.951" width="8.706" height="1.149"/><path d="M9.249,18.928l-1.088,0l5.018,-15.536l1.088,0l-5.018,15.536Z"/>
  </symbol>
  
</svg>
