<svg xmlns="http://www.w3.org/2000/svg" width="48" height="48" viewBox="0 0 48 48">
  <g fill-rule="evenodd" transform="translate(9)">
    <ellipse cx="15" cy="45.5" rx="9" ry="2.5"/>
    <path d="M15,0 C6.71620487,0 0,7.05162375 0,15.7499972 C0,22.336121 12.5062972,42.0139925 15,41.9999925 C17.4550798,42.0139925 30,22.246871 30,15.7499972 C30,7.05162375 23.2837951,0 15,0 Z M17.0281612,19.9679786 L17.4651656,9.75182962 L13.8176716,9.75182962 L14.254676,19.9679786 L17.0281612,19.9679786 Z M13.7161563,23.1508222 C13.7161563,23.6577073 13.8974724,24.0735286 14.2595618,24.3988348 C14.622194,24.7235923 15.0743986,24.8865197 15.6161755,24.8865197 C16.1579524,24.8865197 16.6101569,24.7235923 16.9722463,24.3988348 C17.3348786,24.0735286 17.5161947,23.6577073 17.5161947,23.1508222 C17.5161947,22.6444856 17.3348786,22.2286643 16.9722463,21.9033581 C16.6101569,21.5786006 16.1579524,21.4156732 15.6161755,21.4156732 C15.0743986,21.4156732 14.622194,21.5786006 14.2595618,21.9033581 C13.8974724,22.2286643 13.7161563,22.6444856 13.7161563,23.1508222 Z"/>
  </g>
</svg>
