<svg viewBox="0 0 48 48" xmlns="http://www.w3.org/2000/svg" fill-rule="evenodd" clip-rule="evenodd" stroke-linejoin="round" stroke-miterlimit="1.414">
	<path d="M20.4154269,19.4855238 C19.5783388,19.4855238 14.9123995,19.4829382 14.5558103,19.4829382 C14.1175443,19.5135675 13.8440265,19.4135249 13.6993987,19.2209975 C13.5497906,19.0217079 13.5571615,18.7625517 13.6782822,18.4699818 C13.7750992,18.2368805 13.9478158,17.972752 14.1669489,17.7002701 C15.0114078,16.6509165 16.6294062,15.4090355 17.1527357,15.4090355 L20.4729991,15.4090355 C20.6311733,15.4090355 20.7431304,15.4653219 20.8214206,15.5623812 C20.891344,15.649098 20.9180383,15.7547096 20.9178391,15.8714592 C20.9166439,16.7955109 20.9174407,18.0361985 20.9178391,18.7211822 L20.9182376,19.0053987 C20.9182376,19.1179715 20.8977187,19.2291521 20.8132529,19.3280014 C20.7313769,19.4240662 20.6076663,19.4855238 20.4154269,19.4855238 Z M23.6530175,15.4090355 L28.8827263,15.4090355 C29.0173935,15.4090355 29.1397095,15.4641286 29.2281596,15.5524366 L29.2281596,15.5532321 C29.3166096,15.641739 29.3715921,15.7636598 29.3715921,15.8971162 L29.3715921,26.6462286 C29.3715921,26.7806796 29.3166096,26.9027992 29.2281596,26.9913061 L29.2275619,26.9907094 C29.1387135,27.0794152 29.0163974,27.1343093 28.8827263,27.1343093 L23.6530175,27.1343093 C23.5189479,27.1343093 23.3968311,27.0796141 23.308381,26.9913061 L23.307385,26.9913061 C23.2189349,26.9027992 23.1639525,26.7806796 23.1639525,26.6462286 L23.1639525,15.8971162 C23.1639525,15.7628642 23.2189349,15.6405457 23.307385,15.5524366 C23.395835,15.4641286 23.5181511,15.4090355 23.6530175,15.4090355 Z M31.5967882,18.9972442 L31.5967882,15.8973151 C31.5967882,15.7628642 31.6517706,15.6405457 31.7402207,15.5524366 L31.7412167,15.5524366 C31.829866,15.4639297 31.9517836,15.4090355 32.0858532,15.4090355 L42.9032544,15.5084815 C44.2349855,15.5208128 44.8059266,19.5879531 43.9461283,19.5879531 L32.0858532,19.4853249 C31.9509868,19.4853249 31.8288699,19.4306296 31.7402207,19.3423216 C31.6517706,19.2538147 31.5967882,19.1316951 31.5967882,18.9972442 Z M35.4375921,27.8799551 C37.7388871,27.8799551 39.6043066,29.7423787 39.6043066,32.0399779 C39.6043066,34.3371793 37.7388871,36.2000008 35.4375921,36.2000008 C33.1364964,36.2000008 31.2708776,34.3371793 31.2708776,32.0399779 C31.2708776,29.7423787 33.1364964,27.8799551 35.4375921,27.8799551 Z M35.4375921,30.2125592 C36.4483929,30.2125592 37.2677512,31.0306015 37.2677512,32.0399779 C37.2677512,33.0489565 36.4483929,33.8669988 35.4375921,33.8669988 C34.4267913,33.8669988 33.6074331,33.0489565 33.6074331,32.0399779 C33.6074331,31.0306015 34.4267913,30.2125592 35.4375921,30.2125592 Z M11.9728298,33.5004411 C18.2398346,33.5004411 24.5068394,33.5004411 30.7738441,33.5004411 C30.6314077,33.038813 30.5547111,32.5481467 30.5547111,32.0399779 C30.5547111,30.6716017 31.1103129,29.4325052 32.0083598,28.5357016 C32.9068051,27.639097 34.1476956,27.0843875 35.5182729,27.0843875 C36.8886511,27.0843875 38.1297407,27.639097 39.0277876,28.5357016 C39.9262329,29.4325052 40.4818347,30.6716017 40.4818347,32.0399779 C40.4818347,32.2848138 40.4639057,32.525473 40.429442,32.760961 C41.783684,32.6941333 43.9754125,32.5563013 45.0804405,32.3257856 C46.1376576,32.1054133 47.1516458,31.0512863 47.4958838,30.001336 C48.5849749,26.6808358 48.3301829,11.388237 42.420365,11.1487711 C34.1554648,10.8140361 29.6124392,11.1487711 21.3409651,11.1487711 C16.8873855,11.1487711 6.59849324,21.6289817 6.59849324,25.8063082 C6.59849324,27.346527 7.34274861,29.2119341 8.36470527,30.7205291 L0.910796459,30.7205291 C0.409778722,30.7205291 0,31.1296497 0,31.6298628 C0,32.1300759 0.409778722,32.5391966 0.910796459,32.5391966 L9.94106843,32.5391966 C10.6289469,33.1348778 11.3369457,33.5004411 11.9728298,33.5004411 Z"></path>
</svg>