<svg viewBox="0 0 48 48" xmlns="http://www.w3.org/2000/svg" fill-rule="evenodd" clip-rule="evenodd" stroke-linejoin="round" stroke-miterlimit="1.414">
        <path d="M15.257321,22.6478953 C16.3217005,22.6478953 17.3857485,22.6478953 18.4501279,22.6478953 C18.928618,22.6478953 19.1561785,22.5051709 19.1561785,21.9490383 C19.1561785,21.3912652 19.1561785,18.9140962 19.1561785,18.6056805 C19.1561785,18.2989052 18.996737,18.0282212 18.5721122,18.0282212 C17.4671266,18.0282212 16.3623067,18.0282212 15.257321,18.0282212 C15.257321,19.5670189 15.257321,21.1074571 15.257321,22.6478953 Z M13.4275563,18.2989052 C13.2601593,18.8435543 12.5744948,21.4503235 12.4544993,21.893261 C12.3346696,22.3361985 12.4652724,22.6478953 12.8945378,22.6478953 C13.5067798,22.6478953 14.1190217,22.6478953 14.7310979,22.6478953 C14.7310979,21.1074571 14.7310979,19.5670189 14.7310979,18.0282212 C14.4773507,18.0282212 14.2234376,18.0282212 13.9696904,18.0282212 C13.626941,18.0282212 13.5710867,18.0282212 13.4275563,18.2989052 Z M22.6716803,18.0282212 C23.7345681,18.0282212 24.7974559,18.0282212 25.8605094,18.0282212 C26.1498907,18.0282212 26.3867325,18.262814 26.3867325,18.5482626 C26.3867325,18.9387038 26.3867325,19.3275045 26.3867325,19.7163052 C26.3867325,20.0033943 26.1498907,20.2379872 25.8605094,20.2379872 C24.7974559,20.2379872 23.7345681,20.2379872 22.6716803,20.2379872 C22.382299,20.2379872 22.1454572,20.0033943 22.1454572,19.7163052 C22.1454572,19.3275045 22.1454572,18.9387038 22.1454572,18.5482626 C22.1454572,18.262814 22.382299,18.0282212 22.6716803,18.0282212 Z M43.0432269,30.9094998 C43.9098791,30.9094998 44.6124491,31.6050757 44.6124491,32.4630621 C44.6124491,33.3210484 43.9098791,34.0166243 43.0432269,34.0166243 C42.1765748,34.0166243 41.473839,33.3210484 41.473839,32.4630621 C41.473839,31.6050757 42.1765748,30.9094998 43.0432269,30.9094998 Z M34.2005242,30.9094998 C35.0670106,30.9094998 35.7695806,31.6050757 35.7695806,32.4630621 C35.7695806,33.3210484 35.0670106,34.0166243 34.2005242,34.0166243 C33.3337062,34.0166243 32.6311362,33.3210484 32.6311362,32.4630621 C32.6311362,31.6050757 33.3337062,30.9094998 34.2005242,30.9094998 Z M34.2005242,28.9277646 C36.1734879,28.9277646 37.7728746,30.5108561 37.7728746,32.4630621 C37.7728746,34.4169086 36.1734879,36 34.2005242,36 C32.2272289,36 30.6278422,34.4169086 30.6278422,32.4630621 C30.6278422,30.5108561 32.2272289,28.9277646 34.2005242,28.9277646 Z M7.06415157,30.9094998 C7.93080373,30.9094998 8.63337373,31.6050757 8.63337373,32.4630621 C8.63337373,33.3210484 7.93080373,34.0166243 7.06415157,34.0166243 C6.19766514,34.0166243 5.49492941,33.3210484 5.49492941,32.4630621 C5.49492941,31.6050757 6.19766514,30.9094998 7.06415157,30.9094998 Z M7.06415157,28.9277646 C9.03728104,28.9277646 10.6368335,30.5108561 10.6368335,32.4630621 C10.6368335,34.4169086 9.03728104,36 7.06415157,36 C5.09118783,36 3.49146959,34.4169086 3.49146959,32.4630621 C3.49146959,30.5108561 5.09118783,28.9277646 7.06415157,28.9277646 Z M43.0432269,28.9277646 C45.0161907,28.9277646 46.6157432,30.5108561 46.6157432,32.4630621 C46.6157432,34.4169086 45.0161907,36 43.0432269,36 C41.0700975,36 39.4703792,34.4169086 39.4703792,32.4630621 C39.4703792,30.5108561 41.0700975,28.9277646 43.0432269,28.9277646 Z M28.9305033,27.385686 C35.1594933,27.385686 41.3884832,27.385686 47.6174731,27.385686 C47.8277966,27.385686 48,27.5562989 48,27.7646436 C48,28.6062248 48,29.4478061 48,30.2893873 C48,30.497732 47.8277966,30.668345 47.6174731,30.668345 C47.3751619,30.668345 47.1330164,30.668345 46.8907051,30.668345 C46.6802159,30.227048 46.3948124,29.8284042 46.0504055,29.4871783 C45.280711,28.725982 44.2174917,28.2535153 43.0432269,28.2535153 C41.8687964,28.2535153 40.8055771,28.725982 40.0360484,29.4871783 C39.6914758,29.8284042 39.4060723,30.227048 39.195583,30.668345 C38.8130561,30.668345 38.4305292,30.668345 38.0478366,30.668345 C37.8375131,30.227048 37.5519438,29.8284042 37.207537,29.4871783 C36.4380082,28.725982 35.3747889,28.2535153 34.2005242,28.2535153 C33.0260936,28.2535153 31.9628743,28.725982 31.1931798,29.4871783 C30.221283,30.4485167 30.1684121,31.3983716 29.8488662,32.6664852 C29.8488662,32.9273262 29.6335705,33.1405924 29.3703761,33.1405924 C23.3344728,33.1405924 17.2984037,33.1405924 11.2623346,33.1405924 C11.2984659,32.9191236 11.3170287,32.6943739 11.3170287,32.4630621 C11.3170287,31.3015815 10.8410247,30.2483746 10.0714959,29.4871783 C9.30180138,28.725982 8.23841636,28.2535153 7.06415157,28.2535153 C5.88988678,28.2535153 4.8266675,28.725982 4.05713871,29.4871783 C3.28744419,30.2483746 2.81127443,31.3015815 2.81127443,32.4630621 C2.81127443,32.6943739 2.830003,32.9191236 2.86596849,33.1405924 C2.07008712,33.1405924 1.27437148,33.1405924 0.478490113,33.1405924 C0.21529569,33.1405924 0,32.9273262 0,32.6664852 C0,31.824904 0,30.9833227 0,30.1417415 C0,29.8809005 0.21529569,29.6676343 0.478490113,29.6676343 C0.722790226,29.6676343 0.967421818,29.6676343 1.21188767,29.6676343 C1.21188767,28.184614 1.21188767,26.6999531 1.21188767,25.2169327 C1.21188767,24.383554 1.90666791,23.8011733 2.74249252,23.7011022 C5.13494308,23.4172941 7.52739364,23.1318455 9.9198442,22.8463969 C10.5899292,22.7988221 11.3306193,22.2656566 11.5086236,21.5930478 C11.8472296,20.3101696 12.2017465,19.0322129 12.5483079,17.7514673 C12.7594601,16.9712411 13.3819779,17.0074964 13.8501922,17.0074964 C14.3185722,17.0074964 16.0086185,17.0074964 16.0086185,17.0074964 C16.0086185,17.0074964 17.3226017,15.7580845 19.3674964,15.063657 C19.3674964,14.5865969 19.3674964,14.1097008 19.3674964,13.6328048 C19.3674964,12.8337127 20.2399494,12.084 20.2424355,12.0818674 C20.3839771,11.9606337 20.5981126,11.9757264 20.7209257,12.1159899 C20.8434072,12.2560894 20.8278277,12.4682073 20.6862861,12.589605 C20.684463,12.5909174 20.0478573,13.1378632 20.0478573,13.6328048 C20.0478573,14.042604 20.0478573,14.4524032 20.0478573,14.8620384 C20.6579446,14.7078305 21.3192455,14.6112045 22.0198266,14.6112045 C25.5117934,14.6112045 26.4207092,14.6112045 26.8670458,14.6112045 C27.3135482,14.6112045 27.88767,14.6112045 27.88767,15.6212661 C27.88767,19.1962638 27.88767,22.7692929 27.88767,26.3439626 C27.88767,27.3266276 27.9382206,27.385686 28.9305033,27.385686 Z"></path>
</svg>