<svg viewBox="0 0 48 48" xmlns="http://www.w3.org/2000/svg" fill-rule="evenodd" clip-rule="evenodd" stroke-linejoin="round" stroke-miterlimit="1.414">
        <path d="M37.4019773,11.6555652 L41.7489635,11.6555652 L41.7489635,2.05950157 L37.4019773,2.05950157 L37.4019773,11.6555652 Z M28.5707777,13.305572 L25.5545127,18.0653333 L22.2539523,18.0653333 L19.2376874,13.305572 L19.2376874,4.45578386 L28.5707777,4.45578386 L28.5707777,13.305572 Z M26.0771789,41.1424666 C26.0771789,42.3408811 25.1023737,43.3156864 23.9039592,43.3156864 C22.7055447,43.3156864 21.7307394,42.3408811 21.7307394,41.1424666 C21.7307394,39.9440521 22.7055447,38.9692469 23.9039592,38.9692469 C25.1023737,38.9692469 26.0771789,39.9440521 26.0771789,41.1424666 Z M37.4019773,45.9410452 L41.7489635,45.9410452 L41.7489635,36.3444348 L37.4019773,36.3444348 L37.4019773,45.9410452 Z M6.05895485,45.9410452 L10.405941,45.9410452 L10.405941,36.3444348 L6.05895485,36.3444348 L6.05895485,45.9410452 Z M6.05895485,11.6555652 L10.405941,11.6555652 L10.405941,2.05950157 L6.05895485,2.05950157 L6.05895485,11.6555652 Z M36.3724999,13.7150667 L42.7784409,13.7150667 C43.3470318,13.7150667 43.8079184,13.2541801 43.8079184,12.6850426 L43.8079184,1.02947742 C43.8079184,0.460886601 43.3470318,0 42.7784409,0 L36.3724999,0 C35.8039091,0 35.3430225,0.460886601 35.3430225,1.02947742 L35.3430225,5.82805595 L30.6297326,5.82805595 L30.6297326,3.42630644 C30.6297326,2.85771561 30.168846,2.39682901 29.6002551,2.39682901 L18.2082099,2.39682901 C17.6396191,2.39682901 17.1787325,2.85771561 17.1787325,3.42630644 L17.1787325,5.82805595 L12.4648959,5.82805595 L12.4648959,1.02947742 C12.4648959,0.460886601 12.0040093,0 11.4354185,0 L5.02947742,0 C4.4608866,0 4,0.460886601 4,1.02947742 L4,12.6850426 C4,13.2541801 4.4608866,13.7150667 5.02947742,13.7150667 L11.4354185,13.7150667 C12.0040093,13.7150667 12.4648959,13.2541801 12.4648959,12.6850426 L12.4648959,7.8870108 L17.1787325,7.8870108 L17.1787325,13.6040822 C17.1787325,13.7992619 17.2339514,13.9906146 17.3383753,14.1551779 L20.8177138,19.6459064 C21.0068796,19.9438699 21.334366,20.1242881 21.6875484,20.1242881 L22.8744818,20.1242881 L22.8744818,37.042052 C21.3677161,37.4203836 20.1818762,38.6062235 19.8035446,40.1129892 L12.4648959,40.1129892 L12.4648959,35.3149574 C12.4648959,34.7463666 12.0040093,34.2849333 11.4354185,34.2849333 L5.02947742,34.2849333 C4.4608866,34.2849333 4,34.7463666 4,35.3149574 L4,46.9705226 C4,47.5391134 4.4608866,48 5.02947742,48 L11.4354185,48 C12.0040093,48 12.4648959,47.5391134 12.4648959,46.9705226 L12.4648959,42.1719441 L19.8035446,42.1719441 C20.2649779,44.0089298 21.9259192,45.3751879 23.9039592,45.3751879 C25.8819992,45.3751879 27.5429405,44.0089298 28.0043738,42.1719441 L35.3430225,42.1719441 L35.3430225,46.9705226 C35.3430225,47.5391134 35.8039091,48 36.3724999,48 L42.7784409,48 C43.3470318,48 43.8079184,47.5391134 43.8079184,46.9705226 L43.8079184,35.3149574 C43.8079184,34.7463666 43.3470318,34.2849333 42.7784409,34.2849333 L36.3724999,34.2849333 C35.8039091,34.2849333 35.3430225,34.7463666 35.3430225,35.3149574 L35.3430225,40.1129892 L28.0043738,40.1129892 C27.6260422,38.6062235 26.4402023,37.4203836 24.9334366,37.042052 L24.9334366,20.1242881 L26.1209167,20.1242881 C26.4735523,20.1242881 26.8015855,19.9438699 26.9902046,19.6459064 L30.469543,14.1551779 C30.5739669,13.9906146 30.6297326,13.7992619 30.6297326,13.6040822 L30.6297326,7.8870108 L35.3430225,7.8870108 L35.3430225,12.6850426 C35.3430225,13.2541801 35.8039091,13.7150667 36.3724999,13.7150667 Z"></path>
</svg>