<svg viewBox="0 0 48 48" xmlns="http://www.w3.org/2000/svg" fill-rule="evenodd" clip-rule="evenodd" stroke-linejoin="round" stroke-miterlimit="1.414">
        <path d="M40.2785914,31.10001 C41.2831256,31.10001 42.0978204,31.9091899 42.0978204,32.9073056 C42.0978204,33.9054213 41.2831256,34.7146012 40.2785914,34.7146012 C39.2738651,34.7146012 38.4593624,33.9054213 38.4593624,32.9073056 C38.4593624,31.9091899 39.2738651,31.10001 40.2785914,31.10001 Z M30.0268862,31.10001 C31.0316125,31.10001 31.8461152,31.9091899 31.8461152,32.9073056 C31.8461152,33.9054213 31.0316125,34.7146012 30.0268862,34.7146012 C29.0221599,34.7146012 28.2078493,33.9054213 28.2078493,32.9073056 C28.2078493,31.9091899 29.0221599,31.10001 30.0268862,31.10001 Z M30.0268862,28.7927023 C32.3143726,28.7927023 34.1687642,30.6343499 34.1687642,32.9073056 C34.1687642,35.1783529 32.3143726,37.0200005 30.0268862,37.0200005 C27.7395919,37.0200005 25.8850082,35.1783529 25.8850082,32.9073056 C25.8850082,30.6343499 27.7395919,28.7927023 30.0268862,28.7927023 Z M22.3485791,25.3746807 C22.3485791,20.9757194 22.3485791,16.5748496 22.3485791,12.1755066 C22.3485791,11.0004782 21.6831809,11.0004782 21.1655422,11.0004782 C15.2017452,11.0004782 11.2879433,10.8943687 5.76319765,13.8434858 C3.85442905,14.8622128 2.03347072,18.0099988 1.70182842,21.5654283 C1.36595893,25.1666604 1.40496437,27.9739802 1.40496437,29.6553186 C1.12135832,29.6553186 0.837944421,29.6553186 0.55453052,29.6553186 C0.249596378,29.6553186 0,29.9015077 0,30.2049502 C0,31.1839815 0,32.1630128 0,33.1420441 C0,33.4454865 0.249596378,33.6935841 0.55453052,33.6935841 L1.76984776,33.6935841 C1.72815229,33.4378528 1.7064399,33.1744876 1.7064399,32.9073056 C1.7064399,31.5542194 2.25847253,30.3309074 3.15060185,29.4434814 C4.04292331,28.5579638 5.2755336,28.0102406 6.63688105,28.0102406 C7.99822849,28.0102406 9.23103093,28.5579638 10.1231602,29.4434814 C11.0154817,30.3309074 11.5675143,31.5542194 11.5675143,32.9073056 C11.5675143,33.1744876 11.5456098,33.4378528 11.5039143,33.6935841 L23.668039,33.6935841 C23.8011955,33.6935841 23.9343519,33.6935841 24.0677006,33.6935841 C24.1877912,33.6935841 24.3076897,33.6935841 24.4275882,33.6935841 C24.7325224,33.6935841 24.9821187,33.4454865 24.9821187,33.1420441 C25.3527665,31.668726 25.4138686,30.5637375 26.540607,29.4434814 C27.4327363,28.5579638 28.6655387,28.0102406 30.0268862,28.0102406 C31.3882336,28.0102406 32.621036,28.5579638 33.5131654,29.4434814 C33.9124427,29.8404375 34.2435086,30.3041892 34.4875327,30.8175604 C34.9310034,30.8175604 35.3744741,30.8175604 35.8179448,30.8175604 C36.061969,30.3041892 36.3930349,29.8404375 36.7923122,29.4434814 C37.6844415,28.5579638 38.9170518,28.0102406 40.2785914,28.0102406 C41.6399389,28.0102406 42.8725492,28.5579638 43.7648706,29.4434814 C44.878351,30.5503784 44.9757685,31.6954442 45.3677444,33.1515863 C45.4451788,33.4397612 45.6133057,33.6935841 45.9134362,33.6935841 C46.4245419,33.6935841 46.9356477,33.6935841 47.4469456,33.6935841 C47.7470761,33.6935841 47.9924453,33.4493034 47.9924453,33.1515863 C47.9924453,31.2813121 47.9924453,29.4110378 47.9924453,27.5407636 C47.9924453,27.2430465 47.7470761,26.9987658 47.4469456,26.9987658 C46.8249722,26.9987658 46.2031909,26.9987658 45.5816018,26.9987658 C45.4826471,26.9987658 45.3836924,26.9987658 45.2849298,26.9987658 C38.3056464,26.9987658 31.3263629,26.9987658 24.3470794,26.9987658 C22.4848099,26.9987658 22.3485791,26.7544851 22.3485791,25.3746807 Z M3.06144656,21.6436745 C3.17250638,20.1932577 4.24467558,15.6395216 6.49988165,14.8133566 L11.2133911,14.8133566 C11.2133911,14.8133566 11.8142285,14.7582026 11.8142285,15.4099359 C11.8142285,16.0618601 11.8142285,20.9642687 11.8142285,21.5329848 C11.8142285,22.1017008 11.5554092,22.1074261 11.2366406,22.1074261 C10.9176799,22.1074261 4.1705076,22.1074261 3.68995291,22.1074261 C3.20939823,22.1074261 3.0061088,22.1074261 3.06144656,21.6436745 Z M16.7915531,15.170808 C16.6372606,17.1893683 15.5491434,20.4547144 13.159628,20.4547144 C13.159628,20.4547144 12.6948292,20.4967002 12.6948292,19.9928712 C12.6948292,19.4890422 12.6948292,15.6962024 12.6948292,15.2557337 C12.6948292,14.8154559 12.8950443,14.8122116 13.1417585,14.8122116 C13.3884727,14.8122116 15.9336256,14.8122116 16.3054262,14.8122116 C16.6770346,14.8122116 16.8345936,14.8122116 16.7915531,15.170808 Z M6.63688105,31.10001 C7.64160734,31.10001 8.45611007,31.9091899 8.45611007,32.9073056 C8.45611007,33.9054213 7.64160734,34.7146012 6.63688105,34.7146012 C5.63215475,34.7146012 4.81765202,33.9054213 4.81765202,32.9073056 C4.81765202,31.9091899 5.63215475,31.10001 6.63688105,31.10001 Z M6.63688105,28.7927023 C8.92436748,28.7927023 10.778759,30.6343499 10.778759,32.9073056 C10.778759,35.1783529 8.92436748,37.0200005 6.63688105,37.0200005 C4.34958676,37.0200005 2.4951952,35.1783529 2.4951952,32.9073056 C2.4951952,30.6343499 4.34958676,28.7927023 6.63688105,28.7927023 Z M40.2785914,28.7927023 C42.5658857,28.7927023 44.4202773,30.6343499 44.4202773,32.9073056 C44.4202773,35.1783529 42.5658857,37.0200005 40.2785914,37.0200005 C37.991105,37.0200005 36.1367134,35.1783529 36.1367134,32.9073056 C36.1367134,30.6343499 37.991105,28.7927023 40.2785914,28.7927023 Z"></path>
</svg>