<svg viewBox="0 0 48 48" xmlns="http://www.w3.org/2000/svg" fill-rule="evenodd" clip-rule="evenodd" stroke-linejoin="round" stroke-miterlimit="1.414">
	 <path d="M11.2192517,22.3325045 C11.2192517,22.3325045 17.7227186,22.335051 19.3501707,22.335051 C19.6458734,22.335051 19.6935265,22.1875367 19.6933453,22.0220152 C19.6929829,21.2418813 19.6908086,19.1548547 19.6929829,17.661705 C19.6933453,17.4914542 19.631197,17.3737702 19.4295321,17.3737702 C18.5041927,17.3737702 15.4306601,17.3737702 14.835812,17.3737702 C13.6906887,17.3737702 8.02776414,22.5573228 11.2192517,22.3325045 Z M34.7729159,17.3737702 L41.4236905,17.3737702 C41.5791518,17.3737702 41.7061663,17.5014583 41.7061663,17.6575214 L41.7061663,19.6785212 C41.7061663,19.8345844 41.5791518,19.9622724 41.4236905,19.9622724 L34.7729159,19.9622724 C34.6174545,19.9622724 34.49044,19.8345844 34.49044,19.6785212 L34.49044,17.6575214 C34.49044,17.5014583 34.6174545,17.3737702 34.7729159,17.3737702 Z M37.071316,28.301102 C39.1642463,28.301102 40.8610943,30.0043369 40.8610943,32.1055509 C40.8610943,34.2064012 39.1642463,35.9099998 37.071316,35.9099998 C34.9782046,35.9099998 33.2815377,34.2064012 33.2815377,32.1055509 C33.2815377,30.0043369 34.9782046,28.301102 37.071316,28.301102 Z M37.071316,30.4343291 C37.9904949,30.4343291 38.7359122,31.1824501 38.7359122,32.1055509 C38.7359122,33.0282881 37.9904949,33.776409 37.071316,33.776409 C36.1519559,33.776409 35.4067199,33.0282881 35.4067199,32.1055509 C35.4067199,31.1824501 36.1519559,30.4343291 37.071316,30.4343291 Z M7.49198414,28.301102 C9.58491439,28.301102 11.2817624,30.0043369 11.2817624,32.1055509 C11.2817624,34.2064012 9.58491439,35.9099998 7.49198414,35.9099998 C5.39887271,35.9099998 3.70220586,34.2064012 3.70220586,32.1055509 C3.70220586,30.0043369 5.39887271,28.301102 7.49198414,28.301102 Z M7.49198414,30.4343291 C8.41116301,30.4343291 9.15658029,31.1824501 9.15658029,32.1055509 C9.15658029,33.0282881 8.41116301,33.776409 7.49198414,33.776409 C6.57262408,33.776409 5.82738799,33.0282881 5.82738799,32.1055509 C5.82738799,31.1824501 6.57262408,30.4343291 7.49198414,30.4343291 Z M11.8070334,33.4411824 L32.7560856,33.4411824 C32.6265344,33.0190116 32.5567761,32.5702845 32.5567761,32.1055509 C32.5567761,30.8541354 33.0621162,29.7209494 33.8791036,28.9007993 C34.6960911,28.0808311 35.8247261,27.5735348 37.071316,27.5735348 C38.3179059,27.5735348 39.4465409,28.0808311 40.2633472,28.9007993 C41.0805159,29.7209494 41.5858559,30.8541354 41.5858559,32.1055509 C41.5858559,32.3294598 41.5695487,32.5495488 41.5382028,32.7649087 C42.7699351,32.7037931 44.7633918,32.5777421 45.7684549,32.3669295 C46.7300324,32.1653933 47.8407295,31.2437476 47.9653885,30.24116 C48.0527222,29.5399671 48.0297111,28.7059932 47.3652859,28.2960091 C47.3669166,28.1876016 47.3667354,28.0722822 47.3652859,27.9516879 L47.3652859,15.7965864 C47.3652859,14.8742131 46.7467019,13 44.537991,13 L16.4107189,13 C9.3451995,13 9.22760693,16.8164538 11.6756703,16.8164538 L13.6711202,16.8164538 C11.1531172,18.0745993 8.35263852,21.5489146 7.33489207,21.9296142 C6.29268492,22.3195902 3.77160178,22.5595055 2.07801516,23.6403065 C0.982538038,24.3394986 0.359243081,24.7878619 0.359243081,28.2960091 C-0.304819714,29.2473032 0.0296577542,30.4838037 0.729052676,31.478388 C1.37735191,32.4007613 2.3394729,33.1154142 3.11061922,33.2025404 C3.02364783,32.8511254 2.97744428,32.483704 2.97744428,32.1055509 C2.97744428,30.8541354 3.48278429,29.7209494 4.29977178,28.9007993 C5.11675926,28.0808311 6.24539423,27.5735348 7.49198414,27.5735348 C8.73857406,27.5735348 9.86720902,28.0808311 10.6840153,28.9007993 C11.501184,29.7209494 12.006524,30.8541354 12.006524,32.1055509 C12.006524,32.5702845 11.9365845,33.0190116 11.8070334,33.4411824 Z"></path>
</svg>