<svg viewBox="0 0 48 48" xmlns="http://www.w3.org/2000/svg" fill-rule="evenodd" clip-rule="evenodd" stroke-linejoin="round" stroke-miterlimit="1.414">
        <path d="M24.4977213,19.6146607 C24.4977213,14.5632696 41.3415946,14.9145858 44.7162681,14.5923165 C50.3939782,14.0499423 38.8198064,22.6195034 37.7383379,23.4869013 C36.0989298,24.8032729 32.9700445,26.7271234 32.7217984,27.3346025 C32.3899841,28.1444076 33.1642173,28.4651745 33.6484203,29.5328953 L34.810999,29.7447367 C35.6884633,26.9802814 38.2348303,24.9803082 41.2408213,24.9803082 C44.9743458,24.9803082 48,28.0625256 48,31.8649037 C48,35.6672818 44.9743458,38.75 41.2408213,38.75 C37.5097547,38.75 34.4841006,35.6672818 34.4841006,31.8649037 C34.4841006,31.7662447 34.4865585,31.6678361 34.4914742,31.5701787 L33.6213836,31.3841289 C33.5648523,32.418546 33.550105,33.4477046 33.0192022,33.408892 C31.7878028,33.3192476 15.8041886,34.7668306 15.691126,33.6875912 C15.6419684,33.2413721 15.5067848,26.5803869 11.2792258,24.7589514 L10.4976189,26.1306621 C12.3189103,27.3641501 13.5158994,29.4717969 13.5158994,31.8649037 C13.5158994,35.6672818 10.4902453,38.75 6.75917866,38.75 C3.02565416,38.75 0,35.6672818 0,31.8649037 C0,28.0625256 3.02565416,24.9803082 6.75917866,24.9803082 C7.49408572,24.9803082 8.20195607,25.1005019 8.86558452,25.3223594 L9.51938143,23.9631689 C9.40877669,23.8489849 7.45967535,23.6218689 7.1180296,23.5705361 C0.35147729,22.5626618 15.0914025,11.9387899 15.5534846,11.6668517 C19.4295663,9.38918086 15.5043269,10.9076281 15.1553075,9.38918086 C14.6637309,7.23821427 22.6764299,7.57951433 22.4453889,10.452144 C22.3937734,11.10119 21.3417994,11.4154465 20.0587844,10.9587104 C19.5475447,10.7774182 19.5450868,10.6381938 19.141994,11.1662949 C17.6648062,13.1049193 14.5236315,21.8577758 14.2557223,22.5341158 C16.1360029,24.1023933 18.3235189,26.6146922 18.9330739,26.6510007 C19.7761278,26.7015823 23.5465206,25.6346127 26.1125506,24.8538544 C32.0852066,23.037427 24.4977213,21.3489557 24.4977213,19.6146607 Z M45.3307389,31.969322 C45.3307389,29.7222004 43.5414,27.9005145 41.3366788,27.9005145 C39.7316811,27.9005145 38.3478929,28.8643178 37.713759,30.2545584 L40.7050028,30.7799051 C40.8672231,30.6967711 41.0491065,30.650196 41.2408213,30.650196 C41.899534,30.650196 42.4353526,31.1940725 42.4353526,31.8649037 C42.4353526,32.5357348 41.899534,33.0798618 41.2408213,33.0798618 C40.8500179,33.0798618 40.5009985,32.8865502 40.2847048,32.5878188 L37.3426187,32.0714866 C37.3966921,34.2715323 39.1639101,36.0383798 41.3366788,36.0383798 C43.5414,36.0383798 45.3307389,34.2166939 45.3307389,31.969322 Z M7.90209432,31.5228524 C7.9340468,31.6312772 7.95125198,31.7462124 7.95125198,31.8649037 C7.95125198,32.5357348 7.41789134,33.0798618 6.75917866,33.0798618 C6.10046597,33.0798618 5.56710533,32.5357348 5.56710533,31.8649037 C5.56710533,31.3813744 5.84238824,30.9642021 6.24548108,30.7686369 L7.64401659,27.8612012 C7.34169696,27.7865809 7.02463004,27.7467667 6.70018946,27.7467667 C4.49301039,27.7467667 2.70612935,29.5684526 2.70612935,31.8155742 C2.70612935,34.0626957 4.49301039,35.8846321 6.70018946,35.8846321 C8.90491065,35.8846321 10.6942496,34.0626957 10.6942496,31.8155742 C10.6942496,30.5628052 10.138768,29.4424996 9.26376159,28.6960466 L7.90209432,31.5228524 Z"></path>
</svg>