<svg viewBox="0 0 48 48" xmlns="http://www.w3.org/2000/svg" fill-rule="evenodd" clip-rule="evenodd" stroke-linejoin="round" stroke-miterlimit="1.414">
        <path d="M11.2547512,28.9607294 L33.2580003,28.9607294 C33.1330106,28.5604798 33.0657085,28.1354086 33.0657085,27.6946514 C33.0657085,26.5087268 33.5532556,25.4351892 34.3414771,24.6579604 C35.1296985,23.8805592 36.2185944,23.3998116 37.4212921,23.3998116 C38.6239898,23.3998116 39.7127109,23.8805592 40.5011072,24.6579604 C41.2893287,25.4351892 41.7768757,26.5087268 41.7768757,27.6946514 C41.7768757,27.9068423 41.7611428,28.1157581 41.7309005,28.3196751 C42.9194385,28.2617578 44.8425311,28.1424759 45.8123809,27.9426958 C46.7399265,27.7513621 47.8113414,26.8781216 47.9319608,25.928003 C48.0302044,25.1523255 48.0302044,24.3226954 47.9646504,23.8272961 C47.8990964,23.3317244 47.6587316,23.0192125 47.2872589,22.8683864 C47.2872589,22.8683864 47.363826,21.327891 47.0797586,20.9615988 C47.0797586,20.9615988 47.2190827,20.4308631 47.0360559,20.1966085 C44.2448533,16.6226316 44.5053213,16.6962347 40.5126447,16.4326768 C34.2341433,16.0179479 23.9421628,15.4289502 20.1055922,17.2435183 C17.6692554,18.3958302 14.8721092,20.0445757 14.4569338,20.3355409 C14.0417583,20.6263338 13.7194074,20.5994436 13.2059884,20.5887565 C12.6923945,20.5778971 7.22955985,20.7180361 3.18706222,21.9246455 C-0.855435411,23.1312548 0.0623208079,24.8549825 0.149726162,25.5013804 C0.237131516,26.1477782 0.308104664,26.5947408 0.2972664,27.1980455 C0.286253325,27.8013502 0.275415061,28.4370609 1.18215821,28.5878871 C1.52775898,28.6454596 2.18417319,28.6949306 2.86453646,28.7344039 C2.78062732,28.4015521 2.73605059,28.0531868 2.73605059,27.6946514 C2.73605059,26.5087268 3.22342285,25.4351892 4.01181914,24.6579604 C4.80004063,23.8805592 5.88893653,23.3998116 7.09145939,23.3998116 C8.29433188,23.3998116 9.38305297,23.8805592 10.1712745,24.6579604 C10.9594959,25.4351892 11.447043,26.5087268 11.447043,27.6946514 C11.447043,28.1354086 11.3797409,28.5604798 11.2547512,28.9607294 Z M35.3782794,17.0446001 L38.1588185,20.7259653 C40.3703488,20.6551201 43.094424,20.4751629 45.1508972,20.3258881 C44.5547927,18.7797044 43.2358459,17.7108208 42.3240332,17.5244859 C41.0059605,17.255412 38.2859059,17.1718112 35.3782794,17.0446001 Z M35.6494108,20.7869852 L34.0252445,16.9491056 C31.8430824,16.8786051 29.5843532,16.8636087 27.641507,16.9244563 L26.9833447,20.793363 C28.4678373,20.7806074 30.0206808,20.7937078 31.5925787,20.8054291 C32.9547037,20.8157715 34.304592,20.8095661 35.6494108,20.7869852 Z M7.09145939,26.1112352 C7.97844893,26.1112352 8.69762018,26.8202044 8.69762018,27.6946514 C8.69762018,28.5692708 7.97844893,29.2784124 7.09145939,29.2784124 C6.20446986,29.2784124 5.48547342,28.5692708 5.48547342,27.6946514 C5.48547342,26.8202044 6.20446986,26.1112352 7.09145939,26.1112352 Z M7.09145939,24.0893027 C9.1108727,24.0893027 10.7478002,25.7035736 10.7478002,27.6946514 C10.7478002,29.6859016 9.1108727,31.3000002 7.09145939,31.3000002 C5.0722209,31.3000002 3.43529343,29.6859016 3.43529343,27.6946514 C3.43529343,25.7035736 5.0722209,24.0893027 7.09145939,24.0893027 Z M37.4212921,26.1112352 C38.3081068,26.1112352 39.0271033,26.8202044 39.0271033,27.6946514 C39.0271033,28.5692708 38.3081068,29.2784124 37.4212921,29.2784124 C36.5343026,29.2784124 35.8153061,28.5692708 35.8153061,27.6946514 C35.8153061,26.8202044 36.5343026,26.1112352 37.4212921,26.1112352 Z M37.4212921,24.0893027 C39.4405306,24.0893027 41.0776329,25.7035736 41.0776329,27.6946514 C41.0776329,29.6859016 39.4405306,31.3000002 37.4212921,31.3000002 C35.4018788,31.3000002 33.7649513,29.6859016 33.7649513,27.6946514 C33.7649513,25.7035736 35.4018788,24.0893027 37.4212921,24.0893027 Z M18.2045257,20.7556134 C18.2045257,20.7556134 24.4978861,20.7987066 24.9565894,20.7880195 C24.9565894,20.7880195 26.0381432,18.4177216 26.355075,16.920147 C26.355075,16.920147 23.0883873,17.1357853 21.4932396,17.6637631 C19.8980919,18.1915685 18.3407033,19.0370569 17.5926883,19.5383169 C16.8448481,20.0394045 17.1691219,20.831285 18.2045257,20.7556134 Z"></path>
</svg>