<svg viewBox="0 0 48 48" xmlns="http://www.w3.org/2000/svg" fill-rule="evenodd" clip-rule="evenodd" stroke-linejoin="round" stroke-miterlimit="1.414">
        <path d="M16.8521411,20.6237492 C16.8521411,20.6237492 23.162669,20.6323606 24.9335549,20.6266807 C25.4719793,20.6252149 25.3740675,20.2846063 25.3654124,19.7248648 C25.3526099,18.8853441 25.3300704,17.6720517 25.361806,16.2889131 C25.3729856,15.8039259 25.4595374,15.2854092 24.9865679,15.3420247 C23.3653445,15.5356897 21.491498,15.5408199 19.8511611,16.3546896 C16.4031537,18.0656114 13.9575244,20.8555243 16.8521411,20.6237492 Z M37.0892144,24.8854799 C39.1722278,24.8854799 40.8607092,26.6013487 40.8607092,28.7177396 C40.8607092,30.8341304 39.1722278,32.5499992 37.0892144,32.5499992 C35.0063814,32.5499992 33.3177197,30.8341304 33.3177197,28.7177396 C33.3177197,26.6013487 35.0063814,24.8854799 37.0892144,24.8854799 Z M37.0892144,27.0344842 C38.0041391,27.0344842 38.7457798,27.788074 38.7457798,28.7177396 C38.7457798,29.6474052 38.0041391,30.4009949 37.0892144,30.4009949 C36.1744701,30.4009949 35.432649,29.6474052 35.432649,28.7177396 C35.432649,27.788074 36.1744701,27.0344842 37.0892144,27.0344842 Z M7.65258629,24.8854799 C9.73559963,24.8854799 11.424081,26.6013487 11.424081,28.7177396 C11.424081,30.8341304 9.73559963,32.5499992 7.65258629,32.5499992 C5.56957294,32.5499992 3.88109156,30.8341304 3.88109156,28.7177396 C3.88109156,26.6013487 5.56957294,24.8854799 7.65258629,24.8854799 Z M7.65258629,27.0344842 C8.56751095,27.0344842 9.30915169,27.788074 9.30915169,28.7177396 C9.30915169,29.6474052 8.56751095,30.4009949 7.65258629,30.4009949 C6.73784194,30.4009949 5.99602088,29.6474052 5.99602088,28.7177396 C5.99602088,27.788074 6.73784194,27.0344842 7.65258629,27.0344842 Z M11.9468178,30.0633178 L32.7948026,30.0633178 C32.6660568,29.6380609 32.5964547,29.1860536 32.5964547,28.7177396 C32.5964547,27.4573593 33.0993567,26.3158897 33.9124027,25.4897442 C34.725629,24.6637819 35.8486386,24.1525941 37.0892144,24.1525941 C38.3297902,24.1525941 39.4529802,24.6637819 40.2660262,25.4897442 C41.0790721,26.3158897 41.5819742,27.4573593 41.5819742,28.7177396 C41.5819742,28.9434684 41.5657457,29.1651663 41.534551,29.3819173 C42.7605212,29.3205381 44.7441803,29.1935656 45.7445748,28.981212 C46.7015132,28.7782026 47.8066715,27.8498196 47.9309094,26.8397198 C48.0322471,26.0152233 48.0322471,25.1335617 47.9646285,24.6068001 C47.8970099,24.0800384 47.6490751,23.747858 47.2659031,23.5875392 C47.2659031,23.5875392 47.2799677,22.5180756 47.2116279,21.6534537 C47.1151587,20.4352143 46.7776067,20.6237492 45.7474599,20.6237492 C42.787208,20.6237492 33.3653232,20.6237492 29.9768202,20.6237492 C28.7887164,20.6237492 28.2412763,20.6237492 28.2407353,19.7422708 C28.240014,18.4659502 28.2373093,17.5595538 28.2342439,16.3125486 C28.2300967,14.5144134 28.3880537,13.9251732 26.4318027,14.0074397 C23.3927526,14.1353282 20.728039,14.4979235 19.1380103,15.272767 C16.6253033,16.4972358 13.5370269,19.0747951 13.1087758,19.3837064 C11.6226092,20.4566512 -0.543508634,19.1911407 0.0188977558,23.4776063 C0.108875566,24.1646867 0.407659595,25.7850972 0.396479988,26.4263722 C0.385120064,27.0676473 0.550650383,28.1594638 1.1289246,28.6136698 C1.70719882,29.0678757 2.59074846,29.7809736 3.292359,29.8229313 C3.20580719,29.4689475 3.15982655,29.0988402 3.15982655,28.7177396 C3.15982655,27.4573593 3.66272858,26.3158897 4.47577456,25.4897442 C5.28900085,24.6637819 6.41201047,24.1525941 7.65258629,24.1525941 C8.8931621,24.1525941 10.016352,24.6637819 10.829398,25.4897442 C11.642444,26.3158897 12.145346,27.4573593 12.145346,28.7177396 C12.145346,29.1860536 12.0759243,29.6380609 11.9468178,30.0633178 Z"></path>
</svg>