<svg viewBox="0 0 48 48" xmlns="http://www.w3.org/2000/svg" fill-rule="evenodd" clip-rule="evenodd" stroke-linejoin="round" stroke-miterlimit="1.414">
   <path d="M44.8830436,26.2028543 C46.7464159,27.2818571 48,29.2970902 48,31.6050511 C48,35.0506483 45.2065538,37.8440944 41.7611033,37.8440944 C39.3225363,37.8440944 37.2109977,36.4445129 36.184765,34.4049469 L35.5798139,34.4311854 C34.5264632,34.4766264 34.492749,34.6583902 34.5247042,33.3331267 C34.544493,32.523105 34.5112185,31.7349243 34.6224756,30.8867908 C34.8295984,29.3073511 35.6252549,27.8516281 36.7715397,26.7447743 L34.571611,25.0496801 C34.3929255,25.1308875 34.2140933,25.2120948 34.0354077,25.2934488 C33.1852221,27.8736156 32.5491953,30.4540756 31.766145,33.0342425 C31.1025605,35.2206854 30.8237582,34.8982012 28.8772729,34.9332347 C26.196403,34.9817539 23.5153866,35.0304197 20.8346633,35.0787923 C20.1285695,35.0915451 19.8525523,34.8364894 19.2959739,34.4209245 C19.0183443,34.2136552 18.740275,34.0060926 18.4624988,33.7988232 L18.2108145,33.8014617 C17.3220774,36.1633654 15.0424072,37.8440944 12.3701858,37.8440944 C9.85979282,37.8440944 7.69592379,36.3611068 6.70619044,34.2234763 L4.31262471,34.1513571 C3.86891575,34.1383111 3.45232479,34.0298392 3.0297239,33.9146243 C2.72908066,33.8329772 2.59510313,33.8260878 2.62398013,33.4616806 C2.63981117,33.2642323 2.62999006,33.0663443 2.64567452,32.868896 C2.67396518,32.5129907 2.66414407,32.4956938 2.97607425,32.391766 C3.14801697,32.3344517 3.33769631,32.2947275 3.52722908,32.2550033 C3.89793933,32.1777537 4.06548454,32.1010904 3.71485625,31.7909193 C3.62661285,31.7129367 3.53822286,31.6348076 3.45012603,31.5566785 C2.64464844,30.9662392 2.34356545,31.1887533 2.47974174,30.2255516 C2.6368795,29.1134208 2.8719998,28.0267956 3.11943314,26.9148115 C3.2279051,26.4271274 3.53118684,25.3626363 4.16779998,25.2559234 C5.33812448,25.0595012 6.62058554,24.8128008 7.85408763,24.7356977 C8.47032564,24.6974394 8.86903338,24.5971761 8.93543581,23.9198127 C8.98879229,23.3732019 9.15443191,23.181617 8.64989071,23.2279375 C6.39264784,23.4349137 6.07016363,23.6294303 3.81380027,23.8463742 C2.39399026,23.9828437 0.537214142,24.3076732 0.287728633,22.9117564 C0.180136174,22.3090041 0.107723811,21.729412 0.0464518121,21.2673801 C-0.0599679763,20.4665932 -0.084594043,19.9921016 1.13263726,19.6351702 C2.86041969,19.1285769 4.7180753,18.7800007 6.51123408,18.3534421 C7.19123601,18.1916137 8.70427327,18.1885354 9.1031276,18.8682442 C9.55343282,19.63561 9.82344005,20.4805186 10.2738919,21.2478844 C11.553861,21.3164856 12.8338301,21.38538 14.1137993,21.4539812 C14.4892002,21.4739165 14.6626088,21.5095364 14.563225,20.980076 C14.4506487,19.8741017 14.3379258,18.768274 14.2254961,17.6624464 C14.0797918,16.2313494 15.0966432,17.3871621 15.1432568,17.8683965 C15.2117114,18.5697997 15.280166,19.2970016 15.348474,20.0214184 C15.3770579,20.3241138 15.4329063,20.7193035 15.1985189,20.9541306 C15.0400619,21.1124411 15.0478308,21.0573256 15.0623426,21.2770546 C15.0764146,21.487842 15.1494133,21.4667339 15.2650679,21.5439836 C15.3225287,21.5822419 15.3857063,21.6668207 15.4670603,21.7728008 C15.7772314,22.1772253 16.0878424,22.5822361 16.3981601,22.9866606 C16.5261277,23.1536195 16.8270641,23.2934604 17.0360925,23.2922877 C18.1296071,23.2852517 19.2536112,23.2777759 20.3633966,23.2705933 C20.7616646,23.1653462 21.1663823,23.008355 21.5643571,22.8981241 C21.8145755,22.8289366 22.1687218,22.8097341 22.3667565,23.0076221 C22.4138098,23.0546755 22.4610098,23.1017289 22.5080632,23.1487823 C23.4997021,22.2471457 23.9656918,21.5935289 25.2282175,21.138533 C26.3366836,20.7387991 27.4451498,20.3390653 28.5537626,19.9394781 C29.405414,19.6323851 29.5061171,19.8364297 29.3176104,19.0431185 C29.1705869,18.426001 29.232885,18.5766891 29.8102783,18.2083242 C30.4001312,17.8317506 30.4155225,17.9938722 30.1447824,17.392146 C30.0499427,17.1810654 29.808959,16.9515153 29.5726661,17.09634 C29.1972651,17.3260367 28.4448508,17.8591618 28.0871865,17.4236615 C28.0064189,17.325597 27.9257979,17.2273859 27.8451768,17.1291748 C27.5577261,17.2901237 27.102437,17.4768714 26.8151329,17.6379669 C26.2680824,17.9443269 25.5782594,17.259048 26.4457419,16.8357141 C27.5095001,16.3165146 29.1889099,16.1051408 28.4532061,15.2320881 C28.3076485,15.0592659 28.15183,14.9707293 27.8696563,15.0576535 C27.8044265,15.2608185 27.7396365,15.463837 27.6745533,15.6668555 C27.3608642,15.65894 26.9438334,15.766679 26.6302908,15.7589101 C25.405144,15.7281275 25.7189798,14.6986699 26.2433098,14.1363747 C26.4524848,13.9119551 26.8582285,13.8483377 26.9637688,13.8201936 C28.113425,13.5131007 27.8286128,13.4078536 28.2350895,14.423972 C28.7608854,14.5293657 28.9147983,14.7150873 29.119136,15.0405032 C29.2597098,15.26419 29.5090487,15.3546321 29.6430263,15.0739243 C29.8398882,14.6624638 30.0367502,14.2507101 30.2336121,13.8391029 C29.5949468,12.5619189 28.9562815,11.2845883 28.3176162,10.0072576 C27.7956315,8.96284856 28.2833156,8.54039425 29.0212181,9.67465916 C29.8557193,10.9571202 30.6905136,12.2395813 31.5251614,13.5223355 C33.2554357,14.9506474 35.3130315,16.404758 36.2757935,17.4362677 C37.123194,18.3440607 36.9949333,18.779561 36.82988,20.6042353 C36.7913285,21.0319666 36.7548291,21.4596979 36.7647968,21.8814193 C36.8786924,22.4419555 36.9922948,23.0026383 37.1061903,23.5630279 L38.3100825,25.5927728 C39.0185217,25.1904005 39.7933633,24.9023634 40.6030918,24.7584182 C41.6429568,24.5734295 42.8082974,24.4187837 44.6067332,24.9412081 C45.1158185,25.0891111 45.5375399,25.0681496 45.368822,25.6663578 C45.311801,25.8682036 45.1199229,26.0523128 44.8830436,26.2028543 Z M39.3975872,29.9265208 L38.696184,29.040129 C38.4474314,29.336961 38.240895,29.6702924 38.0862491,30.031035 L37.8182941,30.9476231 C37.7828208,31.1614887 37.7640581,31.3810711 37.7640581,31.6050511 C37.7640581,33.8124555 39.5536989,35.6020962 41.7611033,35.6020962 C43.9688008,35.6020962 45.758295,33.8124555 45.758295,31.6050511 C45.758295,29.3979399 43.9688008,27.6082991 41.7611033,27.6082991 C40.9884604,27.6082991 40.2669753,27.8275883 39.6555746,28.2073868 L40.2979045,29.1024271 C40.7273948,28.8507428 41.2273919,28.7063578 41.7611033,28.7063578 C43.3620908,28.7063578 44.6600897,30.0042102 44.6600897,31.6050511 C44.6600897,33.2060386 43.3620908,34.5041841 41.7611033,34.5041841 C40.1604089,34.5041841 38.8622634,33.2060386 38.8622634,31.6050511 C38.8622634,30.9794317 39.0604446,30.4001328 39.3975872,29.9265208 Z M15.6911868,33.8296058 L14.0756875,33.8476356 C13.9588603,33.878125 13.848043,33.9081747 13.7416232,33.9371982 C13.3393974,34.1743707 12.8706226,34.310547 12.3701858,34.310547 C12.3114057,34.310547 12.253212,34.3084948 12.195458,34.3048302 C11.882062,34.3488054 11.5447728,34.3690339 11.1375632,34.3568675 L9.42326647,34.3051234 C10.1538398,35.1022457 11.2035259,35.6020962 12.3701858,35.6020962 C13.7542294,35.6020962 14.973806,34.8984943 15.6911868,33.8296058 Z" transform="translate(24.000000, 23.422047) scale(-1, 1) translate(-24.000000, -23.422047) "></path>
</svg>