<svg viewBox="0 0 48 48" xmlns="http://www.w3.org/2000/svg" fill-rule="evenodd" clip-rule="evenodd" stroke-linejoin="round" stroke-miterlimit="1.414">
        <path d="M5.9212275,20.1967212 C5.9212275,20.1967212 13.8903668,20.2100454 14.4159658,20.1967212 C14.4159658,20.1967212 14.4599721,15.8701346 14.4654967,13.4034282 C14.4654967,13.4034282 9.14302145,13.4074255 8.367101,13.4074255 C7.10196774,13.4074255 4.34252561,20.329964 5.9212275,20.1967212 Z M38.6847688,27.5041413 C40.9527121,27.5041413 42.7910702,29.3409895 42.7910702,31.6080219 C42.7910702,33.8731508 40.9527121,35.7099991 38.6847688,35.7099991 C36.4168255,35.7099991 34.5782769,33.8731508 34.5782769,31.6080219 C34.5782769,29.3409895 36.4168255,27.5041413 38.6847688,27.5041413 Z M38.6847688,29.8054361 C39.6809112,29.8054361 40.4884553,30.6125073 40.4884553,31.6080219 C40.4884553,32.6035366 39.6809112,33.4106077 38.6847688,33.4106077 C37.6888169,33.4106077 36.8810824,32.6035366 36.8810824,31.6080219 C36.8810824,30.6125073 37.6888169,29.8054361 38.6847688,29.8054361 Z M8.21126919,27.5041413 C10.4792125,27.5041413 12.3177611,29.3409895 12.3177611,31.6080219 C12.3177611,33.8731508 10.4792125,35.7099991 8.21126919,35.7099991 C5.9435164,35.7099991 4.10496783,33.8731508 4.10496783,31.6080219 C4.10496783,29.3409895 5.9435164,27.5041413 8.21126919,27.5041413 Z M8.21126919,29.8054361 C9.20741161,29.8054361 10.0149556,30.6125073 10.0149556,31.6080219 C10.0149556,32.6035366 9.20741161,33.4106077 8.21126919,33.4106077 C7.21512678,33.4106077 6.40777325,32.6035366 6.40777325,31.6080219 C6.40777325,30.6125073 7.21512678,29.8054361 8.21126919,29.8054361 Z M47.5772783,26.1812298 C47.8230277,26.0898633 47.9982908,25.8538331 47.9982908,25.57783 L47.9982908,23.1242575 C47.9982908,22.7721156 47.7106307,22.4827882 47.3581993,22.4827882 L19.7201527,22.4827882 C19.3671499,22.4827882 19.0785372,22.7721156 19.0785372,23.1242575 L19.0785372,25.57783 C19.0785372,25.6254167 19.0838713,25.6711 19.0933964,25.7148798 L17.4261104,25.7148798 L17.4261104,12 L7.72510445,12 C5.42210853,12 2.38167384,20.6535539 1.40248623,25.7148798 C1.38629343,26.7770159 1.39296105,27.6678397 1.39296105,28.3645096 C1.1119685,28.3645096 0.830975946,28.3645096 0.549983392,28.3645096 C0.247463951,28.3645096 0,28.6100572 0,28.9127088 C0,29.8891888 0,30.8656687 0,31.8421487 C0,32.1448004 0.247463951,32.3922514 0.549983392,32.3922514 L3.3858174,32.3922514 C3.34466866,32.1371865 3.32295127,31.8745077 3.32295127,31.6080219 C3.32295127,30.2584619 3.87026761,29.0383378 4.75477502,28.1532244 C5.63947294,27.2700145 6.86155242,26.7237187 8.21126919,26.7237187 C9.56117647,26.7237187 10.783256,27.2700145 11.6677634,28.1532244 C12.5524613,29.0383378 13.0997776,30.2584619 13.0997776,31.6080219 C13.0997776,31.8745077 13.0782507,32.1371865 13.0369115,32.3922514 L33.859317,32.3922514 C33.8177873,32.1371865 33.7964509,31.8745077 33.7964509,31.6080219 C33.7964509,30.2584619 34.3435767,29.0383378 35.2282746,28.1532244 C36.1125915,27.2700145 37.3348615,26.7237187 38.6847688,26.7237187 C40.0344856,26.7237187 41.2565651,27.2700145 42.141263,28.1532244 C43.0257704,29.0383378 43.5730867,30.2584619 43.5730867,31.6080219 C43.5730867,31.8745077 43.5515598,32.1371865 43.5102206,32.3922514 L47.0419636,32.3922514 C47.339149,32.3922514 47.5829934,32.1486073 47.5829934,31.851666 C47.5829934,29.9862657 47.5829934,28.1208655 47.5829934,26.2554652 C47.5829934,26.2307201 47.5810883,26.2059749 47.5772783,26.1812298 Z"></path>
</svg>