<svg viewBox="0 0 48 48" xmlns="http://www.w3.org/2000/svg" fill-rule="evenodd" clip-rule="evenodd" stroke-linejoin="round" stroke-miterlimit="1.414">
	<path d="M47.2,17.3c-0.1-1-0.6-2-1.4-2.9c-0.8-0.8-1.8-1.3-2.9-1.5c-5.4-0.6-10.7-0.6-16.1-0.1c-2.2,0.2-4.1,2.1-4.3,4.3
		c0,0.3,0,0.5-0.1,0.8l-12.2-0.1c-0.6,2-1,4.1-1,6.1s0.3,4,0.9,5.9l12.2,0.1c0,0.3,0,0.5,0.1,0.8c0.1,1,0.6,2,1.4,2.9
		c0.8,0.8,1.8,1.3,2.9,1.5c5.4,0.6,10.6,0.6,16.1,0.1c2.2-0.2,4.1-2.1,4.3-4.3C47.6,26.3,47.6,21.7,47.2,17.3z M22.3,27.7l-9.7-0.1
		c-0.6-1.2-0.9-2.4-0.9-3.7s0.3-2.5,0.9-3.9l9.7,0.1C22.2,22.6,22.2,25.2,22.3,27.7z M45,30.6c-0.1,1.1-1.2,2.2-2.4,2.3
		c-5.3,0.5-10.4,0.5-15.6-0.1c-0.5-0.1-1.1-0.4-1.6-0.8c-0.4-0.4-0.7-1-0.8-1.5c-0.4-4.3-0.4-8.8,0.1-13.1c0.1-1.1,1.2-2.2,2.4-2.3
		c5.2-0.5,10.3-0.5,15.6,0.1c0.5,0.1,1.1,0.4,1.6,0.8c0.4,0.4,0.7,1,0.8,1.5C45.4,21.8,45.4,26.2,45,30.6z"/>
	<path d="M15.8,21.4h-1.9v1.5h-0.8v1.9h3.5v1.5h1.9v-1.5h2.4c0-0.6,0-1.3,0-1.9h-5.1L15.8,21.4z"/>
	<path d="M41.7,16.8h-2.9c-0.9,0-1.7,0.7-1.7,1.7v11.1c0,0.4,0.2,0.9,0.5,1.2c0.3,0.3,0.7,0.5,1.2,0.5h2.9c0.9,0,1.6-0.7,1.7-1.5
		c0.4-3.8,0.5-7.6,0-11.3C43.4,17.5,42.6,16.8,41.7,16.8z M41.5,29.3H39V18.7h2.5C41.9,22.2,41.9,25.8,41.5,29.3z"/>
	<path d="M11.1,42.8c-3.5,0-7.4-7.7-7.4-18.8S7.6,5.2,11.1,5.2c2.3,0,4.9,3.5,6.3,9.2h2.9c-1.6-7.2-5-12-9.2-12
		C5.3,2.3,1,11.6,1,23.9s4.4,21.6,10.2,21.6c4.2,0,7.6-4.8,9.2-12h-2.9C16,39.2,13.5,42.8,11.1,42.8z"/>
</svg>