<svg viewBox="0 0 48 48" xmlns="http://www.w3.org/2000/svg" fill-rule="evenodd" clip-rule="evenodd" stroke-linejoin="round" stroke-miterlimit="1.414">
        <path d="M24.106035,16.202894 L24.106035,20.3687607 C24.106035,20.3687607 17.5197772,20.3687607 16.7294263,20.3687607 C15.9373421,20.3687607 15.8836121,19.513543 16.1331966,18.9728482 C16.3827811,18.4319799 17.7693617,16.214003 19.2859342,16.214003 C20.8025068,16.214003 24.106035,16.202894 24.106035,16.202894 Z M25.6884701,16.3059992 C25.7127353,17.6602531 25.7387337,19.0145069 25.7629988,20.3687607 C27.5724865,20.3687607 29.3819742,20.3687607 31.1914618,20.3687607 C31.0354715,19.0108618 30.8794812,17.6529628 30.7252241,16.2950638 C29.18092,16.2983618 27.6366158,16.3018333 26.0923117,16.3049577 C25.9571201,16.3053049 25.8219285,16.3056521 25.6884701,16.3059992 Z M32.144736,16.3386318 C32.144736,16.3926145 32.6421718,20.3687607 32.6421718,20.3687607 C32.6421718,20.3687607 38.3132864,20.3687607 38.8332541,20.3687607 C39.3532218,20.3687607 40.0673108,19.9023572 39.9165202,19.2080461 C39.7639963,18.5135614 39.6132057,16.3113801 38.2803551,16.3113801 C36.9475045,16.3113801 32.1499356,16.3113801 32.144736,16.3386318 Z M35.8729045,26.5649667 C37.8834464,26.5649667 39.5144118,28.1974658 39.5144118,30.2111416 C39.5144118,32.2248174 37.8834464,33.8571429 35.8729045,33.8571429 C33.8623627,33.8571429 32.2331305,32.2248174 32.2331305,30.2111416 C32.2331305,28.1974658 33.8623627,26.5649667 35.8729045,26.5649667 Z M35.8729045,28.6095394 C36.7568497,28.6095394 37.4726719,29.3265892 37.4726719,30.2111416 C37.4726719,31.0955204 36.7568497,31.8125702 35.8729045,31.8125702 C34.9906926,31.8125702 34.2748704,31.0955204 34.2748704,30.2111416 C34.2748704,29.3265892 34.9906926,28.6095394 35.8729045,28.6095394 Z M8.41514243,26.5649667 C10.4256843,26.5649667 12.0549165,28.1974658 12.0549165,30.2111416 C12.0549165,32.2248174 10.4256843,33.8571429 8.41514243,33.8571429 C6.40460058,33.8571429 4.77363516,32.2248174 4.77363516,30.2111416 C4.77363516,28.1974658 6.40460058,26.5649667 8.41514243,26.5649667 Z M8.41514243,28.6095394 C9.29735433,28.6095394 10.0131766,29.3265892 10.0131766,30.2111416 C10.0131766,31.0955204 9.29735433,31.8125702 8.41514243,31.8125702 C7.53119731,31.8125702 6.81537508,31.0955204 6.81537508,30.2111416 C6.81537508,29.3265892 7.53119731,28.6095394 8.41514243,28.6095394 Z M31.5207747,28.5418441 C31.7582266,27.9462987 32.1135379,27.4106377 32.5589769,26.9648899 C33.4013246,26.1202605 34.5677855,25.5977914 35.853839,25.5977914 C37.1416258,25.5977914 38.3063535,26.1202605 39.1487012,26.9648899 C39.5976066,27.4137621 39.9546511,27.9537626 40.1921031,28.5543417 C40.4434208,29.1969266 40.1921031,29.1670712 40.8853934,29.1670712 L41.9357281,29.1670712 C42.5007597,29.1670712 42.6775488,28.0976585 42.6394178,26.5741664 L43.2737784,26.5741664 C43.6741536,26.5741664 44,26.2467987 44,25.8468755 L44,19.7178441 C44,19.3180944 43.6741536,18.9909003 43.2737784,18.9909003 L41.6618785,18.9909003 C41.4088275,17.6612945 41.1800417,16.64031 41.0829811,16.3061728 C40.7172705,15.0477339 40.0413124,15 39.2006979,15 C32.5243124,15 24.5601402,15 19.4419246,15 C16.550904,15 13.9458658,19.8336204 13.4380306,20.0297633 C11.9855874,20.5905931 8.34234695,20.0497248 3.15826878,21.3307288 C1.19452402,21.8160523 0.913741452,24.211252 0.821880488,25.1463155 C0.754284684,25.8175408 0.00899761791,26.3823629 0.000331489231,26.8810519 C-0.0170007681,27.8324317 0.646824688,29.1670712 1.64342949,29.1670712 L3.38705458,29.1670712 C4.11500938,29.1670712 3.87755746,29.2542073 4.12020906,28.6124902 C4.35592776,27.9884781 4.72163839,27.428169 5.18440966,26.9648899 C6.0284906,26.1202605 7.19321829,25.5977914 8.48100501,25.5977914 C9.76705851,25.5977914 10.9317862,26.1202605 11.7758671,26.9648899 C12.2057071,27.39571 12.5523523,27.9103681 12.788071,28.4821333 C13.1121842,29.2665313 12.7898042,29.1670712 13.6997477,29.1670712 L30.6264302,29.1670712 C31.4774441,29.1406874 31.2295928,29.2752102 31.5207747,28.5418441 Z"></path>
</svg>