<svg viewBox="0 0 48 48" xmlns="http://www.w3.org/2000/svg" fill-rule="evenodd" clip-rule="evenodd" stroke-linejoin="round" stroke-miterlimit="1.414">
  <path d="M47.0938817,23.4731918 C46.8617678,22.7015987 46.0816957,22.1186644 45.2804259,22.1186644 L43.0038024,22.1186644 C42.1050236,22.1186644 41.3684066,22.8521018 41.3578078,23.764659 L39.2793819,23.8632279 L39.2793819,19.2962024 L33.0790804,13.5781465 L26.3615571,13.5781465 L26.3615571,11.9544094 L30.1750075,11.9544094 C31.004894,11.9438106 31.680038,11.2644271 31.680038,10.43984 L31.680038,8.85743825 C31.6779182,8.1388392 31.1543372,7.43401859 30.454816,7.21568319 C25.0949998,5.59618562 19.3069918,5.59300598 13.9333971,7.21674307 C13.2402352,7.43401859 12.717714,8.1388392 12.7155943,8.85849813 L12.7155943,10.4377202 C12.7145344,11.2633672 13.3886185,11.9438106 14.2312235,11.9544094 L18.0340752,11.9544094 L18.0340752,13.5781465 L11.5688035,13.5781465 L4.85657957,17.9745312 L4.85657957,25.7572345 L2.19627924,25.7572345 C1.75112939,23.8049345 1.84015936,21.7879817 2.4612494,19.8748972 C2.62447101,19.3725138 2.34890205,18.8309148 1.84439888,18.6676932 C1.34095559,18.5044715 0.800416483,18.7800405 0.63719487,19.2834838 C-0.161955108,21.749826 -0.209649736,24.3634915 0.500470272,26.8605703 C-0.209649736,29.3587088 -0.16407487,31.9713145 0.63719487,34.4376567 C0.769679946,34.8425311 1.14487768,35.1000821 1.54763231,35.1000821 C1.64726109,35.1000821 1.74688987,35.0852438 1.84439888,35.0534473 C2.34890205,34.8902257 2.62447101,34.3496866 2.4612494,33.8462433 C1.80942282,31.8377696 1.75112939,29.7158886 2.27471041,27.6734987 L4.85657957,27.6734987 L4.85657957,36.4153939 L12.5258756,36.4153939 L17.2910989,41.8600006 L36.5141534,41.8600006 L36.5141534,35.8610764 L41.3578078,35.8610764 C41.3684066,36.8011905 42.1071434,37.5346279 43.0038024,37.5346279 L45.2804259,37.5346279 C46.0816957,37.5346279 46.8617678,36.9516935 47.0960014,36.1705615 C48.2989659,32.020069 48.2989659,27.6332232 47.0938817,23.4731918 Z M14.6329183,10.0381452 L14.6329183,9.00794129 C19.5497044,7.55060546 24.8639458,7.55484498 29.7637738,9.00794129 L29.7637738,10.0381452 L25.403425,10.0381452 C24.8734847,10.0381452 24.445293,10.466337 24.445293,10.9962773 L24.445293,13.5781465 L19.9513992,13.5781465 L19.9513992,10.9962773 C19.9513992,10.466337 19.5200278,10.0381452 18.9922072,10.0381452 L14.6329183,10.0381452 Z M45.2719469,35.5929266 C45.2691206,35.5985793 44.6035155,35.6070583 43.2751318,35.6183637 L43.2751318,33.9448122 L34.5968294,33.9448122 L34.5968294,39.9437365 L18.160201,39.9437365 L13.3949777,34.4991298 L6.77072395,34.4991298 L6.77072395,19.0100346 L12.141139,15.4944106 L32.3297448,15.4944106 L37.3631178,20.1356278 L37.3631178,25.779492 L43.2751318,25.779492 L43.2751318,24.0349286 L45.2454499,24.0349286 C46.3572646,27.830361 46.3551449,31.8420091 45.2719469,35.5929266 Z M15.4129904,21.4795564 C14.5258704,21.5505684 13.7224809,21.9618021 13.1448459,22.6390658 C12.5693308,23.3163295 12.2895223,24.1769526 12.362654,25.0619529 C12.4983188,26.7789594 13.9556546,28.1239479 15.6758408,28.1239479 C15.7659307,28.1239479 15.8539008,28.1207683 15.9450505,28.1133491 C16.8311107,28.0423371 17.6366199,27.6300436 18.2121351,26.9527799 C18.78977,26.276576 19.0674588,25.415953 18.9964468,24.5288329 C18.8501832,22.7238562 17.2434042,21.3269336 15.4129904,21.4795564 Z M16.934979,25.8664022 C16.6488112,26.2023844 16.2502961,26.4069414 15.8104456,26.4419174 C14.9042477,26.5023306 14.1050978,25.8250669 14.0330259,24.9284079 C13.9980498,24.4885575 14.1358343,24.0624854 14.4220021,23.7265033 C14.7081698,23.3894613 15.1066849,23.1859642 15.5454755,23.1509881 C15.5910504,23.1467486 15.6366252,23.1456887 15.6800803,23.1456887 C16.5332842,23.1456887 17.2561228,23.8123536 17.3239552,24.6634378 C17.3589312,25.1032882 17.2222066,25.5304201 16.934979,25.8664022 Z M27.8634079,31.4954281 C26.9794675,31.5675 26.3170421,32.3443925 26.3869942,33.2283329 C26.4590661,34.1133332 27.2359586,34.7757586 28.119899,34.7036867 C29.008079,34.6326747 29.6683846,33.857902 29.5952528,32.9718418 C29.5253007,32.0847218 28.7484082,31.425476 27.8634079,31.4954281 Z M31.4299062,30.5330566 C31.4228403,30.5259907 27.6062102,27.0598278 19.980016,20.1345679 C18.7961293,18.9845975 17.2434042,18.3507889 15.6037689,18.3507889 C15.425709,18.3507889 15.2434095,18.3592679 15.0653496,18.3741062 C11.6005999,18.6708728 8.9922337,21.6978918 9.25084457,25.1234259 C9.41406618,27.3343369 10.7866116,29.2961759 12.8321811,30.2468888 L26.7643117,37.1509511 C27.3557251,37.4296997 27.9439588,37.5621847 28.545971,37.5621847 C28.661498,37.5621847 28.7780849,37.5568853 28.8957316,37.5462865 C31.1458582,37.3565679 32.8437869,35.3820103 32.6773856,33.1467221 C32.603194,32.1589134 32.1601639,31.230458 31.4299062,30.5330566 Z M28.545971,35.8854536 C28.1750128,35.8854536 27.8252522,35.7974835 27.5094078,35.6491002 L13.5560796,28.735499 C12.1072228,28.0677743 11.0473422,26.6888696 10.9233362,24.9962403 C10.7336175,22.4800837 12.6520014,20.2638733 15.2084335,20.0455379 C15.3409185,20.0338793 15.4734036,20.02752 15.6037689,20.02752 C16.8565478,20.02752 17.9948596,20.5352028 18.8311054,21.3555504 L30.2725165,31.7445001 C30.6805706,32.135596 30.9593192,32.6634166 31.0070138,33.2707282 C31.1045228,34.5955789 30.0944566,35.7625075 28.7515879,35.8769746 C28.6805759,35.882274 28.6138034,35.8854536 28.545971,35.8854536 Z"></path>
</svg>