<svg viewBox="0 0 48 48" xmlns="http://www.w3.org/2000/svg" fill-rule="evenodd" clip-rule="evenodd" stroke-linejoin="round" stroke-miterlimit="1.414">
        <path d="M34.0386682,15.3568873 L37.1019726,20.425704 C39.5375981,20.3337311 41.5881444,20.3239995 44.0565016,20.1156292 C43.255537,18.1044363 40.1672025,16.048211 39.2102808,15.7499668 C37.7777865,15.3034591 36.135424,15.3635659 34.0386682,15.3568873 Z M34.3390299,20.5050832 L32.5253072,15.2887663 C30.1204881,15.1969842 27.6348024,15.177521 25.4937624,15.2567093 L24.7929184,20.5134791 C26.4275793,20.4966873 28.1373306,20.5138607 29.8701867,20.5291259 C31.3700699,20.5422922 32.8564753,20.5342779 34.3390299,20.5050832 Z M15.1235816,20.4642487 C15.1235816,20.4642487 22.0550058,20.5201576 22.5613849,20.5064189 C22.5613849,20.5064189 23.7281746,17.1992087 24.0766712,15.2513665 C24.0766712,15.2513665 20.4781068,15.5316741 18.722146,16.2182274 C16.9642598,16.9049716 15.2737625,18.2288479 14.4496931,18.8806728 C13.6256238,19.5324978 13.9837474,20.5627094 15.1235816,20.4642487 Z M36.3260382,25.0978158 C38.5498701,25.0978158 40.3520404,26.8848007 40.3520404,29.0889079 C40.3520404,31.293015 38.5498701,33.0799999 36.3260382,33.0799999 C34.1022062,33.0799999 32.2981105,31.293015 32.2981105,29.0889079 C32.2981105,26.8848007 34.1022062,25.0978158 36.3260382,25.0978158 Z M36.3260382,27.335888 C37.3022138,27.335888 38.0954768,28.1207112 38.0954768,29.0889079 C38.0954768,30.0571045 37.3022138,30.8419277 36.3260382,30.8419277 C35.3479372,30.8419277 34.5565996,30.0571045 34.5565996,29.0889079 C34.5565996,28.1207112 35.3479372,27.335888 36.3260382,27.335888 Z M7.92645276,25.0978158 C10.1502847,25.0978158 11.952455,26.8848007 11.952455,29.0889079 C11.952455,31.293015 10.1502847,33.0799999 7.92645276,33.0799999 C5.70262081,33.0799999 3.89852511,31.293015 3.89852511,29.0889079 C3.89852511,26.8848007 5.70262081,25.0978158 7.92645276,25.0978158 Z M7.92645276,27.335888 C8.90262834,27.335888 9.69589133,28.1207112 9.69589133,29.0889079 C9.69589133,30.0571045 8.90262834,30.8419277 7.92645276,30.8419277 C6.94835178,30.8419277 6.15701418,30.0571045 6.15701418,29.0889079 C6.15701418,28.1207112 6.94835178,27.335888 7.92645276,27.335888 Z M12.4626848,30.4902552 L31.7397458,30.4902552 C31.6030427,30.0473729 31.5279523,29.5766317 31.5279523,29.0889079 C31.5279523,27.7762896 32.0651377,26.5875106 32.9334911,25.7271245 C33.8018445,24.8669293 35.001366,24.3345547 36.3260382,24.3345547 C37.6507104,24.3345547 38.8502319,24.8669293 39.7185853,25.7271245 C40.5850133,26.5875106 41.1221987,27.7762896 41.1221987,29.0889079 C41.1221987,29.3239923 41.1048701,29.5548787 41.0721384,29.7806132 C42.3814074,29.7166901 44.4993426,29.5844551 45.5679372,29.3633002 C46.5903223,29.1518769 47.7705898,28.1850159 47.9015167,27.1330514 C48.0112642,26.2743827 48.0112642,26.5010712 47.9380992,25.9524774 C47.8668596,25.4038835 47.601155,25.0579354 47.1929711,24.890972 C47.241106,21.8562461 45.9818972,17.4736011 43.5019877,15.5873922 C41.8885061,14.3581603 45.3099342,14 38.8521572,14 C33.3994368,14 27.2882311,14 22.5806388,14 C22.0473043,14 20.0891769,14.1873806 19.2901377,14.4959289 C15.6453638,15.9031914 10.034761,19.8324594 9.61309932,20.0106808 C7.64149421,20.8414905 1.38780922,21.5765109 0.833295284,23.6792951 C0.76013025,23.9584578 0.634979535,24.391036 0.509828819,24.8522365 C0.492500259,24.9161596 0.265303575,24.9194035 0.199840124,25.088275 C-0.562616543,27.063213 0.94496823,30.1069073 3.22271125,30.2399055 C3.13029226,29.8712504 3.08023198,29.4858036 3.08023198,29.0889079 C3.08023198,27.7762896 3.61741735,26.5875106 4.48577078,25.7271245 C5.35412421,24.8669293 6.55364568,24.3345547 7.87831787,24.3345547 C9.20299006,24.3345547 10.4025115,24.8669293 11.270865,25.7271245 C12.137293,26.5875106 12.6744784,27.7762896 12.6744784,29.0889079 C12.6744784,29.5766317 12.6013133,30.0473729 12.4626848,30.4902552 Z"></path>
</svg>