<svg viewBox="0 0 48 48" xmlns="http://www.w3.org/2000/svg" fill-rule="evenodd" clip-rule="evenodd" stroke-linejoin="round" stroke-miterlimit="1.414">
        <path d="M37.5421972,20.1539841 C34.5855241,18.9543435 31.8913933,18.0348712 29.0108696,17.7372914 L28.3944056,21.4415619 C31.6544648,21.3854579 34.6265409,21.4494762 37.8594286,21.0630798 C38.5388888,20.9818257 38.3033449,20.462644 37.5421972,20.1539841 Z M20.1358313,21.3780712 C20.1358313,21.3780712 26.3662359,21.4215122 26.8205362,21.410608 C26.8205362,21.410608 27.5993368,19.2283561 28.0969038,17.6827703 C28.0969038,17.6827703 24.9275316,17.6500576 23.3482971,18.1834852 C21.7690626,18.7169129 20.2704773,19.6418373 19.5300975,20.1480043 C18.7895447,20.6543473 19.1105836,21.4544007 20.1358313,21.3780712 Z M37.5165833,24.2515101 C39.5156778,24.2515101 41.1364483,25.8985756 41.1364483,27.9301029 C41.1364483,29.9616302 39.5156778,31.6086957 37.5165833,31.6086957 C35.5174887,31.6086957 33.8967182,29.9616302 33.8967182,27.9301029 C33.8967182,25.8985756 35.5174887,24.2515101 37.5165833,24.2515101 Z M37.5165833,26.3143431 C38.3947242,26.3143431 39.1065479,27.0377152 39.1065479,27.9301029 C39.1065479,28.8224905 38.3947242,29.5458627 37.5165833,29.5458627 C36.6384424,29.5458627 35.9266186,28.8224905 35.9266186,27.9301029 C35.9266186,27.0377152 36.6384424,26.3143431 37.5165833,26.3143431 Z M7.48949457,24.2515101 C9.4885891,24.2515101 11.1093596,25.8985756 11.1093596,27.9301029 C11.1093596,29.9616302 9.4885891,31.6086957 7.48949457,31.6086957 C5.49022697,31.6086957 3.86962951,29.9616302 3.86962951,27.9301029 C3.86962951,25.8985756 5.49022697,24.2515101 7.48949457,24.2515101 Z M7.48949457,26.3143431 C8.36763548,26.3143431 9.0794592,27.0377152 9.0794592,27.9301029 C9.0794592,28.8224905 8.36763548,29.5458627 7.48949457,29.5458627 C6.61135366,29.5458627 5.89952994,28.8224905 5.89952994,27.9301029 C5.89952994,27.0377152 6.61135366,26.3143431 7.48949457,26.3143431 Z M11.6110803,29.2217258 L33.3949976,29.2217258 C33.2710818,28.8135209 33.204451,28.3796383 33.204451,27.9301029 C33.204451,26.7202616 33.6871343,25.624563 34.4674925,24.8315445 C35.2478507,24.0387019 36.3258837,23.5480118 37.5165833,23.5480118 C38.7072828,23.5480118 39.7853159,24.0387019 40.565674,24.8315445 C41.3460322,25.624563 41.8287155,26.7202616 41.8287155,27.9301029 C41.8287155,28.1467804 41.8131395,28.3595886 41.7831989,28.5676482 C42.9598801,28.5087303 44.8639609,28.3868492 45.8239624,28.1830105 C46.7422548,27.9881415 47.8031543,27.096985 47.9223973,26.1273884 C48.0196608,25.3359528 48.0196608,25.4569545 47.9547608,24.9513151 C47.8898608,24.4456756 47.6518939,24.126815 47.284127,23.9729248 C47.2008818,23.4581399 46.6352996,21.5388205 46.8043858,21.1156663 C47.0125852,20.5949016 47.5814557,20.0764234 46.908399,20.2385797 C39.1795821,22.0988052 37.127183,17.927236 29.4334987,17.1073087 C27.0610991,16.8545769 24.384275,17.0012563 21.6499927,18.0580867 C19.1498698,19.0243416 16.3821856,20.7403499 15.971152,21.0370503 C15.5601184,21.3339266 15.2165808,21.3061385 14.732686,21.2954101 C11.1058983,21.2132767 6.86333891,21.3995279 3.10484735,22.5924852 C-1.37931327,24.0158382 0.18434521,24.7907416 0.617012194,25.6920988 C1.04967918,26.593456 0.773810709,26.808023 0.762907501,27.4234082 C0.75217736,28.0389692 0.741274152,28.6874188 1.63914468,28.841485 C1.98112466,28.9000512 2.63116354,28.9507031 3.30456643,28.9909784 C3.22149437,28.6511887 3.17736234,28.295922 3.17736234,27.9301029 C3.17736234,26.7202616 3.66004563,25.624563 4.4404038,24.8315445 C5.22076197,24.0387019 6.29879503,23.5480118 7.48949457,23.5480118 C8.68019411,23.5480118 9.75822717,24.0387019 10.5385853,24.8315445 C11.3189435,25.624563 11.8016268,26.7202616 11.8016268,27.9301029 C11.8016268,28.3796383 11.7349961,28.8135209 11.6110803,29.2217258 Z"></path>
</svg>