<svg viewBox="0 0 48 48" xmlns="http://www.w3.org/2000/svg" fill-rule="evenodd" clip-rule="evenodd" stroke-linejoin="round" stroke-miterlimit="1.414">
         <path d="M35.7852502,21.5790423 C38.7565326,21.5790423 41.1660363,23.9861695 41.1660363,26.9545211 C41.1660363,29.9228728 38.7565326,32.3299999 35.7852502,32.3299999 C32.8117734,32.3299999 30.4022697,29.9228728 30.4022697,26.9545211 C30.4022697,23.9861695 32.8117734,21.5790423 35.7852502,21.5790423 Z M9.13368145,23.9225933 L4.71625799,23.9225933 C1.97319821,23.9225933 0.195695474,26.4787956 0.18911213,26.4853725 C-0.137860595,26.945752 -0.030332652,27.5815142 0.43050139,27.9103567 C0.889140985,28.2370069 1.5277253,28.129585 1.85469803,27.6692055 C1.85908692,27.6648209 3.03969985,25.9701859 4.71625799,25.9701859 L9.13368145,25.9701859 L9.13368145,27.2745945 C9.13368145,27.6648209 9.45407083,27.982702 9.84468254,27.982702 L29.4608516,27.982702 C29.4059904,27.6472827 29.3774626,27.3052865 29.3774626,26.9545211 C29.3774626,25.1875408 30.095047,23.5871739 31.2537155,22.4296483 C32.4145784,21.2721227 34.0143308,20.555246 35.7852502,20.555246 C37.5539752,20.555246 39.1537276,21.2721227 40.3145905,22.4296483 C41.473259,23.5871739 42.1908434,25.1875408 42.1908434,26.9545211 C42.1908434,27.3052865 42.1623156,27.6472827 42.1074544,27.982702 L46.7355449,27.982702 C47.1261566,27.982702 47.4443515,27.6648209 47.4443515,27.2745945 C47.4443515,24.8301986 47.4443515,22.3858026 47.4443515,19.9414067 C47.4443515,19.9085224 47.4421571,19.8756382 47.4377682,19.8427539 C47.760352,19.7243706 47.990769,19.4152587 47.990769,19.0557242 L47.990769,15.8396445 C47.990769,15.3770727 47.613324,15 47.1502955,15 L9.42993191,15 C8.96690341,15 8.58945839,15.3770727 8.58945839,15.8396445 L8.58945839,19.0557242 C8.58945839,19.4152587 8.81987541,19.7243706 9.14245924,19.8427539 C9.13807035,19.8756382 9.13368145,19.9085224 9.13368145,19.9414067 L9.13368145,23.9225933 Z M35.7852502,24.593432 C37.0887522,24.593432 38.1486705,25.6501125 38.1486705,26.9545211 C38.1486705,28.2589297 37.0887522,29.3156103 35.7852502,29.3156103 C34.4795538,29.3156103 33.4196355,28.2589297 33.4196355,26.9545211 C33.4196355,25.6501125 34.4795538,24.593432 35.7852502,24.593432 Z"></path>
</svg>