<svg viewBox="0 0 48 48" xmlns="http://www.w3.org/2000/svg" fill-rule="evenodd" clip-rule="evenodd" stroke-linejoin="round" stroke-miterlimit="1.414">
<g fill="#000000">
            <path d="M19.4650002,27.4300003 C14.0640371,27.4300003 9.67000008,31.8244112 9.67000008,37.2258337 C9.67000008,42.6272563 14.0640371,47.0216672 19.4650002,47.0216672 C24.8659632,47.0216672 29.2600002,42.6272563 29.2600002,37.2258337 C29.2600002,31.8244112 24.8659632,27.4300003 19.4650002,27.4300003 Z M19.4650002,45.0625005 C15.1444256,45.0625005 11.6290001,41.5467759 11.6290001,37.2258337 C11.6290001,32.9048916 15.1444256,29.389167 19.4650002,29.389167 C23.7855747,29.389167 27.3010002,32.9048916 27.3010002,37.2258337 C27.3010002,41.5467759 23.7855747,45.0625005 19.4650002,45.0625005 Z" id="Fill-3" stroke="#000000" stroke-width="0.5"></path>
            <path d="M20.4478227,32.1646191 C20.4478227,31.6238891 20.0099489,31.1850357 19.4682394,31.1850357 C16.1386356,31.1850357 13.429108,33.8945632 13.429108,37.224167 C13.429108,37.764897 13.8669818,38.2037504 14.4086914,38.2037504 C14.950401,38.2037504 15.3882747,37.764897 15.3882747,37.224167 C15.3882747,34.9750437 17.2181364,33.1442024 19.4682394,33.1442024 C20.0099489,33.1442024 20.4478227,32.7053491 20.4478227,32.1646191" id="Fill-4"></path>
            <path d="M23.548204,37.224167 C23.548204,39.4732904 21.7183423,41.3041317 19.4682394,41.3041317 C18.9265298,41.3041317 18.488656,41.742985 18.488656,42.283715 C18.488656,42.824445 18.9265298,43.2632983 19.4682394,43.2632983 C22.7978431,43.2632983 25.5073707,40.5537708 25.5073707,37.224167 C25.5073707,36.683437 25.0694969,36.2445837 24.5277873,36.2445837 C23.9860777,36.2445837 23.548204,36.683437 23.548204,37.224167" id="Fill-5"></path>
            <path d="M13.4428222,16.1582272 C13.0480501,16.0396977 12.6287885,16.1778189 12.3819335,16.502061 L9.87322051,19.7944406 C9.54506009,20.2244777 9.62832468,20.8386765 10.0583618,21.1668369 C10.2356663,21.3020194 10.4443176,21.3676515 10.6510097,21.3676515 C10.9468439,21.3676515 11.2387597,21.2344281 11.430758,20.9816956 L13.5290255,18.2290664 L15.385336,18.7874289 C15.9045152,18.9422031 16.4501431,18.6493077 16.6058968,18.1320877 C16.760671,17.6138881 16.4677756,17.0672806 15.949576,16.9115268 L13.4428222,16.1582272" id="Fill-6"></path>
            <path d="M8.38915175,39.80341 L7.37626257,40.3843029 L2.71344586,36.5413974 L4.79408088,33.4204449 C5.03505838,33.0589787 5.00860963,32.5799624 4.7284488,32.2469041 L2.60079378,29.7137015 L4.82542755,25.9011632 C4.97824255,25.6376552 4.99979338,25.3173315 4.88420255,25.0352115 L3.23262503,21.0238177 L10.9968026,24.394564 C11.4924718,24.6090927 12.0694464,24.3808498 12.2849547,23.8861602 C12.5014426,23.3895115 12.2731997,22.8125369 11.7775305,22.5970286 L1.79753543,18.2643314 C1.43117126,18.1056389 1.00603209,18.1849852 0.72097334,18.4641664 C0.435914588,18.7433477 0.34873167,19.1675073 0.501546672,19.5358306 L2.88781169,25.3330048 L0.560321672,29.3228478 C0.352650003,29.6794161 0.390853754,30.1290449 0.657300423,30.4464299 L2.75654753,32.945347 L0.591668339,36.1907066 C0.31346667,36.6089887 0.395751671,37.1702899 0.784646258,37.4906137 L6.65333006,42.3268167 C6.83259382,42.4747337 7.05397965,42.5501617 7.27634507,42.5501617 C7.44385382,42.5501617 7.61136257,42.5080396 7.76417758,42.4208567 L9.36481676,41.5020075 C9.8330576,41.2326221 9.99566843,40.6340966 9.72628301,40.1648762 C9.45689759,39.6956558 8.85935175,39.533045 8.38915175,39.80341" id="Fill-7"></path>
            <path d="M12.4446268,8.20205133 C13.4741689,11.4630843 16.302226,17.4169918 20.7162285,20.7416977 C20.886676,20.8700231 21.0933681,20.938594 21.3049581,20.938594 C21.3578556,20.938594 21.4107531,20.9346756 21.4636506,20.9258594 C21.7281381,20.8817781 21.9632381,20.7328815 22.114094,20.5114956 C27.0012353,13.3507414 32.2909853,7.53985299 37.4142062,3.69792712 C39.9366333,2.59197753 43.2064825,1.95916669 46.4067813,1.95916669 C46.612555,1.95916669 46.9390828,1.95688099 47.3863646,1.9523096 C47.3863646,1.45891051 47.3863646,1.13466842 47.3863646,0.979583343 C47.3863646,0.797233962 47.3863646,0.470706181 47.3863646,0 C46.9117691,0 46.5852413,0 46.4067813,0 C42.8469754,0 39.3351691,0.693545007 36.5169079,1.9523096 C36.4512758,1.9816971 36.389562,2.01794169 36.3317666,2.06104335 C31.2203007,5.87260214 25.9687544,11.5532059 21.1002252,18.5307781 C17.0839335,15.0160331 14.5987306,9.03665634 14.0560414,6.68859507 C13.9894297,6.4045159 13.8013497,6.16549756 13.5407805,6.03423339 C13.2802114,5.90492839 12.975561,5.89513256 12.7091143,6.01268256 C10.8537834,6.82279798 9.01902384,6.8629609 7.40075216,6.12533464 C5.86476547,5.42591214 4.61873546,4.05743421 4.14755587,2.55377377 C3.98592462,2.03851294 3.43931712,1.74855627 2.92013795,1.91214669 C2.40389752,2.07377794 2.1168796,2.62332419 2.27851086,3.13956461 C2.91034211,5.1575063 4.56191963,6.98540882 6.58867756,7.90817633 C7.90033966,8.50670175 9.92611801,8.99257509 12.4446268,8.20205133 Z" id="Fill-8"></path>
            <path d="M46.4067813,5.63260422 C46.5694877,5.63260422 46.8960155,5.63260422 47.3863646,5.63260422 C47.3863646,5.17762311 47.3863646,4.85109533 47.3863646,4.65302088 C47.3863646,4.46553231 47.3863646,4.13900453 47.3863646,3.67343754 C46.9066206,3.67343754 46.5800928,3.67343754 46.4067813,3.67343754 C43.858885,3.67343754 41.3149071,4.11816837 39.046192,4.95963046 C38.9580295,4.99195672 38.8757445,5.03701755 38.8003166,5.0928538 C35.8831174,7.27340632 32.2713936,10.8978647 29.6010495,14.3264064 C28.5293853,15.7017414 28.4598349,17.5639293 29.4413774,18.9794273 C30.159412,20.0148469 31.3417691,20.632964 32.6034724,20.632964 L45.4271979,20.632964 L45.4271979,40.5919746 L31.0390778,40.5919746 C30.4983478,40.5919746 30.0594945,41.0298483 30.0594945,41.5715579 C30.0594945,42.1122879 30.4983478,42.5501617 31.0390778,42.5501617 L46.4067813,42.5501617 C46.9484909,42.5501617 47.3863646,42.1122879 47.3863646,41.5715579 L47.3863646,19.6533806 C47.3863646,19.111671 46.9484909,18.6737973 46.4067813,18.6737973 L32.6034724,18.6737973 C31.9833961,18.6737973 31.4034828,18.3701264 31.0371186,17.842131 C30.5600615,17.1554431 30.6041428,16.2267981 31.146832,15.5303143 C33.6849324,12.2722201 37.0899641,8.84073967 39.8592462,6.74737007 C41.8791471,6.01758048 44.1400254,5.63260422 46.4067813,5.63260422 Z" id="Fill-9"></path>
            <path d="M43.2231354,25.2242711 C43.764845,25.2242711 44.2027188,24.7854177 44.2027188,24.2446877 C44.2027188,23.7039577 43.764845,23.2651044 43.2231354,23.2651044 L37.682612,23.2651044 C37.1409024,23.2651044 36.7030287,23.7039577 36.7030287,24.2446877 C36.7030287,24.7854177 37.1409024,25.2242711 37.682612,25.2242711 L43.2231354,25.2242711" id="Fill-10"></path>
        </g>
</svg>