<svg viewBox="0 0 48 48" xmlns="http://www.w3.org/2000/svg" fill-rule="evenodd" clip-rule="evenodd" stroke-linejoin="round" stroke-miterlimit="1.414">
<path d="M36.8,32.1c-1.5,0-3-0.9-3.6-2.3h-0.4H11.2c-0.6,1.4-2,2.2-3.6,2.2c-1.6,0-3.1-1-3.7-2.5H3.6c-0.8,0-1.3-0.1-1.6-0.1
	c-1.3-0.2-1.2-1.2-1.2-1.8c0-0.5,0-0.9-0.1-1.4v-0.2c0-0.1,0-0.1,0-0.2C0.2,24.5,0.4,23,3.8,22c4.2-1.3,9.8-1.3,9.8-1.3
	c0.5,0,0.7,0,0.9-0.2c0.4-0.3,3.2-1.9,5.5-3.1c2.3-1.1,5.7-1.5,10-1.2c1.2,0.1,2.7,0.2,3.4-0.1c0.3-0.2,0.8-0.2,1.2,0
	c0.3,0.1,0.4,0.4,0.5,0.7c3.4,1.1,5.4,2.2,6.4,2.6c0.3,0.1,0.6,0.3,0.6,0.3c0.4,0.1,3.2,0.2,3.5,0.2c0.4-0.1,0.6,0.2,0.8,0.3
	l0.1,0.1c0.3,0.2,0.4,0.6,0.2,1c0.1,0.4,0.2,1.1,0.2,1.5c0.3,0.2,0.5,0.5,0.6,1.1l0,0c0.1,0.6,0.1,1.4,0,2.1
	c-0.1,1.2-1.3,2.1-2.4,2.3c-0.6,0.1-1.6,0.2-3,0.3l-1.3,0.1C40.1,30.8,38.6,32.1,36.8,32.1z"/>
<g>
	<path class="st0" d="M24.9,25.4v-0.5c-0.1-0.9,0.2-1.9,1-2.8c0.6-0.7,1.1-1.4,1.1-2.1s-0.5-1.2-1.4-1.2c-0.6,0-1.2,0.2-1.7,0.5
		l-0.5-1.5c0.6-0.4,1.6-0.7,2.7-0.7c2.1,0,3.1,1.2,3.1,2.6c0,1.2-0.7,2.1-1.5,3c-0.6,0.7-1,1.5-0.9,2.4v0.4h-2V25.4z M24.4,27.7
		c0-0.7,0.5-1.4,1.4-1.4c0.7,0,1.2,0.5,1.4,1.4c0,0.7-0.5,1.4-1.4,1.4C25.1,29.1,24.4,28.4,24.4,27.7z"/>
</g>
</svg>
