<svg viewBox="0 0 48 48" xmlns="http://www.w3.org/2000/svg" fill-rule="evenodd" clip-rule="evenodd" stroke-linejoin="round" stroke-miterlimit="1.414">
        <path d="M7.08920425,26.4495215 C7.97591172,26.4495215 8.69467952,27.1682893 8.69467952,28.054822 C8.69467952,28.9415295 7.97591172,29.660472 7.08920425,29.660472 C6.20249679,29.660472 5.48372899,28.9415295 5.48372899,28.054822 C5.48372899,27.1682893 6.20249679,26.4495215 7.08920425,26.4495215 Z M11.2511721,29.3383983 L33.247424,29.3383983 C33.1224741,28.932617 33.0550186,28.5016708 33.0550186,28.054822 C33.0550186,26.8525068 33.5424106,25.7641319 34.3303814,24.9761611 C35.1183523,24.1880155 36.2070766,23.7006235 37.4092171,23.7006235 C38.6115323,23.7006235 39.7000819,24.1880155 40.4880528,24.9761611 C41.2760236,25.7641319 41.7634156,26.8525068 41.7634156,28.054822 C41.7634156,28.2699456 41.7478624,28.4817488 41.7176298,28.6884841 C42.905615,28.6297663 44.8282708,28.5088358 45.7976375,28.3062946 C46.7250629,28.1123164 47.796137,27.227007 47.9165433,26.2637568 C48.0147557,25.4773588 48.0147557,24.6362624 47.9492225,24.1340162 C47.8836893,23.6315952 47.643401,23.3147642 47.2720464,23.1618535 C47.2720464,23.1618535 47.3485891,21.600067 47.0646121,21.2287124 C47.0646121,21.2287124 47.3595987,20.7371262 47.1083009,20.5733807 C46.857003,20.4094604 46.7343249,20.182803 46.4557653,20.2264918 C46.1772056,20.2701806 43.1680972,20.0789985 42.7093651,19.9862035 C42.2506329,19.8934085 40.2792204,18.517212 35.2550108,16.835194 C35.2550108,16.835194 35.0351688,16.7109431 35.007907,16.4159564 C34.9631697,15.9338071 34.315003,15.9315353 34.0030651,16.1048923 C33.2863944,16.5031592 31.736666,16.3892189 30.2297526,16.2740553 C27.0091906,16.0278253 23.0020557,16.0667957 20.0991985,17.4592445 C17.6636364,18.6274824 14.8673798,20.2990151 14.4523364,20.5940018 C14.037293,20.8888137 13.7150445,20.8615519 13.201614,20.8507171 C12.6883582,20.8397075 7.2272608,20.9817834 3.18604871,22.2050692 C-0.855163376,23.428355 0.0623009894,25.1759062 0.149678548,25.8312379 C0.237056107,26.4865696 0.308006684,26.9397096 0.297171867,27.5513525 C0.286162295,28.1629954 0.275327477,28.8074923 1.18178227,28.960403 C1.52727314,29.0187712 2.1834786,29.068926 2.86362552,29.1089449 C2.77956831,28.7714927 2.73500575,28.4183126 2.73500575,28.054822 C2.73500575,26.8525068 3.22239777,25.7641319 4.0103686,24.9761611 C4.79833942,24.1880155 5.88688905,23.7006235 7.08920425,23.7006235 C8.29151946,23.7006235 9.38006909,24.1880155 10.1680399,24.9761611 C10.9560107,25.7641319 11.4434028,26.8525068 11.4434028,28.054822 C11.4434028,28.5016708 11.376122,28.932617 11.2511721,29.3383983 Z M33.966716,17.5705635 L36.1529026,20.5427985 C36.9735526,20.1501238 37.5867683,19.4304822 36.8346223,18.6418124 C36.1971156,17.9731993 34.9074228,17.7573767 33.966716,17.5705635 Z M34.3558957,20.9075125 L32.8636617,17.3783329 C30.5347003,17.0206091 28.1192351,17.032143 27.5972415,17.0115219 L26.9747638,21.0581514 C26.9747638,21.0581514 33.1457165,20.9489294 34.1397236,20.9162502 C34.2110237,20.9138036 34.2830228,20.9108328 34.3558957,20.9075125 Z M7.08920425,24.399644 C9.10797537,24.399644 10.7443823,26.0362256 10.7443823,28.054822 C10.7443823,30.0735931 9.10797537,31.71 7.08920425,31.71 C5.07060789,31.71 3.43402622,30.0735931 3.43402622,28.054822 C3.43402622,26.0362256 5.07060789,24.399644 7.08920425,24.399644 Z M37.4092171,26.4495215 C38.2959246,26.4495215 39.0146924,27.1682893 39.0146924,28.054822 C39.0146924,28.9415295 38.2959246,29.660472 37.4092171,29.660472 C36.5226844,29.660472 35.8037418,28.9415295 35.8037418,28.054822 C35.8037418,27.1682893 36.5226844,26.4495215 37.4092171,26.4495215 Z M37.4092171,24.399644 C39.4279882,24.399644 41.0643951,26.0362256 41.0643951,28.054822 C41.0643951,30.0735931 39.4279882,31.71 37.4092171,31.71 C35.3906207,31.71 33.7540391,30.0735931 33.7540391,28.054822 C33.7540391,26.0362256 35.3906207,24.399644 37.4092171,24.399644 Z M18.1987366,21.01988 C18.1987366,21.01988 24.4900955,21.0635688 24.948653,21.052734 C24.948653,21.052734 25.9863489,18.5787258 26.3030051,17.0606281 C26.3030051,17.0606281 23.0373563,17.279072 21.4427158,17.8143469 C19.8480754,18.3494471 18.3346961,19.2775715 17.5870937,19.7857594 C16.8393165,20.2937725 17.163662,21.0965975 18.1987366,21.01988 Z"></path>
</svg>