<svg viewBox="0 0 48 48" xmlns="http://www.w3.org/2000/svg" fill-rule="evenodd" clip-rule="evenodd" stroke-linejoin="round" stroke-miterlimit="1.414">
        <path d="M44.8992908,0 L3.09929078,0 C1.39007092,0 0,1.39007092 0,3.09929078 L0,44.8992908 C0,46.6085106 1.39007092,48 3.09929078,48 L44.8992908,48 C46.6085106,48 47.9985816,46.6085106 47.9985816,44.8992908 L47.9985816,3.09929078 C47.9985816,1.39007092 46.6085106,0 44.8992908,0 Z M45.4368794,44.8992908 C45.4368794,45.187234 45.1900709,45.4340426 44.8992908,45.4340426 L3.09929078,45.4340426 C2.80992908,45.4340426 2.56453901,45.187234 2.56453901,44.8992908 L2.56453901,3.09929078 C2.56453901,2.80851064 2.80992908,2.56453901 3.09929078,2.56453901 L44.8992908,2.56453901 C45.1900709,2.56453901 45.4368794,2.80851064 45.4368794,3.09929078 L45.4368794,44.8992908 Z M36.9007092,8.01985816 C34.3078014,8.01985816 32.1971631,10.1304965 32.1971631,12.7262411 C32.1971631,14.8765957 33.648227,16.6879433 35.6212766,17.248227 L35.6212766,22.7163121 L25.2822695,22.7163121 L25.2822695,17.248227 C27.2567376,16.6879433 28.706383,14.8765957 28.706383,12.7262411 C28.706383,10.1304965 26.5957447,8.01985816 24,8.01985816 C21.4056738,8.01985816 19.2921986,10.1304965 19.2921986,12.7262411 C19.2921986,14.8765957 20.7446809,16.6879433 22.7163121,17.248227 L22.7163121,22.7163121 L12.3801418,22.7163121 L12.3801418,17.248227 C14.3531915,16.6879433 15.8042553,14.8737589 15.8042553,12.7262411 C15.8042553,10.1304965 13.693617,8.01985816 11.0978723,8.01985816 C8.5035461,8.01985816 6.3929078,10.1304965 6.3929078,12.7262411 C6.3929078,14.8765957 7.84255319,16.6879433 9.81702128,17.248227 L9.81702128,30.7475177 C7.84255319,31.3078014 6.3929078,33.1219858 6.3929078,35.2723404 C6.3929078,37.8680851 8.5035461,39.9787234 11.0978723,39.9787234 C13.693617,39.9787234 15.8042553,37.8680851 15.8042553,35.2723404 C15.8042553,33.1219858 14.3531915,31.3078014 12.3801418,30.7475177 L12.3801418,25.2794326 L22.7163121,25.2794326 L22.7163121,30.7475177 C20.7446809,31.3078014 19.2921986,33.1219858 19.2921986,35.2723404 C19.2921986,37.8680851 21.4056738,39.9787234 24,39.9787234 C26.5957447,39.9787234 28.706383,37.8680851 28.706383,35.2723404 C28.706383,33.1219858 27.2567376,31.3078014 25.2822695,30.7475177 L25.2822695,25.2794326 L36.9007092,25.2794326 C37.6099291,25.2794326 38.1843972,24.706383 38.1843972,24 L38.1843972,17.248227 C40.1560284,16.6879433 41.6085106,14.8765957 41.6085106,12.7262411 C41.6085106,10.1304965 39.4964539,8.01985816 36.9007092,8.01985816 Z M13.5602837,35.2723404 C13.5602837,36.6297872 12.4553191,37.7347518 11.0978723,37.7347518 C9.74042553,37.7347518 8.63546099,36.6297872 8.63546099,35.2723404 C8.63546099,33.9148936 9.74042553,32.8099291 11.0978723,32.8099291 C12.4553191,32.8099291 13.5602837,33.9148936 13.5602837,35.2723404 Z M11.0978723,15.187234 C9.74042553,15.187234 8.63546099,14.0808511 8.63546099,12.7262411 C8.63546099,11.3659574 9.74042553,10.2638298 11.0978723,10.2638298 C12.4553191,10.2638298 13.5602837,11.3659574 13.5602837,12.7262411 C13.5602837,14.0808511 12.4553191,15.187234 11.0978723,15.187234 Z M26.4624113,35.2723404 C26.4624113,36.6297872 25.3602837,37.7347518 24,37.7347518 C22.6411348,37.7347518 21.5361702,36.6297872 21.5361702,35.2723404 C21.5361702,33.9148936 22.6411348,32.8099291 24,32.8099291 C25.3602837,32.8099291 26.4624113,33.9148936 26.4624113,35.2723404 Z M24,15.187234 C22.6411348,15.187234 21.5361702,14.0808511 21.5361702,12.7262411 C21.5361702,11.3659574 22.6411348,10.2638298 24,10.2638298 C25.3602837,10.2638298 26.4624113,11.3659574 26.4624113,12.7262411 C26.4624113,14.0808511 25.3602837,15.187234 24,15.187234 Z M36.9007092,15.187234 C35.5432624,15.187234 34.4411348,14.0808511 34.4411348,12.7262411 C34.4411348,11.3659574 35.5432624,10.2638298 36.9007092,10.2638298 C38.2609929,10.2638298 39.364539,11.3659574 39.364539,12.7262411 C39.364539,14.0808511 38.2609929,15.187234 36.9007092,15.187234 Z M36.9007092,30.564539 C34.3078014,30.564539 32.1971631,32.6765957 32.1971631,35.2723404 C32.1971631,37.8680851 34.3078014,39.9787234 36.9007092,39.9787234 C39.4964539,39.9787234 41.6085106,37.8680851 41.6085106,35.2723404 C41.6085106,32.6765957 39.4964539,30.564539 36.9007092,30.564539 Z M36.9007092,37.7347518 C35.5432624,37.7347518 34.4411348,36.6297872 34.4411348,35.2723404 C34.4411348,33.9148936 35.5432624,32.8099291 36.9007092,32.8099291 C38.2609929,32.8099291 39.364539,33.9148936 39.364539,35.2723404 C39.364539,36.6297872 38.2609929,37.7347518 36.9007092,37.7347518 Z"></path>
</svg>