<svg viewBox="0 0 48 48" xmlns="http://www.w3.org/2000/svg" fill-rule="evenodd" clip-rule="evenodd" stroke-linejoin="round" stroke-miterlimit="1.414">
        <path d="M12.2093158,30.2663942 L36.0793169,30.2663942 C35.9435346,29.8260498 35.8705232,29.3583973 35.8705232,28.8734875 C35.8705232,27.5687636 36.3994295,26.3876849 37.2545167,25.5325977 C38.109604,24.6773207 39.2908723,24.1484145 40.5955963,24.1484145 C41.9003202,24.1484145 43.0815885,24.6773207 43.9366758,25.5325977 C44.7917631,26.3876849 45.3206693,27.5687636 45.3206693,28.8734875 C45.3206693,29.1069345 45.3036017,29.3367783 45.270794,29.5611226 C45.6356616,29.5330559 45.9087433,29.531918 46.2849893,29.4306502 C47.2775657,29.1636369 47.7899732,28.2596225 47.9206353,27.2141365 C48.0270234,26.3609457 48.027213,25.4482078 47.956098,24.9029925 C47.8849829,24.3577771 47.6242278,24.0139596 47.2212425,23.8480245 C47.2212425,23.8480245 47.3043049,22.1534005 46.9961397,21.7504152 C43.2255254,17.0166187 38.7263137,16.397823 32.8046115,16.0892786 C29.3044239,15.9070344 24.9610964,15.8643654 21.8109844,17.3754178 C19.1679702,18.643162 16.1335387,20.4570696 15.6831434,20.7771822 C15.2327482,21.097105 14.8832414,21.0675212 14.3260788,21.0557635 C13.7691058,21.0438162 7.84285222,21.1979936 3.45742459,22.5254744 C-0.928003039,23.8529552 0.0676075579,25.7493563 0.162427615,26.4605067 C0.257247672,27.1716572 0.334241558,27.663394 0.322294231,28.3271344 C0.310536544,28.9908748 0.298589216,29.6902675 1.28244213,29.8562026 C1.65717099,29.9195424 2.36945926,29.9739691 3.10734894,30.0173967 C3.01632169,29.6512016 2.96796346,29.267939 2.96796346,28.8734875 C2.96796346,27.5687636 3.49686973,26.3876849 4.35195701,25.5325977 C5.20704428,24.6773207 6.38831255,24.1484145 7.69303653,24.1484145 C8.99776051,24.1484145 10.1788391,24.6773207 11.0341161,25.5325977 C11.8892033,26.3876849 12.4181096,27.5687636 12.4181096,28.8734875 C12.4181096,29.3583973 12.3449085,29.8260498 12.2093158,30.2663942 Z M36.8589275,17.4852194 L39.2994061,20.9423587 C40.2077822,20.8439355 41.7046116,20.6030925 42.3528015,19.9996577 C42.7385295,19.640669 41.0194419,17.9174092 36.8589275,17.4852194 Z M37.2566028,21.1183447 L35.6585055,17.2775635 C33.1400848,16.8935423 30.5359468,16.9058689 29.9715778,16.8834913 L29.2723747,21.2808663 C29.2723747,21.2808663 35.9689464,21.1623412 37.0476194,21.1268785 C37.1164587,21.1246028 37.1862463,21.1217582 37.2566028,21.1183447 Z M7.69303653,27.1314535 C8.65508083,27.1314535 9.43526025,27.9114432 9.43526025,28.8734875 C9.43526025,29.8357215 8.65508083,30.6159009 7.69303653,30.6159009 C6.73080259,30.6159009 5.9508128,29.8357215 5.9508128,28.8734875 C5.9508128,27.9114432 6.73080259,27.1314535 7.69303653,27.1314535 Z M7.69303653,24.9069749 C9.88356948,24.9069749 11.6595491,26.6829546 11.6595491,28.8734875 C11.6595491,31.0642101 9.88356948,32.8400002 7.69303653,32.8400002 C5.50231394,32.8400002 3.72652391,31.0642101 3.72652391,28.8734875 C3.72652391,26.6829546 5.50231394,24.9069749 7.69303653,24.9069749 Z M40.5955963,27.1314535 C41.5578302,27.1314535 42.33782,27.9114432 42.33782,28.8734875 C42.33782,29.8357215 41.5578302,30.6159009 40.5955963,30.6159009 C39.6333623,30.6159009 38.8533725,29.8357215 38.8533725,28.8734875 C38.8533725,27.9114432 39.6333623,27.1314535 40.5955963,27.1314535 Z M40.5955963,24.9069749 C42.7861292,24.9069749 44.5621089,26.6829546 44.5621089,28.8734875 C44.5621089,31.0642101 42.7861292,32.8400002 40.5955963,32.8400002 C38.4048737,32.8400002 36.6290836,31.0642101 36.6290836,28.8734875 C36.6290836,26.6829546 38.4048737,24.9069749 40.5955963,24.9069749 Z M19.7488378,21.2393351 C19.7488378,21.2393351 26.5758819,21.2867451 27.0736872,21.2749875 C27.0736872,21.2749875 28.2232856,18.5841839 28.5671031,16.9369699 C28.5671031,16.9369699 25.0231087,17.17402 23.2926426,17.754698 C21.5621766,18.3355657 19.8963778,19.3486232 19.0850974,19.9000966 C18.2736274,20.4513804 18.6254098,21.3225871 19.7488378,21.2393351 Z"></path>
</svg>