<svg viewBox="0 0 48 48" xmlns="http://www.w3.org/2000/svg" fill-rule="evenodd" clip-rule="evenodd" stroke-linejoin="round" stroke-miterlimit="1.414">
        <path d="M16.8488284,22.0991641 C16.8488284,22.0991641 23.1589221,22.1076272 24.9293541,22.1020451 C25.4684164,22.1006046 25.3710607,21.7658625 25.3620463,21.2157618 C25.3494261,20.3907008 25.3259886,18.995732 25.3584405,17.6364161 C25.3692578,17.1596022 25.4557962,16.6501963 24.9834407,16.7058366 C23.9864458,16.8230594 21.3181776,17.1648241 20.1138512,17.595001 C18.6174575,18.129616 17.2544773,19.3067054 16.5513526,19.8143106 C15.8500307,20.3219157 15.877074,22.175692 16.8488284,22.0991641 Z M37.0843975,26.2874919 C39.1667284,26.2874919 40.8542278,27.9738071 40.8542278,30.0537458 C40.8542278,32.1336845 39.1667284,33.8199997 37.0843975,33.8199997 C35.0002637,33.8199997 33.3127644,32.1336845 33.3127644,30.0537458 C33.3127644,27.9738071 35.0002637,26.2874919 37.0843975,26.2874919 Z M37.0843975,28.3994823 C37.9984597,28.3994823 38.7394449,29.1400925 38.7394449,30.0537458 C38.7394449,30.9673991 37.9984597,31.7080093 37.0843975,31.7080093 C36.1685325,31.7080093 35.4275472,30.9673991 35.4275472,30.0537458 C35.4275472,29.1400925 36.1685325,28.3994823 37.0843975,28.3994823 Z M7.65231755,26.2874919 C9.73464848,26.2874919 11.4221478,27.9738071 11.4221478,30.0537458 C11.4221478,32.1336845 9.73464848,33.8199997 7.65231755,33.8199997 C5.56818374,33.8199997 3.88068439,32.1336845 3.88068439,30.0537458 C3.88068439,27.9738071 5.56818374,26.2874919 7.65231755,26.2874919 Z M7.65231755,28.3994823 C8.5663797,28.3994823 9.30736499,29.1400925 9.30736499,30.0537458 C9.30736499,30.9673991 8.5663797,31.7080093 7.65231755,31.7080093 C6.73645252,31.7080093 5.99546723,30.9673991 5.99546723,30.0537458 C5.99546723,29.1400925 6.73645252,28.3994823 7.65231755,28.3994823 Z M11.9449842,31.3761482 L32.789928,31.3761482 C32.6619233,30.9582157 32.5916108,30.5139937 32.5916108,30.0537458 C32.5916108,28.815074 33.0946154,27.6932647 33.907716,26.8813486 C34.7208167,26.0696124 35.8440134,25.5672292 37.0843975,25.5672292 C38.3247816,25.5672292 39.4461754,26.0696124 40.2592761,26.8813486 C41.0723767,27.6932647 41.5753814,28.815074 41.5753814,30.0537458 C41.5753814,30.2755867 41.5591554,30.4934662 41.5285064,30.7064839 C42.7544674,30.6461619 44.7376397,30.5213764 45.7382403,30.3126803 C46.6937688,30.1131675 47.7989366,29.2007747 47.9233356,28.2080725 C48.0242971,27.3977769 48.0242971,26.5313009 47.9575904,26.013612 C47.8890808,25.4959232 47.6420857,25.1694641 47.2580715,25.0119066 C47.3085522,21.2931901 47.234634,17.45509 47.234634,13.729711 C47.234634,12.778424 46.4557881,12 45.5020625,12 L28.4143288,12 C27.4606032,12 26.6817573,12.778424 26.6817573,13.729711 L26.6817573,15.5899696 C26.6006275,15.5908699 26.5176949,15.5932108 26.4275507,15.5968121 C23.3896913,15.7224979 20.7250288,16.0788479 19.1348852,16.8403457 C16.6234679,18.0437247 13.5351278,20.5768888 13.1060414,20.8804795 C11.6204651,21.9349442 -0.54359274,20.6912305 0.0189070421,24.9038672 C0.109051238,25.5791135 0.408329968,27.1716144 0.395709781,27.8018443 C0.384892477,28.4320742 0.550757798,29.5050857 1.12948354,29.9514685 C1.70640639,30.3978513 2.58981951,31.098667 3.29294424,31.139902 C3.20640581,30.7920151 3.15953083,30.4282824 3.15953083,30.0537458 C3.15953083,28.815074 3.66253544,27.6932647 4.47563609,26.8813486 C5.28873673,26.0696124 6.41193342,25.5672292 7.65231755,25.5672292 C8.89270169,25.5672292 10.0140955,26.0696124 10.8271961,26.8813486 C11.6402968,27.6932647 12.1433014,28.815074 12.1433014,30.0537458 C12.1433014,30.5139937 12.0747918,30.9582157 11.9449842,31.3761482 Z" id="Fill-40"></path>
</svg>