<svg viewBox="0 0 48 48" xmlns="http://www.w3.org/2000/svg" fill-rule="evenodd" clip-rule="evenodd" stroke-linejoin="round" stroke-miterlimit="1.414">
        <g transform="translate(0.000000, 5.000000)">
            <path d="M26.7254536,13.8378132 C26.7254536,13.8378132 26.5949895,13.5116529 26.4737563,12.9516417 L13.2433398,12.9516417 L15.3923056,8.27277962 C16.4212491,8.0432366 19.4982332,7.81923216 24.0170922,7.78846231 C25.0331124,7.79523168 25.9715925,7.81246279 26.8343789,7.83646327 C27.1223846,7.03460119 27.54947,6.1970461 28.1494819,5.34902927 C27.0060746,5.3047207 25.6454322,5.27456625 24.0170922,5.26348911 C15.0230675,5.32502879 14.1141264,5.97365705 13.7264264,6.25058563 C13.5473459,6.37797277 13.4045738,6.55089928 13.3122643,6.75090325 L10.1275857,13.6876564 C9.9478898,14.0784333 9.97989044,14.533827 10.2125104,14.8956803 C10.444515,15.2575337 10.8451384,15.4772303 11.2746854,15.4772303 L25.0349585,15.4772303 L26.7254536,13.8378132"></path>
            <path d="M45.3172074,16.8009489 L43.4088618,18.4791361 C43.5331719,18.6003693 43.6630207,18.7172947 43.8070235,18.8225275 C44.7651964,19.5216183 45.1559734,20.248402 45.1559734,21.3321158 L45.1559734,35.9564061 L40.5183429,35.9564061 L40.5183429,33.8855958 C40.5183429,33.1883512 39.9534086,32.6234169 39.256164,32.6234169 L8.79586693,32.6234169 C8.09862232,32.6234169 7.53307263,33.1883512 7.53307263,33.8855958 L7.53307263,35.9564061 L2.8954421,35.9564061 L2.8954421,21.3321158 C2.8954421,20.248402 3.28621909,19.5216183 4.24500735,18.8219121 C6.01427325,17.5308096 6.24012388,14.8556795 6.25981658,14.5547505 C6.29981738,13.9473538 5.90104023,13.3978044 5.31087467,13.2476476 C4.2166991,12.9694882 3.19760194,12.479017 2.77605511,12.1294716 C3.33237385,11.697463 4.69670863,11.1448366 5.31887482,11.1448366 C5.3810299,11.1448366 5.46595467,11.1448366 5.50287848,11.2494541 C5.59826499,11.7934649 6.03519674,12.2119347 6.58289992,12.2839362 C7.1299877,12.350399 7.66045977,12.0623933 7.89246438,11.5620757 C10.7177512,5.45426213 11.8506968,4.30716243 12.0919324,4.11454322 C12.1196252,4.10654306 12.1460873,4.09854291 12.1725494,4.08931195 C12.20455,4.07885021 15.4827689,2.98467464 24.0257077,2.98467464 C26.4879105,2.98467464 28.4996427,3.07636877 30.1347521,3.2062175 C31.548934,2.0978878 33.1901974,1.515107 34.8019217,1.24740938 C32.9015763,0.891094614 29.4818161,0.459701434 24.0257077,0.459701434 C15.77139,0.459701434 12.1547028,1.44925954 11.455612,1.66772542 C10.5325168,1.8461905 9.31710805,2.76251638 6.3915115,8.82602137 C6.0819669,8.69740344 5.72503673,8.61986344 5.31887482,8.61986344 C4.20131418,8.61986344 1.53356891,9.46664948 0.529856673,10.8488308 C0.108925239,11.42915 -0.0123079367,12.0876246 0.188926828,12.7042522 C0.632012547,14.0587406 2.32435384,14.9012189 3.56437845,15.3486124 C3.40929845,15.9037003 3.1483702,16.4969429 2.75697781,16.782487 C1.15079208,17.9535872 0.370468893,19.4422321 0.370468893,21.3321158 L0.370468893,36.1071784 C0.370468893,37.3939731 1.48126018,38.4813793 2.79636321,38.4813793 L7.68322946,38.4813793 C8.99279392,38.4813793 10.0580458,37.4161274 10.0580458,36.1071784 L10.0580458,35.1483901 L37.9933697,35.1483901 L37.9933697,36.1071784 C37.9933697,37.4161274 39.059237,38.4813793 40.368186,38.4813793 L45.2550523,38.4813793 C46.5701553,38.4813793 47.6809466,37.3939731 47.6809466,36.1071784 L47.6809466,21.3321158 C47.6809466,19.4502323 46.9067774,17.9683567 45.3172074,16.8009489"></path>
            <path d="M10.5319014,23.9426292 C10.5319014,24.6521817 9.95465917,25.2294239 9.24572201,25.2294239 C8.53616947,25.2294239 7.95954263,24.6521817 7.95954263,23.9426292 C7.95954263,23.2324612 8.53616947,22.6558344 9.24572201,22.6558344 C9.95465917,22.6558344 10.5319014,23.2324612 10.5319014,23.9426292 Z M5.43456943,23.9426292 C5.43456943,26.0442094 7.14414183,27.7543972 9.24572201,27.7543972 C11.3473022,27.7543972 13.05749,26.0442094 13.05749,23.9426292 C13.05749,21.8404336 11.3473022,20.1302458 9.24572201,20.1302458 C7.14414183,20.1302458 5.43456943,21.8404336 5.43456943,23.9426292 Z"></path>
            <path d="M38.8063089,25.2294239 C38.0967563,25.2294239 37.5195141,24.6521817 37.5195141,23.9426292 C37.5195141,23.2324612 38.0967563,22.6558344 38.8063089,22.6558344 C39.515246,22.6558344 40.0918729,23.2324612 40.0918729,23.9426292 C40.0918729,24.6521817 39.515246,25.2294239 38.8063089,25.2294239 Z M38.8063089,20.1302458 C36.7041133,20.1302458 34.9939255,21.8404336 34.9939255,23.9426292 C34.9939255,26.0442094 36.7041133,27.7543972 38.8063089,27.7543972 C40.9072737,27.7543972 42.6168461,26.0442094 42.6168461,23.9426292 C42.6168461,21.8404336 40.9072737,20.1302458 38.8063089,20.1302458 Z"></path>
            <path d="M36.3699528,6.0228888 L34.0923691,8.30047248 C33.9963672,8.39647438 33.9188272,8.50786121 33.8615953,8.63094058 C33.8142098,8.73371185 32.7292651,11.1632985 35.0425418,13.4765752 C36.2641046,14.6987533 37.5262835,14.9553738 38.3699925,14.9553738 C39.2057014,14.9553738 39.7823282,14.7079843 39.8894073,14.6587526 C40.0118713,14.6015206 40.1238735,14.5239806 40.2198754,14.4279787 L42.4993053,12.1479335 C42.402688,13.4950371 41.8291381,14.7855243 40.8389646,15.7756978 C39.7620202,16.8526423 38.3287609,17.4458848 36.8025768,17.4458848 C36.142256,17.4458848 35.4930123,17.3338826 34.8733077,17.1135705 C34.4548379,16.9664907 33.9889825,17.0711081 33.6745147,17.3849605 L22.351213,28.7088776 L19.8114702,26.1685195 L31.134772,14.8458332 C31.4486243,14.5319808 31.5544726,14.0648946 31.406162,13.6464248 C30.6689166,11.571922 31.1944654,9.23033709 32.7440347,7.68076787 C33.7243618,6.70044071 34.9988487,6.1207369 36.3699528,6.0228888 Z M29.0208838,13.7048875 L17.370191,25.3549649 C16.9209513,25.8042046 16.9209513,26.5328344 17.370191,26.9820741 L21.537043,31.1501569 C21.7530472,31.3661612 22.0453607,31.4873943 22.3505976,31.4873943 C22.6558344,31.4873943 22.9487633,31.3667766 23.1647676,31.1501569 L34.814845,19.499464 C35.4628579,19.6643904 36.1287173,19.747469 36.8025768,19.747469 C38.9435424,19.747469 40.9552746,18.9154524 42.4660738,17.4034224 C44.5842697,15.2858419 45.343054,12.1916267 44.4470362,9.32756979 C44.3264185,8.94356217 44.0137969,8.65001788 43.6230199,8.55340058 C43.2328583,8.45924486 42.8193116,8.57370867 42.5343829,8.85740661 L38.7853854,12.6076349 C38.6850757,12.6304046 38.5416882,12.6537897 38.3699925,12.6537897 C37.7755192,12.6537897 37.2032001,12.3830151 36.6702665,11.8488506 C35.7496328,10.9288324 35.825942,10.0765077 35.906559,9.74173186 L39.6617105,5.98534959 C39.9466392,5.70042086 40.0617184,5.28810498 39.9663319,4.8967126 C39.8697146,4.50593561 39.5761703,4.19331402 39.1921627,4.07269624 C38.4130703,3.82961449 37.6038235,3.70591973 36.7859611,3.70591973 C34.6437647,3.70591973 32.6301863,4.53978243 31.11631,6.05365864 C29.1181165,8.05123676 28.3334856,10.9860643 29.0208838,13.7048875 Z"></path>
        </g>
</svg>