<svg viewBox="0 0 48 48" xmlns="http://www.w3.org/2000/svg" fill-rule="evenodd" clip-rule="evenodd" stroke-linejoin="round" stroke-miterlimit="1.414">
       <path d="M5.0158842,26.1778854 C5.64314013,26.1778854 6.15181959,26.6864412 6.15181959,27.3138208 C6.15181959,27.9412004 5.64314013,28.4497562 5.0158842,28.4497562 C4.38850462,28.4497562 3.87994881,27.9412004 3.87994881,27.3138208 C3.87994881,26.6864412 4.38850462,26.1778854 5.0158842,26.1778854 Z M7.96063626,28.2218767 L37.5573976,28.2218767 C37.469609,27.9347708 37.4213871,27.6298599 37.4213871,27.3138208 C37.4213871,26.4631367 37.7663593,25.692946 38.3240025,25.1354264 C38.8816458,24.5779068 39.6519601,24.2330582 40.5026443,24.2330582 C41.3533284,24.2330582 42.1236427,24.5779068 42.6800495,25.1354264 C43.2376928,25.692946 43.582665,26.4631367 43.582665,27.3138208 C43.582665,27.466029 43.5715369,27.6157642 43.550517,27.7621611 C44.3913095,27.720616 45.751415,27.6348057 46.4376501,27.4916237 C47.0929737,27.3545003 47.8509234,26.7279863 47.9362391,26.0465734 C48.0054808,25.4901666 48.0067173,24.894935 47.9597318,24.5395765 C47.9139828,24.1840944 47.7433514,23.9600479 47.481222,23.8518577 C47.481222,23.8518577 47.5343897,22.7467102 47.3340833,22.4839625 C47.5887939,22.0599805 46.7776765,21.7363991 46.531621,21.7749766 C46.335024,21.8058881 44.5767785,21.6706194 44.2528261,21.6049634 C38.3017463,20.4013937 41.7712518,18.936931 35.3917387,19.0132206 C33.6731836,19.0337458 25.4494911,18.9645041 19.1946132,19.026327 C16.740241,19.0505616 14.8302819,19.5246202 14.220831,19.8170429 C12.4977009,20.6434925 10.5191184,21.8262897 10.2254592,22.0348804 C9.93180008,22.2435948 9.70392059,22.2241824 9.34064877,22.2165163 C8.9775006,22.2087266 5.1135645,22.3092508 2.25425179,23.1747725 C-0.605060922,24.0402942 0.044080342,25.2767537 0.10590332,25.740426 C0.167726297,26.2040984 0.217926555,26.524836 0.21013686,26.9575968 C0.202470811,27.3903577 0.194681115,27.8462403 0.83615633,27.9544305 C1.08048074,27.9957283 1.54489495,28.0312147 2.02600136,28.0596532 C1.9666513,27.8207692 1.93512158,27.5710044 1.93512158,27.3138208 C1.93512158,26.4631367 2.27997015,25.692946 2.83748976,25.1354264 C3.39500937,24.5779068 4.16520003,24.2330582 5.0158842,24.2330582 C5.86656837,24.2330582 6.63675902,24.5779068 7.19427863,25.1354264 C7.75179825,25.692946 8.09664681,26.4631367 8.09664681,27.3138208 C8.09664681,27.6298599 8.04891948,27.9347708 7.96063626,28.2218767 Z M35.7944536,19.5556554 L37.5339049,22.2691895 C37.6872259,22.2548466 39.3218254,22.1847393 39.5567527,22.1689126 C41.2222637,22.0566421 41.2915054,21.9435061 40.1650908,20.867168 C39.6915268,20.4146238 39.3119337,20.0881985 38.7703644,19.9210292 C37.5821268,19.553677 36.4965153,19.5769225 35.7944536,19.5556554 Z M5.0158842,24.727642 C6.44411862,24.727642 7.60206299,25.8855864 7.60206299,27.3138208 C7.60206299,28.7420552 6.44411862,29.8999996 5.0158842,29.8999996 C3.58752612,29.8999996 2.4297054,28.7420552 2.4297054,27.3138208 C2.4297054,25.8855864 3.58752612,24.727642 5.0158842,24.727642 Z M40.5026443,26.1778854 C41.1295292,26.1778854 41.6377141,26.6864412 41.6377141,27.3138208 C41.6377141,27.9412004 41.1295292,28.4497562 40.5026443,28.4497562 C39.8745228,28.4497562 39.3663379,27.9412004 39.3663379,27.3138208 C39.3663379,26.6864412 39.8745228,26.1778854 40.5026443,26.1778854 Z M40.5026443,24.727642 C41.930755,24.727642 43.0880812,25.8855864 43.0880812,27.3138208 C43.0880812,28.7420552 41.930755,29.8999996 40.5026443,29.8999996 C39.0745335,29.8999996 37.9159709,28.7420552 37.9159709,27.3138208 C37.9159709,25.8855864 39.0745335,24.727642 40.5026443,24.727642 Z M29.2784354,22.3088799 L28.8628613,19.4985309 C31.7582787,19.4985309 34.4188923,19.5112665 35.1144008,19.5588702 L36.3016493,22.2567013 C36.2502126,22.2591742 36.5261903,22.2503953 36.1488229,22.2628836 C35.9841265,22.268324 32.804818,22.288231 29.2784354,22.3088799 Z M23.2699838,22.3431298 L23.6891436,19.508299 C21.6817515,19.5143576 20.1887266,19.5204163 20.067059,19.5155941 L19.6266321,22.3632841 C19.6266321,22.3632841 21.1492084,22.3551234 23.2699838,22.3431298 Z M24.3487948,19.506197 L24.289692,22.3374421 C25.5291191,22.3305179 26.9028256,22.3226046 28.2634257,22.3148149 L28.2046939,19.4986546 C26.8876172,19.4995201 25.5495207,19.5027349 24.3487948,19.506197 Z M12.8763049,22.3363293 C12.8763049,22.3363293 17.8685103,22.3672407 18.1930809,22.359451 C18.1930809,22.359451 18.927167,20.6091189 19.1513371,19.5348828 C19.1513371,19.5348828 16.2996904,19.6894403 15.1714211,20.0681679 C14.0431517,20.4467718 12.9725014,21.1035791 12.443544,21.4630179 C11.914463,21.8224567 12.1439499,22.3904862 12.8763049,22.3363293 Z"></path>
</svg>