<svg viewBox="0 0 48 48" xmlns="http://www.w3.org/2000/svg" fill-rule="evenodd" clip-rule="evenodd" stroke-linejoin="round" stroke-miterlimit="1.414">
        <path d="M41.1556174,37.9884522 L38.8403478,37.9884522 C39.6613565,36.2028522 40.0649739,33.9961043 39.7540174,32.4066783 L37.5577043,23.4974609 L37.044313,16.2102261 L47.6598261,5.59429565 L46.4790261,4.41391304 L29.8472348,21.0469565 L26.9538783,18.1540174 L43.5869217,1.52097391 L42.4065391,0.340173913 L34.9097739,7.83735652 C34.0545391,7.02928696 32.9638957,6.50295652 31.7680696,6.40987826 L31.5986087,6.40737391 C31.9872,4.944 31.9492174,2.90713043 31.3861565,1.63951304 C30.9165913,0.58226087 30.1081043,0 29.109287,0 L19.0409739,0 C18.0425739,0 17.234087,0.581843478 16.7645217,1.63909565 C16.2018783,2.90671304 16.1638957,4.944 16.5516522,6.40737391 L16.3930435,6.40987826 C13.7647304,6.61481739 11.6322783,8.89627826 11.4331826,11.7174261 L10.6034087,23.4974609 L8.39833043,32.4463304 C8.2848,33.0281739 8.27269565,33.7001739 8.34114783,34.4055652 L0,42.7462957 L1.1808,43.9270957 L18.0183652,27.089113 L20.9117217,29.9820522 L4.07415652,46.8196174 L5.25453913,48 L7.24382609,46.010713 C8.26226087,47.1735652 9.78114783,48 12.0968348,48 L36.0638609,48 C41.6965565,48 42.535513,43.3548522 43.0910609,40.2803478 C43.1937391,39.7085217 43.0359652,39.1258435 42.6578087,38.6809043 C42.2825739,38.2409739 41.7349565,37.9884522 41.1556174,37.9884522 Z M18.290087,2.31652174 C18.578087,1.66956522 18.9024,1.66956522 19.0409739,1.66956522 L29.109287,1.66956522 C29.2478609,1.66956522 29.5730087,1.66956522 29.8601739,2.31735652 C30.3902609,3.51109565 30.1986783,5.5826087 29.8543304,6.40737391 L18.2963478,6.40737391 C17.952,5.5826087 17.76,3.51067826 18.290087,2.31652174 Z M10.0570435,32.6896696 L12.2416696,23.8272 L13.0985739,11.834713 C13.2392348,9.84333913 14.695513,8.23387826 16.4923826,8.07693913 L31.6691478,8.07693913 C32.448,8.14497391 33.1621565,8.4864 33.7339826,9.01314783 L25.7734957,16.9732174 L24.4023652,15.602087 L15.467687,24.5380174 L16.8379826,25.9087304 L10.0570435,32.6896696 Z M17.8284522,24.5380174 L24.4023652,17.963687 L30.0371478,23.5980522 L23.4632348,30.1723826 L17.8284522,24.5380174 Z M22.0921043,31.1624348 L23.4632348,32.5331478 L32.397913,23.5980522 L31.0276174,22.2273391 L35.4807652,17.7737739 L35.8973217,23.6865391 L38.1245217,32.7660522 C38.4429913,34.3984696 37.6432696,37.2776348 36.4791652,38.6913391 C36.1690435,39.0669913 35.6923826,39.5148522 35.1781565,39.5148522 L13.7392696,39.5148522 L22.0921043,31.1624348 Z M36.0638609,46.3304348 L12.0968348,46.3304348 C10.3350261,46.3304348 9.19387826,45.7661217 8.41627826,44.8382609 L12.0697043,41.1844174 L36.554713,41.1844174 L38.2564174,39.6580174 L41.1556174,39.6580174 C41.243687,39.6580174 41.3305043,39.6976696 41.3868522,39.7632 C41.4394435,39.8253913 41.4619826,39.9063652 41.4482087,39.9844174 C40.7766261,43.7000348 39.9973565,46.3304348 36.0638609,46.3304348 Z" id="Fill-108"></path>
</svg>