<svg viewBox="0 0 48 48" xmlns="http://www.w3.org/2000/svg" fill-rule="evenodd" clip-rule="evenodd" stroke-linejoin="round" stroke-miterlimit="1.414">
<path d="M48,27.9c-0.3-1.1-0.6-2.2-0.9-3.3c0-0.1,0-0.3,0-0.4c0-0.5,0-0.4-0.2-0.9c-0.2-0.4-0.4-0.7-0.6-1.1
	c-0.2-0.4-0.2-0.6,0.2-0.7c0.2-0.1,0.5-0.2,0.7-0.3c0.4-0.2,0.3-0.2,0.2-0.7c-0.1-0.4-0.1-1-0.5-1.1c-0.2-0.1-0.4-0.1-0.6-0.1
	c-0.1,0-0.3,0-0.3,0.1s0,0.2,0,0.3c-0.5,0-1,0-1.6,0c-1,0-2.1,0-3.1-0.1c0.2-0.2,0.5-0.3,0.7-0.5c0.4-0.3,0.5-0.7,0.2-1.2
	c-0.2-0.5-0.4-0.9-0.6-1.4c-0.4-0.8-1.3-0.9-2.1-0.7c-1.9,0.6-3.4,1-4.9,1.3c-1.5,0.2-3.1,0.2-5.2,0.3c-1.4,0.1-1.1-0.1-1.6,1.3
	c-0.2-0.2-0.3-0.4-0.5-0.6c-0.6-1.5-2-2.1-3.5-2.4c-2.3-0.5-5.2-0.8-7.4,0.3c-0.5,0.2-0.9,0.5-1.4,0.7c0.2-0.9,0.7-2.5,1.6-2.8
	c0.7-0.2,0.9-0.1,1.5,0.1c0.6,0.2,1.2,0.3,1.8,0.5c0.5,0.1,0.8-0.6,0.2-0.8c-0.6-0.2-1.2-0.4-1.8-0.6C17.9,13,17.5,13,17,13
	c-0.7,0-1.4,0.3-1.8,0.8l-1.3-0.6l-0.6,1.2c-1.3-0.4-2.7-0.7-2.9,0.1c-0.3,1.2-0.3,1.7-0.1,3.1c0.1,0.7,0.2,1,1,0.9
	c0.5-0.1,1.1-0.2,1.6-0.4c-0.4,0.6-0.6,1.1-0.7,1.2l-1.9,3.3c-1-0.5-2-0.8-3.2-0.8c-3.8,0-7,3.1-7,7s3.1,7,7,7c3.8,0,7-3.1,7-7
	c0-2.3-1.1-4.4-2.8-5.6l1.6-2.9c0.1,0,0.3,0,0.4,0c0.2,0,0.3,0,0.4-0.1c0.1,0,0.1-0.1,0.2-0.2c0.2-0.3,0.3,0,0.4,0.2
	c0.9,2.2,1.9,4.3,2.8,6.5c0.5,1.2,1.1,2.2,1.7,3.3c0.8,1.4,1.4,1.5,2.7,2c0.8,0.3,3.8,0.1,5.8,0c1,0,1.6-0.1,2.6-0.3l3.3-0.7
	c0.9,2.8,3.5,4.8,6.6,4.8c3.8,0,7-3.1,7-7c0-0.8-0.1-1.6-0.4-2.4l0.3-0.1c0.2,0.5,0.6,1.2,0.8,1.7c0.1,0.2,0.4,0.3,0.5,0.1
	C47.9,28.2,48,28.1,48,27.9z M12,28.9c0,2.8-2.2,5-5,5s-5-2.2-5-5s2.2-5,5-5c0.8,0,1.5,0.2,2.2,0.5l-1,1.8C7.8,26,7.4,25.9,7,25.9
	c-1.6,0-2.9,1.3-2.9,2.9s1.3,2.9,2.9,2.9s2.9-1.3,2.9-2.9c0-0.8-0.3-1.5-0.8-2l1-1.9C11.2,25.9,12,27.3,12,28.9z M16.9,24.4
	c-0.3-0.7-0.6-1.4-0.9-2c-0.2-0.4-0.1-0.5,0.3-0.5c1.1-0.1,1.2-0.2,1.3,0.1c0.1,0.2,0.3,0.7,0.5,1.3c0.1,0.4,0.3,0.8-0.1,1
	c-0.1,0.1-0.3,0.2-0.4,0.3C17.2,24.8,17,24.6,16.9,24.4z M19.3,27.5c-0.4,0.4-0.7,0.7-0.9,0.4c-0.3-0.5-0.5-1-0.7-1.5
	c-0.6-1.1-0.1-0.8,0.6-1.4c0.2-0.2,0.4,0.1,0.5,0.3c0.2,0.5,0.4,1,0.6,1.5C19.5,27.1,19.5,27.4,19.3,27.5z M24.7,24.9
	c-0.2,0.6-0.1,0.5-0.7,0.7c-0.4,0.1-0.4,0-0.6,0.3s-0.1,0.2-0.4,0.4c-0.2,0.1-0.3-0.2-0.3-0.4c-0.1-0.8-0.2-1.7-0.3-2.5
	c0-0.2,0-0.2,0.1-0.3C22.6,23.1,25.1,23.3,24.7,24.9z M39.6,33.9c-2.2,0-4.1-1.4-4.7-3.4l2-0.7c0.4,1.2,1.5,2,2.8,2
	c1.6,0,2.9-1.3,2.9-2.9c0-0.4-0.1-0.7-0.2-1l2-0.7c0.2,0.5,0.3,1.1,0.3,1.7C44.6,31.7,42.4,33.9,39.6,33.9z"/>
  </svg>
