<svg viewBox="0 0 48 48" xmlns="http://www.w3.org/2000/svg" fill-rule="evenodd" clip-rule="evenodd" stroke-linejoin="round" stroke-miterlimit="1.414">
	<g>
		<path d="M40.7,22.5c-1.2,0-2.3,0.3-3.3,0.8l-0.1-0.1c0.9-0.5,1.9-1,2.9-1.3c0.7-0.2,0.7-0.5,0-0.4c-1.2,0.3-2.5,0.6-3.7,1.1
			l-0.3-0.3c0.1-0.1,0.2-0.2,0.2-0.2c0.5-0.6,0.5-1,0.1-1.6c3-1.3,5.7-3.1,8.7-4.2c1.2-0.4,1.1-0.2,1.5-1.3c0.2-0.4,0.3-0.2,0.5-0.7
			c0.4-1-0.3-1.4-1.2-1.4c-2.1,0.1-4.1,0.3-6.1,0.4c-1.1,0.1-2.1,0.4-2.6,1.4c-0.6,1.3-0.4,1.5-1.7,1.7c-2.3,0.3-4.6,0.7-6.8,1
			c-0.7-0.6-1-0.9-1.6-1.6c-2.5-2.4-6.8-2.2-9.7-1.3c-0.7,0.2-1.3,0.6-2,0.8c-0.1-0.1-0.2-0.3-0.3-0.4c-0.4-0.5-1.1-0.3-1.6-0.2
			c-0.2,0.1-0.4,0.1-0.6,0.2c-0.6,0.2-0.7,0.4-0.7,0.8c0,0.4-0.3,0.6-0.8,0.5c-0.3-0.1-0.7-0.2-1-0.3c-0.7-0.2-0.5-0.3-0.2-0.9
			c0.1-0.2,0.2-0.5,0.3-0.7c0.3-0.5,0.7-0.6,1.2-0.6c1-0.1,1.8-0.2,2.9-0.7c0.3-0.1,0.6-0.6,0.1-0.7c-0.2-0.1-0.4-0.2-0.7-0.3
			c-0.4-0.3-0.7-0.6-1.1-0.9c-0.5-0.4-0.7-0.5-1.3-0.1c-1.3,1-2.4,2-3.3,3c-0.1-0.2-0.2-0.5-0.2-0.7c0.2-0.1,0.2-0.3,0.3-0.4
			c0.2-0.6,0.1-1.2,0.1-1.8C8.5,11,8.2,11,7.8,11.1c-1,0.4-1.9,1.5-1,2.3c0.2,0.2,0.5,0.4,0.8,0.5c0,0.2,0.1,0.4,0.1,0.7
			c0.1,0.4,0.1,0.3-0.1,0.6c-0.9,1.1-1.2,2.2-1.8,3.6c-0.7,1.7-0.5,1.6,1.1,2.4c0.5,0.2,1.4,0.6,1.9,0.6c0.3,0,0.6,0,1,0.1
			c0.4,0,0.4,0.3,0.3,0.5c-0.1,0.2-0.2,0.2-0.6,0.1c-1.4-0.3-3.1-0.6-4.3-0.1c-0.1,0-0.2,0.3,0.1,0.4l0.2,0.1C2.3,23.5,0,26.4,0,29.8
			c0,4,3.3,7.3,7.3,7.3c4.1,0,7.3-3.3,7.3-7.3c0-0.1,0-0.2,0-0.3c0.2,0.7,0.5,1.3,0.6,2c0.3,1.4,1,2.5,3,2.5c4.2,0,9.2,0.3,13.3-0.1
			c0.9-0.1,1.1-0.1,0.9-1c-0.2-0.5-1.2-1.9-1.3-2.3c-0.1-0.5-0.1-0.7,0.5-0.4c0.5,0.2,1.1,0.5,1.6,0.7c0.5,3.5,3.6,6.3,7.3,6.3
			c4.1,0,7.3-3.3,7.3-7.3C48,25.8,44.7,22.5,40.7,22.5z M7.3,34.6c-2.7,0-4.9-2.2-4.9-4.8S4.7,25,7.3,25c0.6,0,1.2,0.1,1.7,0.3
			l-0.5,1.4c-0.4-0.1-0.8-0.2-1.2-0.2C5.5,26.5,4,28,4,29.8c0,1.9,1.5,3.4,3.4,3.4c1.9,0,3.4-1.5,3.4-3.4c0-0.6-0.1-1.1-0.4-1.6
			l1-1.2c0.6,0.8,0.9,1.8,0.9,2.8C12.2,32.5,10,34.6,7.3,34.6z M40.7,34.6c-2.7,0-4.9-2.2-4.9-4.8c0-0.2,0-0.4,0-0.6l2.4,0.6
			c0,1.3,1.1,2.4,2.4,2.4c1.3,0,2.4-1.1,2.4-2.4c0-1.3-1.1-2.4-2.4-2.4c-0.4,0-0.7,0.1-1,0.2l-2.1-1.5c0.8-0.7,1.9-1.1,3.1-1.1
			c2.7,0,4.9,2.2,4.9,4.8S43.3,34.6,40.7,34.6z"/>
	</g>
</svg>
