<svg viewBox="0 0 48 48" xmlns="http://www.w3.org/2000/svg" fill-rule="evenodd" clip-rule="evenodd" stroke-linejoin="round" stroke-miterlimit="1.414">
        <path d="M32.0816787,22.7367655 L45.4163284,36.0740928 C45.9887846,36.6438614 46.3435462,37.6060178 46.2817317,38.4136379 L45.8517176,43.8546594 C45.7697462,44.8907244 44.8935926,45.7655343 43.8575275,45.8448181 L38.4232251,46.2748321 C38.3614106,46.2802073 38.2982522,46.2828949 38.2324063,46.2828949 C37.4651,46.2828949 36.5996968,45.9321647 36.0796485,45.4094289 L22.7442745,32.0740549 C22.5275017,32.2585007 22.3098364,32.441746 22.0912967,32.6237725 C21.2124555,33.3494212 20.0326045,33.7458404 18.764063,33.7458404 C17.4834275,33.7458404 16.2793882,33.3453898 15.3709835,32.6157098 C10.7362384,28.8302424 6.64304226,24.7357025 2.84951214,20.0942384 C1.33102506,18.2088956 1.32699368,15.1961097 2.83338662,13.3712376 C6.01549052,9.55351923 9.56176256,6.00724719 13.3741058,2.83051846 C14.2489156,2.10621356 15.4287666,1.70710678 16.6973081,1.70710678 C17.9779436,1.70710678 19.1833267,2.10890115 20.0930752,2.83992502 C24.7372268,6.63345514 28.830423,10.7266513 32.6132027,15.3600526 C34.1330336,17.2440516 34.1384088,20.2554937 32.6333597,22.0817096 C32.450655,22.3009706 32.2667553,22.5193286 32.0816787,22.7367654 Z M30.4755103,24.5680118 C28.6096854,26.6328083 26.6372135,28.6053297 24.5749803,30.4686902 L37.7970171,43.6934041 C37.8709258,43.7579062 38.1074335,43.8533156 38.2337501,43.8533156 L43.4463266,43.4407708 L43.8602151,38.224163 C43.8629027,38.1220347 43.7701809,37.872089 43.6989598,37.7914614 L30.4755101,24.5680117 Z M20.5405585,30.7532115 C20.1065131,31.1120044 19.4588045,31.3162611 18.764063,31.3162611 C18.0451333,31.3162611 17.3651736,31.0999103 16.9015647,30.7276794 C12.3998552,27.0524031 8.41953777,23.0720856 4.73754254,18.565001 C3.95142312,17.5880628 3.93664139,15.8505373 4.7026039,14.9233196 C7.78795465,11.2211674 11.2294108,7.77971132 14.9248439,4.69973575 C15.3575456,4.34228658 16.0039104,4.13668611 16.6973081,4.13668611 C17.414894,4.13668611 18.0988851,4.35438072 18.5638378,4.72795542 C23.0722662,8.40995064 27.0525837,12.3916119 30.7265161,16.8906338 C31.5126356,17.8648844 31.5274173,19.6024099 30.7627986,20.5309714 C27.676104,24.2344674 24.2359917,27.6745797 20.5405585,30.7532115 Z M18.0303516,6.78530385 C17.375924,6.13356382 16.1947291,6.06234274 15.4637053,6.64286169 C12.2144117,9.23638388 9.24865859,12.2034808 6.64572985,15.4608371 C6.04505399,16.2173931 6.10955609,17.3448361 6.79354718,18.0274834 L9.03499536,20.2689316 C9.3790066,20.6129428 9.8399279,20.8024178 10.3290689,20.8024178 C10.8182098,20.8024178 11.2777873,20.6142866 11.6271738,20.2675878 L20.2744874,11.6202742 C20.9880419,10.9040321 20.9866981,9.74030658 20.2731436,9.02943962 L18.0303516,6.78530385 Z M10.3304127,18.558282 L8.41953777,16.6460633 C10.8585237,13.6144643 13.6280828,10.8449052 16.6516191,8.41398203 L18.5638378,10.3248569 L10.3304127,18.558282 Z M32.8437929,31.3345318 L28.8607878,27.3515267 C28.3662717,27.858137 27.8650366,28.3593722 27.3570825,28.8552321 L29.2464567,30.7432625 L28.0948253,31.8962376 L29.5971869,33.3985992 L30.750162,32.2469678 L33.475376,34.9721818 L32.3237447,36.1238132 L33.8261062,37.6275185 L34.9777376,36.4758872 L37.0861502,38.5816122 L38.5885117,37.0792506 L34.348842,32.8382371 L35.5004734,31.6866058 L33.996768,30.1842442 L32.8437929,31.3345318 Z"></path>
</svg>