<svg viewBox="0 0 48 48" xmlns="http://www.w3.org/2000/svg" fill-rule="evenodd" clip-rule="evenodd" stroke-linejoin="round" stroke-miterlimit="1.414">
	<path d="M33.5,35C33.5,35,33.4,35,33.5,35L33.5,35L33.5,35z"/>
	<path d="M33.5,35L33.5,35L33.5,35c-0.2,0.6-0.4,1.2-0.6,1.7l0.9,0.9l1.2-1.2l2.1,2.1l1.5-1.5l-4.2-4.2l1.2-1.2L34,30.2l0,0
		c0,0.3,0,0.5,0,0.8C34,32.4,33.8,33.7,33.5,35z"/>
	<path d="M20.3,9L18,6.8c-0.7-0.7-1.8-0.7-2.6-0.1c-3.2,2.6-6.2,5.6-8.8,8.8C6,16.2,6.1,17.3,6.8,18l2,2c1.8-1.7,4.1-3,6.7-3.6
		l4.8-4.8C21,10.9,21,9.7,20.3,9z M10.3,18.6l-1.9-1.9c2.4-3,5.2-5.8,8.2-8.2l1.9,1.9L10.3,18.6z"/>
	<path d="M45.4,36.1L32.1,22.7c0.2-0.2,0.4-0.4,0.6-0.7c1.5-1.8,1.5-4.8,0-6.7c-3.8-4.6-7.9-8.7-12.5-12.5c-0.9-0.7-2.1-1.1-3.4-1.1
		c-1.3,0-2.4,0.4-3.3,1.1C9.6,6,6,9.6,2.8,13.4c-1.5,1.8-1.5,4.8,0,6.7c1,1.2,2,2.4,3.1,3.6c0.4-0.7,0.9-1.4,1.4-2.1
		c-0.9-1-1.7-2-2.6-3c-0.8-1-0.8-2.7,0-3.6c3.1-3.7,6.5-7.1,10.2-10.2c0.4-0.4,1.1-0.6,1.8-0.6c0.7,0,1.4,0.2,1.9,0.6
		c4.5,3.7,8.5,7.7,12.2,12.2c0.8,1,0.8,2.7,0,3.6c-0.2,0.2-0.3,0.4-0.5,0.6c1.6,1.9,2.8,4.1,3.4,6.6l10.1,10.1
		c0.1,0.1,0.2,0.3,0.2,0.4l-0.4,5.2l-5.2,0.4c-0.1,0-0.4-0.1-0.4-0.2l-5.6-5.6c-0.4,0.7-0.9,1.4-1.4,2.1l5.2,5.2
		c0.5,0.5,1.4,0.9,2.2,0.9c0.1,0,0.1,0,0.2,0l5.4-0.4c1-0.1,1.9-1,2-2l0.4-5.4C46.3,37.6,46,36.6,45.4,36.1z"/>
	<path d="M32,30.5c-0.1-2.1-0.7-4.1-1.6-5.8c-0.4-0.7-0.9-1.4-1.4-2.1C26.6,19.8,23,18,19,18c-4.2,0-7.9,2-10.3,5.1
		c-0.5,0.7-1,1.4-1.3,2.1C6.5,26.9,6,28.9,6,31c0,7.2,5.8,13,13,13c4.3,0,8.1-2.1,10.4-5.3c0.5-0.7,0.9-1.4,1.3-2.1
		c0.5-1,0.9-2.2,1.1-3.3c0.1-0.7,0.2-1.5,0.2-2.3C32,30.8,32,30.6,32,30.5z M24.3,36.2c-0.5,0.5-0.9,0.8-1.4,0.3L20,33.6l-0.8-0.8
		l-0.9,0.9l-2.8,2.8c-0.5,0.5-0.9,0.1-1.4-0.3c-0.5-0.4-0.8-0.9-0.3-1.4l2-2l1.8-1.8l0,0l-3.7-3.7c-0.5-0.5-0.1-0.9,0.3-1.4
		c0.4-0.4,0.9-0.8,1.4-0.3l3.7,3.7l3.7-3.7c0.5-0.5,0.9-0.1,1.4,0.3c0.3,0.3,0.6,0.6,0.6,0.9c0,0.1-0.1,0.3-0.2,0.5l-3.7,3.7l1.4,1.4
		l2.3,2.3C25.1,35.3,24.8,35.7,24.3,36.2z"/>
</svg>