<svg viewBox="0 0 48 48" xmlns="http://www.w3.org/2000/svg" fill-rule="evenodd" clip-rule="evenodd" stroke-linejoin="round" stroke-miterlimit="1.414">
        <path d="M6.85381789,23.1009234 L10.85493,23.1009234 C11.2350313,23.1009234 11.5408599,22.794221 11.5408599,22.4149935 L11.5408599,16.3753153 L11.5461027,11.4829312 L13.682534,10.3286466 L13.8896237,18.9503922 C13.8896237,20.1020554 14.8883726,21.2598352 16.3030484,21.2598352 L16.3047959,27.0618409 L14.5554563,27.0618409 C12.1752358,27.0618409 10.2389038,28.998173 10.2389038,31.3775196 L10.2389038,38.5379009 C10.2118161,39.4492702 9.46646808,40.1832589 8.54985602,40.1832589 C7.61489425,40.1832589 6.85381789,39.4230563 6.85381789,38.4872207 L6.85381789,23.1009234 Z M16.6450624,2.86342965 L40.7207716,2.86342965 C41.1651792,2.86342965 41.5290438,3.24315529 41.5290438,3.71035698 L40.9661907,18.5484841 C40.9661907,19.0176739 40.6051688,19.3964055 40.1598136,19.3964055 L17.2088631,19.3964055 C16.7606652,19.3964055 16.4015384,19.0176739 16.4015384,18.5484841 L15.8386853,3.71035698 C15.8386853,3.24315529 16.2006548,2.86342965 16.6450624,2.86342965 Z M19.1098916,21.8634296 L38.0988384,21.8634296 C38.5086488,21.8634296 38.8441865,22.1972197 38.8441865,22.6079039 L38.8424389,44.151337 C38.8424389,44.5637688 38.5095226,44.896685 38.0988384,44.896685 L19.1098916,44.896685 C18.6965861,44.896685 18.3654174,44.5637688 18.3654174,44.151337 L18.3662912,22.6079039 C18.3662912,22.1972197 18.7000813,21.8634296 19.1098916,21.8634296 Z M12.8594181,38.5448913 C12.8600007,38.5291629 12.8602919,36.1400391 12.8602919,31.3775196 C12.8602919,30.4434316 13.6213683,29.6832291 14.5554563,29.6832291 L16.3056697,29.6832291 L16.3056697,44.896685 L14.0686392,44.896685 L14.0686392,47 C17.0665522,47 18.632141,47 18.7654056,47 L38.4022242,47 C38.6309362,47 40.1588621,47 42.9860021,47 L42.9860021,44.896685 L40.8628339,44.896685 L40.8628339,21.2598352 C42.2775097,21.2598352 43.27888,20.1020554 43.27888,18.9503922 L43.6511171,3.35138517 C43.6511171,2.05379803 42.5981928,1 41.3006057,1 L15.8670241,1 C14.569437,1 13.515639,2.05379803 13.515639,3.35138517 L13.6117565,7.38744911 L9.61239202,9.54747294 C9.18860093,9.77640751 8.92471453,10.2185483 8.92471453,10.7008837 L8.92471453,12.7709066 L4.6859299,12.7709066 C4.30670241,12.7709066 4,13.0784828 4,13.4568365 L4,22.4149935 C4,22.618588 4.09262238,22.7959686 4.23242975,22.9217953 L4.23242975,38.4872207 C4.23242975,40.868315 6.16876179,42.804647 8.54985602,42.804647 C10.9099791,42.804647 12.8279615,40.898024 12.8594181,38.5448913 Z"></path>
</svg>