<svg viewBox="0 0 48 48" xmlns="http://www.w3.org/2000/svg" fill-rule="evenodd" clip-rule="evenodd" stroke-linejoin="round" stroke-miterlimit="1.414">
        <path d="M8.9958069,28.3430966 C9.02855295,28.4516435 9.04726497,28.5669455 9.04726497,28.6864402 C9.04726497,29.321882 8.53034523,29.8368974 7.89179732,29.8368974 C7.2532494,29.8368974 6.73632966,29.321882 6.73632966,28.6864402 C6.73632966,28.1483644 7.10823119,27.696474 7.60877791,27.570923 L8.87885673,24.7813147 C8.56309128,24.7021174 8.23329181,24.6604223 7.89179732,24.6604223 C5.65804911,24.6604223 3.84999952,26.4630926 3.84999952,28.6864402 C3.84999952,30.9102537 5.65804911,32.7129239 7.89179732,32.7129239 C10.1255455,32.7129239 11.9359341,30.9102537 11.9359341,28.6864402 C11.9359341,27.36501 11.2950472,26.1919583 10.3079878,25.4579857 L8.9958069,28.3430966 Z M40.1700436,27.535983 C40.8085915,27.535983 41.3255113,28.0512313 41.3255113,28.6864402 C41.3255113,29.321882 40.8085915,29.8368974 40.1700436,29.8368974 C39.8121761,29.8368974 39.4917326,29.6747759 39.2812223,29.4201799 L36.1352628,28.9375422 C36.266247,31.0444232 38.0228385,32.7129239 40.1700436,32.7129239 C42.4037918,32.7129239 44.2141804,30.9102537 44.2141804,28.6864402 C44.2141804,26.4630926 42.4037918,24.6604223 40.1700436,24.6604223 C38.3994181,24.6604223 36.8930999,25.7955059 36.3457731,27.3750261 L39.3864775,27.8413585 C39.5923098,27.6519837 39.8683122,27.535983 40.1700436,27.535983 Z M10.1091725,21.1834281 L11.4517604,18.2328629 C9.5548287,17.5121675 3.44067393,18.5340456 6.50242933,16.837127 C7.74911811,16.14648 8.69641447,15.6629106 12.7452293,15.8425022 C12.9650956,15.4318409 13.1802839,14.9592194 13.4024892,14.4695937 C12.7756363,14.7323424 11.9827142,15.1264654 11.5921006,14.412991 C11.2038261,13.7060386 10.5933462,11.7349577 11.1172829,11.2655972 C11.844713,10.6133842 14.1556483,11.3357101 14.8503323,11.817649 C15.2292508,11.2271632 15.346201,11.175685 15.8561037,10.8775305 C17.5308301,9.89804626 20.6112976,9.01755867 20.6206536,9.01522934 C21.0463522,8.91809618 21.3363886,9.30103841 21.4346267,9.72474394 C21.6544931,10.6858264 21.2287944,10.6883887 17.6431023,12.3822791 C16.2841414,13.0200503 15.2760309,14.5459958 14.672568,15.8727835 C15.306438,15.8846631 15.9613589,15.9305509 16.6349919,16.0165033 C17.2361157,14.3521954 19.0979624,13.4123098 20.6955017,13.4123098 C21.8837154,13.4123098 23.011115,13.6345281 24.2344138,14.6862216 C25.4553735,15.7381481 28.2247535,18.1061472 29.5112053,18.204678 C30.7976572,18.3032088 39.6086828,13.9778717 40.4016049,13.9121845 C42.551149,13.7337577 44.5252679,16.268537 45.0679166,18.4247999 C38.6122674,18.7217898 33.7097163,20.3977443 31.37773,26.5194624 L32.5682827,26.7435442 C32.9261502,25.3813507 33.6442242,24.1638087 34.6125716,23.1980675 C36.0323467,21.7848617 37.9924315,20.9106633 40.1583486,20.9106633 C42.3242657,20.9106633 44.2843505,21.7848617 45.7017865,23.1980675 C47.1215616,24.6115064 48.0010268,26.5637197 48.0010268,28.7202155 C48.0010268,30.8767113 47.1215616,32.8291576 45.7017865,34.2423635 C44.2843505,35.6558023 42.3242657,36.5300007 40.1583486,36.5300007 C37.9924315,36.5300007 36.0323467,35.6558023 34.6125716,34.2423635 C33.1927966,32.8291576 32.3156703,30.8767113 32.3156703,28.7202155 C32.3156703,28.5865118 32.3180093,28.453274 32.3250264,28.320968 L30.7836231,28.0519301 C22.9596569,34.6357877 17.0794025,24.6634505 13.4399133,18.9607793 L12.0411893,22.0650803 C12.530041,22.3734839 12.9814686,22.7342975 13.3884552,23.1391354 C14.8058912,24.5525743 15.6853565,26.5047876 15.6853565,28.6612834 C15.6853565,30.8177792 14.8058912,32.7702255 13.3884552,34.1834314 C11.9686802,35.5968702 10.0085954,36.4710686 7.84267825,36.4710686 C5.67676114,36.4710686 3.71667633,35.5968702 2.29690129,34.1834314 C0.879465261,32.7702255 0,30.8177792 0,28.6612834 C0,26.5047876 0.879465261,24.5525743 2.29690129,23.1391354 C3.71667633,21.7261625 5.67676114,20.8517312 7.84267825,20.8517312 C8.63092238,20.8517312 9.39109847,20.9677319 10.1091725,21.1834281 Z"></path>
</svg>