<svg viewBox="0 0 48 48" xmlns="http://www.w3.org/2000/svg" fill-rule="evenodd" clip-rule="evenodd" stroke-linejoin="round" stroke-miterlimit="1.414">
        <path d="M11.2212146,19.9973287 C11.2212146,19.9973287 19.2202124,20.0079292 19.6968178,19.9973287 C19.6968178,19.9973287 19.6913813,16.8774896 19.6968178,15.0147245 C19.6968178,15.0147245 15.5396586,15.0147245 14.8383419,15.0147245 C13.6930391,15.0147245 8.02813943,20.2232291 11.2212146,19.9973287 Z M37.0775127,25.9944745 C39.1705898,25.9944745 40.8667978,27.7059082 40.8667978,29.817237 C40.8667978,31.9283829 39.1705898,33.6399994 37.0775127,33.6399994 C34.9844356,33.6399994 33.2864155,31.9283829 33.2864155,29.817237 C33.2864155,27.7059082 34.9844356,25.9944745 37.0775127,25.9944745 Z M37.0775127,28.1381531 C37.996292,28.1381531 38.7411013,28.8898753 38.7411013,29.817237 C38.7411013,30.7444159 37.996292,31.4963208 37.0775127,31.4963208 C36.1569212,31.4963208 35.412112,30.7444159 35.412112,29.817237 C35.412112,28.8898753 36.1569212,28.1381531 37.0775127,28.1381531 Z M7.49354398,25.9944745 C9.58662109,25.9944745 11.282829,27.7059082 11.282829,29.817237 C11.282829,31.9283829 9.58662109,33.6399994 7.49354398,33.6399994 C5.39865467,33.6399994 3.70244672,31.9283829 3.70244672,29.817237 C3.70244672,27.7059082 5.39865467,25.9944745 7.49354398,25.9944745 Z M7.49354398,28.1381531 C8.41232328,28.1381531 9.15713254,28.8898753 9.15713254,29.817237 C9.15713254,30.7444159 8.41232328,31.4963208 7.49354398,31.4963208 C6.57295248,31.4963208 5.82814322,30.7444159 5.82814322,29.817237 C5.82814322,28.8898753 6.57295248,28.1381531 7.49354398,28.1381531 Z M11.8083636,31.1594806 L32.760881,31.1594806 C32.6322156,30.7350947 32.5615403,30.2843904 32.5615403,29.817237 C32.5615403,28.5597974 33.0671407,27.4213394 33.8844375,26.5972413 C34.7017343,25.7731433 35.8307274,25.263405 37.0775127,25.263405 C38.3242981,25.263405 39.4532912,25.7731433 40.2687758,26.5972413 C41.0860725,27.4213394 41.591673,28.5597974 41.591673,29.817237 C41.591673,30.0422236 41.5753633,30.2635549 41.5445561,30.4797687 C42.7768439,30.4183589 44.7702507,30.2918838 45.776015,30.0800565 C46.7364746,29.8773674 47.8473459,28.9514679 47.9723869,27.9438714 C48.0593719,27.2394859 48.0376256,26.4014975 47.3725526,25.9895398 C47.4232939,22.7947661 46.0496554,14 43.4074853,14 C36.8854208,14 20.9055472,14 15.2986376,14 C12.496995,14 8.58085676,19.1242489 7.33588362,19.5924989 C6.29387553,19.9841694 3.77130987,20.2254223 2.0787263,21.3114261 C0.982352569,22.0139839 0.358959904,22.4645055 0.358959904,25.9895398 C-0.304300896,26.9452304 0.0291416922,28.187683 0.728646252,29.1872378 C1.37740955,30.1138684 2.33968136,30.8321442 3.11167344,30.919507 C3.02468842,30.5665832 2.97757153,30.1972103 2.97757153,29.817237 C2.97757153,28.5597974 3.48317198,27.4213394 4.30046876,26.5972413 C5.11776554,25.7731433 6.24675865,25.263405 7.49354398,25.263405 C8.7403293,25.263405 9.86932242,25.7731433 10.684807,26.5972413 C11.5021038,27.4213394 12.0077042,28.5597974 12.0077042,29.817237 C12.0077042,30.2843904 11.9388411,30.7350947 11.8083636,31.1594806 Z"></path>
</svg>