<svg viewBox="0 0 48 48" xmlns="http://www.w3.org/2000/svg" fill-rule="evenodd" clip-rule="evenodd" stroke-linejoin="round" stroke-miterlimit="1.414">
        <path d="M7.0899313,27.4172411 C7.97672971,27.4172411 8.69574599,28.1485126 8.69574599,29.0504674 C8.69574599,29.9527778 7.97672971,30.6840492 7.0899313,30.6840492 C6.2031329,30.6840492 5.48429139,29.9527778 5.48429139,29.0504674 C5.48429139,28.1485126 6.2031329,27.4172411 7.0899313,27.4172411 Z M7.0899313,25.331704 C9.10890946,25.331704 10.7454842,26.9969334 10.7454842,29.0504674 C10.7454842,31.104357 9.10890946,32.7692308 7.0899313,32.7692308 C5.07112792,32.7692308 3.43455318,31.104357 3.43455318,29.0504674 C3.43455318,26.9969334 5.07112792,25.331704 7.0899313,25.331704 Z M37.4132285,27.4172411 C38.2998521,27.4172411 39.0186936,28.1485126 39.0186936,29.0504674 C39.0186936,29.9527778 38.2998521,30.6840492 37.4132285,30.6840492 C36.52643,30.6840492 35.8075885,29.9527778 35.8075885,29.0504674 C35.8075885,28.1485126 36.52643,27.4172411 37.4132285,27.4172411 Z M37.4132285,25.331704 C39.4320318,25.331704 41.0687813,26.9969334 41.0687813,29.0504674 C41.0687813,31.104357 39.4320318,32.7692308 37.4132285,32.7692308 C35.3942503,32.7692308 33.7576756,31.104357 33.7576756,29.0504674 C33.7576756,26.9969334 35.3942503,25.331704 37.4132285,25.331704 Z M18.200603,21.8933236 C18.200603,21.8933236 24.4926072,21.9377724 24.9512116,21.9265713 L26.9775303,21.9320829 C26.9775303,21.9320829 33.0615545,21.754999 34.0558384,21.7320634 C36.3076142,21.680325 35.4237869,20.0357199 42.9323863,20.7083189 C44.424948,20.8420209 45.9526392,21.0082593 46.4605296,21.0861336 C47.0068701,21.1696973 47.4077995,21.5318661 47.0696137,22.105611 C47.3536199,22.4834257 47.2770693,24.072381 47.2770693,24.072381 C47.648462,24.2279517 47.8887749,24.5502943 47.9543148,25.0614554 C48.0198547,25.5724387 48.0198547,26.4281667 47.9216322,27.2282449 C47.8010388,28.2082518 46.7298549,29.1091398 45.8025091,29.3063146 C44.8328683,29.5123792 42.9101901,29.6355912 41.7219082,29.6951526 C41.7521439,29.4848209 41.7678735,29.269511 41.7678735,29.0504674 C41.7678735,27.8274146 41.2804315,26.7199286 40.4923799,25.9182502 C39.7041535,25.1165719 38.615667,24.6205234 37.4132285,24.6205234 C36.2107899,24.6205234 35.1221287,25.1165719 34.334077,25.9182502 C33.5460254,26.7199286 33.0585834,27.8274146 33.0585834,29.0504674 C33.0585834,29.5050896 33.125871,29.9435324 33.2508337,30.3563728 L11.252326,30.3563728 C11.3772887,29.9435324 11.4445764,29.5050896 11.4445764,29.0504674 C11.4445764,27.8274146 10.9571344,26.7199286 10.1690827,25.9182502 C9.38103108,25.1165719 8.29254459,24.6205234 7.0899313,24.6205234 C5.88766756,24.6205234 4.7990063,25.1165719 4.01095466,25.9182502 C3.22272825,26.7199286 2.73546102,27.8274146 2.73546102,29.0504674 C2.73546102,29.4204591 2.78002815,29.7796053 2.8639192,30.1231055 C2.18370253,30.0822127 1.52742977,30.0311854 1.18190347,29.9718019 C0.275355714,29.8162311 0.286191643,29.1607004 0.297202344,28.5384174 C0.308038273,27.9161343 0.237080418,27.4549337 0.149693899,26.7882019 C0.0623073788,26.1214701 -0.855251079,24.3435186 3.18637546,23.0989525 C7.228002,21.8543865 12.6896595,21.709839 13.2031427,21.7210401 C13.7164511,21.7320634 14.0387326,21.7599772 14.4538186,21.459859 C14.8689045,21.1599186 17.6304933,19.3821449 20.1012598,18.2707474 C21.5282817,17.6287291 22.556821,18.284971 21.4449149,18.6318494 C19.8364786,19.1334095 18.3367512,20.1207059 17.5888973,20.6375565 C16.8412183,21.154407 17.1654223,21.9711979 18.200603,21.8933236 Z"></path>
</svg>