<svg viewBox="0 0 48 48" xmlns="http://www.w3.org/2000/svg" fill-rule="evenodd" clip-rule="evenodd" stroke-linejoin="round" stroke-miterlimit="1.414">
  <path class="st0" d="M42.3,28.2c-0.8-0.8-2-1.4-3.2-1.4c-1.3,0-2.4,0.5-3.2,1.4c-0.8,0.8-1.3,2-1.3,3.3c0,1.3,0.5,2.4,1.3,3.3
  	c0.8,0.8,2,1.4,3.2,1.4c1.3,0,2.4-0.5,3.2-1.4l0,0c0.8-0.8,1.3-2,1.3-3.3C43.6,30.2,43.1,29.1,42.3,28.2L42.3,28.2z"/>
  <path class="st0" d="M38.2,18.6L38.2,18.6c0.2-0.2,0.4-0.5,0.4-0.9c0-2.3,0-4.6,0-6.8c0-0.7-0.5-1.3-1.2-1.2c-2.2,0-4.4,0-6.6,0
  	c-1,0-5,6.3-5.3,7c-0.4,1.1-0.4,2.3,0.9,2.3c2.8,0,8.1,0,11,0C37.7,19,38,18.9,38.2,18.6z"/>
  <path d="M5.9,28.6c-3.3,0-5.9,2.7-5.9,6c0,3.3,2.6,6,5.9,6c3.3,0,5.9-2.7,5.9-6C11.8,31.3,9.2,28.6,5.9,28.6z M5.9,37.2
  	c-1.4,0-2.6-1.2-2.6-2.6c0-1.5,1.2-2.6,2.6-2.6c1.4,0,2.6,1.2,2.6,2.6C8.5,36.1,7.3,37.2,5.9,37.2z"/>
  <path d="M45.4,25.1c-1.6-1.6-3.9-2.7-6.3-2.7c-2.5,0-4.7,1-6.3,2.7c-1.6,1.6-2.6,3.9-2.6,6.4c0,2.5,1,4.8,2.6,6.4
  	c1.6,1.6,3.9,2.7,6.3,2.7c2.5,0,4.7-1,6.3-2.7C47,36.3,48,34,48,31.5C48,29,47,26.7,45.4,25.1z M42.3,34.8L42.3,34.8
  	c-0.8,0.8-2,1.4-3.2,1.4c-1.3,0-2.4-0.5-3.2-1.4c-0.8-0.8-1.3-2-1.3-3.3c0-1.3,0.5-2.4,1.3-3.3c0.8-0.8,2-1.4,3.2-1.4
  	c1.3,0,2.4,0.5,3.2,1.4h0c0.8,0.8,1.3,2,1.3,3.3C43.6,32.8,43.1,33.9,42.3,34.8z"/>
  <path d="M28.6,31.5c0-3,1.2-5.6,3-7.6c1.9-1.9,4.5-3.1,7.4-3.1c0.9,0,1.8,0.1,2.7,0.3c1.4,0.4,2,1.2,2,0c0-0.5-0.2-1-0.4-1.3
  	c-0.3-0.4-0.6-0.7-1.1-0.8c-0.1,0-0.2-0.1-0.3-0.1c0-0.1,0-0.2,0-0.3c0-3.2,0-6.3,0-9.5c0-0.6-0.2-1.2-0.6-1.6C41,7.2,40.5,7,39.9,7
  	c-3.4,0-6.8,0-10.1,0c-3.2,0-7.3,11.5-13.4,11.9c-1.2,0-1.4,0.1-2.6,0.1c-0.1,0-0.2,0-0.4,0h-0.8v-2.1c0-1.1,1.4-2.4,1.4-2.4
  	c0.3-0.3-0.1-0.8-0.4-1.1c-0.3-0.3-0.7-0.4-1.1-0.1c0,0-1.9,1.7-1.9,3.5V19h-0.1c-1.4,0-2.7,0-4.1,0c-2.7,0.2-4.4,6.8-3.8,9
  	c1-0.5,2-0.7,3.2-0.7c2,0,3.8,0.8,5.1,2.2c1.1,1.1,1.9,2.6,2.1,4.3c0.1,0,0.2,0,0.2,0c3.2,0,10.2,0,13.4,0
  	C29.2,33.7,28.5,33.5,28.6,31.5z M26.4,19c-1.3,0-1.3-1.2-0.9-2.3c0.3-0.7,4.3-7,5.3-7c2.2,0,4.4,0,6.6,0c0.7,0,1.2,0.5,1.2,1.2
  	c0,2.3,0,4.6,0,6.8c0,0.3-0.1,0.6-0.4,0.9v0C38,18.9,37.7,19,37.4,19C34.5,19,29.2,19,26.4,19z"/>
  </svg>
