<svg viewBox="0 0 48 48" xmlns="http://www.w3.org/2000/svg" fill-rule="evenodd" clip-rule="evenodd" stroke-linejoin="round" stroke-miterlimit="1.414">
        <path d="M33.9339462,21.6494423 C33.7250631,22.1109518 33.5475214,22.6208614 33.1610965,23.5584544 L31.4991133,23.5584544 C31.4992914,22.2207065 31.5028529,20.8631669 31.5058802,19.5092257 L33.9339462,21.6494423 Z M36.098994,23.5584544 L34.4086968,23.5584544 C34.6604962,23.2873063 34.9101588,23.009501 35.1599994,22.7302562 L36.098994,23.5584544 Z M45.8169566,11.5354569 C42.2988875,14.4198463 38.1639631,17.5712456 34.6882761,20.4371027 L31.5094417,17.4147102 L31.510154,16.6329329 L45.8169566,11.5354569 Z M16.6425902,23.5584544 C16.6425902,23.5584544 22.8748935,23.566731 24.6239558,23.5611533 C25.1556907,23.5597139 25.0589954,23.2254118 25.0502697,22.6757387 C25.0376263,21.851319 25.0151887,20.4574343 25.0468862,19.0991749 C25.0579269,18.6227316 25.1432253,18.1128221 24.676132,18.1693187 C23.1056799,18.3584207 21.3489604,18.6335271 19.7487696,19.416384 C16.3060266,21.1006688 13.7684438,23.7898389 16.6425902,23.5584544 Z M36.6284139,27.7433471 C38.6855477,27.7433471 40.3530512,29.4285315 40.3530512,31.5066738 C40.3530512,33.5851759 38.6855477,35.2700005 36.6284139,35.2700005 C34.5714583,35.2700005 32.9037767,33.5851759 32.9037767,31.5066738 C32.9037767,29.4285315 34.5714583,27.7433471 36.6284139,27.7433471 Z M36.6284139,29.853876 C37.5319715,29.853876 38.264398,30.5939105 38.264398,31.5066738 C38.264398,32.4197969 37.5319715,33.1598314 36.6284139,33.1598314 C35.7248564,33.1598314 34.9924299,32.4197969 34.9924299,31.5066738 C34.9924299,30.5939105 35.7248564,29.853876 36.6284139,29.853876 Z M7.55750971,27.7433471 C9.61464347,27.7433471 11.282147,29.4285315 11.282147,31.5066738 C11.282147,33.5851759 9.61464347,35.2700005 7.55750971,35.2700005 C5.50055403,35.2700005 3.83287245,33.5851759 3.83287245,31.5066738 C3.83287245,29.4285315 5.50055403,27.7433471 7.55750971,27.7433471 Z M7.55750971,29.853876 C8.46106725,29.853876 9.19349377,30.5939105 9.19349377,31.5066738 C9.19349377,32.4197969 8.46106725,33.1598314 7.55750971,33.1598314 C6.65395217,33.1598314 5.92152565,32.4197969 5.92152565,31.5066738 C5.92152565,30.5939105 6.65395217,29.853876 7.55750971,29.853876 Z M11.7985673,32.8282283 L32.3875344,32.8282283 C32.260032,32.4104407 32.1914727,31.9667439 32.1914727,31.5066738 C32.1914727,30.2689646 32.6881267,29.1482072 33.4912493,28.3369221 C34.2940159,27.5256369 35.4034292,27.0236441 36.6284139,27.0236441 C37.8537548,27.0236441 38.962812,27.5256369 39.7659347,28.3369221 C40.5687012,29.1482072 41.0653551,30.2689646 41.0653551,31.5066738 C41.0653551,31.7283423 41.0493283,31.9462323 41.0186992,32.1590845 C42.2294378,32.0988094 44.1884517,31.9741208 45.1762392,31.7655869 C46.1211104,31.5660493 47.2127161,30.6543656 47.3355886,29.6626149 C47.4354892,28.8529491 47.4354892,27.9869665 47.3687107,27.46986 C47.3019322,26.9525735 47.0570777,26.6263681 46.6786663,26.4689331 C46.6786663,26.4689331 46.6925562,25.4185266 46.6248873,24.5694571 C46.5297947,23.3733108 46.1964365,23.5584544 45.1790884,23.5584544 L37.9709288,23.5584544 L36.0548312,21.7365264 C36.1746763,21.6059003 36.2948776,21.4767136 36.4157912,21.349686 C39.8024403,18.1090436 43.1949658,14.8741588 46.5762726,11.6277588 L46.5810806,15.1057232 C46.5752041,15.1078823 46.5700399,15.1100415 46.5648757,15.1122006 C46.2083676,15.1870497 45.9708142,15.4123167 45.832093,15.7370826 C45.6935499,16.0620285 45.9015427,16.6368912 45.9807865,17.0867056 C46.0602084,17.53634 46.3825259,17.8055089 46.4733447,17.8395149 C46.4980972,17.8486911 46.5223156,17.8567877 46.5459997,17.8639848 C46.5545473,17.9359551 46.5666565,18.0027075 46.5825052,18.0581246 C46.6562287,18.3146987 46.7972649,18.5392461 46.9764093,18.7502989 C47.0841453,18.8775064 47.1090759,19.0435779 47.1090759,19.2067705 C47.1090759,19.5067067 46.8681391,19.7933284 46.5531227,19.7933284 C46.2471882,19.7933284 45.9074192,19.537654 45.9074192,19.2173862 C45.9075973,18.9122321 46.0778379,18.6088773 45.9168572,18.5158557 C45.4267921,18.2337322 44.6425455,20.6996144 46.6576533,20.6999742 C47.7704501,20.7001541 48.2423515,19.5516882 47.8812134,18.762354 C47.6808779,18.3242348 47.43264,18.1700384 47.1915251,17.9742792 C47.1516361,17.9417127 47.1174455,17.8956517 47.0885972,17.8405944 L47.0919806,17.8395149 C47.1831555,17.8055089 47.5056511,17.53634 47.5848949,17.0867056 C47.6641388,16.6368912 47.8717753,16.0620285 47.7334103,15.7370826 C47.5950453,15.4123167 47.3571358,15.1870497 47.0006276,15.1122006 C46.9726697,15.0997857 46.9349176,15.0907894 46.8925355,15.0852117 L46.8339485,11.3506731 C46.8535369,11.2905779 46.818634,11.2434374 46.7705535,11.1955771 C46.7285275,11.1536544 46.6806251,11.1187489 46.63575,11.0802447 C46.5324659,10.9879428 46.4818923,10.9845243 46.4268668,11.0235681 L44.0657574,11.8312548 L43.9843766,11.8589633 L31.4357183,16.1519914 C31.3539814,15.9985147 31.2084933,15.925285 31.0200889,15.925285 C30.748345,15.925285 30.5323388,15.925285 30.2217743,15.925285 C29.7133674,15.925285 29.6278909,16.160268 29.6278909,16.6316734 C29.6278909,18.9111526 29.6173844,21.2757366 29.6170283,23.5584544 L29.6043849,23.5584544 C28.4308641,23.5584544 27.8904035,23.5582745 27.8896912,22.6926517 C27.889157,21.439469 27.8864859,20.5493764 27.8834586,19.3248018 C27.8793628,17.5590106 28.0353574,16.9803695 26.103411,17.0609762 L26.0303999,17.0642149 L25.9848124,15.8337028 L25.9846344,15.8337028 C25.9803605,15.7016373 25.8635427,15.5951212 25.7191231,15.5940417 L24.3685948,15.5803673 C24.2480374,15.5697517 24.1308634,15.6363242 24.0899059,15.7469786 L23.5335965,17.2398224 C21.6260466,17.4352217 20.0018156,17.7698836 18.9002375,18.3037233 C16.4187487,19.506167 13.3686633,22.0371823 12.9457328,22.340717 C11.4782086,23.3943621 -0.536756021,22.1516151 0.01866297,26.3609776 C0.107700961,27.0355192 0.402594789,28.6269624 0.391554078,29.2567024 C0.380335291,29.8864425 0.543809044,30.95862 1.11489872,31.4044759 C1.6859884,31.8506918 2.55856072,32.5507828 3.25163244,32.5921657 C3.16615597,32.2445492 3.12056852,31.8810992 3.12056852,31.5066738 C3.12056852,30.2689646 3.61722243,29.1482072 4.42034512,28.3369221 C5.22311165,27.5256369 6.33252502,27.0236441 7.55750971,27.0236441 C8.78267247,27.0236441 9.89190777,27.5256369 10.6948524,28.3369221 C11.497797,29.1482072 11.9944509,30.2689646 11.9944509,31.5066738 C11.9944509,31.9667439 11.9258916,32.4104407 11.7985673,32.8282283 Z"></path>
</svg>